<svg xmlns="http://www.w3.org/2000/svg" viewBox="0 0 608 390"><defs><style>.a{fill:#fff;}.b{fill:#afcdfb;}.c{fill:#739af0;}.d{fill:#96bcff;}.e{fill:#ed7d2b;}.f{fill:#f99746;}.g{fill:#c85c12;}.h{fill:#ffb27d;}.i{fill:#144ef4;}.j{fill:#233862;}.k{fill:#1d2942;}.l{fill:#ed975d;}.m{fill:#4066bb;}.n{fill:#2c3a64;}.o{fill:#a4c8fc;}.p{fill:#d2e3fc;}.q{fill:#618dd8;}.r{fill:#a3c7fb;}.s{fill:#6ca3ea;}.t{fill:#97c0f8;}</style></defs><rect class="a" width="608" height="390"/><path class="b" d="M602.18,367c-9-6.58-27.43-2.14-41,2.61a61.75,61.75,0,0,0-7.47-8.66c29.29-18.84,69.74-59,48.3-62.43-18.64-3-43.79,33.22-57.23,55.24-14-9.38-35.35-16.28-68-13.89-84.75,6.21-151-48.39-199.76-30.18-38.8,14.48-74.36,22.59-108.66,19.82,1.48-25,1.8-74.16-17.88-79.25-20-5.18-.38,50.62,10.51,78.48-2.56-.33-5.1-.72-7.65-1.17-7.05-13.89-18.67-32.06-31.43-32.68-12-.58,2.82,15.75,17.41,29.59C97.34,315.68,47.59,349.73,46.76,390H570.37a48.51,48.51,0,0,0-5-13.62C585.57,376,612,374.14,602.18,367Z"/><rect class="c" x="36.29" y="363.45" width="117.71" height="26.55"/><rect class="d" y="363.45" width="117.71" height="26.55"/><rect class="e" x="200.31" y="267.63" width="87.65" height="122.36" transform="translate(488.27 657.62) rotate(180)"/><rect class="f" x="173.29" y="267.63" width="87.65" height="122.36" transform="translate(434.22 657.62) rotate(180)"/><polygon class="g" points="260.93 267.63 287.96 286 287.96 267.63 260.93 267.63"/><path class="h" d="M339.14,94.88c-1.36-.21-5.44,3.56-5.44,3.56h0c-8.72,1-21.47,3.32-26.05,4.21-3.26.62-12-2.36-20.55-5.78-10.16-4.07-20-8.76-20-8.76-5.64-.29-12,10-.61,16.52,1.75,1,8.31,2.7,15.86,4.25h0c10.42,2.15,22.73,4,26.92,3.36,4.87-.76,18.65-5.8,26.85-9.65h0l.09,0a10,10,0,0,1,3.83-1c1.54.09,5-2.72,5.06-3.46S340.49,95.08,339.14,94.88Z"/><path class="i" d="M328.49,224.34l-4.8,1s-22-24.65-25.35-35c-1.82-5.55-13.42-7.94-25.54-11.07-10.55-2.73-21.49-6-26.72-12.41-11.23-13.76,7.06-30.67,7.06-30.67s19.45,11.54,36.22,23.47c11.73,8.34,22.15,16.86,23.72,21.75C316.9,193.27,325,215.91,328.49,224.34Z"/><path class="j" d="M322.07,232.47h2.7c.9-.14,1.57-.4,2.5-.52a2.47,2.47,0,0,1,2.18.52l0,0H341c.29-.41,0-1.37-.26-2.07a1.63,1.63,0,0,0-1.07-1,12.27,12.27,0,0,1-5.81-2.65c-1.24-1.11-6-4.1-6-4.1h0c-.1,0-.59.16-2.75,2-1.11.94-3-1.32-3-1.32a2.66,2.66,0,0,0-.63.84,2.91,2.91,0,0,0-.24,1.76,11.45,11.45,0,0,1-.82,4.25c-.27.79-.5,1.34-.5,1.34S319.74,232.18,322.07,232.47Z"/><path class="i" d="M274.31,149.37s-1.33,4.2-3.5,10.53c-2.75,8-6.85,19.39-11.29,29.95-1,2.32-2,4.61-3,6.8-3.7,8.13-7.48,15.1-10.8,18.64-6,6.36-20.52,47.29-20.52,47.29l-3.62-1s-5.05-34.95,12.84-54.83a1.26,1.26,0,0,0,.36-.74h0c.24-2.95,1.09-16.13,2.94-29.48.46-3.28,1-6.57,1.55-9.71,0-.2.08-.4.11-.6,2.73-14.56,5.33-21,8.7-24.29l24.73,7Z"/><path class="j" d="M221.21,267.6h2.7c.91-.14,1.57-.4,2.5-.52a2.51,2.51,0,0,1,2.19.52l0,0h11.47c.29-.41,0-1.36-.26-2.07a1.66,1.66,0,0,0-1.07-1,12.31,12.31,0,0,1-5.81-2.65c-1.24-1.11-6-4.1-6-4.1h0c-.11,0-.6.15-2.75,2-1.11.94-3-1.32-3-1.32a2.71,2.71,0,0,0-.62.84,2.91,2.91,0,0,0-.25,1.76,11.42,11.42,0,0,1-.82,4.25c-.27.79-.49,1.34-.49,1.34S218.89,267.31,221.21,267.6Z"/><path class="h" d="M226.52,101.85s-4.14,10.11-8.91,20c-4,8.28-8.48,16.36-11.3,18.09-4,2.43-15,9.29-22.1,14.41,0,0-5.56,0-6.42,1s-2.86,5.84-2.28,6.33,5,.25,6.08-.85a10.05,10.05,0,0,1,3.54-1.8l.09,0h0c8.65-2.66,22.24-8.2,26.35-10.91,3.54-2.34,11.38-12,17.64-20.58h0c4.54-6.22,8.25-11.89,8.86-13.81C242.16,101.13,230.49,97.84,226.52,101.85Z"/><path class="k" d="M248.16,62.19a21.17,21.17,0,0,0-1.48-1.91,4.68,4.68,0,0,0,1.83-.28c1.45-.6,2.11-5.2,1.89-6.57s-2.23-5.32-4.72-5.71-5.06,2.37-5.06,2.37c.46-2,4.67-3.15,4.67-3.15-8.67,1.6-8.23,7.38-8.17,7.91C229.18,52,224.52,67,224.52,67l20.56,12.1s.06-3.3,2-3.08C250.16,76.31,252.7,68.8,248.16,62.19Z"/><path class="h" d="M249.47,93.52c-4.72,2.22-11-1-10.94-1,.4-.41.26-1.62-.11-3.2a23.17,23.17,0,0,0-2.87-6.59c-.33-.58-.67-1.15-1.08-1.76l.54-.2,9.17-3.67s1.48,2.66,3,5.09c1.32,2,2.7,3.83,3.31,3.77C250.55,85.91,256.62,90.09,249.47,93.52Z"/><path class="l" d="M244.18,78c-.24,3.27-1.35,9.16-5.76,11.31a23.17,23.17,0,0,0-2.87-6.59Z"/><path class="h" d="M235,86.43s11.93-4.7,8.89-12.08-3.56-12.95-11.3-10.26-8.06,6.11-7.65,8.82S231.83,87.46,235,86.43Z"/><path class="k" d="M239.47,72.67c5.51-.77,7.12-3,7.12-3a15.23,15.23,0,0,1-8.06-6.42s-6.19-2.08-10.78,1.4a3.09,3.09,0,0,0-.58,1.3c-1.06-.35-2.64-.26-3.55,2.71-1.37,4.46,3.51,9.33,3.51,9.33,1.18-.33-.16-4.31-.34-6.43A10,10,0,0,1,228,67.05c.58.76,6.4,8.06,13.49,8.35a30,30,0,0,1-7.16-3.84A9.18,9.18,0,0,0,239.47,72.67Z"/><path class="d" d="M272.19,108.72l-.32-1.1a28.07,28.07,0,0,0,3-9,18.09,18.09,0,0,0-.57-8.82S266,85.4,262.38,84.84h-.05l-.15,0c-3.69-.5-11.67,1.12-11.67,1.12s1.54,4.1-2.81,6.83-9-.7-9-.7l-.44.31h0s-11.44,7.54-12.47,9.26-5.42,10.25-5.42,10.25,1.39,7.16,16.84,7.76a35.86,35.86,0,0,1,2.56,8.58c1.23,9.72-.2,17.39,1.23,23.06s27.22,2.44,31.89,1.35,3.61-6.07,4-10.91C277.32,135.64,273.71,114.08,272.19,108.72Z"/><path class="m" d="M274.88,98.6a28.11,28.11,0,0,1-3,9.06c-.41-1.79-2.06-8.32-4.72-11.28A23,23,0,0,1,274.88,98.6Z"/><path class="l" d="M169.91,162.3s4.8-5.81,5.83-6.5,5.58-1.89,5.83-1.65.28.6-.29,1.09-2.7,1.75-2.4,1.89,6.78-3.08,7.71-2-.52,5.55-3,7.69-9.94,3.06-10.41,3.35C169.19,168.72,169.91,162.3,169.91,162.3Z"/><path class="h" d="M85.34,148.88s6.9,8.18,15.69,4.76c0,0,1.89-4.57,1.92-7.94,0-.41,0-.81,0-1.19.05-3.8.18-5.92.18-5.92h0c-.4-.17-13.44-5.52-13.42-5.07C89.93,143.77,85.34,148.88,85.34,148.88Z"/><path class="l" d="M91,136c1.26,2.33,5.57,6.88,11.95,8.55.05-3.8.18-5.92.18-5.92h0C102.77,138.49,90.64,135.28,91,136Z"/><path class="h" d="M105.87,138.19s-14.66,3.45-16.67-5.7S84,117.62,93.23,115s11.86.51,13.27,3.4S109.63,137.06,105.87,138.19Z"/><path class="k" d="M89.7,135c-.2.13-3.35,1.09-9.32-10.79a10.32,10.32,0,0,1,.61-9.47c2.18-3.56,9.93-6.37,16.37-7.59s8,2.4,9.5,6c1.59,3.82,6.19,7,6.19,7-5.55,3.1-12.24-1.33-14.56-.61s-3.13,4.38-3.31,5.55-.44,2.14-3.35,1.1-1.32,4.12-.85,5.11C91,131.28,91.38,133.91,89.7,135Z"/><path class="n" d="M52,363.45H43.07c-1.86,0-3.93-1.88-4.44-5.34s-4.35-5.33-5.17-8.16,3.41-6.8,3.41-6.8l.71-.93.74-1,7,1.68s.17,1.69.28,3.85c.07,1.56.11,3.36,0,4.94-.21,3.77,1,7.82,4.35,8.56S52,363.45,52,363.45Z"/><path class="n" d="M113.73,363.54H90.21a2.36,2.36,0,0,1-.5-.15c-1.57-.81-1.08-7-.89-8.91,0-.35.06-.56.06-.56s8.27-6.8,9.41-1.59l.12.48h0c1.44,4.88,7.86,7.09,11.56,7.71C112.81,361,113.54,362.69,113.73,363.54Z"/><path class="f" d="M109,227.65s-1.26,15.66-2.73,34.48c-2,25.56-4.42,57-4.66,62.92-.41,10.33-2.07,26.85-2.07,26.85s-3.93,3.93-11.79,2.27a270.25,270.25,0,0,1-9-48.55c0-.4-.07-.82-.1-1.23-1.86-25.4-4.75-78.91-4.75-78.91Z"/><path class="e" d="M109,227.65s-1.26,15.66-2.73,34.48L78.74,305.62c0-.4-.07-.82-.1-1.23-1.86-25.4-4.75-78.91-4.75-78.91Z"/><path class="f" d="M103.25,229.51s-22.64,56.7-37.53,83.35-19.55,34.08-19.55,34.08-8.53-3.41-9.3-5.73c0,0,5.69-51.44,15.66-64,5.64-7.09,12.26-28.35,12.57-35.79s2-22.15,2-22.15Z"/><path class="l" d="M51.4,220.07s-.58,7.08-1,8.17-3.29,4.46-3.63,4.41-.53-.32-.36-1,1.16-2.81.84-2.75-3.59,6-4.89,5.69S39.77,230,40.54,227s6.05-7.71,6.25-8.19C48.5,214.72,51.4,220.07,51.4,220.07Z"/><path class="i" d="M49,221.87c2.51.8,2.91.62,2.91.62s12.2-22.19,13.44-24.22,25.9-24.87,25.9-24.87l-6.34-23.61s-28,36.28-31.08,41.49c-5,8.6-7.94,28.59-7.94,28.59A7.44,7.44,0,0,0,49,221.87Z"/><path class="i" d="M113.77,182.66c-.09,4.85-.37,10.3-.75,15.84,0,.33,0,.66-.07,1-.24,3.43-.51,6.87-.81,10.22-.12,1.35-.25,2.68-.38,4l0,.18c0,.49-.07,1-.12,1.5-1.24,12.55-2.53,22.47-2.77,22.63a1.43,1.43,0,0,1-1,.24c-3.3-.41-13.13.33-21.18-1.42-6.8-1.43-12.65-4.14-18.85-7.8-.82-.49-2.7-1.77-2.54-2.73s.42-2.59.77-4.51a242.23,242.23,0,0,0,4.05-31.61c.14-2.5.35-5,.61-7.41A111.94,111.94,0,0,1,74,165.05c2.76-9.93,6.81-17.53,11.9-20.5.67-.38,4.25,1.9,7.53,4a14.49,14.49,0,0,0,9.34,2.2l2.74,3c3.31,3.84,6.84,9,7.8,16.24.07.54.13,1.11.18,1.72A104,104,0,0,1,113.77,182.66Z"/><path class="i" d="M172.76,162.89c-1-2.63-2.48-2.46-2.48-2.46s-28,7-30.5,7.27-30.15-10.78-30.15-10.78-10.88-4.87-16-.42c-4.42,3.87-4.63,8.77-3.59,12.89a12.32,12.32,0,0,0,10.41,9.16C111.75,180,134.24,182.69,139,182c10.49-1.46,34.27-15.17,34.27-15.17A8.69,8.69,0,0,0,172.76,162.89Z"/><path class="n" d="M448.83,214.14s3.89,3.6,3.13,6.16-4.27,4.26-4.74,7.39-2.38,4.83-4.08,4.83H435s-1.25-2.2,1.78-2.86,4.18-4.34,4-7.75a60.51,60.51,0,0,1,.29-8l6.45-1.52Z"/><path class="n" d="M400.35,232.1a15.43,15.43,0,0,1-3.68.42H378.26c.06-.55.49-2.49,3.5-3,3.4-.55,9.29-2.53,10.6-6.87.05-.14.08-.28.12-.43,1-4.64,8.63,1.42,8.63,1.42s0,.19.05.51C401.34,225.87,401.79,231.38,400.35,232.1Z"/><path class="i" d="M382.66,107.91s1.15,14.36,2.51,31.63c1.84,23.46,4.05,52.27,4.27,57.72.38,9.48,1.9,24.64,1.9,24.64s3.6,3.6,10.81,2.08a247.77,247.77,0,0,0,8.27-44.53c0-.38.05-.76.08-1.14,1.71-23.31,4.36-72.39,4.36-72.39Z"/><path class="i" d="M387.92,109.62s20.78,52,34.44,76.46,17.93,31.27,17.93,31.27,7.83-3.12,8.54-5.26c0,0-5.23-47.19-14.37-58.7-5.17-6.5-11.25-26-11.53-32.83s-1.85-20.32-1.85-20.32Z"/><path class="h" d="M323.84,81.4a64.17,64.17,0,0,0-6.58-1.22A13.61,13.61,0,0,0,313,81.9c-.05.27.11.49.68.53s2.46-.21,2.34,0-5.55,1.3-5.61,2.39,2.92,3.12,5.43,3.26,7.46-2.79,7.89-2.82C327.28,85,323.84,81.4,323.84,81.4Z"/><path class="o" d="M321.43,82.83c-.81-2.57-.62-3-.62-3s22.84-12.34,24.93-13.59,25.7-26.34,25.7-26.34l24.18,6.65S358.2,75,352.84,78.1C344,83.17,323.46,86,323.46,86A7.5,7.5,0,0,1,321.43,82.83Z"/><path class="h" d="M378.77,27.72S370.29,42.62,362,44.56c0,0,.34-5,2.36-8.43-.83-1-1.55-1.86-2.18-2.66a48.69,48.69,0,0,1-3.08-4.31l2.81-7.55,1.91-5.12a25,25,0,0,0,3,4.29A20.27,20.27,0,0,0,378.77,27.72Z"/><path class="l" d="M366.81,20.78s1,7.47-4.62,12.69a48.69,48.69,0,0,1-3.08-4.31l2.81-7.55A16.36,16.36,0,0,1,366.81,20.78Z"/><path class="h" d="M356.88,30.26s12.66-4.93,9.47-12.76S362.63,3.76,354.41,6.58s-8.56,6.44-8.13,9.31S353.5,31.35,356.88,30.26Z"/><path class="p" d="M422.31,104.17c-5.11,7.33-43.31,17.14-42.86,12.06a54.76,54.76,0,0,0,0-10c-.09-1.09-.23-2.24-.4-3.46a79.76,79.76,0,0,0-8.42-25.18c-.38-.75-.79-1.5-1.2-2.26a77.53,77.53,0,0,1-5.3-11.88c-2.65-7.64-3.71-15-2.38-19.73a.19.19,0,0,0,0-.07c8-3.69,11.08-18,11.08-18s27.25,4.89,42.51,41.16C415.35,66.8,426.75,97.78,422.31,104.17Z"/><path class="o" d="M379.44,106.21c-.09-1.09-.23-2.24-.4-3.46a79.76,79.76,0,0,0-8.42-25.18c.88-5.35,2.1-9.79,3.44-11.79,5.43-8.14,8.6-9.41,8.6-9.41S390.81,90.69,379.44,106.21Z"/><path class="h" d="M336.5,98.05s-7.54.39-8.7.81-4.84,3.35-4.8,3.7.32.57,1.05.41,3-1.13,2.95-.8-6.51,3.61-6.2,5,4.78,2.88,8,2.16,8.37-6.16,8.89-6.36C342.09,101.29,336.5,98.05,336.5,98.05Z"/><path class="p" d="M335.08,100.9c-1.51-2.44-.42-3.55-.42-3.55s23.28-18.2,25.1-20S370,46.18,370,46.18,373,34.33,379.76,33c5.92-1.13,10,1.79,12.69,5.22a12.59,12.59,0,0,1,.86,14.18c-5.94,10-17.94,29.87-21.44,33.26-7.79,7.55-33.87,18.1-33.87,18.1A9.12,9.12,0,0,1,335.08,100.9Z"/><path class="k" d="M368.17,3c.08-.18.34-.37,1-.56a2.61,2.61,0,0,0-1.27,0C367.51,1.49,366.65,0,365,0a2,2,0,0,1,1.28,1.17C364.08-.24,360-.64,349.68,2.78c-13.55,4.5-6.78,12.36-4.73,13s5.84-3.41,9.24-4,5.23,4.17,6.53,4.57.56-.69,1.92-1.77,2.13,1.46,2.1,3.24,2.62,3.47,2.62,3.47l1.55-2.84c1.56-2.84,1.13-13.17-.35-15Z"/><polygon class="q" points="154 363.15 154 378.47 117.71 363.15 154 363.15"/><rect class="c" x="344.59" y="232.52" width="120.03" height="157.47"/><rect class="d" x="307.58" y="232.52" width="120.04" height="157.47"/><polygon class="q" points="464.62 232.52 464.62 256.07 427.61 232.52 464.62 232.52"/><path class="r" d="M508.38,324.81s-10.83-12.62-.67-20.64c0,0,7.43-4.49,13.48-4.12,0,0-8.58,14.37-5.8,15.79s8.4-16.7,8.4-16.7,16.9-1.63,22.34,1c0,0-14.45,11.81-11.41,12.51s18.65-10.89,18.65-10.89,15.73,2.68,14.89,12.26-6.26,12.54-8.64,12.28-16.32-5.56-16.62-3.61,8.08,8.32,14,8.61c0,0-11.09,12.22-18.46,8.69s-8-9.11-12.59-11.21-8.52-2.09-6.62.05,10.21,4.22,12.84,8.86,5,7.77-2.64,6.62-20-6.72-20.56-13.1Z"/><path class="s" d="M560.53,314.26s-42.72-1.65-52.15,10.55a30.84,30.84,0,0,1-8.5,11.93l-1,2.72s7.4-7.79,10.05-8.27C508.93,331.19,504.78,316.08,560.53,314.26Z"/><path class="s" d="M499.88,336.74s-9.17,6.77-9.81,18.87l1.66.15s2.93-12.51,8.23-17.41S499.88,336.74,499.88,336.74Z"/><path class="o" d="M470.5,308.94s17.24-9.64,9.2-22.72c0,0-6.44-8-13.33-10.1,0,0,3.67,19.51,0,20s-2.53-22-2.53-22-18.15-8.72-25.28-8c0,0,11.26,19.05,7.59,18.59s-16.32-19.74-16.32-19.74-18.61-3.44-21.6,7.58,1.84,16.52,4.6,17.21,20.45.46,20,2.75-12.41,6-19.07,3.91c0,0,7.35,18.13,17,17.21s12.64-6.89,18.61-7.35,10.34,1.15,7.36,2.76-13.1.52-17.93,4.62-8.73,6.62.23,8.46,25.05.69,28.27-6.2Z"/><path class="d" d="M416.74,275.89S465,291.5,470.5,308.94a36.54,36.54,0,0,0,4.6,16.75v3.44s-5.06-11.7-7.81-13.31C467.29,315.82,478.09,300.68,416.74,275.89Z"/><path class="s" d="M475.1,325.69s7.44,11.29,3.2,25l-1.92-.52s1.86-15.13-2-22.74S475.1,325.69,475.1,325.69Z"/><path class="p" d="M497.92,295.64s-22.72-12.7-12.11-29.95c0,0,8.48-10.59,17.56-13.31,0,0-4.84,25.72,0,26.32s3.33-29,3.33-29,23.93-11.5,33.32-10.59c0,0-14.84,25.11-10,24.51s21.5-26,21.5-26,24.54-4.54,28.48,10-2.43,21.78-6.06,22.69-27,.61-26.35,3.63S564,281.73,572.74,279c0,0-9.7,23.91-22.42,22.69s-16.66-9.07-24.53-9.68-13.63,1.52-9.7,3.63,17.27.7,23.63,6.1,11.51,8.73-.3,11.15-33,.91-37.26-8.17Z"/><path class="d" d="M568.8,252.08s-63.61,20.57-70.88,43.56c0,0,.3,10.29-6.06,22.09v4.54s6.67-15.43,10.3-17.55C502.16,304.72,487.93,284.75,568.8,252.08Z"/><path class="t" d="M491.86,317.73s-9.81,14.88-4.21,33l2.52-.68s-2.45-20,2.68-30S491.86,317.73,491.86,317.73Z"/><path class="f" d="M497.16,390a44.47,44.47,0,0,0,44.49-44.44h-89A44.47,44.47,0,0,0,497.16,390Z"/><path class="h" d="M508.11,389.65a43.91,43.91,0,0,1-5.53.34,44.47,44.47,0,0,1-44.5-44.44h11.05A44.48,44.48,0,0,0,508.11,389.65Z"/><rect class="e" x="451.19" y="345.55" width="91.47" height="1.36"/></svg>