<svg xmlns="http://www.w3.org/2000/svg" viewBox="0 0 608 390"><defs><style>.a{fill:#fff;}.b{isolation:isolate;}.c{fill:#c0d8fb;}.d{fill:#afcdfb;}.e{fill:#d2e3fc;}.f{fill:#dceaff;}.g{fill:#77a4e5;}.h{fill:#f9ddbf;}.i{fill:#f99746;}.j{fill:#e5c1a1;}.k{fill:#ffb93e;}.l{fill:#ffa412;}.m{fill:#e2810e;}.n{fill:#144ef4;}.o{fill:#d87225;}.p{fill:#ffb27d;}.q{fill:#1d2942;}.r{fill:#ed975d;}.s{fill:#ffeddc;}.t{fill:#db6a1d;}.u{fill:#ebf3fa;}.v{fill:#88add8;}.w{fill:#98b9ea;}.x{fill:#699ff0;}.y{fill:#e8945b;}.z{fill:#f1a34f;}.aa{fill:#d86713;}.ab{fill:#d9935c;}.ac{fill:#466aa5;}.ad{fill:#ef7e29;}.ae{fill:#ed7d2b;}</style></defs><rect class="a" width="608" height="390"/><rect class="a" y="0.17" width="608" height="389.66"/><g class="b"><rect class="c" x="19.59" y="377.22" width="274.61" height="3.97"/><rect class="d" x="16.78" y="381.19" width="280.24" height="3.97"/><rect class="c" x="12.91" y="385.16" width="287.97" height="3.97"/><rect class="e" x="25.99" y="225.38" width="256.82" height="151.84"/><polygon class="f" points="300.25 228.27 10.76 228.27 158.14 153.51 300.25 228.27"/><polygon class="d" points="54.7 218.29 256.31 217.87 158.04 166.73 54.7 218.29"/><rect class="c" x="18.32" y="228.27" width="275.79" height="6.4"/><rect class="f" x="38.8" y="228.27" width="27.17" height="9.62"/><rect class="f" x="44.89" y="237.9" width="14.98" height="139.32"/><rect class="f" x="97.49" y="228.27" width="27.17" height="9.62"/><rect class="f" x="103.59" y="237.9" width="14.97" height="139.32"/><rect class="f" x="189.77" y="228.27" width="27.17" height="9.62"/><rect class="f" x="195.87" y="237.9" width="14.98" height="139.32"/><rect class="f" x="245.04" y="228.27" width="27.17" height="9.62"/><rect class="f" x="251.14" y="237.9" width="14.98" height="139.32"/><path class="f" d="M161.32,199.16a3.54,3.54,0,0,0-.17-1.21,2.69,2.69,0,0,0-.62-.95,4.81,4.81,0,0,0-1.12-.8,12.53,12.53,0,0,0-1.68-.73,33.62,33.62,0,0,1-3.11-1.3,10.57,10.57,0,0,1-2.38-1.57,6.06,6.06,0,0,1-1.52-2,6.91,6.91,0,0,1,0-5.29,5.81,5.81,0,0,1,1.43-2,7.32,7.32,0,0,1,2.21-1.35,9.6,9.6,0,0,1,2.86-.63l.05-3.49,2.81,0-.05,3.54a8.65,8.65,0,0,1,2.72.84,6.46,6.46,0,0,1,2.07,1.6,6.68,6.68,0,0,1,1.29,2.29,8.84,8.84,0,0,1,.43,3l-5.07-.08a4.34,4.34,0,0,0-.83-2.94,3,3,0,0,0-2.32-1,3.75,3.75,0,0,0-1.36.2,2.6,2.6,0,0,0-.95.59,2.68,2.68,0,0,0-.56.9,3.7,3.7,0,0,0-.18,1.12,3.19,3.19,0,0,0,.15,1.1,2.37,2.37,0,0,0,.6.91,4.56,4.56,0,0,0,1.13.8,16.13,16.13,0,0,0,1.75.78c1.13.44,2.16.89,3.08,1.35a10.75,10.75,0,0,1,2.37,1.58,6.06,6.06,0,0,1,1.52,2,6.93,6.93,0,0,1,0,5.32,5.57,5.57,0,0,1-1.44,1.95A7.16,7.16,0,0,1,162.2,205a10.66,10.66,0,0,1-2.88.61l0,3.25-2.79,0,.05-3.22a12.14,12.14,0,0,1-2.81-.68,7.37,7.37,0,0,1-2.39-1.45,6.51,6.51,0,0,1-1.65-2.35,8,8,0,0,1-.59-3.36l5.07.07a5,5,0,0,0,.3,1.94,3.1,3.1,0,0,0,2.08,1.92,5.58,5.58,0,0,0,1.4.21,4.66,4.66,0,0,0,1.46-.19,3.2,3.2,0,0,0,1-.57,2.49,2.49,0,0,0,.64-.88A2.91,2.91,0,0,0,161.32,199.16Z"/><path class="c" d="M173,377.22H135.7V338.17A19.2,19.2,0,0,1,154.89,319,18.08,18.08,0,0,1,173,337.06Z"/><path class="c" d="M142.05,289.06H124.46V270.63a9.06,9.06,0,0,1,9.06-9.06,8.53,8.53,0,0,1,8.53,8.54Z"/><path class="c" d="M90.52,289.06H72.93V270.63A9.06,9.06,0,0,1,82,261.57a8.53,8.53,0,0,1,8.53,8.54Z"/><path class="c" d="M90.52,348.09H72.93V329.66A9.06,9.06,0,0,1,82,320.6a8.53,8.53,0,0,1,8.53,8.54Z"/><path class="c" d="M239.79,289.06h-17.6V270.63a9.06,9.06,0,0,1,9.06-9.06,8.54,8.54,0,0,1,8.54,8.54Z"/><path class="c" d="M239.79,348.09h-17.6V329.66a9.06,9.06,0,0,1,9.06-9.06,8.54,8.54,0,0,1,8.54,8.54Z"/><path class="c" d="M186.54,289.06H169V270.63a9.06,9.06,0,0,1,9.06-9.06,8.53,8.53,0,0,1,8.53,8.54Z"/><path class="d" d="M460.89,383.5v4.22a1.58,1.58,0,0,1-.28.91,1.63,1.63,0,0,1-.76.61l-.3.08a1.37,1.37,0,0,1-.29,0H392.17a1.62,1.62,0,0,1-1.62-1.53v-4.39a1.62,1.62,0,0,1,1.62-1.54h67.09a1.36,1.36,0,0,1,.29,0,1.47,1.47,0,0,1,.3.08,1.63,1.63,0,0,1,.76.61A1.55,1.55,0,0,1,460.89,383.5Z"/><path class="g" d="M423.53,381.88H392a1.54,1.54,0,0,0-1.45,1.54v4.38a1.54,1.54,0,0,0,1.45,1.54h35.94A13.34,13.34,0,0,1,423.53,381.88Z"/><rect class="g" x="451.96" y="381.88" width="0.76" height="7.46"/><rect class="g" x="449.38" y="381.88" width="0.76" height="7.46"/><rect class="g" x="446.29" y="381.88" width="0.76" height="7.46"/><rect class="g" x="441.54" y="381.88" width="0.76" height="7.46"/><rect class="g" x="436.52" y="381.88" width="0.76" height="7.46"/><rect class="g" x="428.83" y="381.88" width="0.76" height="7.46"/><rect class="g" x="454.42" y="381.88" width="0.76" height="7.46"/><rect class="g" x="456.04" y="381.88" width="0.76" height="7.46"/><rect class="g" x="457.61" y="381.88" width="0.76" height="7.46"/><path class="g" d="M458.79,381.88v7.46h.48a1.43,1.43,0,0,0,.29,0V381.9a1.43,1.43,0,0,0-.29,0h-.48Z"/><path class="g" d="M459.85,382v7.24a1.61,1.61,0,0,0,.76-.6v-6A1.57,1.57,0,0,0,459.85,382Z"/><path class="d" d="M457.84,376v4.21a1.63,1.63,0,0,1-1,1.52l-.29.08a1.36,1.36,0,0,1-.29,0H389.12a1.62,1.62,0,0,1-1.62-1.54s0-.06,0-.08V376a.19.19,0,0,1,0-.08,1.62,1.62,0,0,1,1.62-1.54h67.09l.29,0a1.38,1.38,0,0,1,.29.08,1.68,1.68,0,0,1,.77.62A1.6,1.6,0,0,1,457.84,376Z"/><path class="g" d="M420.47,374.41H388.94A1.53,1.53,0,0,0,387.5,376s0,.06,0,.09v4.21a.28.28,0,0,0,0,.09,1.53,1.53,0,0,0,1.44,1.54h35.95A13.42,13.42,0,0,1,420.47,374.41Z"/><rect class="g" x="448.91" y="374.41" width="0.76" height="7.46"/><rect class="g" x="446.33" y="374.41" width="0.76" height="7.46"/><rect class="g" x="443.23" y="374.41" width="0.76" height="7.46"/><rect class="g" x="438.49" y="374.41" width="0.76" height="7.46"/><rect class="g" x="433.47" y="374.41" width="0.76" height="7.46"/><rect class="g" x="425.78" y="374.41" width="0.76" height="7.46"/><rect class="g" x="451.37" y="374.41" width="0.76" height="7.46"/><rect class="g" x="452.99" y="374.41" width="0.76" height="7.46"/><rect class="g" x="454.56" y="374.41" width="0.76" height="7.46"/><path class="g" d="M455.74,374.41v7.47h.47a1.36,1.36,0,0,0,.29,0v-7.41a1.36,1.36,0,0,0-.29,0Z"/><path class="g" d="M456.8,374.52v7.25a1.68,1.68,0,0,0,.76-.61v-6A1.68,1.68,0,0,0,456.8,374.52Z"/><path class="d" d="M461.33,368.54v4.21a1.58,1.58,0,0,1-.28.91,1.63,1.63,0,0,1-.76.61,1.67,1.67,0,0,1-.3.08,1.43,1.43,0,0,1-.29,0H392.61a1.62,1.62,0,0,1-1.62-1.54s0-.06,0-.08v-4.22a.22.22,0,0,1,0-.08,1.62,1.62,0,0,1,1.62-1.54H459.7a1.43,1.43,0,0,1,.29,0,1.11,1.11,0,0,1,.3.08,1.57,1.57,0,0,1,.76.61A1.53,1.53,0,0,1,461.33,368.54Z"/><path class="g" d="M424,366.91H392.44a1.55,1.55,0,0,0-1.45,1.54v4.39a1.55,1.55,0,0,0,1.45,1.54h35.94A13.4,13.4,0,0,1,424,366.91Z"/><rect class="g" x="452.4" y="366.91" width="0.76" height="7.46"/><rect class="g" x="449.82" y="366.91" width="0.76" height="7.46"/><rect class="g" x="446.73" y="366.91" width="0.76" height="7.46"/><rect class="g" x="441.98" y="366.91" width="0.76" height="7.46"/><rect class="g" x="436.97" y="366.91" width="0.76" height="7.46"/><rect class="g" x="429.28" y="366.91" width="0.76" height="7.46"/><rect class="g" x="454.86" y="366.91" width="0.76" height="7.46"/><rect class="g" x="456.48" y="366.91" width="0.76" height="7.46"/><rect class="g" x="458.05" y="366.91" width="0.76" height="7.46"/><path class="g" d="M459.23,366.91v7.47h.48l.29,0v-7.41l-.29,0Z"/><path class="g" d="M460.29,367v7.24a1.63,1.63,0,0,0,.76-.61v-6A1.55,1.55,0,0,0,460.29,367Z"/><path class="d" d="M457.84,361.08v4.21a1.65,1.65,0,0,1-.28.9,1.68,1.68,0,0,1-.77.62,1.38,1.38,0,0,1-.29.08l-.29,0H389.12a1.62,1.62,0,0,1-1.62-1.54s0-.05,0-.08v-4.21a.19.19,0,0,1,0-.08,1.63,1.63,0,0,1,1.62-1.55h67.09a1.36,1.36,0,0,1,.29,0l.29.08a1.63,1.63,0,0,1,1,1.52Z"/><path class="g" d="M420.47,359.45H388.94A1.52,1.52,0,0,0,387.5,361s0,.05,0,.08v4.21a.28.28,0,0,0,0,.09,1.53,1.53,0,0,0,1.44,1.54h35.95A13.37,13.37,0,0,1,420.47,359.45Z"/><rect class="g" x="448.91" y="359.45" width="0.76" height="7.46"/><rect class="g" x="446.33" y="359.45" width="0.76" height="7.46"/><rect class="g" x="443.23" y="359.45" width="0.76" height="7.46"/><rect class="g" x="438.49" y="359.45" width="0.76" height="7.46"/><rect class="g" x="433.47" y="359.45" width="0.76" height="7.46"/><rect class="g" x="425.78" y="359.45" width="0.76" height="7.46"/><rect class="g" x="451.37" y="359.45" width="0.76" height="7.46"/><rect class="g" x="452.99" y="359.45" width="0.76" height="7.46"/><rect class="g" x="454.56" y="359.45" width="0.76" height="7.46"/><path class="g" d="M455.74,359.45v7.46h.47l.29,0v-7.42a1.37,1.37,0,0,0-.29,0Z"/><path class="g" d="M456.8,359.56v7.25a1.71,1.71,0,0,0,.76-.62v-6A1.66,1.66,0,0,0,456.8,359.56Z"/><path class="d" d="M457.84,353.58v4.21a1.68,1.68,0,0,1-.28.91,1.66,1.66,0,0,1-.77.61l-.29.08a1.37,1.37,0,0,1-.29,0H389.12a1.62,1.62,0,0,1-1.62-1.54s0-.05,0-.08v-4.21a.28.28,0,0,1,0-.09,1.62,1.62,0,0,1,1.62-1.54h67.09a1.36,1.36,0,0,1,.29,0l.29.08a1.66,1.66,0,0,1,.77.61A1.63,1.63,0,0,1,457.84,353.58Z"/><path class="g" d="M420.47,352H388.94a1.52,1.52,0,0,0-1.44,1.54s0,.05,0,.08v4.21a.28.28,0,0,0,0,.09,1.53,1.53,0,0,0,1.44,1.54h35.95A13.37,13.37,0,0,1,420.47,352Z"/><rect class="g" x="448.91" y="351.95" width="0.76" height="7.46"/><rect class="g" x="446.33" y="351.95" width="0.76" height="7.46"/><rect class="g" x="443.23" y="351.95" width="0.76" height="7.46"/><rect class="g" x="438.49" y="351.95" width="0.76" height="7.46"/><rect class="g" x="433.47" y="351.95" width="0.76" height="7.46"/><rect class="g" x="425.78" y="351.95" width="0.76" height="7.46"/><rect class="g" x="451.37" y="351.95" width="0.76" height="7.46"/><rect class="g" x="452.99" y="351.95" width="0.76" height="7.46"/><rect class="g" x="454.56" y="351.95" width="0.76" height="7.46"/><path class="g" d="M455.74,352v7.46h.47a1.37,1.37,0,0,0,.29,0V352a1.37,1.37,0,0,0-.29,0Z"/><path class="g" d="M456.8,352.06v7.24a1.6,1.6,0,0,0,.76-.6v-6A1.66,1.66,0,0,0,456.8,352.06Z"/><path class="d" d="M453.75,346.07v4.22a1.61,1.61,0,0,1-1,1.51,1.32,1.32,0,0,1-.3.09l-.28,0H385a1.63,1.63,0,0,1-1.63-1.54V346a1.64,1.64,0,0,1,1.63-1.54h67.09a1.27,1.27,0,0,1,.28,0l.3.08a1.63,1.63,0,0,1,.76.61A1.55,1.55,0,0,1,453.75,346.07Z"/><path class="g" d="M416.39,344.45H384.86a1.54,1.54,0,0,0-1.45,1.54v4.38a1.55,1.55,0,0,0,1.45,1.54H420.8A13.4,13.4,0,0,1,416.39,344.45Z"/><rect class="g" x="444.82" y="344.45" width="0.76" height="7.46"/><rect class="g" x="442.24" y="344.45" width="0.76" height="7.46"/><rect class="g" x="439.15" y="344.45" width="0.76" height="7.46"/><rect class="g" x="434.4" y="344.45" width="0.76" height="7.46"/><rect class="g" x="429.39" y="344.45" width="0.76" height="7.46"/><rect class="g" x="421.69" y="344.45" width="0.76" height="7.46"/><rect class="g" x="447.28" y="344.45" width="0.76" height="7.46"/><rect class="g" x="448.9" y="344.45" width="0.76" height="7.46"/><rect class="g" x="450.47" y="344.45" width="0.76" height="7.46"/><path class="g" d="M451.65,344.45v7.46h.48l.28,0v-7.42l-.28,0Z"/><path class="g" d="M452.71,344.56v7.24a1.61,1.61,0,0,0,.76-.6v-6A1.68,1.68,0,0,0,452.71,344.56Z"/><path class="d" d="M456,338.57v4.22a1.7,1.7,0,0,1-.27.91,1.64,1.64,0,0,1-.77.6,1.32,1.32,0,0,1-.3.09l-.28,0H387.26a1.64,1.64,0,0,1-1.63-1.55v-4.38a1.64,1.64,0,0,1,1.63-1.54h67.09a1.27,1.27,0,0,1,.28,0,1.32,1.32,0,0,1,.3.08,1.72,1.72,0,0,1,.77.61A1.64,1.64,0,0,1,456,338.57Z"/><path class="g" d="M418.61,337H387.08a1.54,1.54,0,0,0-1.45,1.54v4.38a1.55,1.55,0,0,0,1.45,1.54H423A13.38,13.38,0,0,1,418.61,337Z"/><rect class="g" x="447.05" y="336.95" width="0.76" height="7.46"/><rect class="g" x="444.47" y="336.95" width="0.76" height="7.46"/><rect class="g" x="441.37" y="336.95" width="0.76" height="7.46"/><rect class="g" x="436.63" y="336.95" width="0.76" height="7.46"/><rect class="g" x="431.61" y="336.95" width="0.76" height="7.46"/><rect class="g" x="423.92" y="336.95" width="0.76" height="7.46"/><rect class="g" x="449.5" y="336.95" width="0.76" height="7.46"/><rect class="g" x="451.13" y="336.95" width="0.76" height="7.46"/><rect class="g" x="452.7" y="336.95" width="0.76" height="7.46"/><path class="g" d="M453.87,337v7.47h.48a1.27,1.27,0,0,0,.28,0V337l-.28,0Z"/><path class="g" d="M454.93,337.06v7.25a1.66,1.66,0,0,0,.77-.61v-6A1.6,1.6,0,0,0,454.93,337.06Z"/><path class="d" d="M460.89,331.11v4.22a1.64,1.64,0,0,1-1,1.51,1.11,1.11,0,0,1-.3.08,1.36,1.36,0,0,1-.29,0H392.17a1.62,1.62,0,0,1-1.62-1.54V331a1.62,1.62,0,0,1,1.62-1.54h67.09l.29,0a1.49,1.49,0,0,1,.3.09,1.57,1.57,0,0,1,.76.61A1.55,1.55,0,0,1,460.89,331.11Z"/><path class="g" d="M423.53,329.48H392a1.55,1.55,0,0,0-1.45,1.54v4.38a1.54,1.54,0,0,0,1.45,1.54h35.94A13.34,13.34,0,0,1,423.53,329.48Z"/><rect class="g" x="451.96" y="329.49" width="0.76" height="7.46"/><rect class="g" x="449.38" y="329.49" width="0.76" height="7.46"/><rect class="g" x="446.29" y="329.49" width="0.76" height="7.46"/><rect class="g" x="441.54" y="329.49" width="0.76" height="7.46"/><rect class="g" x="436.52" y="329.49" width="0.76" height="7.46"/><rect class="g" x="428.83" y="329.49" width="0.76" height="7.46"/><rect class="g" x="454.42" y="329.49" width="0.76" height="7.46"/><rect class="g" x="456.04" y="329.49" width="0.76" height="7.46"/><rect class="g" x="457.61" y="329.49" width="0.76" height="7.46"/><path class="g" d="M458.79,329.48V337h.48a1.43,1.43,0,0,0,.29,0v-7.41a1.43,1.43,0,0,0-.29,0Z"/><path class="g" d="M459.85,329.59v7.25a1.63,1.63,0,0,0,.76-.61v-6A1.7,1.7,0,0,0,459.85,329.59Z"/><path class="d" d="M457.84,323.64v4.22a1.68,1.68,0,0,1-.28.91,1.72,1.72,0,0,1-.77.61,1.38,1.38,0,0,1-.29.08,1.36,1.36,0,0,1-.29,0H389.12A1.62,1.62,0,0,1,387.5,328s0-.06,0-.09v-4.21a.28.28,0,0,1,0-.09,1.62,1.62,0,0,1,1.62-1.54h67.09a1.36,1.36,0,0,1,.29,0,1.4,1.4,0,0,1,.29.09,1.6,1.6,0,0,1,1,1.5Z"/><path class="g" d="M420.47,322H388.94a1.53,1.53,0,0,0-1.44,1.54s0,.05,0,.08v4.22a.25.25,0,0,0,0,.08,1.52,1.52,0,0,0,1.44,1.54h35.95A13.37,13.37,0,0,1,420.47,322Z"/><rect class="g" x="448.91" y="322.02" width="0.76" height="7.46"/><rect class="g" x="446.33" y="322.02" width="0.76" height="7.46"/><rect class="g" x="443.23" y="322.02" width="0.76" height="7.46"/><rect class="g" x="438.49" y="322.02" width="0.76" height="7.46"/><rect class="g" x="433.47" y="322.02" width="0.76" height="7.46"/><rect class="g" x="425.78" y="322.02" width="0.76" height="7.46"/><rect class="g" x="451.37" y="322.02" width="0.76" height="7.46"/><rect class="g" x="452.99" y="322.02" width="0.76" height="7.46"/><rect class="g" x="454.56" y="322.02" width="0.76" height="7.46"/><path class="g" d="M455.74,322v7.46h.47l.29,0V322a1.36,1.36,0,0,0-.29,0h-.47Z"/><path class="g" d="M456.8,322.13v7.25a1.75,1.75,0,0,0,.76-.61v-6A1.62,1.62,0,0,0,456.8,322.13Z"/><path class="d" d="M461.33,316.14v4.22a1.58,1.58,0,0,1-.28.91,1.7,1.7,0,0,1-.76.61,1.67,1.67,0,0,1-.3.08l-.29,0H392.61a1.62,1.62,0,0,1-1.62-1.54s0-.05,0-.08v-4.21a.19.19,0,0,1,0-.08,1.62,1.62,0,0,1,1.62-1.54H459.7a1.42,1.42,0,0,1,.29,0l.3.08a1.63,1.63,0,0,1,.76.61A1.57,1.57,0,0,1,461.33,316.14Z"/><path class="g" d="M424,314.52H392.44a1.55,1.55,0,0,0-1.45,1.54v4.38a1.54,1.54,0,0,0,1.45,1.54h35.94A13.34,13.34,0,0,1,424,314.52Z"/><rect class="g" x="452.4" y="314.52" width="0.76" height="7.46"/><rect class="g" x="449.82" y="314.52" width="0.76" height="7.46"/><rect class="g" x="446.73" y="314.52" width="0.76" height="7.46"/><rect class="g" x="441.98" y="314.52" width="0.76" height="7.46"/><rect class="g" x="436.97" y="314.52" width="0.76" height="7.46"/><rect class="g" x="429.28" y="314.52" width="0.76" height="7.46"/><rect class="g" x="454.86" y="314.52" width="0.76" height="7.46"/><rect class="g" x="456.48" y="314.52" width="0.76" height="7.46"/><rect class="g" x="458.05" y="314.52" width="0.76" height="7.46"/><path class="g" d="M459.23,314.52V322h.48l.29,0v-7.42l-.29,0Z"/><path class="g" d="M460.29,314.63v7.24a1.61,1.61,0,0,0,.76-.6v-6A1.68,1.68,0,0,0,460.29,314.63Z"/><path class="d" d="M457.84,308.68v4.21a1.66,1.66,0,0,1-.28.91,1.6,1.6,0,0,1-.77.61,1,1,0,0,1-.29.08,1.36,1.36,0,0,1-.29,0H389.12A1.62,1.62,0,0,1,387.5,313s0-.06,0-.09v-4.21a.25.25,0,0,1,0-.08,1.62,1.62,0,0,1,1.62-1.54h67.09l.29,0a1.4,1.4,0,0,1,.29.09,1.66,1.66,0,0,1,.77.61A1.63,1.63,0,0,1,457.84,308.68Z"/><path class="g" d="M420.47,307.06H388.94a1.52,1.52,0,0,0-1.44,1.54s0,.06,0,.08v4.21a.28.28,0,0,0,0,.09,1.53,1.53,0,0,0,1.44,1.54h35.95A13.43,13.43,0,0,1,420.47,307.06Z"/><rect class="g" x="448.91" y="307.06" width="0.76" height="7.46"/><rect class="g" x="446.33" y="307.06" width="0.76" height="7.46"/><rect class="g" x="443.23" y="307.06" width="0.76" height="7.46"/><rect class="g" x="438.49" y="307.06" width="0.76" height="7.46"/><rect class="g" x="433.47" y="307.06" width="0.76" height="7.46"/><rect class="g" x="425.78" y="307.06" width="0.76" height="7.46"/><rect class="g" x="451.37" y="307.06" width="0.76" height="7.46"/><rect class="g" x="452.99" y="307.06" width="0.76" height="7.46"/><rect class="g" x="454.56" y="307.06" width="0.76" height="7.46"/><path class="g" d="M455.74,307.06v7.46h.47a1.36,1.36,0,0,0,.29,0v-7.41a1.36,1.36,0,0,0-.29,0h-.47Z"/><path class="g" d="M456.8,307.17v7.24a1.62,1.62,0,0,0,.76-.61v-6A1.66,1.66,0,0,0,456.8,307.17Z"/><path class="d" d="M457.84,301.18v4.21a1.66,1.66,0,0,1-.28.91,1.6,1.6,0,0,1-.77.61,1,1,0,0,1-.29.08,1.36,1.36,0,0,1-.29,0H389.12a1.62,1.62,0,0,1-1.62-1.54s0-.05,0-.09v-4.21a.25.25,0,0,1,0-.08,1.62,1.62,0,0,1,1.62-1.54h67.09a1.36,1.36,0,0,1,.29,0,1,1,0,0,1,.29.08,1.66,1.66,0,0,1,.77.61A1.63,1.63,0,0,1,457.84,301.18Z"/><path class="g" d="M420.47,299.55H388.94a1.53,1.53,0,0,0-1.44,1.54s0,.06,0,.09v4.21a.28.28,0,0,0,0,.09,1.53,1.53,0,0,0,1.44,1.54h35.95A13.42,13.42,0,0,1,420.47,299.55Z"/><rect class="g" x="448.91" y="299.56" width="0.76" height="7.46"/><rect class="g" x="446.33" y="299.56" width="0.76" height="7.46"/><rect class="g" x="443.23" y="299.56" width="0.76" height="7.46"/><rect class="g" x="438.49" y="299.56" width="0.76" height="7.46"/><rect class="g" x="433.47" y="299.56" width="0.76" height="7.46"/><rect class="g" x="425.78" y="299.56" width="0.76" height="7.46"/><rect class="g" x="451.37" y="299.56" width="0.76" height="7.46"/><rect class="g" x="452.99" y="299.56" width="0.76" height="7.46"/><rect class="g" x="454.56" y="299.56" width="0.76" height="7.46"/><path class="g" d="M455.74,299.55V307h.47a1.36,1.36,0,0,0,.29,0v-7.41a1.36,1.36,0,0,0-.29,0Z"/><path class="g" d="M456.8,299.67v7.24a1.68,1.68,0,0,0,.76-.61v-6A1.66,1.66,0,0,0,456.8,299.67Z"/><path class="d" d="M453.75,293.68v4.22a1.61,1.61,0,0,1-1,1.51,1.32,1.32,0,0,1-.3.09,1.27,1.27,0,0,1-.28,0H385a1.64,1.64,0,0,1-1.63-1.54V293.6a1.64,1.64,0,0,1,1.63-1.54h67.09l.28,0,.3.09a1.57,1.57,0,0,1,.76.61A1.53,1.53,0,0,1,453.75,293.68Z"/><path class="g" d="M416.39,292.05H384.86a1.55,1.55,0,0,0-1.45,1.54V298a1.55,1.55,0,0,0,1.45,1.54H420.8A13.46,13.46,0,0,1,416.39,292.05Z"/><rect class="g" x="444.82" y="292.05" width="0.76" height="7.46"/><rect class="g" x="442.24" y="292.05" width="0.76" height="7.46"/><rect class="g" x="439.15" y="292.05" width="0.76" height="7.46"/><rect class="g" x="434.4" y="292.05" width="0.76" height="7.46"/><rect class="g" x="429.39" y="292.05" width="0.76" height="7.46"/><rect class="g" x="421.69" y="292.05" width="0.76" height="7.46"/><rect class="g" x="447.28" y="292.05" width="0.76" height="7.46"/><rect class="g" x="448.9" y="292.05" width="0.76" height="7.46"/><rect class="g" x="450.47" y="292.05" width="0.76" height="7.46"/><path class="g" d="M451.65,292.05v7.47h.48a1.27,1.27,0,0,0,.28,0v-7.41a1.33,1.33,0,0,0-.28,0Z"/><path class="g" d="M452.71,292.17v7.24a1.63,1.63,0,0,0,.76-.61v-6A1.61,1.61,0,0,0,452.71,292.17Z"/><path class="d" d="M456,286.18v4.21a1.6,1.6,0,0,1-1,1.52,1.32,1.32,0,0,1-.3.08,1.33,1.33,0,0,1-.28,0H387.26a1.64,1.64,0,0,1-1.63-1.54V286.1a1.64,1.64,0,0,1,1.63-1.54h67.09a1.27,1.27,0,0,1,.28,0,1,1,0,0,1,.3.08,1.6,1.6,0,0,1,1,1.51Z"/><path class="g" d="M418.61,284.55H387.08a1.55,1.55,0,0,0-1.45,1.54v4.39a1.55,1.55,0,0,0,1.45,1.54H423A13.4,13.4,0,0,1,418.61,284.55Z"/><rect class="g" x="447.05" y="284.55" width="0.76" height="7.47"/><rect class="g" x="444.47" y="284.55" width="0.76" height="7.47"/><rect class="g" x="441.37" y="284.55" width="0.76" height="7.47"/><rect class="g" x="436.63" y="284.55" width="0.76" height="7.47"/><rect class="g" x="431.61" y="284.55" width="0.76" height="7.47"/><rect class="g" x="423.92" y="284.55" width="0.76" height="7.47"/><rect class="g" x="449.5" y="284.55" width="0.76" height="7.47"/><rect class="g" x="451.13" y="284.55" width="0.76" height="7.47"/><rect class="g" x="452.7" y="284.55" width="0.76" height="7.47"/><path class="g" d="M453.87,284.55V292h.48a1.27,1.27,0,0,0,.28,0v-7.41a1.33,1.33,0,0,0-.28,0Z"/><path class="g" d="M454.93,284.67v7.24a1.66,1.66,0,0,0,.77-.61v-6A1.58,1.58,0,0,0,454.93,284.67Z"/><polygon class="f" points="323.19 151.04 262.95 216.2 176.15 135.83 139.57 101.96 199.81 36.81 268.1 100.03 323.19 151.04"/><path class="c" d="M266.83,194.74l35.27-38.15a6.4,6.4,0,0,0-.35-9L203.39,56.5a6.49,6.49,0,0,0-9.18.36l-35.13,38a6.46,6.46,0,0,0,.35,9.12l98.42,91.12A6.35,6.35,0,0,0,266.83,194.74Zm42.57-43-46.77,50.59L151.74,99.7l46.77-50.58Z"/><path class="c" d="M218,139.36a18.53,18.53,0,1,1,26.18-1A18.55,18.55,0,0,1,218,139.36Z"/><polygon class="f" points="328.51 167.77 240.04 174.16 231.53 56.13 231.53 56.12 227.94 6.39 316.41 0 323.11 92.86 328.51 167.77"/><path class="c" d="M257.52,161.15l51.8-3.74a6.4,6.4,0,0,0,5.91-6.83L305.58,16.83a6.5,6.5,0,0,0-6.95-6L247,14.54a6.45,6.45,0,0,0-6,6.89l9.66,133.84A6.35,6.35,0,0,0,257.52,161.15Zm60.41-2.26-68.69,5L238.36,13.06l68.69-5Z"/><path class="c" d="M259.67,87.31a18.53,18.53,0,1,1,19.81,17.16A18.53,18.53,0,0,1,259.67,87.31Z"/><path class="h" d="M175.33,199.77S183,212.72,190,212.9s17.66-6,17.66-6,6.43-17.26,2.06-24c0,0-4.37-2.31-8.94,1.78a15.09,15.09,0,0,0-2.37,2.73,7.62,7.62,0,0,1-3.67,3c-5,1.83-10.93-2.48-13.15,1.68a27.18,27.18,0,0,1-3.87,5.5A17.55,17.55,0,0,1,175.33,199.77Z"/><path class="h" d="M284.9,389.13s18.75-164.67-85.58-176.23c0,0-81,19.29-60.77,176.23Z"/><path class="i" d="M212.63,215.31s-19.48,5.22-25.49,2.15c0,0-.9-9.81,7.3-8.44,5.62.94,9.27-2.3,11.42-3.62C208.91,203.53,213.44,211.2,212.63,215.31Z"/><path class="j" d="M195.68,200.52c1.24,1.12,5.07-15.86,5.07-15.86a15.09,15.09,0,0,0-2.37,2.73,7.62,7.62,0,0,1-3.67,3C194.7,190.89,194.47,199.42,195.68,200.52Z"/><path class="j" d="M177.7,197.58c.27.2,9.28,6.69,10.5,6.69s-6.64-12.2-6.64-12.2A27.71,27.71,0,0,1,177.7,197.58Z"/><path class="k" d="M274.59,381.79v5.28a1.77,1.77,0,0,1-.41,1.14,2.39,2.39,0,0,1-1.13.76,2.57,2.57,0,0,1-.44.11,3.11,3.11,0,0,1-.43,0H172.07a2.29,2.29,0,0,1-2.42-1.93v-5.49a2.28,2.28,0,0,1,2.42-1.93h100.1a3,3,0,0,1,.43,0,2.16,2.16,0,0,1,.44.1,2.42,2.42,0,0,1,1.14.76A1.83,1.83,0,0,1,274.59,381.79Z"/><path class="l" d="M225.44,389.11H171.81a2.13,2.13,0,0,1-2.16-1.94v-5.49a2.12,2.12,0,0,1,2.16-1.93h47A16.49,16.49,0,0,0,225.44,389.11Z"/><rect class="l" x="261.28" y="379.75" width="1.14" height="9.35"/><rect class="l" x="257.43" y="379.75" width="1.14" height="9.35"/><rect class="l" x="252.81" y="379.75" width="1.14" height="9.35"/><rect class="l" x="245.73" y="379.75" width="1.14" height="9.35"/><rect class="l" x="238.24" y="379.75" width="1.14" height="9.35"/><rect class="l" x="226.77" y="379.75" width="1.13" height="9.35"/><rect class="l" x="216.03" y="379.75" width="1.14" height="9.35"/><rect class="l" x="206.43" y="379.75" width="1.14" height="9.35"/><rect class="l" x="264.94" y="379.75" width="1.14" height="9.35"/><rect class="l" x="267.36" y="379.75" width="1.14" height="9.35"/><rect class="l" x="269.7" y="379.75" width="1.14" height="9.35"/><path class="l" d="M272.6,379.79v9.28a3,3,0,0,1-.43,0h-.71v-9.36h.71A3,3,0,0,1,272.6,379.79Z"/><path class="l" d="M274.19,380.65v7.55a2.42,2.42,0,0,1-1.14.77v-9.08A2.47,2.47,0,0,1,274.19,380.65Z"/><path class="k" d="M263.89,372.44v5.28a1.74,1.74,0,0,1-.42,1.13,2.41,2.41,0,0,1-1.13.77,2.16,2.16,0,0,1-.44.1,3,3,0,0,1-.43,0H161.37a2.29,2.29,0,0,1-2.42-1.92v-5.49a2.28,2.28,0,0,1,2.42-1.93H261.9a3.15,3.15,0,0,1,.44.11l.06,0,.07,0,.12.06.07,0,.06,0,.12.07.12.08.09.06h0l.06,0,.18.15,0,0,.05.05.09.1A1.81,1.81,0,0,1,263.89,372.44Z"/><path class="l" d="M214.73,379.75H161.11a2.12,2.12,0,0,1-2.16-1.92v-5.49a2.11,2.11,0,0,1,2.16-1.93h47l.06.23A16.36,16.36,0,0,0,214.73,379.75Z"/><rect class="l" x="250.58" y="370.4" width="1.13" height="9.35"/><rect class="l" x="246.72" y="370.4" width="1.14" height="9.35"/><rect class="l" x="242.1" y="370.4" width="1.14" height="9.35"/><rect class="l" x="235.03" y="370.4" width="1.14" height="9.35"/><rect class="l" x="227.54" y="370.4" width="1.14" height="9.35"/><rect class="l" x="216.07" y="370.4" width="1.14" height="9.35"/><rect class="l" x="205.32" y="370.4" width="1.14" height="9.35"/><rect class="l" x="195.73" y="370.4" width="1.14" height="9.35"/><rect class="l" x="254.24" y="370.4" width="1.14" height="9.35"/><rect class="l" x="256.66" y="370.4" width="1.14" height="9.35"/><rect class="l" x="259" y="370.4" width="1.14" height="9.35"/><path class="l" d="M261.9,370.43v9.29a3,3,0,0,1-.43,0h-.71V370.4h.71A3,3,0,0,1,261.9,370.43Z"/><path class="l" d="M263.48,371.3v7.55a2.46,2.46,0,0,1-1.13.77v-9.08A2.44,2.44,0,0,1,263.48,371.3Z"/><path class="k" d="M269.06,363.32v5.28a1.73,1.73,0,0,1-.41,1.13,2.43,2.43,0,0,1-1.58.87,2.85,2.85,0,0,1-.42,0H166.54a2.69,2.69,0,0,1-1.11-.24,2.08,2.08,0,0,1-1.3-1.6s0-.07,0-.09v-5.5a2.29,2.29,0,0,1,2.42-1.93h100.1a3,3,0,0,1,.43,0,3.15,3.15,0,0,1,.44.11,2.4,2.4,0,0,1,1.14.76A1.81,1.81,0,0,1,269.06,363.32Z"/><path class="l" d="M219.91,370.64H166.28a2.16,2.16,0,0,1-1-.24,2,2,0,0,1-1.16-1.6s0-.07,0-.09v-5.5a2.12,2.12,0,0,1,2.16-1.93h47a16.38,16.38,0,0,0,6.26,9.12Z"/><rect class="l" x="255.75" y="361.28" width="1.14" height="9.35"/><rect class="l" x="251.9" y="361.28" width="1.14" height="9.35"/><rect class="l" x="247.28" y="361.28" width="1.14" height="9.35"/><rect class="l" x="240.2" y="361.28" width="1.14" height="9.35"/><rect class="l" x="232.71" y="361.28" width="1.14" height="9.35"/><rect class="l" x="221.24" y="361.28" width="1.13" height="9.35"/><rect class="l" x="210.5" y="361.28" width="1.13" height="9.35"/><rect class="l" x="200.9" y="361.28" width="1.14" height="9.35"/><rect class="l" x="259.42" y="361.28" width="1.14" height="9.35"/><rect class="l" x="261.83" y="361.28" width="1.14" height="9.35"/><rect class="l" x="264.17" y="361.28" width="1.14" height="9.35"/><path class="l" d="M267.07,361.31v9.29a3,3,0,0,1-.43,0h-.71v-9.35h.71A3,3,0,0,1,267.07,361.31Z"/><path class="l" d="M268.65,362.18v7.55a2.48,2.48,0,0,1-1.13.77v-9.08A2.39,2.39,0,0,1,268.65,362.18Z"/><path class="k" d="M271.46,354v5.28a1.76,1.76,0,0,1-.42,1.13,2.41,2.41,0,0,1-1.13.77,3.13,3.13,0,0,1-.44.1,3,3,0,0,1-.43,0H168.94a2.28,2.28,0,0,1-2.42-1.93v-5.49a2.23,2.23,0,0,1,2.13-1.91l.29,0H269c.15,0,.28,0,.42,0a3,3,0,0,1,.45.11,2.39,2.39,0,0,1,1.13.76A1.74,1.74,0,0,1,271.46,354Z"/><path class="l" d="M222.31,361.28H168.68a2.1,2.1,0,0,1-2.15-1.93s0-.07,0-.1V354a.45.45,0,0,1,0-.11,2.09,2.09,0,0,1,1.9-1.91l.25,0h47v0A16.39,16.39,0,0,0,222.31,361.28Z"/><rect class="l" x="258.14" y="351.93" width="1.14" height="9.35"/><rect class="l" x="254.29" y="351.93" width="1.14" height="9.35"/><rect class="l" x="249.67" y="351.93" width="1.14" height="9.35"/><rect class="l" x="242.59" y="351.93" width="1.14" height="9.35"/><rect class="l" x="235.11" y="351.93" width="1.14" height="9.35"/><rect class="l" x="223.63" y="351.93" width="1.14" height="9.35"/><rect class="l" x="212.89" y="351.93" width="1.14" height="9.35"/><rect class="l" x="203.3" y="351.93" width="1.14" height="9.35"/><rect class="l" x="261.81" y="351.93" width="1.13" height="9.35"/><rect class="l" x="264.23" y="351.93" width="1.14" height="9.35"/><rect class="l" x="266.57" y="351.93" width="1.14" height="9.35"/><path class="l" d="M269.46,352v9.29a2.86,2.86,0,0,1-.42,0h-.71v-9.35H269A2.86,2.86,0,0,1,269.46,352Z"/><path class="l" d="M271,352.83v7.55a2.41,2.41,0,0,1-1.13.77v-9.08A2.39,2.39,0,0,1,271,352.83Z"/><path class="k" d="M264.1,344.63v5.29a1.82,1.82,0,0,1-.41,1.13,2.57,2.57,0,0,1-1.14.77,3.13,3.13,0,0,1-.44.1l-.14,0H161.58a2.29,2.29,0,0,1-2.42-1.93s0-.07,0-.1v-5.29a.31.31,0,0,1,0-.1v-.09a2.21,2.21,0,0,1,1.82-1.78h.07a2.32,2.32,0,0,1,.53,0H262l.11,0a3.15,3.15,0,0,1,.44.11,2.34,2.34,0,0,1,1.14.75A1.78,1.78,0,0,1,264.1,344.63Z"/><path class="l" d="M215,352H161.32a2.13,2.13,0,0,1-2.16-1.94v-5.49a.19.19,0,0,1,0-.08,2.08,2.08,0,0,1,1.68-1.8l.09,0a2.34,2.34,0,0,1,.38,0h47a.14.14,0,0,1,0,.07,16.42,16.42,0,0,0,6.54,9.27Z"/><rect class="l" x="250.78" y="342.59" width="1.14" height="9.35"/><rect class="l" x="246.94" y="342.59" width="1.14" height="9.35"/><rect class="l" x="242.32" y="342.59" width="1.14" height="9.35"/><rect class="l" x="235.24" y="342.59" width="1.14" height="9.35"/><rect class="l" x="227.75" y="342.59" width="1.14" height="9.35"/><rect class="l" x="216.28" y="342.59" width="1.14" height="9.35"/><rect class="l" x="205.53" y="342.59" width="1.14" height="9.35"/><rect class="l" x="195.94" y="342.6" width="1.14" height="9.35"/><rect class="l" x="254.45" y="342.59" width="1.14" height="9.35"/><rect class="l" x="256.87" y="342.59" width="1.14" height="9.35"/><rect class="l" x="259.21" y="342.59" width="1.13" height="9.35"/><path class="l" d="M262.11,342.62v9.29a3,3,0,0,1-.43,0H261v-9.36h.71C261.83,342.59,262,342.61,262.11,342.62Z"/><path class="l" d="M263.69,343.49v7.56a2.37,2.37,0,0,1-1.14.76v-9.08A2.37,2.37,0,0,1,263.69,343.49Z"/><path class="k" d="M263.89,335.34v5.28a1.81,1.81,0,0,1-.41,1.14,2.39,2.39,0,0,1-1.13.76,2.25,2.25,0,0,1-.35.09l-.1,0a2.86,2.86,0,0,1-.42,0H161.06l-.12,0a2.2,2.2,0,0,1-2-1.89v-5.5a2.29,2.29,0,0,1,2.42-1.93H261.9a3.69,3.69,0,0,1,.45.11l0,0,.07,0,.12.05.13.07.11.05.13.08.09.06h0l.06.05.18.15,0,.05.05.05.09.1A1.78,1.78,0,0,1,263.89,335.34Z"/><path class="l" d="M214.74,342.66h-53.9a2.1,2.1,0,0,1-1.89-1.92v-5.49a2.12,2.12,0,0,1,2.16-1.93h47l.06.23a16.37,16.37,0,0,0,6.43,9.06Z"/><rect class="l" x="250.58" y="333.31" width="1.13" height="9.35"/><rect class="l" x="246.72" y="333.31" width="1.14" height="9.35"/><rect class="l" x="242.1" y="333.31" width="1.14" height="9.35"/><rect class="l" x="235.03" y="333.31" width="1.14" height="9.35"/><rect class="l" x="227.54" y="333.31" width="1.14" height="9.35"/><rect class="l" x="216.07" y="333.31" width="1.14" height="9.35"/><rect class="l" x="205.32" y="333.31" width="1.14" height="9.35"/><rect class="l" x="195.73" y="333.31" width="1.14" height="9.35"/><rect class="l" x="254.24" y="333.31" width="1.14" height="9.35"/><rect class="l" x="256.66" y="333.31" width="1.14" height="9.35"/><rect class="l" x="259" y="333.31" width="1.14" height="9.35"/><path class="l" d="M261.9,333.34v9.28a2,2,0,0,1-.43,0h-.71v-9.35h.71A3,3,0,0,1,261.9,333.34Z"/><path class="l" d="M263.48,334.21v7.55a2.44,2.44,0,0,1-1.13.76v-9.07A2.44,2.44,0,0,1,263.48,334.21Z"/><path class="k" d="M269.06,326.22v5.28a1.75,1.75,0,0,1-.41,1.14,2.39,2.39,0,0,1-1.13.76,2.46,2.46,0,0,1-.45.11,2.86,2.86,0,0,1-.42,0H166.54a2.69,2.69,0,0,1-1.11-.23,2.09,2.09,0,0,1-1.3-1.61s0-.06,0-.09v-5.49a2.3,2.3,0,0,1,2.42-1.94h100.1a3,3,0,0,1,.43,0,2.16,2.16,0,0,1,.44.1,2.42,2.42,0,0,1,1.14.77A1.78,1.78,0,0,1,269.06,326.22Z"/><path class="l" d="M219.91,333.54H166.28a2.16,2.16,0,0,1-1-.23,2,2,0,0,1-1.16-1.61s0-.06,0-.09v-5.49a2.13,2.13,0,0,1,2.16-1.94h47a16.43,16.43,0,0,0,6.26,9.13Z"/><rect class="l" x="255.75" y="324.19" width="1.14" height="9.35"/><rect class="l" x="251.9" y="324.19" width="1.14" height="9.35"/><rect class="l" x="247.28" y="324.19" width="1.14" height="9.35"/><rect class="l" x="240.2" y="324.19" width="1.14" height="9.35"/><rect class="l" x="232.71" y="324.19" width="1.14" height="9.35"/><rect class="l" x="221.24" y="324.19" width="1.13" height="9.35"/><rect class="l" x="210.5" y="324.19" width="1.13" height="9.35"/><rect class="l" x="200.9" y="324.19" width="1.14" height="9.35"/><rect class="l" x="259.42" y="324.19" width="1.14" height="9.35"/><rect class="l" x="261.83" y="324.19" width="1.14" height="9.35"/><rect class="l" x="264.17" y="324.19" width="1.14" height="9.35"/><path class="l" d="M267.07,324.22v9.28a3,3,0,0,1-.43,0h-.71v-9.36h.71A3,3,0,0,1,267.07,324.22Z"/><path class="l" d="M268.65,325.08v7.56a2.39,2.39,0,0,1-1.13.76v-9.08A2.39,2.39,0,0,1,268.65,325.08Z"/><path class="k" d="M277.24,316.87v5.28a1.83,1.83,0,0,1-.41,1.14,2.42,2.42,0,0,1-1.14.76,2.84,2.84,0,0,1-.44.1,3,3,0,0,1-.43,0H174.72a2.29,2.29,0,0,1-2.42-1.93v-5.48a2.24,2.24,0,0,1,2.13-1.92l.29,0h100.1a2,2,0,0,1,.43,0,3.13,3.13,0,0,1,.44.1,2.42,2.42,0,0,1,1.14.76A1.83,1.83,0,0,1,277.24,316.87Z"/><path class="l" d="M228.09,324.18H174.46a2.12,2.12,0,0,1-2.16-1.93v-5.48a2.1,2.1,0,0,1,1.91-1.92l.25,0h47s0,0,0,0A16.33,16.33,0,0,0,228.09,324.18Z"/><rect class="l" x="263.93" y="314.83" width="1.14" height="9.35"/><rect class="l" x="260.08" y="314.83" width="1.14" height="9.35"/><rect class="l" x="255.46" y="314.83" width="1.14" height="9.35"/><rect class="l" x="248.38" y="314.83" width="1.14" height="9.35"/><rect class="l" x="240.89" y="314.83" width="1.14" height="9.35"/><rect class="l" x="229.42" y="314.83" width="1.14" height="9.35"/><rect class="l" x="218.67" y="314.83" width="1.14" height="9.35"/><rect class="l" x="209.08" y="314.83" width="1.14" height="9.35"/><rect class="l" x="267.59" y="314.83" width="1.14" height="9.35"/><rect class="l" x="270.02" y="314.83" width="1.13" height="9.35"/><rect class="l" x="272.35" y="314.83" width="1.14" height="9.35"/><path class="l" d="M275.25,314.87v9.28a3,3,0,0,1-.43,0h-.71v-9.35h.71A2,2,0,0,1,275.25,314.87Z"/><path class="l" d="M276.83,315.73v7.56a2.37,2.37,0,0,1-1.14.76V315A2.37,2.37,0,0,1,276.83,315.73Z"/><path class="k" d="M264.1,307.53v5.28a1.79,1.79,0,0,1-.41,1.14,2.33,2.33,0,0,1-1.14.76,2.18,2.18,0,0,1-.44.11H161.58a2.29,2.29,0,0,1-2.42-1.93s0-.07,0-.11v-5.28a.38.38,0,0,1,0-.1,2.29,2.29,0,0,1,2.42-1.93H261.81l.3,0a3.13,3.13,0,0,1,.44.1l.21.08.12.06h0l.13.07h0l.11.07a1.88,1.88,0,0,1,.24.18l.07,0h0l0,0h0l.07.08.09.11A1.74,1.74,0,0,1,264.1,307.53Z"/><path class="l" d="M215,314.85H161.32a2.12,2.12,0,0,1-2.16-1.93v-5.5a2.13,2.13,0,0,1,2.16-1.93h47a1.42,1.42,0,0,0,.07.22,16.27,16.27,0,0,0,6.5,9.12Z"/><rect class="l" x="250.78" y="305.49" width="1.14" height="9.35"/><rect class="l" x="246.94" y="305.49" width="1.14" height="9.35"/><rect class="l" x="242.32" y="305.49" width="1.14" height="9.35"/><rect class="l" x="235.24" y="305.49" width="1.14" height="9.35"/><rect class="l" x="227.75" y="305.49" width="1.14" height="9.35"/><rect class="l" x="216.28" y="305.49" width="1.14" height="9.35"/><rect class="l" x="205.53" y="305.49" width="1.14" height="9.35"/><rect class="l" x="195.94" y="305.5" width="1.14" height="9.35"/><rect class="l" x="254.45" y="305.49" width="1.14" height="9.35"/><rect class="l" x="256.87" y="305.49" width="1.14" height="9.35"/><rect class="l" x="259.21" y="305.49" width="1.13" height="9.35"/><path class="l" d="M262.11,305.53v9.29c-.14,0-.28,0-.43,0H261v-9.36h.71A3,3,0,0,1,262.11,305.53Z"/><path class="l" d="M263.69,306.4V314a2.37,2.37,0,0,1-1.14.76v-9.08A2.32,2.32,0,0,1,263.69,306.4Z"/><path class="k" d="M271.46,298.4v5.28a1.78,1.78,0,0,1-.42,1.14,2.39,2.39,0,0,1-1.13.76,3.13,3.13,0,0,1-.44.1,3,3,0,0,1-.43,0H168.94a2.7,2.7,0,0,1-1.08-.21,2.09,2.09,0,0,1-1.33-1.64.19.19,0,0,1,0-.08V298.3a2.22,2.22,0,0,1,2.13-1.92l.29,0H269a2.86,2.86,0,0,1,.42,0,3,3,0,0,1,.45.11,2.39,2.39,0,0,1,1.13.76A1.78,1.78,0,0,1,271.46,298.4Z"/><path class="l" d="M222.31,305.72H168.68a2.18,2.18,0,0,1-1-.22,2.06,2.06,0,0,1-1.19-1.63V298.3a2.08,2.08,0,0,1,1.9-1.92l.26,0h47v0A16.44,16.44,0,0,0,222,305.5Z"/><rect class="l" x="258.14" y="296.36" width="1.14" height="9.35"/><rect class="l" x="254.29" y="296.36" width="1.14" height="9.35"/><rect class="l" x="249.67" y="296.36" width="1.14" height="9.35"/><rect class="l" x="242.59" y="296.36" width="1.14" height="9.35"/><rect class="l" x="235.11" y="296.36" width="1.14" height="9.35"/><rect class="l" x="223.63" y="296.36" width="1.14" height="9.35"/><rect class="l" x="212.89" y="296.36" width="1.14" height="9.35"/><rect class="l" x="203.3" y="296.36" width="1.14" height="9.35"/><rect class="l" x="261.81" y="296.36" width="1.13" height="9.35"/><rect class="l" x="264.23" y="296.36" width="1.14" height="9.35"/><rect class="l" x="266.57" y="296.36" width="1.14" height="9.35"/><path class="l" d="M269.46,296.39v9.29a2.86,2.86,0,0,1-.42,0h-.71v-9.35H269A2.86,2.86,0,0,1,269.46,296.39Z"/><path class="l" d="M271,297.26v7.55a2.48,2.48,0,0,1-1.13.77v-9.09A2.48,2.48,0,0,1,271,297.26Z"/><path class="k" d="M274.59,289.06v5.28a1.77,1.77,0,0,1-.41,1.14,2.39,2.39,0,0,1-1.13.76,4,4,0,0,1-.44.11H172.07a2.28,2.28,0,0,1-2.42-1.93V289a2.29,2.29,0,0,1,2.42-1.94h100.1a3,3,0,0,1,.43,0,3.15,3.15,0,0,1,.44.11,2.42,2.42,0,0,1,1.14.76A1.81,1.81,0,0,1,274.59,289.06Z"/><path class="l" d="M225.44,296.37H171.81a2.11,2.11,0,0,1-2.16-1.93V289a2.12,2.12,0,0,1,2.16-1.94h47a16.4,16.4,0,0,0,6.57,9.34Z"/><rect class="l" x="261.28" y="287.02" width="1.14" height="9.35"/><rect class="l" x="257.43" y="287.02" width="1.14" height="9.35"/><rect class="l" x="252.81" y="287.02" width="1.14" height="9.35"/><rect class="l" x="245.73" y="287.02" width="1.14" height="9.35"/><rect class="l" x="238.24" y="287.02" width="1.14" height="9.35"/><rect class="l" x="226.77" y="287.02" width="1.13" height="9.35"/><rect class="l" x="216.03" y="287.02" width="1.14" height="9.35"/><rect class="l" x="206.43" y="287.02" width="1.14" height="9.35"/><rect class="l" x="264.94" y="287.02" width="1.14" height="9.35"/><rect class="l" x="267.36" y="287.02" width="1.14" height="9.35"/><rect class="l" x="269.7" y="287.02" width="1.14" height="9.35"/><path class="l" d="M272.6,287.05v9.29a3,3,0,0,1-.43,0h-.71V287h.71C272.32,287,272.46,287,272.6,287.05Z"/><path class="l" d="M274.19,287.92v7.56a2.47,2.47,0,0,1-1.14.76v-9.08A2.47,2.47,0,0,1,274.19,287.92Z"/><path class="m" d="M163.85,389.13a47.61,47.61,0,1,0-47.58-47.61A47.59,47.59,0,0,0,163.85,389.13Z"/><ellipse class="k" cx="159.69" cy="341.52" rx="47.57" ry="47.61"/><path class="l" d="M159.69,301.3a40.79,40.79,0,1,0,40.77,40.79A40.82,40.82,0,0,0,159.69,301.3Zm0,84.16a43.36,43.36,0,1,1,30.65-12.7A43,43,0,0,1,159.69,385.46Z"/><path class="l" d="M165.66,354.68a7.16,7.16,0,0,0-.1-2.52,5.31,5.31,0,0,0-1.07-2.1,10,10,0,0,0-2.13-1.88,25.85,25.85,0,0,0-3.3-1.84q-3.37-1.66-6.08-3.35a21.84,21.84,0,0,1-4.56-3.71,12.64,12.64,0,0,1-2.68-4.52,14.3,14.3,0,0,1,1.15-10.84,11.88,11.88,0,0,1,3.36-3.73,15.1,15.1,0,0,1,4.81-2.3,20.46,20.46,0,0,1,6-.69l.84-7.15,5.75.68L166.8,318a18,18,0,0,1,5.41,2.3,13.84,13.84,0,0,1,3.9,3.71,14.14,14.14,0,0,1,2.17,5,18.27,18.27,0,0,1,.23,6.14l-10.38-1.23c.31-2.67,0-4.74-1.07-6.21a6.09,6.09,0,0,0-4.53-2.55,7.71,7.71,0,0,0-2.84.12,5.28,5.28,0,0,0-2.07,1,4.92,4.92,0,0,0-1.33,1.72,7.4,7.4,0,0,0-.63,2.26,6.83,6.83,0,0,0,.09,2.28,5.11,5.11,0,0,0,1,2,10.28,10.28,0,0,0,2.15,1.88,35,35,0,0,0,3.43,2c2.22,1.14,4.23,2.29,6,3.42a22.05,22.05,0,0,1,4.54,3.74,12.33,12.33,0,0,1,3.15,10.29,13.13,13.13,0,0,1-1.65,5.15,11.72,11.72,0,0,1-3.37,3.7,14.47,14.47,0,0,1-4.83,2.21,21.59,21.59,0,0,1-6,.64l-.79,6.64-5.72-.68.79-6.61a24.15,24.15,0,0,1-5.61-2,15.54,15.54,0,0,1-4.6-3.47,13.87,13.87,0,0,1-2.89-5.18,17,17,0,0,1-.48-7l10.4,1.23a10.28,10.28,0,0,0,.19,4,6.56,6.56,0,0,0,1.48,2.75,6.32,6.32,0,0,0,2.37,1.64,11.27,11.27,0,0,0,2.85.73,9.57,9.57,0,0,0,3-.08,6.33,6.33,0,0,0,2.29-1,4.87,4.87,0,0,0,1.5-1.66A6.12,6.12,0,0,0,165.66,354.68Z"/><path class="n" d="M399.34,86V380.73a8.42,8.42,0,0,1-8.4,8.4H243.66a8.42,8.42,0,0,1-8.4-8.4V86a8.42,8.42,0,0,1,8.4-8.41H390.94A8.43,8.43,0,0,1,399.34,86Z"/><path class="a" d="M330,371.92a10.7,10.7,0,1,1-10.7-10.71A10.66,10.66,0,0,1,330,371.92Z"/><rect class="f" x="245.09" y="96.77" width="145.5" height="259.18"/><path class="a" d="M326.93,379.46a10.71,10.71,0,1,1-13.34-16.58A24,24,0,0,0,326.93,379.46Z"/><path class="o" d="M459.88,275.21c-3.88,6.76-8.76,9.36-8.76,9.36H430.83S462.84,270.05,459.88,275.21Z"/><path class="p" d="M444.29,327.48a1.92,1.92,0,0,0-.33,2h0c.49,1.33,2.09,2.83,4,4.32.23.19.44.36.63.53l.14.13.11.09c1.73,1.6,1.08,2,4.19,5.21,3.55,3.7,6,3.77,6.69,3.43s-.61-2.25-1.93-4.45c-.07-.11-.13-.22-.2-.32l-.52-.88c-1.55-2.66-1.15-3.9-.79-7.84.3-3.21,5-17.92,5-17.92l-6.8-1.17s-2.05,11.71-4.31,13.51c-1.21,1-2.56,1-3.72,1.69l-.24.15A8.89,8.89,0,0,0,444.29,327.48Z"/><path class="q" d="M444.29,327.48a1.9,1.9,0,0,0-.33,2h0a14.51,14.51,0,0,0,4,4.32l.63.54.14.12.11.1c1.73,1.6,1.08,2,4.19,5.21,3.55,3.7,6,3.76,6.69,3.43s-.61-2.25-1.93-4.45a15.15,15.15,0,0,1-6.32-4.67c-2.15-2.73-3.57-6.23-5-8.26l-.24.15A8.89,8.89,0,0,0,444.29,327.48Z"/><path class="p" d="M499.13,323.23c.43,2.1,3.41,1.75,6.76.94s2.55.15,7.31-.38,6.2-2.3,6.34-3-2.22-.85-4.74-1.14l-1-.11c-2.84-.36-4.93-2.2-7.51-3.71s-6.11-7.25-6.11-7.25l-6.52.51s3.42,5.21,4.75,7.47a8,8,0,0,1,.64,4.45A8.32,8.32,0,0,0,499.13,323.23Z"/><path class="q" d="M505.89,324.17c3.34-.82,2.55.15,7.31-.38s6.2-2.3,6.34-3-2.22-.84-4.74-1.13l0,0a13.39,13.39,0,0,1-6.82,2.12c-3.23.08-6.65-.84-8.87-.8a8.34,8.34,0,0,0,.05,2.23C499.55,325.33,502.54,325,505.89,324.17Z"/><path class="o" d="M474.13,281.48,468,297.9l-8,21.45a13,13,0,0,1-4.24-.38,18.76,18.76,0,0,1-4.09-2s2.21-23,6.34-36.25c1.06-3.39,2.24-6.14,3.55-7.68C468,265.48,474.13,281.48,474.13,281.48Z"/><path class="i" d="M418.5,266.16s40.41-13.68,49.43-10.77S504,312.18,504,312.18a5.26,5.26,0,0,1-2.28,1.44,21.47,21.47,0,0,1-5.3.54S472,293.22,469.09,287.1s-4.07-11.92-7-11.34c-1.77.36-15.5,8.82-27.8,8.82h-17.8c-7.7-8.29-5.55-21.44-5.55-21.44Z"/><path class="q" d="M446.57,173.13a9.78,9.78,0,0,0-5.21-1.43,2.47,2.47,0,0,1,1.16-.44,8.32,8.32,0,0,0-3,.54c-12.21-5.84-15.63,12.56-15.7,16.89s-.43,9.3-7,12.67c-13,6.65-3.56,20.74-3.56,20.74s5,10.11,5,10.11c-.05-3.51,17.45-20.64,26.25-25.5,2.27-2.84,3.41-8.09,3.49-8.51a23,23,0,0,1-2.32,7.77C453.29,200,451,176.11,446.57,173.13Z"/><path class="p" d="M440.84,206.2s-4.34,1.52-7.26.22c-2.75-1.21-4.83-5.74-4.79-5.74,1.25-.06,2.62-1.15,3.68-8.33l.54.19,8.95,3.22s-.65,2.88-1.07,5.61C440.53,203.67,440.34,205.87,440.84,206.2Z"/><path class="r" d="M442,195.76s-.65,2.87-1.07,5.61c-5.14-.92-7.16-6.05-7.89-8.83Z"/><path class="q" d="M430.84,190.29a27.39,27.39,0,0,1-3.4-8c-.46-2.65.88-12.44,10.72-11a13.28,13.28,0,0,1,5.54,2.1c2.14,1.44,5.22,4.56,1.77,13.11l-.89,2.88Z"/><path class="p" d="M443.29,198.62S431,197,432.18,189.35s.33-13,8.2-12.24,9,3.87,9.19,6.5S446.51,198.85,443.29,198.62Z"/><path class="q" d="M446,177.76s-4.7,8.44-10,9-7.36-1.18-7.36-1.18a14.68,14.68,0,0,0,6.05-7.87S444.09,173.13,446,177.76Z"/><path class="q" d="M445,178.36s2.2,2.38,2.51,4.41,0,6.07,1.17,6.11c0,0,3.44-5.69,1.12-9.57C447.39,175.22,445,178.36,445,178.36Z"/><path class="n" d="M409,266.37c.67,1.85,2.71,2.33,5.45,2,5.23-.61,13-4.12,18.59-6.54,8.53-3.7,12.4-.23,15.12-2.58s-3.1-7.6,1.94-31.9c1.7-8.25-9.23-26-9.23-26s-.83,5.18-11.2-1c-.36-.22-4.44,5.83-8.37,13.28-4.33,8.22-8.48,18.15-7.26,23.26C416.39,246.69,407.09,261,409,266.37Z"/><path class="n" d="M409,266.37c.67,1.85,2.71,2.33,5.45,2,3.62-1.57,19.25-7.63,19.07-11.74-.26-6.07-3-6.26-1.07-13.76,1.56-6-12.87-17.23-15.18-19.66-4.33,8.22-4.44,8.61-3.22,13.72C416.39,246.69,407.09,261,409,266.37Z"/><path class="i" d="M468,297.9l-8,21.45a13,13,0,0,1-4.24-.38,18.76,18.76,0,0,1-4.09-2s2.21-23,6.34-36.25Z"/><path class="n" d="M440.89,201.38s10.67,1.8,11.92,6.4l8.61,31.59s-5.41,1-7.92-1.53-8.71-23.24-8.71-23.24Z"/><path class="n" d="M429.69,200.39s-10.07.62-13.56,5.5c-4.91,6.85-14.65,36.05-9.07,40,6.29,4.39,28.61,1.15,28.61,1.15s.75-3.48-.29-5.16-17.83-4.4-18.61-5.17,9.69-15.13,9.69-17.45S429.69,200.39,429.69,200.39Z"/><polygon class="g" points="430.11 255.62 473.14 255.62 480.9 228.56 437.93 228.56 430.11 255.62"/><rect class="g" x="416.74" y="254.57" width="56.26" height="1.05"/><path class="i" d="M459.48,241.65a1.26,1.26,0,0,0-1.23-1.73,2.49,2.49,0,0,0-2.22,1.73,1.25,1.25,0,0,0,1.23,1.72A2.47,2.47,0,0,0,459.48,241.65Z"/><path class="s" d="M221.89,250.39s-3.61,5.08-6.91,5.15-8.34-2.35-8.34-2.35-3-6.77-1-9.42a4.44,4.44,0,0,1,4.22.69,6.92,6.92,0,0,1,1.12,1.07,3.4,3.4,0,0,0,1.74,1.18c2.35.72,5.15-1,6.2.67a11.44,11.44,0,0,0,1.82,2.16A7.8,7.8,0,0,0,221.89,250.39Z"/><path class="s" d="M174.89,287s12.74-30.89,35.68-31.48c0,0,21.17,2.35,22.34,31.48Z"/><path class="t" d="M204.28,256.48s9.19,2,12,.85c0,0,.43-3.85-3.44-3.31a8.09,8.09,0,0,1-5.39-1.42C206,251.87,203.9,254.87,204.28,256.48Z"/><path class="j" d="M212.28,250.69c-.58.44-2.39-6.23-2.39-6.23a6.92,6.92,0,0,1,1.12,1.07,3.4,3.4,0,0,0,1.74,1.18C212.75,246.91,212.85,250.26,212.28,250.69Z"/><path class="j" d="M220.76,249.54c-.13.07-4.37,2.62-4.95,2.62s3.13-4.78,3.13-4.78A11.82,11.82,0,0,0,220.76,249.54Z"/><path class="h" d="M187.33,278.4c-.23-.21,9-13.64,11.57-13.74s8.27,2.95,12.42,3.34,8.17-.78,8.94,1.67,3,11.14,1.63,12.54S192.42,282.74,187.33,278.4Z"/><path class="a" d="M444.44,33.42a5.92,5.92,0,0,0-5.92-5.92H371.05a6.83,6.83,0,0,0-6.83,6.84v14a8.06,8.06,0,0,0,2,5.32l-2,9.18,11.58-6.42h62.38a6.25,6.25,0,0,0,6.26-6.25Z"/><polygon class="k" points="376.87 36.05 378.56 39.47 382.33 40.02 379.6 42.68 380.25 46.45 376.87 44.67 373.49 46.45 374.14 42.68 371.4 40.02 375.18 39.47 376.87 36.05"/><polygon class="k" points="391.12 36.05 392.8 39.47 396.58 40.02 393.85 42.68 394.5 46.45 391.12 44.67 387.74 46.45 388.38 42.68 385.65 40.02 389.42 39.47 391.12 36.05"/><polygon class="k" points="405.36 36.05 407.05 39.47 410.82 40.02 408.09 42.68 408.74 46.45 405.36 44.67 401.98 46.45 402.63 42.68 399.89 40.02 403.67 39.47 405.36 36.05"/><polygon class="k" points="419.61 36.05 421.3 39.47 425.07 40.02 422.34 42.68 422.99 46.45 419.61 44.67 416.23 46.45 416.87 42.68 414.14 40.02 417.92 39.47 419.61 36.05"/><polygon class="k" points="433.86 36.05 435.55 39.47 439.32 40.02 436.59 42.68 437.24 46.45 433.86 44.67 430.48 46.45 431.12 42.68 428.39 40.02 432.17 39.47 433.86 36.05"/><rect class="i" x="245.09" y="96.77" width="145.22" height="97.94"/><path class="u" d="M267.75,114.84a3.22,3.22,0,0,0-3.21,3.22v57a3.22,3.22,0,0,0,3.21,3.22H367.92a3.22,3.22,0,0,0,3.21-3.22v-57a3.22,3.22,0,0,0-3.21-3.22ZM367.92,179H267.75a4,4,0,0,1-4-4v-57a4,4,0,0,1,4-4H367.92a4,4,0,0,1,4,4v57A4,4,0,0,1,367.92,179Z"/><path class="a" d="M297.82,165.92l-23.1.19a1.78,1.78,0,0,1-1.79-1.77v-.22a1.79,1.79,0,0,1,1.77-1.79l23.09-.18a1.77,1.77,0,0,1,1.79,1.76v.22A1.77,1.77,0,0,1,297.82,165.92Z"/><path class="a" d="M328.24,165.69l-23.09.18a1.78,1.78,0,0,1-1.79-1.77v-.22a1.79,1.79,0,0,1,1.77-1.79l23.09-.18a1.78,1.78,0,0,1,1.79,1.76v.22A1.79,1.79,0,0,1,328.24,165.69Z"/><path class="a" d="M276,143a4.21,4.21,0,0,0-.19-1.33c-.18-.54-.49-.81-.9-.8s-.74.27-.91.81a4,4,0,0,0-.18,1.34c0,1.44.38,2.15,1.12,2.15.42,0,.72-.28.9-.83A4.27,4.27,0,0,0,276,143Zm1.07,0a4.35,4.35,0,0,1-.43,2.07,1.94,1.94,0,0,1-3.42,0,4.34,4.34,0,0,1-.46-2.07,4.24,4.24,0,0,1,.42-2.07,2,2,0,0,1,3.43,0A4.24,4.24,0,0,1,277.07,143Z"/><path class="a" d="M280.75,142.93a4.52,4.52,0,0,0-.19-1.33c-.19-.54-.5-.81-.92-.8s-.73.27-.9.8a4.3,4.3,0,0,0-.18,1.34c0,1.44.38,2.16,1.12,2.15.42,0,.72-.28.9-.82A4.65,4.65,0,0,0,280.75,142.93Zm1.05,0a4.24,4.24,0,0,1-.42,2.07,1.94,1.94,0,0,1-3.42,0,5.07,5.07,0,0,1,0-4.13,1.95,1.95,0,0,1,3.43,0A4.16,4.16,0,0,1,281.8,142.92Z"/><path class="a" d="M285.49,142.89a4.21,4.21,0,0,0-.19-1.33c-.19-.54-.49-.81-.91-.8s-.73.27-.91.8a4.3,4.3,0,0,0-.18,1.34c0,1.45.38,2.16,1.12,2.15.43,0,.73-.28.9-.82A4.33,4.33,0,0,0,285.49,142.89Zm1.06,0a4.25,4.25,0,0,1-.43,2.08,1.94,1.94,0,0,1-3.42,0,4.39,4.39,0,0,1-.46-2.06,4.45,4.45,0,0,1,.42-2.07,1.81,1.81,0,0,1,1.71-1,1.84,1.84,0,0,1,1.73,1A4.39,4.39,0,0,1,286.55,142.88Z"/><path class="a" d="M290.23,142.85a4.21,4.21,0,0,0-.19-1.33c-.19-.53-.49-.8-.91-.8s-.73.28-.91.8a4.37,4.37,0,0,0-.18,1.35c0,1.44.39,2.15,1.12,2.15.42,0,.73-.28.9-.83A4,4,0,0,0,290.23,142.85Zm1.06,0a4.35,4.35,0,0,1-.43,2.07,1.95,1.95,0,0,1-3.42,0,5.09,5.09,0,0,1,0-4.14,2,2,0,0,1,3.44,0A4.32,4.32,0,0,1,291.29,142.85Z"/><path class="a" d="M297.42,142.8a4.47,4.47,0,0,0-.19-1.33c-.19-.54-.5-.81-.91-.81s-.73.28-.91.81a4.3,4.3,0,0,0-.18,1.34c0,1.44.38,2.16,1.12,2.15.42,0,.72-.28.9-.83A4.53,4.53,0,0,0,297.42,142.8Zm1.06,0a4.31,4.31,0,0,1-.43,2.08,1.94,1.94,0,0,1-3.42,0,5.07,5.07,0,0,1,0-4.13,1.82,1.82,0,0,1,1.71-1,1.86,1.86,0,0,1,1.73,1A4.39,4.39,0,0,1,298.48,142.79Z"/><path class="a" d="M302.16,142.76a4.21,4.21,0,0,0-.19-1.33c-.19-.54-.49-.8-.91-.8s-.73.27-.91.8a4.07,4.07,0,0,0-.17,1.35c0,1.43.38,2.15,1.11,2.14.42,0,.73-.27.9-.82A4.33,4.33,0,0,0,302.16,142.76Zm1.06,0a4.51,4.51,0,0,1-.42,2.07,1.85,1.85,0,0,1-1.71,1,1.82,1.82,0,0,1-1.72-1,4.16,4.16,0,0,1-.45-2.06,4.22,4.22,0,0,1,.41-2.07,2,2,0,0,1,3.44,0A4.41,4.41,0,0,1,303.22,142.76Z"/><path class="a" d="M306.9,142.72a4.21,4.21,0,0,0-.19-1.33c-.19-.53-.49-.8-.91-.8s-.73.27-.91.81a4,4,0,0,0-.17,1.34c0,1.44.38,2.15,1.11,2.15.43,0,.73-.28.9-.83A4.24,4.24,0,0,0,306.9,142.72Zm1.06,0a4.13,4.13,0,0,1-.43,2.07,1.82,1.82,0,0,1-1.7,1,1.86,1.86,0,0,1-1.72-1,4.47,4.47,0,0,1-.45-2.07,4.36,4.36,0,0,1,.41-2.07,2,2,0,0,1,3.44,0A4.25,4.25,0,0,1,308,142.72Z"/><path class="a" d="M311.64,142.68a4.23,4.23,0,0,0-.18-1.33c-.19-.54-.5-.8-.92-.79s-.73.26-.9.8a4.3,4.3,0,0,0-.18,1.34c0,1.44.38,2.16,1.12,2.15.42,0,.72-.28.89-.82A4.07,4.07,0,0,0,311.64,142.68Zm1.06,0a4.24,4.24,0,0,1-.42,2.07,1.94,1.94,0,0,1-3.42,0,4.23,4.23,0,0,1-.46-2.07,4.36,4.36,0,0,1,.41-2.07,1.85,1.85,0,0,1,1.72-1,1.83,1.83,0,0,1,1.72,1A4.25,4.25,0,0,1,312.7,142.68Z"/><path class="a" d="M318.83,142.62a4.19,4.19,0,0,0-.19-1.32c-.19-.54-.49-.81-.91-.8s-.73.27-.91.8a4.3,4.3,0,0,0-.18,1.34c0,1.44.39,2.16,1.12,2.15.43,0,.72-.27.9-.82A4.31,4.31,0,0,0,318.83,142.62Zm1.06,0a4.22,4.22,0,0,1-.42,2.07,1.95,1.95,0,0,1-3.43,0,4.28,4.28,0,0,1-.45-2.06,4.34,4.34,0,0,1,.41-2.07,1.81,1.81,0,0,1,1.71-1,1.84,1.84,0,0,1,1.73,1A4.39,4.39,0,0,1,319.89,142.62Z"/><path class="a" d="M323.57,142.59a4.21,4.21,0,0,0-.19-1.33c-.19-.54-.49-.8-.91-.8s-.73.27-.91.8a4.07,4.07,0,0,0-.17,1.35c0,1.44.38,2.15,1.11,2.14.43,0,.73-.27.9-.82A4.24,4.24,0,0,0,323.57,142.59Zm1.06,0a4.26,4.26,0,0,1-.42,2.08,2,2,0,0,1-3.43,0,4.35,4.35,0,0,1-.45-2.07,4.3,4.3,0,0,1,.41-2.06,2,2,0,0,1,3.44,0A4.35,4.35,0,0,1,324.63,142.58Z"/><path class="a" d="M328.31,142.55a4.21,4.21,0,0,0-.19-1.33c-.19-.53-.49-.8-.91-.8s-.73.27-.91.81a4.3,4.3,0,0,0-.18,1.34c0,1.44.39,2.16,1.13,2.15.42,0,.72-.28.89-.82A4.07,4.07,0,0,0,328.31,142.55Zm1.06,0a4.48,4.48,0,0,1-.42,2.07,1.95,1.95,0,0,1-3.43,0,5.17,5.17,0,0,1,0-4.13,1.84,1.84,0,0,1,1.72-1,1.8,1.8,0,0,1,1.72,1A4.28,4.28,0,0,1,329.37,142.55Z"/><path class="a" d="M333.06,142.52a4.52,4.52,0,0,0-.19-1.33c-.19-.54-.5-.81-.92-.81s-.73.28-.9.81a4.3,4.3,0,0,0-.18,1.34c0,1.44.38,2.16,1.12,2.15.42,0,.72-.28.89-.82A4,4,0,0,0,333.06,142.52Zm1.05,0a4.26,4.26,0,0,1-.42,2.08,1.94,1.94,0,0,1-3.42,0,4.17,4.17,0,0,1-.46-2.07,4.42,4.42,0,0,1,.41-2.06,1.84,1.84,0,0,1,1.72-1,1.81,1.81,0,0,1,1.72,1A4.12,4.12,0,0,1,334.11,142.51Z"/><path class="a" d="M340.24,142.46a4.21,4.21,0,0,0-.19-1.33c-.19-.53-.49-.8-.91-.8s-.73.27-.91.81a4.3,4.3,0,0,0-.18,1.34c0,1.44.39,2.15,1.12,2.15.43,0,.72-.28.9-.83A4,4,0,0,0,340.24,142.46Zm1.06,0a4.38,4.38,0,0,1-.42,2.08,1.95,1.95,0,0,1-3.42,0,4.34,4.34,0,0,1-.46-2.07,4.24,4.24,0,0,1,.42-2.07,2,2,0,0,1,3.43,0A4.26,4.26,0,0,1,341.3,142.45Z"/><path class="a" d="M345,142.42a4.25,4.25,0,0,0-.19-1.33c-.19-.53-.49-.8-.91-.8s-.73.27-.91.81a4,4,0,0,0-.17,1.34c0,1.44.38,2.16,1.11,2.15.43,0,.73-.28.9-.82A4.07,4.07,0,0,0,345,142.42Zm1.06,0a4.24,4.24,0,0,1-.42,2.07,1.95,1.95,0,0,1-3.43,0,4.32,4.32,0,0,1-.45-2.07,4.42,4.42,0,0,1,.41-2.06,1.83,1.83,0,0,1,1.71-1,1.81,1.81,0,0,1,1.73,1A4.28,4.28,0,0,1,346,142.42Z"/><path class="a" d="M349.72,142.39a3.94,3.94,0,0,0-.19-1.33c-.19-.54-.49-.81-.91-.8s-.73.27-.9.8a4,4,0,0,0-.18,1.34c0,1.44.38,2.16,1.12,2.15.42,0,.72-.28.9-.82A4.31,4.31,0,0,0,349.72,142.39Zm1.06,0a4.31,4.31,0,0,1-.42,2.08,1.94,1.94,0,0,1-3.42,0,4.29,4.29,0,0,1-.46-2.07,4.18,4.18,0,0,1,.42-2.06,2,2,0,0,1,3.44,0A4.28,4.28,0,0,1,350.78,142.38Z"/><path class="a" d="M354.47,142.35a4.21,4.21,0,0,0-.19-1.33c-.19-.54-.49-.8-.91-.8s-.73.27-.91.81a4.26,4.26,0,0,0-.18,1.34c0,1.44.39,2.15,1.12,2.15.43,0,.72-.28.9-.83A4.24,4.24,0,0,0,354.47,142.35Zm1.06,0a4.35,4.35,0,0,1-.43,2.07,1.81,1.81,0,0,1-1.7,1,1.83,1.83,0,0,1-1.72-1,4.23,4.23,0,0,1-.45-2.07,4.34,4.34,0,0,1,.41-2.07,2,2,0,0,1,3.44,0A4.44,4.44,0,0,1,355.53,142.35Z"/><path class="a" d="M297,127l-22.6.18a1.78,1.78,0,1,1,0-3.56l22.6-.17a1.78,1.78,0,1,1,0,3.55Z"/><path class="a" d="M361.71,124.68a2.7,2.7,0,0,0-.61-1.71.3.3,0,0,0-.44,0l-.1.11a.3.3,0,0,0,0,.39,1.94,1.94,0,0,1,.44,1.23,2,2,0,0,1-.42,1.24.28.28,0,0,0,0,.38l.1.11a.3.3,0,0,0,.44,0A2.65,2.65,0,0,0,361.71,124.68Z"/><path class="a" d="M363.18,124.67a4.29,4.29,0,0,0-1.07-2.77.29.29,0,0,0-.42,0l-.06.06a.29.29,0,0,0,0,.4,3.46,3.46,0,0,1,.89,2.31,3.5,3.5,0,0,1-.85,2.33.29.29,0,0,0,0,.4l.06.06a.29.29,0,0,0,.42,0A4.17,4.17,0,0,0,363.18,124.67Z"/><path class="a" d="M364.46,124.65A5.49,5.49,0,0,0,363,121a.29.29,0,0,0-.42,0,.29.29,0,0,0,0,.4,4.87,4.87,0,0,1,.05,6.59.3.3,0,0,0,0,.4.29.29,0,0,0,.43,0A5.46,5.46,0,0,0,364.46,124.65Z"/><path class="a" d="M365.85,124.64A6.89,6.89,0,0,0,364,120a.31.31,0,0,0-.43,0l-.1.11a.28.28,0,0,0,0,.4,6.16,6.16,0,0,1,.06,8.37.29.29,0,0,0,0,.4l.1.1a.29.29,0,0,0,.42,0A6.8,6.8,0,0,0,365.85,124.64Z"/><path class="a" d="M274.54,170.18a2.29,2.29,0,0,0-.09-.64c-.1-.26-.24-.39-.44-.38s-.36.13-.44.39a1.93,1.93,0,0,0-.09.64c0,.7.19,1,.54,1s.35-.14.43-.4A2,2,0,0,0,274.54,170.18Zm.51,0a2.1,2.1,0,0,1-.2,1,.94.94,0,0,1-1.65,0,2.08,2.08,0,0,1-.23-1,2,2,0,0,1,.21-1,.93.93,0,0,1,1.65,0A2.16,2.16,0,0,1,275.05,170.18Z"/><path class="a" d="M276.82,170.17a2,2,0,0,0-.09-.65c-.09-.26-.24-.39-.44-.38s-.35.13-.44.39a2.35,2.35,0,0,0-.08.65c0,.69.18,1,.54,1,.21,0,.35-.13.44-.4A2,2,0,0,0,276.82,170.17Zm.51,0a2,2,0,0,1-.2,1,.94.94,0,0,1-1.65,0,2.09,2.09,0,0,1-.22-1,2.12,2.12,0,0,1,.2-1,.92.92,0,0,1,.83-.5.88.88,0,0,1,.83.49A2.09,2.09,0,0,1,277.33,170.17Z"/><path class="a" d="M279.05,168.86a.24.24,0,0,1,0,.13l-1.18,2.48a.25.25,0,0,1-.22.18.2.2,0,0,1-.15-.05.2.2,0,0,1-.06-.15.39.39,0,0,1,0-.14l1.18-2.47c.06-.12.13-.18.22-.18a.25.25,0,0,1,.16.05A.2.2,0,0,1,279.05,168.86Z"/><path class="a" d="M280.67,170.13a2,2,0,0,0-.09-.64c-.09-.26-.23-.38-.44-.38s-.35.13-.43.39a1.93,1.93,0,0,0-.09.64c0,.7.19,1,.54,1s.35-.13.43-.4A1.75,1.75,0,0,0,280.67,170.13Zm.52,0a2.16,2.16,0,0,1-.21,1,.91.91,0,0,1-.82.5.9.9,0,0,1-.83-.49,2.21,2.21,0,0,1-.22-1,2,2,0,0,1,.21-1,.85.85,0,0,1,.82-.5.88.88,0,0,1,.83.48A2.16,2.16,0,0,1,281.19,170.13Z"/><path class="a" d="M283,170.12a2,2,0,0,0-.09-.65c-.09-.25-.23-.39-.44-.38s-.35.13-.43.39a2,2,0,0,0-.09.65c0,.69.19,1,.54,1s.35-.13.43-.4A1.72,1.72,0,0,0,283,170.12Zm.52,0a2.15,2.15,0,0,1-.21,1,.9.9,0,0,1-.82.5.88.88,0,0,1-.83-.49,2.09,2.09,0,0,1-.22-1,2.05,2.05,0,0,1,.2-1,.88.88,0,0,1,.82-.5.9.9,0,0,1,.84.48A2.21,2.21,0,0,1,283.48,170.12Z"/><path class="a" d="M285.25,170.1a1.93,1.93,0,0,0-.09-.64c-.09-.26-.24-.39-.44-.39s-.35.14-.43.39a2,2,0,0,0-.09.65c0,.69.18,1,.54,1,.2,0,.35-.14.43-.4A2,2,0,0,0,285.25,170.1Zm.51,0a2,2,0,0,1-.2,1,.9.9,0,0,1-.82.5.91.91,0,0,1-.84-.49,2.14,2.14,0,0,1-.21-1,2,2,0,0,1,.2-1,.94.94,0,0,1,1.66,0A2,2,0,0,1,285.76,170.1Z"/><path class="a" d="M287.54,170.08a2.29,2.29,0,0,0-.09-.64c-.09-.26-.24-.39-.44-.39a.47.47,0,0,0-.44.39,1.81,1.81,0,0,0-.08.65c0,.7.18,1,.53,1s.35-.14.44-.4A2.35,2.35,0,0,0,287.54,170.08Zm.51,0a2.09,2.09,0,0,1-.21,1,.87.87,0,0,1-.82.5.89.89,0,0,1-.83-.48,2.49,2.49,0,0,1,0-2,.89.89,0,0,1,.83-.5.91.91,0,0,1,.83.48A2.24,2.24,0,0,1,288.05,170.08Z"/><path class="v" d="M362.72,204.61a2.39,2.39,0,0,1,.29-.46,2.57,2.57,0,0,1,.28-.29l.43-.44.11.09c2.19-1.07,6.71.06,11.28,3.05,5.52,3.61,9.07,8.58,8.05,11.22l.16.11-.62.62-.09.09,0,0a2.8,2.8,0,0,1-.53.37h0c-2.16,1.14-6.72,0-11.34-3C365.08,212.3,361.5,207.21,362.72,204.61Z"/><path class="d" d="M375.77,205.9c-5.63-3.67-11.18-4.55-12.39-2s2.35,7.69,8,11.37,11.18,4.55,12.39,1.94S381.39,209.58,375.77,205.9Z"/><path class="w" d="M366.2,204a1.81,1.81,0,0,0-1.19.94c-.43,1,0,2.49,1.28,4.22a22.14,22.14,0,0,0,5.61,5.13c2.89,1.89,5.88,3,7.92,3a4.23,4.23,0,0,0,1.12-.14,1.72,1.72,0,0,0,1.18-.94c.44-.95,0-2.48-1.28-4.21a21.65,21.65,0,0,0-5.61-5.14c-2.88-1.89-5.88-3-7.92-3A4.23,4.23,0,0,0,366.2,204Zm5.48,10.63a22,22,0,0,1-5.72-5.24c-1.36-1.87-1.83-3.52-1.32-4.63a2.14,2.14,0,0,1,1.44-1.15c2.08-.6,5.76.54,9.38,2.92a22.08,22.08,0,0,1,5.71,5.23c1.37,1.88,1.84,3.53,1.33,4.64a2.15,2.15,0,0,1-1.45,1.15,4.33,4.33,0,0,1-1.24.16C377.68,217.66,374.66,216.53,371.68,214.58Z"/><path class="w" d="M376.26,212.08a.57.57,0,0,0,.32,0,.37.37,0,0,0,.2-.17.56.56,0,0,0,0-.33,1.29,1.29,0,0,0-.11-.39,1.6,1.6,0,0,0-.27-.43,2.76,2.76,0,0,0-.5-.42,3.9,3.9,0,0,0-.74-.41l-.13-1.29a7.05,7.05,0,0,1,1.29.72,5.9,5.9,0,0,1,.93.82,4,4,0,0,1,.59.85,3.44,3.44,0,0,1,.32.83l1.22.54.07.71-1.23-.54a1.16,1.16,0,0,1-.18.62.82.82,0,0,1-.45.34,1.68,1.68,0,0,1-.72,0,3.71,3.71,0,0,1-1-.3,5.56,5.56,0,0,1-1.06-.6,5.74,5.74,0,0,1-.81-.74,6.92,6.92,0,0,1-.65-.86c-.19-.31-.38-.65-.57-1s-.23-.42-.33-.58a2.89,2.89,0,0,0-.32-.42,2,2,0,0,0-.37-.3,2.08,2.08,0,0,0-.42-.23,2.14,2.14,0,0,0-.42-.15.94.94,0,0,0-.33,0,.34.34,0,0,0-.21.14.48.48,0,0,0,0,.31,1.22,1.22,0,0,0,.43.75,3.8,3.8,0,0,0,1.13.72l.13,1.29A8,8,0,0,1,371,211a6.76,6.76,0,0,1-.9-.72,4.39,4.39,0,0,1-.65-.8,3.21,3.21,0,0,1-.37-.83l-1.34-.59-.07-.71,1.32.58a1.3,1.3,0,0,1,.19-.62.91.91,0,0,1,.48-.32,1.55,1.55,0,0,1,.72,0,3.87,3.87,0,0,1,.95.29,5.36,5.36,0,0,1,1.06.61,4.66,4.66,0,0,1,.8.73,7,7,0,0,1,.65.87c.19.31.37.64.56,1a5.45,5.45,0,0,0,.3.55,2.36,2.36,0,0,0,.33.42,2.24,2.24,0,0,0,.37.32,3,3,0,0,0,.47.25A1.93,1.93,0,0,0,376.26,212.08Z"/><path class="v" d="M251.37,219.05a1.83,1.83,0,0,1,.3-.46,1.92,1.92,0,0,1,.28-.29l.43-.44.11.09c2.19-1.08,6.71.06,11.28,3.05,5.52,3.61,9.07,8.58,8.05,11.22l.16.12-.62.61a.76.76,0,0,0-.09.09l0,0a3.34,3.34,0,0,1-.53.37h0c-2.16,1.13-6.73,0-11.35-3C253.73,226.74,250.16,221.65,251.37,219.05Z"/><path class="d" d="M264.42,220.34c-5.62-3.68-11.17-4.55-12.39-2s2.36,7.69,8,11.36,11.18,4.55,12.39,2S270.05,224,264.42,220.34Z"/><path class="w" d="M254.85,218.39a1.73,1.73,0,0,0-1.18.93c-.44,1,0,2.49,1.28,4.22a21.65,21.65,0,0,0,5.61,5.14c2.88,1.89,5.88,3,7.92,3a3.9,3.9,0,0,0,1.12-.14,1.75,1.75,0,0,0,1.18-.93c.44-1,0-2.49-1.28-4.21a21.48,21.48,0,0,0-5.61-5.14c-2.89-1.89-5.88-3-7.93-3A4.67,4.67,0,0,0,254.85,218.39ZM260.33,229a22.09,22.09,0,0,1-5.71-5.24c-1.36-1.88-1.83-3.52-1.32-4.63a2.11,2.11,0,0,1,1.44-1.15c2.08-.6,5.76.55,9.37,2.92a22.13,22.13,0,0,1,5.72,5.23c1.36,1.88,1.83,3.52,1.32,4.63a2.18,2.18,0,0,1-1.44,1.16,4.79,4.79,0,0,1-1.24.15C266.33,232.09,263.31,231,260.33,229Z"/><path class="w" d="M264.91,226.52a.67.67,0,0,0,.32,0,.34.34,0,0,0,.2-.17.56.56,0,0,0,0-.33,1.25,1.25,0,0,0-.1-.39,1.65,1.65,0,0,0-.28-.43,3.07,3.07,0,0,0-.49-.43,4.3,4.3,0,0,0-.75-.4l-.12-1.29a7.13,7.13,0,0,1,1.29.72,5.9,5.9,0,0,1,.93.82,3.73,3.73,0,0,1,.59.85,3.39,3.39,0,0,1,.31.83l1.23.54.07.71-1.23-.55a1.3,1.3,0,0,1-.18.63.82.82,0,0,1-.46.33,1.37,1.37,0,0,1-.71,0,3.77,3.77,0,0,1-1-.3,4.81,4.81,0,0,1-1.05-.6,5.19,5.19,0,0,1-.81-.73,6.16,6.16,0,0,1-.65-.87c-.19-.31-.38-.65-.57-1s-.23-.41-.33-.57a2.92,2.92,0,0,0-.33-.42,2.11,2.11,0,0,0-.36-.31,3.3,3.3,0,0,0-.42-.23,1.54,1.54,0,0,0-.43-.14.7.7,0,0,0-.32,0,.27.27,0,0,0-.21.14.53.53,0,0,0-.06.31,1.3,1.3,0,0,0,.43.75,3.93,3.93,0,0,0,1.14.71l.12,1.29a7.13,7.13,0,0,1-1.13-.61,6,6,0,0,1-.9-.71,4.68,4.68,0,0,1-.64-.8,2.75,2.75,0,0,1-.37-.83l-1.35-.59-.07-.72,1.33.59a1.14,1.14,0,0,1,.18-.62.91.91,0,0,1,.48-.33,1.88,1.88,0,0,1,.72,0,4.44,4.44,0,0,1,.95.3,5.89,5.89,0,0,1,1.06.6,4.71,4.71,0,0,1,.8.74,5.49,5.49,0,0,1,.64.86,9.54,9.54,0,0,1,.56,1c.11.2.21.39.31.55a2.69,2.69,0,0,0,.33.41,1.85,1.85,0,0,0,.37.32,3,3,0,0,0,.47.26A2.1,2.1,0,0,0,264.91,226.52Z"/><path class="v" d="M365.09,304.52a2.71,2.71,0,0,1,.31-.49h0a2.83,2.83,0,0,1,.3-.3l.45-.45.12.08c2.3-1.13,7.06.07,11.87,3.22,5.82,3.79,9.55,9,8.48,11.81l.16.13-.65.64-.09.09,0,0a3.67,3.67,0,0,1-.56.38h0c-2.27,1.19-7.08,0-11.95-3.18C367.57,312.62,363.81,307.26,365.09,304.52Z"/><path class="d" d="M378.83,305.88c-5.92-3.87-11.76-4.79-13.05-2.05s2.49,8.09,8.41,12,11.77,4.79,13.06,2.05S384.76,309.75,378.83,305.88Z"/><path class="w" d="M368.75,303.83a1.81,1.81,0,0,0-1.24,1c-.47,1,0,2.62,1.35,4.44a22.9,22.9,0,0,0,5.9,5.41c3,2,6.19,3.17,8.34,3.16a4.17,4.17,0,0,0,1.17-.14,1.87,1.87,0,0,0,1.26-1c.45-1,0-2.62-1.36-4.44a22.9,22.9,0,0,0-5.9-5.41c-3-2-6.19-3.17-8.35-3.17A4.25,4.25,0,0,0,368.75,303.83ZM374.52,315a23.44,23.44,0,0,1-6-5.52c-1.43-2-1.93-3.71-1.4-4.87a2.29,2.29,0,0,1,1.53-1.22c2.18-.63,6.06.58,9.87,3.07a23.49,23.49,0,0,1,6,5.52c1.43,2,1.92,3.71,1.39,4.88a2.26,2.26,0,0,1-1.52,1.21,4.83,4.83,0,0,1-1.31.17C380.84,318.26,377.66,317.08,374.52,315Z"/><path class="w" d="M379.35,312.39a.71.71,0,0,0,.33,0,.34.34,0,0,0,.21-.18.6.6,0,0,0,.05-.35,1.12,1.12,0,0,0-.12-.41,1.27,1.27,0,0,0-.29-.45,2.67,2.67,0,0,0-.52-.45,4,4,0,0,0-.78-.42l-.13-1.37a7.84,7.84,0,0,1,1.36.76,6.08,6.08,0,0,1,1,.86,4.92,4.92,0,0,1,.63.9,3.7,3.7,0,0,1,.32.87l1.3.57.06.75-1.29-.58a1.39,1.39,0,0,1-.19.66.82.82,0,0,1-.48.35,1.65,1.65,0,0,1-.75,0,4,4,0,0,1-1-.33,5.36,5.36,0,0,1-2-1.4,7.69,7.69,0,0,1-.68-.91c-.2-.34-.4-.69-.6-1.07s-.24-.43-.35-.6a3.31,3.31,0,0,0-.34-.45,2.8,2.8,0,0,0-.38-.32,3.09,3.09,0,0,0-.44-.24,2.63,2.63,0,0,0-.45-.15.86.86,0,0,0-.35,0,.38.38,0,0,0-.22.15.64.64,0,0,0-.05.33,1.32,1.32,0,0,0,.45.79,3.75,3.75,0,0,0,1.19.75l.13,1.36a7.89,7.89,0,0,1-1.19-.64,6.1,6.1,0,0,1-.94-.76,4.41,4.41,0,0,1-.69-.83,3.55,3.55,0,0,1-.39-.88l-1.42-.63-.07-.75,1.4.62a1.16,1.16,0,0,1,.19-.65,1,1,0,0,1,.5-.35,1.72,1.72,0,0,1,.76,0,3.58,3.58,0,0,1,1,.32,5.64,5.64,0,0,1,1.12.62,5.79,5.79,0,0,1,.85.78,6.1,6.1,0,0,1,.67.91,11.74,11.74,0,0,1,.59,1.06c.11.22.22.42.32.58a2.69,2.69,0,0,0,.35.45,3.09,3.09,0,0,0,.39.33,4.48,4.48,0,0,0,.49.26A1.63,1.63,0,0,0,379.35,312.39Z"/><path class="v" d="M291.69,329.63a3.33,3.33,0,0,1,.43-.67,3.25,3.25,0,0,1,.41-.42l.62-.63.16.12c3.18-1.56,9.74.09,16.37,4.43,8,5.24,13.16,12.45,11.68,16.28l.23.17-.89.89-.14.13,0,0h0a3.92,3.92,0,0,1-.77.54h0c-3.14,1.64-9.77,0-16.47-4.37C295.12,340.79,289.93,333.4,291.69,329.63Z"/><path class="d" d="M310.64,331.5c-8.17-5.34-16.23-6.6-18-2.83s3.43,11.16,11.6,16.5,16.22,6.61,18,2.83S318.8,336.84,310.64,331.5Z"/><path class="w" d="M296.74,328.68A2.54,2.54,0,0,0,295,330c-.63,1.38.05,3.61,1.86,6.12A31.67,31.67,0,0,0,305,343.6c4.18,2.75,8.54,4.36,11.5,4.36a5.68,5.68,0,0,0,1.61-.2,2.56,2.56,0,0,0,1.73-1.35c.63-1.38-.05-3.61-1.87-6.11a31.63,31.63,0,0,0-8.13-7.46c-4.19-2.75-8.54-4.36-11.51-4.36A5.72,5.72,0,0,0,296.74,328.68Zm7.95,15.42a32,32,0,0,1-8.29-7.6c-2-2.72-2.66-5.11-1.92-6.72a3.12,3.12,0,0,1,2.09-1.68c3-.87,8.36.8,13.61,4.24a32.18,32.18,0,0,1,8.29,7.6c2,2.73,2.66,5.11,1.93,6.72a3.15,3.15,0,0,1-2.11,1.68,6.6,6.6,0,0,1-1.79.22C313.4,348.56,309,346.93,304.69,344.1Z"/><path class="w" d="M311.34,340.48a1,1,0,0,0,.47,0,.51.51,0,0,0,.28-.24.82.82,0,0,0,.07-.49,2,2,0,0,0-.16-.57,2.28,2.28,0,0,0-.4-.61,4,4,0,0,0-.71-.62,7.06,7.06,0,0,0-1.08-.6l-.18-1.87a10,10,0,0,1,1.87,1.05,8.42,8.42,0,0,1,1.35,1.19,5.85,5.85,0,0,1,.86,1.23,4.94,4.94,0,0,1,.45,1.2l1.79.78.09,1-1.79-.78a1.77,1.77,0,0,1-.25.9,1.21,1.21,0,0,1-.66.49,2.21,2.21,0,0,1-1,0,5.73,5.73,0,0,1-1.41-.44,7.46,7.46,0,0,1-1.53-.87,8,8,0,0,1-1.18-1.06,9.22,9.22,0,0,1-.93-1.27c-.28-.45-.56-.93-.84-1.46a6.78,6.78,0,0,0-.48-.83,3.47,3.47,0,0,0-.47-.62,3,3,0,0,0-.52-.44,5,5,0,0,0-.61-.33,3,3,0,0,0-.62-.21,1.13,1.13,0,0,0-.48,0,.44.44,0,0,0-.29.2.76.76,0,0,0-.08.45,1.86,1.86,0,0,0,.62,1.1,5.65,5.65,0,0,0,1.65,1l.18,1.87a9.44,9.44,0,0,1-1.64-.88,8.81,8.81,0,0,1-1.31-1,6.29,6.29,0,0,1-.94-1.16,4.54,4.54,0,0,1-.54-1.2l-1.95-.86-.1-1,1.92.85a1.62,1.62,0,0,1,.28-.89,1.19,1.19,0,0,1,.68-.47,2.4,2.4,0,0,1,1.05,0,6.29,6.29,0,0,1,1.38.43,8.64,8.64,0,0,1,1.54.88,7.46,7.46,0,0,1,1.17,1.06,9.76,9.76,0,0,1,.93,1.26c.27.46.54.94.81,1.47.15.3.3.56.44.79a3.81,3.81,0,0,0,.48.61,2.63,2.63,0,0,0,.54.46,4.32,4.32,0,0,0,.68.37A2.81,2.81,0,0,0,311.34,340.48Z"/><path class="v" d="M378.58,286.61a3.49,3.49,0,0,1,.48-.76h0a3.48,3.48,0,0,1,.47-.47l.7-.71.18.14c3.59-1.76,11,.1,18.51,5,9.07,5.93,14.89,14.09,13.21,18.42l.26.19-1,1-.15.15,0,0h0a4.65,4.65,0,0,1-.87.61h0c-3.54,1.86-11,0-18.62-4.95C382.45,299.22,376.58,290.88,378.58,286.61Z"/><path class="d" d="M400,288.73c-9.24-6-18.34-7.47-20.34-3.21s3.87,12.63,13.11,18.66,18.34,7.47,20.34,3.2S409.24,294.76,400,288.73Z"/><path class="w" d="M384.29,285.53a2.9,2.9,0,0,0-2,1.53c-.71,1.56.05,4.08,2.11,6.92a35.71,35.71,0,0,0,9.2,8.43c4.74,3.1,9.66,4.93,13,4.93a6.45,6.45,0,0,0,1.83-.23,2.83,2.83,0,0,0,1.94-1.53c.72-1.56,0-4.08-2.1-6.91a35.74,35.74,0,0,0-9.2-8.44c-4.74-3.1-9.66-4.93-13-4.93A6.81,6.81,0,0,0,384.29,285.53Zm9,17.44a36.09,36.09,0,0,1-9.38-8.6c-2.23-3.08-3-5.78-2.17-7.59a3.49,3.49,0,0,1,2.37-1.9c3.41-1,9.45.9,15.39,4.79a36.43,36.43,0,0,1,9.38,8.6c2.23,3.08,3,5.78,2.17,7.6a3.5,3.5,0,0,1-2.38,1.89,7.46,7.46,0,0,1-2,.26C403.13,308,398.18,306.18,393.28,303Z"/><path class="v" d="M228.32,252.5a3.27,3.27,0,0,1,.48-.76,3,3,0,0,1,.47-.48l.7-.71.18.14c3.59-1.76,11,.1,18.51,5,9.07,5.92,14.89,14.08,13.21,18.42l.25.19-1,1-.15.15,0,0h0a3.88,3.88,0,0,1-.87.61h0c-3.55,1.86-11,0-18.63-5C232.19,265.12,226.32,256.77,228.32,252.5Z"/><path class="d" d="M249.74,254.61c-9.24-6-18.35-7.46-20.34-3.19s3.87,12.62,13.11,18.65,18.34,7.47,20.34,3.2S259,260.65,249.74,254.61Z"/><path class="w" d="M234,251.42a2.9,2.9,0,0,0-1.95,1.53c-.71,1.56,0,4.08,2.11,6.92a35.71,35.71,0,0,0,9.2,8.43c4.74,3.11,9.65,4.93,13,4.93a6.45,6.45,0,0,0,1.83-.23,2.88,2.88,0,0,0,1.94-1.52c.72-1.57-.05-4.09-2.1-6.92a35.7,35.7,0,0,0-9.2-8.43c-4.74-3.11-9.66-4.93-13-4.93A6.72,6.72,0,0,0,234,251.42Zm9,17.45a36.44,36.44,0,0,1-9.38-8.6c-2.23-3.09-3-5.79-2.17-7.6a3.48,3.48,0,0,1,2.37-1.89c3.41-1,9.45.89,15.39,4.78a36.59,36.59,0,0,1,9.38,8.6c2.23,3.08,3,5.78,2.17,7.6a3.5,3.5,0,0,1-2.38,1.89,7.09,7.09,0,0,1-2,.26C252.87,273.91,247.91,272.07,243,268.87Z"/><path class="v" d="M273.48,327.12a2.3,2.3,0,0,0-.33-.52h0a2.5,2.5,0,0,0-.32-.33l-.49-.49-.13.09c-2.49-1.22-7.65.08-12.87,3.48-6.3,4.12-10.35,9.79-9.18,12.81l-.18.13.7.7.1.1,0,0h0a2.85,2.85,0,0,0,.6.43h0c2.47,1.29,7.68,0,13-3.44C270.79,335.9,274.87,330.09,273.48,327.12Z"/><path class="d" d="M258.59,328.59c6.42-4.19,12.76-5.18,14.14-2.22s-2.69,8.78-9.11,13-12.75,5.19-14.14,2.22S252.17,332.79,258.59,328.59Z"/><path class="w" d="M268.25,326.21c-2.33,0-5.75,1.28-9,3.43a24.82,24.82,0,0,0-6.41,5.87c-1.42,2-2,3.72-1.45,4.81a2,2,0,0,0,1.35,1.06,4.5,4.5,0,0,0,1.27.16c2.32,0,5.75-1.27,9-3.43a24.9,24.9,0,0,0,6.4-5.86c1.43-2,2-3.72,1.46-4.81a2,2,0,0,0-1.35-1.06A4.54,4.54,0,0,0,268.25,326.21ZM254,342a5.13,5.13,0,0,1-1.41-.18,2.42,2.42,0,0,1-1.65-1.32c-.59-1.26,0-3.14,1.5-5.28a25.52,25.52,0,0,1,6.52-6c4.13-2.7,8.33-4,10.7-3.33a2.47,2.47,0,0,1,1.65,1.32c.58,1.26,0,3.14-1.51,5.28a25,25,0,0,1-6.52,6C259.87,340.73,256.41,342,254,342Z"/><path class="w" d="M258.52,335.5a5.25,5.25,0,0,0,.53-.29,2.86,2.86,0,0,0,.42-.36,2.92,2.92,0,0,0,.37-.48,7.07,7.07,0,0,0,.36-.63c.21-.41.42-.79.63-1.15a7.09,7.09,0,0,1,.74-1,5.75,5.75,0,0,1,.92-.84,6.28,6.28,0,0,1,1.21-.68,4.72,4.72,0,0,1,1.08-.34,1.88,1.88,0,0,1,.83,0,1,1,0,0,1,.53.37,1.16,1.16,0,0,1,.21.7l1.52-.67-.08.82-1.53.68a3.58,3.58,0,0,1-.43.94,4.77,4.77,0,0,1-.74.91,6.64,6.64,0,0,1-1,.82,8.76,8.76,0,0,1-1.29.7l.14-1.48a4.41,4.41,0,0,0,1.3-.81,1.43,1.43,0,0,0,.48-.86.53.53,0,0,0-.05-.35.36.36,0,0,0-.24-.16.84.84,0,0,0-.38,0,2.44,2.44,0,0,0-.48.16,2.77,2.77,0,0,0-.48.26,2.63,2.63,0,0,0-.41.35,2.75,2.75,0,0,0-.37.48,6.16,6.16,0,0,0-.38.66c-.22.41-.43.79-.65,1.14a7.39,7.39,0,0,1-.74,1,6.75,6.75,0,0,1-.92.84,6.6,6.6,0,0,1-1.21.68,4.59,4.59,0,0,1-1.1.35,1.92,1.92,0,0,1-.81,0,.93.93,0,0,1-.52-.38,1.29,1.29,0,0,1-.2-.71l-1.42.62.09-.81,1.39-.62a4.4,4.4,0,0,1,.36-.94,4.89,4.89,0,0,1,.68-1,6.13,6.13,0,0,1,1.06-.93,8.46,8.46,0,0,1,1.47-.83l-.14,1.47a5.49,5.49,0,0,0-.85.47,2.77,2.77,0,0,0-.56.49,1.6,1.6,0,0,0-.44.93.72.72,0,0,0,.05.38.43.43,0,0,0,.23.19.71.71,0,0,0,.36,0A2.35,2.35,0,0,0,258.52,335.5Z"/><polygon class="a" points="357.41 209.65 357.41 319.3 353.66 317.55 349.43 319.3 347.71 317.65 342.45 319.3 338.88 318.25 332.62 319.3 326.82 318.25 320.2 319.3 315.78 317.65 309.67 319.3 304.75 318.25 299.14 319.3 293.2 318.25 289.29 319.3 285.04 318.25 280.25 319.3 280.25 209.65 357.41 209.65"/><path class="x" d="M343.65,225.71H292.06a.9.9,0,1,1,0-1.79h51.59a.9.9,0,0,1,0,1.79Z"/><path class="x" d="M343.65,233.25H292.06a.9.9,0,1,1,0-1.79h51.59a.9.9,0,0,1,0,1.79Z"/><rect class="x" x="301.8" y="238.99" width="32.1" height="1.79" rx="0.82"/><rect class="x" x="301.8" y="246.52" width="32.1" height="1.79" rx="0.82"/><rect class="x" x="301.8" y="254.05" width="32.1" height="1.79" rx="0.82"/><path class="x" d="M317.9,269.94a14.73,14.73,0,1,0,14.72,14.73A14.74,14.74,0,0,0,317.9,269.94Zm0,30.74a16,16,0,1,1,16-16A16,16,0,0,1,317.9,300.68Z"/><polygon class="i" points="308.6 280.93 318.21 293.44 325.78 274.89 316.77 284.5 308.6 280.93"/><path class="p" d="M518.79,218.23c0-.14,2.05-4.4,1.4-4.73s-1.83-.28-2,.47A25.64,25.64,0,0,0,518.79,218.23Z"/><path class="q" d="M549.5,165.3s12.07-14.51,18.46-5.22c0,0,4.76,2,6.49,10.09,1.76,8.29-3.75,14.58-6.6,13-1.82-1-3.2,2.2-3.2,2.2Z"/><path class="p" d="M534.54,242.52c-9.59-3.53-18.84-20-18.84-20l3-2.12c2.52,3.68,13.86,10.77,13.86,10.77a83.86,83.86,0,0,1,1.1-8.48c3.15-17.37,10.34-22.51,12.28-23.6a4.48,4.48,0,0,1,.48-.25s0,.13,0,.37c0,.52-.09,1.58-.19,3C545.49,213,542.56,245.48,534.54,242.52Z"/><path class="q" d="M566.64,158.61s1.62-6.5,11.16-4.47c0,0-4.57-.57-5.81,1.19,0,0,3.61-1.66,5.88-.27s2.63,6.05,2.29,7.47-2.83,5.65-4.49,5.65a7.63,7.63,0,0,1-3.62-1.45Z"/><path class="p" d="M580.91,260.25c-4.74-10.63-7-13.64-7.09-17-.06-2.65,1.25-5.5,3.78-12.5a25.58,25.58,0,0,0,1.26-5.07c2-13.5-5.8-28.08-10.65-29.08-1.34-.36-3.63-5.23-3.6-13.09l-.61.12-10.21,2s.23,3.22.24,6.25c0,2.52-.14,4.92-.71,5.21l-1.18.12s-8.51,11.82-9.23,22.83,6.82,15.78,0,37.76C535.84,280.29,583.52,266.13,580.91,260.25Z"/><path class="y" d="M553.79,185.66s.23,3.22.24,6.25c5.71-.16,8.73-5.37,10-8.27Z"/><path class="n" d="M565.05,182.53s3-4.73,3.71-8.78c.52-2.89-1-13.6-11.71-12.06A14.67,14.67,0,0,0,551,164c-2.34,1.58-5.7,5-1.94,14.34l1,3.15Z"/><path class="p" d="M551.88,188.53s13.52.22,13.53-8.2,1.76-14.07-6.88-14.57-10.3,2.72-11,5.52S548.36,188.26,551.88,188.53Z"/><path class="q" d="M552.38,165.55s3.7,9.89,9.38,11.35,8.15-.06,8.15-.06a16.1,16.1,0,0,1-5.26-9.51S555.17,160.85,552.38,165.55Z"/><path class="q" d="M553.3,166.36s-2.77,2.21-3.44,4.35-1,6.56-2.26,6.41c0,0-2.79-6.72.34-10.51C551.26,162.57,553.3,166.36,553.3,166.36Z"/><path class="n" d="M568.94,362.31a133.69,133.69,0,0,1-8.52,23.92l-4.46-.31A126.62,126.62,0,0,0,558,361.46c-.09-9.83-1.3-21.45-5.18-32.54-13.34-38.12-11.18-65.85-11.18-65.85L566.74,266l1.16.14c.11,11.52.41,27.17.67,39.41.23,11,.43,19.24.43,19.24C573.82,335.19,572.07,349.86,568.94,362.31Z"/><path class="p" d="M598.48,271.55l-4.05,1.22s-13.39-22.23-14.6-28c-.4-1.88-1.38-5.65-2.51-9.87-2.35-8.74-5.39-19.44-5.39-19.44l-1-4.33-3.4-14.77s6.52.67,10.34,2.27a4.76,4.76,0,0,1,2.56,1.89c2.81,6.17,5.6,21.74,7.57,32.84,1.09,6.19,1.93,11,2.37,12C591.59,248.21,595.3,263.84,598.48,271.55Z"/><path class="n" d="M583.33,360.15c-1.44,15.41-7.79,25.36-7.79,25.36l-2.13,1.55s-2-10.85-3.44-23.75c-1.36-12.27-3.22-25.26-5.33-29.22-8.36-15.72-10.88-75-10.88-75l25.43-1.26c2.55,4.3,3.66,11.36,3.93,19.38.67,20.25-4.09,46.66-4.8,50.47h0a1.36,1.36,0,0,0,.16.86C583.55,338.52,584.28,350,583.33,360.15Z"/><path class="n" d="M552.79,166.69s2.63,10.35,9.8,13.67c0,0-7.17-6.36-7.78-13.19S552.79,166.69,552.79,166.69Z"/><path class="i" d="M584.09,267.93a5.75,5.75,0,0,1-.16,2c-.54,1.71-2.4,2.48-6.89,2-2.74-.29-4-4.89-4.51-8.82-1.65,5.62-4,8.78-6.95,9.44-4.35,1-26.32,3.64-27.75-6.81C536.24,254.3,541,234,541.24,223a53.89,53.89,0,0,1-.8-10.16c.18-7.82,2.47-12.2,4.24-14,.49-.38,1-.62,3-1,1-.17,2.44-.37,4.46-.63a7.41,7.41,0,0,1,.8-.07c-.38.67-5.35,8.2-5,10.15s18,.2,19.26-.92,3.15-9.66,3.15-9.66,6.25.68,9.3,2.91l0,0a2.53,2.53,0,0,1,.8.85c3.27,6.21,6.52,21.9,8.81,33.08a16.32,16.32,0,0,1-11.9,1.74C579.34,248.23,583.8,262.06,584.09,267.93Z"/><path class="p" d="M518.73,220.44c0-.42.35-6.46-.72-7.73s-3.27-3.07-4-3-3.39,3.65-2.58,6.4,4.24,6.47,4.24,6.47Z"/><path class="z" d="M523.66,213.05l-6.26,1.87a.4.4,0,0,1-.49-.26l-3.57-11.94a.39.39,0,0,1,.26-.49l6.26-1.88a.4.4,0,0,1,.49.27l3.57,11.94A.38.38,0,0,1,523.66,213.05Z"/><path class="aa" d="M522,213.53l-5.68,1.71a.69.69,0,0,1-.86-.47l-3.41-11.36a.71.71,0,0,1,.47-.87l5.68-1.7a.69.69,0,0,1,.86.47l3.4,11.36A.69.69,0,0,1,522,213.53Z"/><path class="p" d="M583.33,360.15c-1.44,15.41-7.79,25.37-7.79,25.37l-2.17,2s-2-11.28-3.4-24.18C571.47,363.41,578.09,363.66,583.33,360.15Z"/><path class="ab" d="M568.94,362.31a133.69,133.69,0,0,1-8.52,23.92l-4.46-.31A125.67,125.67,0,0,0,558,361.46C559.53,362.22,562.66,363,568.94,362.31Z"/><path class="q" d="M563,390h-2.85c-.95-.15-1.65-.42-2.63-.55a2.65,2.65,0,0,0-2.31.55l0,0H543.09c-.31-.43,0-1.44.28-2.18a1.72,1.72,0,0,1,1.13-1,13,13,0,0,0,6.12-2.79c1.3-1.18,6.29-4.33,6.29-4.33h0c.12,0,.64.17,2.9,2.08,1.18,1,3.17-1.4,3.17-1.4a2.8,2.8,0,0,1,.66.89,3,3,0,0,1,.26,1.86,11.9,11.9,0,0,0,.87,4.48c.28.83.51,1.42.51,1.42S565.43,389.66,563,390Z"/><path class="ac" d="M563.66,381.22a9.16,9.16,0,0,1-3.07,1.55c-1.28.17-3.68-3.11-3.68-3.11h0c.11,0,.63.17,2.9,2.08,1.17,1,3.17-1.4,3.17-1.4A2.8,2.8,0,0,1,563.66,381.22Z"/><path class="ac" d="M563,390h-2.85c-.95-.15-1.65-.42-2.63-.55a2.65,2.65,0,0,0-2.31.55l0,0H543.09c-.31-.43,0-1.44.28-2.18.36-.33.47,1.42.67,1.7s9.86.1,10.41-.31a5.91,5.91,0,0,1,4.57-.56c2,.49,5-.76,5.76-1.08.28.83.52,1.41.52,1.41S565.43,389.66,563,390Z"/><path class="q" d="M578.17,390h-2.85c-1-.15-1.66-.42-2.63-.55a2.64,2.64,0,0,0-2.31.55l0,0H558.27c-.3-.43,0-1.44.27-2.18a1.76,1.76,0,0,1,1.14-1A13,13,0,0,0,565.8,384c1.3-1.18,6.29-4.33,6.29-4.33h0c.11,0,.64.17,2.9,2.08,1.17,1,3.17-1.4,3.17-1.4a2.7,2.7,0,0,1,.65.89,3,3,0,0,1,.27,1.86,12.07,12.07,0,0,0,.86,4.48c.28.83.52,1.42.52,1.42S580.62,389.66,578.17,390Z"/><path class="ac" d="M578.83,381.22a9.11,9.11,0,0,1-3.06,1.55c-1.28.17-3.68-3.11-3.68-3.11h0c.11,0,.64.17,2.9,2.08,1.17,1,3.17-1.4,3.17-1.4A2.7,2.7,0,0,1,578.83,381.22Z"/><path class="ac" d="M578.17,390h-2.85c-1-.15-1.66-.42-2.63-.55a2.64,2.64,0,0,0-2.31.55l0,0H558.27c-.3-.43,0-1.44.27-2.18.37-.33.48,1.42.68,1.7s9.86.1,10.42-.31a5.86,5.86,0,0,1,4.56-.56c2,.49,5-.76,5.76-1.08.28.83.52,1.41.52,1.41S580.62,389.66,578.17,390Z"/><path class="ad" d="M584.09,267.93c-3-1-6.89-3.69-11.54-9.71-12.31-15.91-1-34.62.47-35s4.35,12.1,4.35,12.1C579.34,248.23,583.8,262.06,584.09,267.93Z"/><path class="i" d="M545.44,198.48s-8.43,4.25-11.24,21.38c0,0,2.77,3.79,6.65,4.9a7.12,7.12,0,0,0,1.73.3C547.36,225.31,545.44,198.48,545.44,198.48Z"/><path class="p" d="M513.4,210.15s2.61-4,3.24-3.78c.91.31-2.35,5.41-2.35,5.41s2.42-3.81,2.8-3.52c.86.65-.51,3-1.87,4.87,0,0,2.43-2.23,2.51-1.83.28,1.41-2.67,4.82-2.67,4.82l-1.65-3.77v-2.2Z"/><path class="p" d="M511.45,213.87c.13-.49.76-10.06,1-9.16s.91,5.94.91,5.94Z"/><path class="a" d="M554.52,183.53s-.23,1-2.7.84c0,0-2.07-.12-2-1.22A6.7,6.7,0,0,1,554.52,183.53Z"/><path class="a" d="M502,179.53a9.11,9.11,0,1,1,9.1,9.11A9.1,9.1,0,0,1,502,179.53Z"/><path class="d" d="M512.14,181.7a1.55,1.55,0,0,0-.07-.5,1,1,0,0,0-.26-.38,1.64,1.64,0,0,0-.45-.33,5.89,5.89,0,0,0-.69-.3c-.47-.17-.88-.35-1.27-.53a4.3,4.3,0,0,1-1-.64,2.51,2.51,0,0,1-.62-.83,2.81,2.81,0,0,1,0-2.16,2.29,2.29,0,0,1,.58-.8,2.92,2.92,0,0,1,.9-.56,4.11,4.11,0,0,1,1.17-.25l0-1.42h1.14l0,1.45a3.51,3.51,0,0,1,1.11.34,2.91,2.91,0,0,1,.85.65,2.68,2.68,0,0,1,.52.94,3.52,3.52,0,0,1,.17,1.2l-2.07,0a1.75,1.75,0,0,0-.33-1.2,1.18,1.18,0,0,0-.95-.4,1.33,1.33,0,0,0-.55.08.86.86,0,0,0-.39.24,1,1,0,0,0-.23.36,1.39,1.39,0,0,0-.08.46,1.33,1.33,0,0,0,.07.45,1,1,0,0,0,.25.37,2.19,2.19,0,0,0,.45.33,7.5,7.5,0,0,0,.72.32c.46.18.88.36,1.25.55a4.49,4.49,0,0,1,1,.64,2.82,2.82,0,0,1,.62.84,2.76,2.76,0,0,1,.21,1.12,2.69,2.69,0,0,1-.22,1.05,2.35,2.35,0,0,1-.59.8,2.8,2.8,0,0,1-.91.53,4.18,4.18,0,0,1-1.17.25l0,1.32-1.14,0,0-1.31a5.08,5.08,0,0,1-1.15-.28,3.19,3.19,0,0,1-1-.59,2.7,2.7,0,0,1-.68-1,3.36,3.36,0,0,1-.23-1.37l2.07,0a2,2,0,0,0,.12.78,1.32,1.32,0,0,0,.35.52,1.28,1.28,0,0,0,.5.27,2.61,2.61,0,0,0,.57.09,2.18,2.18,0,0,0,.6-.08,1.2,1.2,0,0,0,.42-.23,1,1,0,0,0,.27-.36A1.45,1.45,0,0,0,512.14,181.7Z"/><path class="a" d="M524.34,140.81A13.17,13.17,0,1,1,537.51,154,13.17,13.17,0,0,1,524.34,140.81Z"/><path class="d" d="M539.07,144a2,2,0,0,0-.11-.72,1.42,1.42,0,0,0-.36-.56,2.66,2.66,0,0,0-.66-.47,6.49,6.49,0,0,0-1-.43c-.67-.25-1.28-.51-1.83-.77a5.88,5.88,0,0,1-1.4-.93,3.51,3.51,0,0,1-.9-1.2,4.13,4.13,0,0,1,0-3.12,3.5,3.5,0,0,1,.84-1.17,4.35,4.35,0,0,1,1.3-.79,5.57,5.57,0,0,1,1.7-.38l0-2.06,1.66,0,0,2.08a5.06,5.06,0,0,1,1.61.5,3.8,3.8,0,0,1,1.22.94,4,4,0,0,1,.76,1.36,5.05,5.05,0,0,1,.25,1.74l-3-.05a2.55,2.55,0,0,0-.49-1.73,1.71,1.71,0,0,0-1.36-.59,2,2,0,0,0-.81.12,1.5,1.5,0,0,0-.56.34,1.48,1.48,0,0,0-.33.54,2,2,0,0,0-.11.66,1.87,1.87,0,0,0,.09.64,1.42,1.42,0,0,0,.36.54,2.55,2.55,0,0,0,.66.47,9.72,9.72,0,0,0,1,.47c.67.26,1.27.52,1.81.79a6.18,6.18,0,0,1,1.41.94,3.79,3.79,0,0,1,.9,1.21,3.87,3.87,0,0,1,.3,1.62,3.65,3.65,0,0,1-.32,1.52,3.35,3.35,0,0,1-.85,1.15,4.26,4.26,0,0,1-1.31.78,6.32,6.32,0,0,1-1.7.36l0,1.92-1.66,0,0-1.91a6.63,6.63,0,0,1-1.65-.4,4.33,4.33,0,0,1-1.42-.85,3.9,3.9,0,0,1-1-1.39,4.85,4.85,0,0,1-.35-2l3,0a3,3,0,0,0,.17,1.15,2,2,0,0,0,.5.74,2,2,0,0,0,.73.39,3.34,3.34,0,0,0,.83.13,2.84,2.84,0,0,0,.86-.12,1.69,1.69,0,0,0,.62-.34,1.37,1.37,0,0,0,.38-.51A2,2,0,0,0,539.07,144Z"/><path class="a" d="M544.19,90.22a24.49,24.49,0,1,0-28.83,19.24A24.48,24.48,0,0,0,544.19,90.22Z"/><path class="d" d="M523.07,91.27a3.91,3.91,0,0,0-.2-1.33,2.64,2.64,0,0,0-.68-1A4.86,4.86,0,0,0,521,88a13.42,13.42,0,0,0-1.85-.8,36.12,36.12,0,0,1-3.41-1.44,11.79,11.79,0,0,1-2.61-1.71,6.75,6.75,0,0,1-1.67-2.25,6.83,6.83,0,0,1-.57-3,7.14,7.14,0,0,1,.58-2.77A6.49,6.49,0,0,1,513,73.85a7.8,7.8,0,0,1,2.42-1.47,10.47,10.47,0,0,1,3.14-.7l.06-3.83,3.08,0-.05,3.89a9.5,9.5,0,0,1,3,.92A7.17,7.17,0,0,1,528.33,77a9.51,9.51,0,0,1,.47,3.24l-5.57-.08a4.74,4.74,0,0,0-.91-3.23,3.28,3.28,0,0,0-2.54-1.1,4.19,4.19,0,0,0-1.49.21,2.94,2.94,0,0,0-1,.66,2.67,2.67,0,0,0-.61,1,4.06,4.06,0,0,0-.21,1.23,3.26,3.26,0,0,0,.18,1.2,2.61,2.61,0,0,0,.65,1,5.11,5.11,0,0,0,1.23.87,17.57,17.57,0,0,0,1.93.87c1.24.48,2.37,1,3.38,1.48A11.28,11.28,0,0,1,526.4,86a6.88,6.88,0,0,1,1.67,2.25,7.11,7.11,0,0,1,.57,3,7,7,0,0,1-.6,2.82,6.35,6.35,0,0,1-1.58,2.15A7.63,7.63,0,0,1,524,97.71a11.35,11.35,0,0,1-3.16.67l-.05,3.57-3.06,0,0-3.54a12.92,12.92,0,0,1-3.09-.75A8,8,0,0,1,512.09,96a7.19,7.19,0,0,1-1.81-2.57,8.94,8.94,0,0,1-.65-3.7l5.57.07a5.54,5.54,0,0,0,.33,2.13,3.65,3.65,0,0,0,.93,1.38,3.42,3.42,0,0,0,1.35.73,5.81,5.81,0,0,0,1.55.23,4.89,4.89,0,0,0,1.6-.21,3.35,3.35,0,0,0,1.15-.63,2.67,2.67,0,0,0,.71-1A3.24,3.24,0,0,0,523.07,91.27Z"/><path class="a" d="M113.55,157.34a24,24,0,1,0-24-24A24,24,0,0,0,113.55,157.34Z"/><path class="d" d="M103.61,127.82h.63v-1h3.27v1h.63v14.45H103.6V127.82Zm10.18-7.37,10.18,5.3-20.9,0Zm9.65,7.37v14.45h-4.18V127.82h.63v-1h2.91v1Zm-13.75,0h.63v-1h6.75v1h.63v14.45h-8Zm18.5,15.27v-.41h-.29v-.41H125V127.82h.63v-1h2.91l-14.74-7.75-15.27,7.75h2.9v1h.63v14.45H99.43v.41h-.29v.41h-.4v.41h29.85v-.41Z"/><path class="d" d="M114.44,123.31a.89.89,0,0,0-.25-.16,1.92,1.92,0,0,0-.32-.14l-.18-.08s-.09-.05-.11-.09a.16.16,0,0,1-.07-.09.37.37,0,0,1,0-.11s0-.08,0-.12a.31.31,0,0,1,.07-.09.18.18,0,0,1,.09-.06.34.34,0,0,1,.15,0,.26.26,0,0,1,.23.1.41.41,0,0,1,.09.31h.53a.94.94,0,0,0,0-.3.56.56,0,0,0-.13-.24.73.73,0,0,0-.22-.16A.77.77,0,0,0,114,122v-.37h-.29V122a1,1,0,0,0-.29.07.59.59,0,0,0-.23.14.5.5,0,0,0-.15.2.58.58,0,0,0-.06.26.68.68,0,0,0,.06.29.65.65,0,0,0,.16.21.84.84,0,0,0,.24.16l.32.14.18.07.12.08s0,.07.06.1a.51.51,0,0,1,0,.13.2.2,0,0,1,0,.11.2.2,0,0,1-.18.15.32.32,0,0,1-.14,0,.4.4,0,0,1-.15,0,.31.31,0,0,1-.13-.06.43.43,0,0,1-.09-.13.66.66,0,0,1,0-.21h-.52a1,1,0,0,0,.06.36.81.81,0,0,0,.17.24.58.58,0,0,0,.25.15l.29.07v.33h.3v-.33a1.33,1.33,0,0,0,.3-.06.88.88,0,0,0,.23-.14.75.75,0,0,0,.15-.2.59.59,0,0,0,.05-.27.61.61,0,0,0-.05-.28A.69.69,0,0,0,114.44,123.31Z"/><path class="p" d="M128.82,202.14c-1,2.74-2.78,5.91-4.62,6.7a7.2,7.2,0,0,0-3,2.15l-1.69-1-2-1.17s0-.23.14-.59.26-.88.46-1.44a2,2,0,0,0,.24-1.8,4.18,4.18,0,0,1,.34-3.48c.65-.95,1.28-3.27,1.67-3.2.94.16-.47,3.35-.06,3.94a.7.7,0,0,0,.9.32h0c2.65-1.17,5.87-7.46,7.29-6.61C129.05,196.29,129.26,201,128.82,202.14Z"/><path class="n" d="M119.65,206l3.32,2.34a.53.53,0,0,0,.73-.13l8.51-12.11a.54.54,0,0,0-.13-.73L128.76,193a.54.54,0,0,0-.73.13l-8.5,12.12A.51.51,0,0,0,119.65,206Z"/><path class="n" d="M122.69,208.09l2,1.37a.4.4,0,0,0,.55-.1L133.84,197a.4.4,0,0,0-.1-.55l-2-1.36a.38.38,0,0,0-.54.09l-8.65,12.32A.4.4,0,0,0,122.69,208.09Z"/><path class="n" d="M72,188.57s16.9,29.49,23,34.91l22.47-16.76A8.17,8.17,0,0,1,122.2,211s-13.64,27.82-27.08,29-32.29-33.35-32.29-33.35Z"/><path class="q" d="M33.8,389.13H24a5.91,5.91,0,0,1-2.67-4.47c-.48-3.15-4-4.87-4.76-7.44s3.14-6.2,3.14-6.2l.65-.84.68-.88,6.48,1.53s.16,1.54.26,3.51c.07,1.42.1,3.06,0,4.5-.19,3.43,1,7.12,4,7.79C34.1,387.13,34,388.47,33.8,389.13Z"/><path class="q" d="M90.44,389.13H68.12c-1.07-1.31-.68-6.15-.51-7.73l0-.5s7.62-6.1,8.67-1.44c0,.15.07.3.11.44,1.33,4.37,7.24,6.35,10.66,6.91C89.32,387.17,90.14,388.33,90.44,389.13Z"/><path class="i" d="M86.19,264.44S85,278.89,83.67,296.26c-1.85,23.6-4.07,52.58-4.29,58.08-.38,9.53-1.91,24.78-1.91,24.78s-3.61,3.63-10.86,2.1a250.12,250.12,0,0,1-8.3-44.81c0-.38-.05-.76-.08-1.14-1.72-23.46-4.38-72.84-4.38-72.84Z"/><path class="ae" d="M86.19,264.44S85,278.89,83.67,296.26L58.32,336.41l-.09-1.14c-1.71-23.45-4.38-72.84-4.38-72.84Z"/><path class="i" d="M80.91,266.16S60,318.49,46.32,343.09s-18,31.46-18,31.46-7.86-3.15-8.57-5.29c0,0,5.24-47.49,14.43-59.06,5.2-6.54,11.29-26.17,11.58-33s1.85-20.45,1.85-20.45Z"/><path class="p" d="M75.71,189.85c-8.15,2.58-22.26-4.37-22.26-4.37s7.52-5.64,7.13-17.38l6.3,5.08,4.28,3.45a48.42,48.42,0,0,1-.49,5.6c-.12.94-.27,2-.46,3.13A19.73,19.73,0,0,1,75.71,189.85Z"/><path class="r" d="M71.16,176.63a51.73,51.73,0,0,1-.49,5.61c-4.74-.82-10.12-8.49-10.12-8.49a15.18,15.18,0,0,1,6.33-.57Z"/><path class="p" d="M73.66,176.44s-13.47,2.24-14.74-6.18-3.85-13.79,4.7-15.57,10.7,1.17,11.8,3.88S77.13,175.64,73.66,176.44Z"/><path class="n" d="M87.09,265.64a1.3,1.3,0,0,1-.86.33c-3.06,0-12,1.66-19.54.88a56.37,56.37,0,0,1-18.06-5.21c-.8-.37-2.65-1.35-2.61-2.25s.12-2.41.25-4.21a228.28,228.28,0,0,0,.45-29.41q-.19-3.48-.21-6.87c-.06-16.81,3.27-31.6,10-36.6.57-.41,4.09,1.3,7.31,2.9a13.34,13.34,0,0,0,8.77,1.06l2.82,2.49a28.16,28.16,0,0,1,8.82,14.1c1.39,5.59,2.21,15.69,2.66,26.14.2,4.74.37,9.53.41,14.06v.16c0,.45,0,.94,0,1.4C87.46,256.24,87.29,265.48,87.09,265.64Z"/><path class="n" d="M46.27,255.18a228.28,228.28,0,0,0,.45-29.41q-.19-3.48-.21-6.87c2.78-6.76,5.07-11.68,5.07-11.68h7S63.76,242.45,46.27,255.18Z"/><path class="n" d="M10.26,295.1l30,4.28a7.18,7.18,0,0,0,8.1-6.09l1.85-13a7.19,7.19,0,0,0-6.08-8.11l-30-4.27A7.18,7.18,0,0,0,6,274L4.18,287A7.18,7.18,0,0,0,10.26,295.1Z"/><path class="n" d="M22.39,266.18a.88.88,0,0,1,.73-.75h.27l1.33.19,4.94.71,2.69.38a.89.89,0,0,1,.75,1l-.4,2.81L22,269Zm23.42,9.87a7.24,7.24,0,0,0-5-4.34h0c-.23-.06-.45-.1-.69-.14l-6-.85.4-2.8a2.38,2.38,0,0,0-2-2.69L31,265l-6.27-.89L23.6,264a2.36,2.36,0,0,0-2.68,2l-.4,2.81-10.31-1.47a7.21,7.21,0,0,0-8.13,6.11L.2,286.57a7.22,7.22,0,0,0,6.11,8.14L36.23,299a6.93,6.93,0,0,0,1.57,0h0a7.13,7.13,0,0,0,2.34-.59,7.22,7.22,0,0,0,4.24-5.57l1.87-13.15A7.18,7.18,0,0,0,45.81,276.05Z"/><path class="p" d="M33.06,256.39s-1.58,2.1-1.64,2.93C31,265,33.59,265.8,26.87,269c0,0-2.86,1.1-2.91-1.13s2-2.27,1.61-5.39c-.42-3.6-.38-3.63,2-5.51l1.56-2.58Z"/><path class="n" d="M29.05,258a23.2,23.2,0,0,0,5.28.29s7.52-23.23,8.48-25.36S65.13,205.7,65.13,205.7l-8.89-22.29s-23.1,38.62-25.45,44c-3.87,9-5.22,29.07-5.22,29.07A9.7,9.7,0,0,0,29.05,258Z"/><path class="q" d="M58.92,169.46s1.38-.24,1.15-2.14-.21-4.4,1.33-3.93,1.63,1.7,2.26,1,.65-3.78,5.25-4,6.48,1.39,8.62.45,2.26-4.18,2.26-4.18a3.7,3.7,0,0,1-1.53,1.52s3.57-4.89-.57-8.24-8.35-1.16-10.75-1c-5.27.31-8.68.63-10.4,4.1S55.53,166.12,58.92,169.46Z"/><path class="p" d="M30.57,258.89s1.52,1.58,1.62,2.24c.3,2.11,1,3,.65,3.26-.73.48-1.7-1.09-2.17-2.49A6.5,6.5,0,0,1,30.57,258.89Z"/><path class="p" d="M598.49,271.55s4.89,3.25,5.64,4.63,2.49,6.42,2.49,6.42-1.25.19-2.49-2-5.36-2-6.74-3.18-3-4.66-3-4.66Z"/><path class="p" d="M595,273.84s.81,3.83,1.81,5,2.37,3,2.93,2.5-.62-4.69-.62-4.69Z"/><path class="p" d="M603.44,276.61c.13.19,4.43,4.76,4.43,4.76s-1.56.71-2,0S603.44,276.61,603.44,276.61Z"/></g></svg>