<svg xmlns="http://www.w3.org/2000/svg" viewBox="0 0 608 390"><defs><style>.a{fill:#fff;}.b{fill:#ea8e50;}.c{fill:#1e3d70;}.d{fill:#1d2942;}.e{fill:#e2810e;}.f{fill:#ffb93e;}.g{fill:#ffa412;}.h{fill:#144ef4;}.i{fill:#ffb07b;}.j{fill:#d2e3fc;}.k{fill:#a4c8fc;}.l{fill:#ffb27d;}.m{fill:#ed975d;}.n{fill:#f99746;}.o{fill:#ed7d2b;}.p{fill:#b4c9f7;}.q{fill:#9bb8ea;}.r{fill:#739af0;}.s{fill:#618dd8;}.t{fill:#ed985f;}.u{fill:#4b80f7;}.v{fill:#afcdfb;}.w{fill:#dfedfb;}.x{fill:#cde3fd;}</style></defs><rect class="a" width="608" height="390"/><rect class="a" y="0.17" width="608" height="389.66"/><rect class="a" width="608" height="390"/><path class="b" d="M512.48,243.69l-2.67,2.17s-7.31-2.62-9,6.06c0,0-.44,3.7,1.91,3.71s1.38-.41,4.7-.31,6.08-1.65,6.57-4.34l1.59-2.29Z"/><path class="c" d="M512.79,248.35c-2.13-2.23-2-3.87-2-3.87s24.7-20.21,27.2-21.86c1.71-1.12,19.9-17.24,28.41-27.06,4.21-4.87,9.44-3,15.42-1.27l4.92,1.41c6,1.7,7.49,10,2.62,14.05-13.74,11.37-36.59,24.15-40.87,26.84-10.61,6.67-31.39,14.6-31.39,14.6A13.09,13.09,0,0,1,512.79,248.35Z"/><path class="d" d="M484.6,372.5s-6,4.49-15.19,2.11c0,0-7.41-1.68-9,2,0,0,11.36,5.77,14.23,7.34a34.5,34.5,0,0,1,6,4.52,3,3,0,0,0,4.31-.34c.5-.61,1.08-1.34,1.7-2.19,1.75-2.37,5.83-10,5.83-10Z"/><path class="e" d="M552.63,214.24a41.91,41.91,0,1,0-47.19,35.83A41.89,41.89,0,0,0,552.63,214.24Z"/><path class="f" d="M544.37,238.16a41.9,41.9,0,1,0-59.28,0A41.86,41.86,0,0,0,544.37,238.16Z"/><path class="g" d="M478.83,209a35.91,35.91,0,1,0,35.91-35.88A35.94,35.94,0,0,0,478.83,209Zm8.9,27a38.23,38.23,0,1,1,27,11.17A37.92,37.92,0,0,1,487.73,236Z"/><path class="g" d="M510.1,222.08a4.39,4.39,0,0,0,1.32,1.46,5.49,5.49,0,0,0,2,.84,8,8,0,0,0,2.65.07,9.45,9.45,0,0,0,2.51-.64,5.73,5.73,0,0,0,2.1-1.43A6.05,6.05,0,0,0,522,220a9.24,9.24,0,0,0,.17-3.56l9.15-1.08a14.7,14.7,0,0,1-.42,6.18,12.23,12.23,0,0,1-2.54,4.56,13.51,13.51,0,0,1-4.06,3.05,21.65,21.65,0,0,1-4.94,1.75l.69,5.82-5,.59-.7-5.84a19.23,19.23,0,0,1-5.32-.56,12.65,12.65,0,0,1-4.25-1.94,10.53,10.53,0,0,1-3-3.25,11.72,11.72,0,0,1-1.45-4.54,10.76,10.76,0,0,1,2.78-9,18.93,18.93,0,0,1,4-3.29c1.58-1,3.35-2,5.31-3a29.72,29.72,0,0,0,3-1.74,8.35,8.35,0,0,0,1.89-1.66,4.23,4.23,0,0,0,.9-1.76,5.78,5.78,0,0,0,.08-2,6.18,6.18,0,0,0-.56-2,4.24,4.24,0,0,0-1.17-1.51,4.63,4.63,0,0,0-1.82-.89,6.84,6.84,0,0,0-2.51-.1,5.38,5.38,0,0,0-4,2.24,7.73,7.73,0,0,0-.93,5.46l-9.16,1.09a16,16,0,0,1,.21-5.4,12.33,12.33,0,0,1,1.9-4.39,12.51,12.51,0,0,1,3.44-3.27,15.78,15.78,0,0,1,4.77-2l-.76-6.38,5.06-.6.75,6.29a17.48,17.48,0,0,1,5.29.61,13.3,13.3,0,0,1,4.24,2,10.59,10.59,0,0,1,3,3.29,12.56,12.56,0,0,1,1,9.53,11.18,11.18,0,0,1-2.37,4,19.38,19.38,0,0,1-4,3.27q-2.4,1.49-5.37,2.94a23.67,23.67,0,0,0-2.9,1.63,8.9,8.9,0,0,0-1.88,1.65,4.52,4.52,0,0,0-.93,1.84,6.16,6.16,0,0,0-.09,2.21A5.17,5.17,0,0,0,510.1,222.08Z"/><path class="h" d="M481.08,370.22s3.65,8.41,12.07,6.86c0,0,17.2-14.19,29-28.93a65.22,65.22,0,0,0,9-14.06C539,316,560.09,289,573.51,275.33L539.93,263.2s-10.76,21.62-25.07,48.17C504.54,330.5,492.39,352.2,481.08,370.22Z"/><path class="h" d="M514.86,311.37l7.29,36.78a65.53,65.53,0,0,0,9-14.06C539,316,560.09,289,573.51,275.33L539.93,263.2S529.17,284.82,514.86,311.37Z"/><path class="d" d="M542.31,377.38s.37,6.71-7.78,7.6c0,0-4.65,0-4.66,4.3l23.67.07a18.58,18.58,0,0,0,.85-5.41c.13-2.84-2.75-10.24-2.75-10.24Z"/><path class="h" d="M550.94,263.2s-15,16.42-24.45,46c-5.17,16.1,9.46,56.58,12.32,70.64,0,0,9.82.84,16.54-1.76,0,0,.5-29-3.43-51.43-2.19-12.54,19.7-26.8,29.27-49.44,6.51-15.4-1.4-15.14-11.14-15.51Z"/><path class="i" d="M568.22,189.92c8.32,4.7,25.36.36,25.36.36s-6.92-7.9-3.78-20.63L583.26,173l-7,3.56a59.56,59.56,0,0,0-.77,6.28c-.08,1-.15,2.21-.2,3.48A21.69,21.69,0,0,0,568.22,189.92Z"/><path class="j" d="M537.69,262.35c0,1.46,1.68,2.16,2,2.24,3.36.61,12.74,4.25,21.18,5.08,7.11.75,13.71,0,21-1.41,1-.2,3.22-.8,3.38-1.72s28-56.57,6.38-80.44c-.51-.56-4.77.45-8.66,1.37a16,16,0,0,1-9.85-.8l-3.66,1.92c-4.49,2.5-13,11.37-14,18.34-.5,3.54-2.53,6.17-3.11,9.28-.22,1.16-.45,2.29-.67,3.38-.45,2.15-.9,4.2-1.37,6.15-1.27,5.27-2.61,9.8-3.93,13.72-1.4,4.17-2.77,7.63-4,10.52-1.59,3.76-2.94,6.56-3.78,8.71A10.73,10.73,0,0,0,537.69,262.35Z"/><path class="k" d="M538.62,258.69c39.21-18.46,52.79-53.9,52.79-53.9s-31.85,11.75-39.71,14.8q-.66,3.22-1.37,6.15c-1.27,5.27-2.61,9.8-3.92,13.72-1.41,4.17-2.78,7.63-4,10.52C540.81,253.73,539.47,256.54,538.62,258.69Z"/><path class="i" d="M515.69,248l-3.39,1.25s-6.78-4.8-11,3c0,0-1.53,3.41.89,4.15s1.54,0,4.93,1.17,6.75.32,8-2.11l2.3-1.68Z"/><path class="j" d="M512.9,252.78,511.07,248s25.6-20.85,28.21-22.64c1.78-1.22,19.48-14.44,28.1-24.73a18.07,18.07,0,0,1,17.56-6.09l5.37,1.13a8,8,0,0,1,3.56,13.88c-14.17,12.14-38.08,26.22-42.54,29.16-11.07,7.27-35.55,17.46-35.55,17.46A6.3,6.3,0,0,1,512.9,252.78Z"/><path class="b" d="M575.47,182.82c8.19.46,13.51-6.3,13.51-6.3a64,64,0,0,1-5.72-3.55l-7,3.56A54.5,54.5,0,0,0,575.47,182.82Z"/><path class="i" d="M572,174.42s12.4,8.89,17.83,1.09,10.67-11.91,3-17.92-11.31-4.1-13.76-1.94S568.9,171.9,572,174.42Z"/><path class="d" d="M577.73,148.6a20.07,20.07,0,0,1,1.45-5.1s.78,3.22,6.67,2.78,15.22.57,18.34,7.28a11.72,11.72,0,0,1,.53,1.32,15.22,15.22,0,0,0,.7-3.72c1.12,2.89,0,6.5,0,6.5s0,.21.05.32c1.3,1.09,2.39,4.51,2.39,4.51a4.13,4.13,0,0,0-2.2-2c0,5.22-2.1,10.33-5.81,11.85-5.44,2.22-5.4.52-10.87,4.14,0,0-1.46-1.82-.46-3s4.77-3,2.66-4.77-2.89.22-3.66-1,3.11-4.78-1.89-8.11S577.29,151.6,577.73,148.6Z"/><path class="f" d="M149.28,382.44v4.84a1.62,1.62,0,0,1-.38,1,2.12,2.12,0,0,1-1,.7,2,2,0,0,1-.41.09,1.72,1.72,0,0,1-.39,0H55.17A2.1,2.1,0,0,1,53,387.38s0-.06,0-.1v-4.84a.38.38,0,0,1,0-.1,2.1,2.1,0,0,1,2.22-1.76h91.88a2.6,2.6,0,0,1,.4,0,2,2,0,0,1,.41.1,2.22,2.22,0,0,1,1,.69A1.66,1.66,0,0,1,149.28,382.44Z"/><path class="g" d="M104.16,389.15H54.93a1.94,1.94,0,0,1-2-1.77s0-.06,0-.1v-4.83a.34.34,0,0,1,0-.1,1.94,1.94,0,0,1,2-1.77H98.12A14.94,14.94,0,0,0,104.16,389.15Z"/><rect class="g" x="137.06" y="380.58" width="1.04" height="8.57"/><rect class="g" x="133.52" y="380.58" width="1.05" height="8.57"/><rect class="g" x="129.28" y="380.58" width="1.04" height="8.57"/><rect class="g" x="122.78" y="380.58" width="1.05" height="8.57"/><rect class="g" x="115.91" y="380.58" width="1.04" height="8.57"/><rect class="g" x="105.38" y="380.58" width="1.04" height="8.57"/><rect class="g" x="95.51" y="380.58" width="1.05" height="8.57"/><rect class="g" x="86.7" y="380.58" width="1.05" height="8.57"/><rect class="g" x="140.42" y="380.58" width="1.04" height="8.57"/><rect class="g" x="142.64" y="380.58" width="1.05" height="8.57"/><rect class="g" x="144.79" y="380.58" width="1.04" height="8.57"/><path class="g" d="M147.45,380.61v8.51a2.6,2.6,0,0,1-.4,0h-.65v-8.57h.65A2.6,2.6,0,0,1,147.45,380.61Z"/><path class="g" d="M148.9,381.41v6.92a2.17,2.17,0,0,1-1,.69v-8.31A2.26,2.26,0,0,1,148.9,381.41Z"/><path class="f" d="M139.46,373.87v4.84a1.67,1.67,0,0,1-.38,1.05,2.2,2.2,0,0,1-1.05.69,2.6,2.6,0,0,1-.4.1l-.39,0H45.35a2.1,2.1,0,0,1-2.22-1.77v-5A2.1,2.1,0,0,1,45.35,372h92.28l.4.1.06,0,0,0,.12.05.06,0,.06,0,.1.06.12.07.08.06h0a.1.1,0,0,1,.05,0,.73.73,0,0,1,.16.14.1.1,0,0,1,0,0l0,.05.09.09A1.72,1.72,0,0,1,139.46,373.87Z"/><path class="g" d="M94.34,380.58H45.11a1.94,1.94,0,0,1-2-1.77v-5a1.94,1.94,0,0,1,2-1.77H88.29l.06.21A15,15,0,0,0,94.34,380.58Z"/><rect class="g" x="127.23" y="372.01" width="1.05" height="8.57"/><rect class="g" x="123.69" y="372.01" width="1.04" height="8.57"/><rect class="g" x="119.46" y="372.01" width="1.04" height="8.57"/><rect class="g" x="112.96" y="372.01" width="1.04" height="8.57"/><rect class="g" x="106.09" y="372.01" width="1.04" height="8.57"/><rect class="g" x="95.55" y="372.01" width="1.04" height="8.57"/><rect class="g" x="85.69" y="372.01" width="1.04" height="8.57"/><rect class="g" x="76.88" y="372.01" width="1.04" height="8.57"/><rect class="g" x="130.59" y="372.01" width="1.05" height="8.57"/><rect class="g" x="132.82" y="372.01" width="1.04" height="8.57"/><rect class="g" x="134.96" y="372.01" width="1.04" height="8.57"/><path class="g" d="M137.62,372v8.51a2.38,2.38,0,0,1-.39,0h-.65V372h.65A2.38,2.38,0,0,1,137.62,372Z"/><path class="g" d="M139.08,372.83v6.93a2.2,2.2,0,0,1-1.05.69v-8.32A2.29,2.29,0,0,1,139.08,372.83Z"/><path class="f" d="M144.21,365.52v4.83a1.62,1.62,0,0,1-.39,1,2.13,2.13,0,0,1-1,.69,1.89,1.89,0,0,1-.41.1,2.38,2.38,0,0,1-.39,0H50.09a2.62,2.62,0,0,1-1-.21,1.91,1.91,0,0,1-1.19-1.48s0-.06,0-.08v-5a2.1,2.1,0,0,1,2.22-1.77H142l.39,0a1.89,1.89,0,0,1,.41.1,2.25,2.25,0,0,1,1,.69A1.7,1.7,0,0,1,144.21,365.52Z"/><path class="g" d="M99.08,372.22H49.85a2,2,0,0,1-.91-.21,1.89,1.89,0,0,1-1.06-1.47s0-.06,0-.09v-5a1.94,1.94,0,0,1,2-1.77H93A15,15,0,0,0,98.78,372Z"/><rect class="g" x="131.98" y="363.65" width="1.04" height="8.57"/><rect class="g" x="128.44" y="363.65" width="1.04" height="8.57"/><rect class="g" x="124.2" y="363.65" width="1.04" height="8.57"/><rect class="g" x="117.71" y="363.65" width="1.04" height="8.57"/><rect class="g" x="110.83" y="363.65" width="1.04" height="8.57"/><rect class="g" x="100.3" y="363.65" width="1.04" height="8.57"/><rect class="g" x="90.44" y="363.65" width="1.04" height="8.57"/><rect class="g" x="81.63" y="363.65" width="1.04" height="8.57"/><rect class="g" x="135.34" y="363.65" width="1.04" height="8.57"/><rect class="g" x="137.56" y="363.65" width="1.04" height="8.57"/><rect class="g" x="139.71" y="363.65" width="1.04" height="8.57"/><path class="g" d="M142.37,363.68v8.51l-.39,0h-.65v-8.57H142Z"/><path class="g" d="M143.82,364.47v6.93a2.2,2.2,0,0,1-1,.69v-8.32A2.21,2.21,0,0,1,143.82,364.47Z"/><path class="f" d="M146.4,357v4.84a1.61,1.61,0,0,1-.38,1,2.21,2.21,0,0,1-1,.7l-.4.1-.4,0H52.3a2.11,2.11,0,0,1-2.23-1.76v-5a2.05,2.05,0,0,1,2-1.76h92.15a2.6,2.6,0,0,1,.4,0,1.92,1.92,0,0,1,.4.09,2.21,2.21,0,0,1,1,.7A1.57,1.57,0,0,1,146.4,357Z"/><path class="g" d="M101.28,363.65H52.06a2,2,0,0,1-2-1.77v-5a1.91,1.91,0,0,1,1.75-1.75l.24,0H95.24v0A15,15,0,0,0,101.28,363.65Z"/><rect class="g" x="134.18" y="355.08" width="1.04" height="8.57"/><rect class="g" x="130.64" y="355.08" width="1.05" height="8.57"/><rect class="g" x="126.41" y="355.08" width="1.04" height="8.57"/><rect class="g" x="119.91" y="355.08" width="1.05" height="8.57"/><rect class="g" x="113.04" y="355.08" width="1.04" height="8.57"/><rect class="g" x="102.5" y="355.08" width="1.04" height="8.57"/><rect class="g" x="92.64" y="355.08" width="1.05" height="8.57"/><rect class="g" x="83.83" y="355.08" width="1.04" height="8.57"/><rect class="g" x="137.55" y="355.08" width="1.04" height="8.57"/><rect class="g" x="139.77" y="355.08" width="1.04" height="8.57"/><rect class="g" x="141.92" y="355.08" width="1.04" height="8.57"/><path class="g" d="M144.58,355.11v8.51a2.6,2.6,0,0,1-.4,0h-.65v-8.57h.65A2.6,2.6,0,0,1,144.58,355.11Z"/><path class="g" d="M146,355.91v6.92a2.23,2.23,0,0,1-1,.7v-8.32A2.16,2.16,0,0,1,146,355.91Z"/><path class="f" d="M139.65,348.39v4.83a1.67,1.67,0,0,1-.38,1,2.22,2.22,0,0,1-1,.69,2,2,0,0,1-.41.1l-.13,0H45.54a2.1,2.1,0,0,1-2.22-1.77v-5.11A2,2,0,0,1,45,346.58l.07,0a3.58,3.58,0,0,1,.48,0h92.28a1.8,1.8,0,0,1,.4.1,2.2,2.2,0,0,1,1.05.69A1.67,1.67,0,0,1,139.65,348.39Z"/><path class="g" d="M94.53,355.09H45.3a1.93,1.93,0,0,1-2-1.77v-5.1a1.93,1.93,0,0,1,1.54-1.65H45a2.07,2.07,0,0,1,.35,0H88.48l0,.06a15,15,0,0,0,6,8.5Z"/><rect class="g" x="127.42" y="346.52" width="1.05" height="8.57"/><rect class="g" x="123.88" y="346.52" width="1.05" height="8.57"/><rect class="g" x="119.65" y="346.52" width="1.04" height="8.57"/><rect class="g" x="113.15" y="346.52" width="1.04" height="8.57"/><rect class="g" x="106.28" y="346.52" width="1.04" height="8.57"/><rect class="g" x="95.74" y="346.52" width="1.04" height="8.57"/><rect class="g" x="85.88" y="346.52" width="1.04" height="8.57"/><rect class="g" x="77.07" y="346.52" width="1.04" height="8.57"/><rect class="g" x="130.79" y="346.52" width="1.04" height="8.57"/><rect class="g" x="133.01" y="346.52" width="1.04" height="8.57"/><rect class="g" x="135.16" y="346.52" width="1.04" height="8.57"/><path class="g" d="M137.82,346.55v8.51a2.6,2.6,0,0,1-.4,0h-.65v-8.57h.65A2.6,2.6,0,0,1,137.82,346.55Z"/><path class="g" d="M139.27,347.34v6.93a2.2,2.2,0,0,1-1.05.69v-8.32A2.29,2.29,0,0,1,139.27,347.34Z"/><path class="f" d="M139.46,339.88v4.84a1.66,1.66,0,0,1-.38,1,2.29,2.29,0,0,1-1.05.7l-.31.08h-.09a2.58,2.58,0,0,1-.39,0H45.35l-.29,0-.11,0a2,2,0,0,1-1.82-1.74v-5A2.11,2.11,0,0,1,45.35,338h92.28a1.89,1.89,0,0,1,.41.1l.05,0,.06,0,.11.05.12,0,.11.06.11.07.08.06h0l.06,0,.16.14,0,.05s0,0,0,0l.09.1A1.7,1.7,0,0,1,139.46,339.88Z"/><path class="g" d="M94.34,346.59H44.86a1.92,1.92,0,0,1-1.73-1.76v-5a2,2,0,0,1,2-1.78H88.29l.06.22a15,15,0,0,0,5.9,8.3Z"/><rect class="g" x="127.23" y="338.01" width="1.05" height="8.57"/><rect class="g" x="123.69" y="338.01" width="1.05" height="8.57"/><rect class="g" x="119.46" y="338.01" width="1.04" height="8.57"/><rect class="g" x="112.96" y="338.01" width="1.04" height="8.57"/><rect class="g" x="106.09" y="338.01" width="1.04" height="8.57"/><rect class="g" x="95.55" y="338.01" width="1.04" height="8.57"/><rect class="g" x="85.69" y="338.01" width="1.04" height="8.57"/><rect class="g" x="76.88" y="338.01" width="1.04" height="8.57"/><rect class="g" x="130.59" y="338.01" width="1.05" height="8.57"/><rect class="g" x="132.82" y="338.01" width="1.04" height="8.57"/><rect class="g" x="134.96" y="338.01" width="1.04" height="8.57"/><path class="g" d="M137.62,338.05v8.5a1.61,1.61,0,0,1-.39,0h-.65V338h.65A2.34,2.34,0,0,1,137.62,338.05Z"/><path class="g" d="M139.08,338.84v6.92a2.29,2.29,0,0,1-1.05.7v-8.32A2.29,2.29,0,0,1,139.08,338.84Z"/><path class="f" d="M144.21,331.52v4.84a1.62,1.62,0,0,1-.39,1,2.13,2.13,0,0,1-1,.69,1.89,1.89,0,0,1-.41.1,2.38,2.38,0,0,1-.39,0H50.09a2.62,2.62,0,0,1-1-.21,1.9,1.9,0,0,1-1.19-1.47s0-.06,0-.09v-5a2.1,2.1,0,0,1,2.22-1.77H142l.39,0a2.73,2.73,0,0,1,.41.1,2.19,2.19,0,0,1,1,.7A1.63,1.63,0,0,1,144.21,331.52Z"/><path class="g" d="M99.08,338.23H49.85a2,2,0,0,1-.91-.22,1.87,1.87,0,0,1-1.06-1.47s0-.05,0-.08v-5a2,2,0,0,1,2-1.77H93A15,15,0,0,0,98.78,338Z"/><rect class="g" x="131.98" y="329.65" width="1.04" height="8.58"/><rect class="g" x="128.44" y="329.65" width="1.05" height="8.58"/><rect class="g" x="124.2" y="329.65" width="1.05" height="8.58"/><rect class="g" x="117.71" y="329.65" width="1.04" height="8.58"/><rect class="g" x="110.83" y="329.65" width="1.05" height="8.58"/><rect class="g" x="100.3" y="329.65" width="1.05" height="8.58"/><rect class="g" x="90.44" y="329.65" width="1.04" height="8.58"/><rect class="g" x="81.63" y="329.65" width="1.04" height="8.58"/><rect class="g" x="135.34" y="329.65" width="1.05" height="8.58"/><rect class="g" x="137.56" y="329.65" width="1.05" height="8.58"/><rect class="g" x="139.71" y="329.65" width="1.05" height="8.58"/><path class="g" d="M142.37,329.68v8.51a2.58,2.58,0,0,1-.39,0h-.65v-8.58H142Z"/><path class="g" d="M143.82,330.48v6.92a2.13,2.13,0,0,1-1,.69v-8.31A2.08,2.08,0,0,1,143.82,330.48Z"/><path class="f" d="M151.71,323v4.84a1.62,1.62,0,0,1-.38,1,2.19,2.19,0,0,1-1,.7l-.4.1a2.75,2.75,0,0,1-.4,0H57.6a2.1,2.1,0,0,1-2.22-1.76v-5a2.06,2.06,0,0,1,2-1.76h92.15l.4,0a2.88,2.88,0,0,1,.4.09,2.26,2.26,0,0,1,1,.7A1.64,1.64,0,0,1,151.71,323Z"/><path class="g" d="M106.59,329.65H57.36a1.94,1.94,0,0,1-2-1.76v-5a1.92,1.92,0,0,1,1.75-1.75h43.42A15,15,0,0,0,106.59,329.65Z"/><rect class="g" x="139.49" y="321.09" width="1.05" height="8.57"/><rect class="g" x="135.96" y="321.09" width="1.04" height="8.57"/><rect class="g" x="131.71" y="321.09" width="1.04" height="8.57"/><rect class="g" x="125.22" y="321.09" width="1.05" height="8.57"/><rect class="g" x="118.35" y="321.09" width="1.04" height="8.57"/><rect class="g" x="107.81" y="321.09" width="1.05" height="8.57"/><rect class="g" x="97.95" y="321.09" width="1.04" height="8.57"/><rect class="g" x="89.14" y="321.09" width="1.04" height="8.57"/><rect class="g" x="142.86" y="321.09" width="1.04" height="8.57"/><rect class="g" x="145.08" y="321.09" width="1.04" height="8.57"/><rect class="g" x="147.23" y="321.09" width="1.04" height="8.57"/><path class="g" d="M149.88,321.11v8.51a1.71,1.71,0,0,1-.39,0h-.65v-8.57h.65Z"/><path class="g" d="M151.33,321.91v6.92a2.21,2.21,0,0,1-1,.7v-8.32A2.14,2.14,0,0,1,151.33,321.91Z"/><path class="f" d="M139.65,314.4v4.83a1.62,1.62,0,0,1-.38,1,2.17,2.17,0,0,1-1,.7,2,2,0,0,1-.41.1H45.54a2.1,2.1,0,0,1-2.22-1.77v-5a2.1,2.1,0,0,1,2.22-1.77h92a1.27,1.27,0,0,1,.28,0,1.53,1.53,0,0,1,.41.1,1,1,0,0,1,.18.07.33.33,0,0,1,.12,0,0,0,0,0,1,0,0l.11,0h0l.1.07a.89.89,0,0,1,.22.16.18.18,0,0,1,.07.05v0l0,0h0l.06.07.09.1A1.62,1.62,0,0,1,139.65,314.4Z"/><path class="g" d="M94.53,321.1H45.3a1.94,1.94,0,0,1-2-1.77v-5a1.94,1.94,0,0,1,2-1.77H88.48l.06.2a15,15,0,0,0,6,8.36Z"/><rect class="g" x="127.42" y="312.53" width="1.05" height="8.57"/><rect class="g" x="123.88" y="312.53" width="1.05" height="8.57"/><rect class="g" x="119.65" y="312.53" width="1.04" height="8.57"/><rect class="g" x="113.15" y="312.53" width="1.04" height="8.57"/><rect class="g" x="106.28" y="312.53" width="1.04" height="8.57"/><rect class="g" x="95.74" y="312.53" width="1.04" height="8.57"/><rect class="g" x="85.88" y="312.53" width="1.04" height="8.57"/><rect class="g" x="77.07" y="312.53" width="1.04" height="8.57"/><rect class="g" x="130.79" y="312.53" width="1.04" height="8.57"/><rect class="g" x="133.01" y="312.53" width="1.04" height="8.57"/><rect class="g" x="135.16" y="312.53" width="1.04" height="8.57"/><path class="g" d="M137.82,312.56v8.51a2.6,2.6,0,0,1-.4,0h-.65v-8.57h.65A2.6,2.6,0,0,1,137.82,312.56Z"/><path class="g" d="M139.27,313.35v6.92a2.15,2.15,0,0,1-1.05.7v-8.32A2.29,2.29,0,0,1,139.27,313.35Z"/><path class="f" d="M146.41,306v4.84a1.62,1.62,0,0,1-.39,1.05,2.21,2.21,0,0,1-1,.69l-.41.1a2.6,2.6,0,0,1-.4,0H52.3a2.43,2.43,0,0,1-1-.2A1.91,1.91,0,0,1,50.08,311V311s0-.06,0-.09V306a.31.31,0,0,1,0-.1,2,2,0,0,1,2-1.76h92.15l.39,0a3.06,3.06,0,0,1,.41.1,2.25,2.25,0,0,1,1,.69A1.64,1.64,0,0,1,146.41,306Z"/><path class="g" d="M101.28,312.72H52.06a2.18,2.18,0,0,1-.89-.19,1.89,1.89,0,0,1-1.09-1.5s0,0,0-.07v-5a1.93,1.93,0,0,1,1.75-1.76H95.24a15.06,15.06,0,0,0,5.76,8.36Z"/><rect class="g" x="134.18" y="304.15" width="1.04" height="8.58"/><rect class="g" x="130.64" y="304.15" width="1.05" height="8.58"/><rect class="g" x="126.41" y="304.15" width="1.04" height="8.58"/><rect class="g" x="119.91" y="304.15" width="1.05" height="8.58"/><rect class="g" x="113.04" y="304.15" width="1.04" height="8.58"/><rect class="g" x="102.5" y="304.15" width="1.04" height="8.58"/><rect class="g" x="92.64" y="304.15" width="1.05" height="8.58"/><rect class="g" x="83.83" y="304.16" width="1.04" height="8.57"/><rect class="g" x="137.55" y="304.15" width="1.04" height="8.58"/><rect class="g" x="139.77" y="304.15" width="1.04" height="8.58"/><rect class="g" x="141.92" y="304.15" width="1.04" height="8.58"/><path class="g" d="M144.58,304.18v8.51a2.6,2.6,0,0,1-.4,0h-.65v-8.57h.65C144.32,304.16,144.45,304.16,144.58,304.18Z"/><path class="g" d="M146,305v6.93a2.23,2.23,0,0,1-1,.7v-8.32A2.21,2.21,0,0,1,146,305Z"/><path class="f" d="M149.28,297.46v4.84a1.62,1.62,0,0,1-.38,1,2.19,2.19,0,0,1-1,.7,3.06,3.06,0,0,1-.41.1l-.13,0H55.17A2.09,2.09,0,0,1,53,302.4s0-.07,0-.1v-4.84a.38.38,0,0,1,0-.1,2.09,2.09,0,0,1,2.22-1.76h91.88l.4,0,.41.1a2.32,2.32,0,0,1,1,.7A1.66,1.66,0,0,1,149.28,297.46Z"/><path class="g" d="M104.16,304.16H54.93a1.94,1.94,0,0,1-2-1.76s0-.07,0-.1v-4.84a.38.38,0,0,1,0-.1,1.94,1.94,0,0,1,2-1.76H98.12a15.08,15.08,0,0,0,6,8.56Z"/><rect class="g" x="137.06" y="295.6" width="1.04" height="8.57"/><rect class="g" x="133.52" y="295.6" width="1.05" height="8.57"/><rect class="g" x="129.28" y="295.6" width="1.04" height="8.57"/><rect class="g" x="122.78" y="295.6" width="1.05" height="8.57"/><rect class="g" x="115.91" y="295.6" width="1.04" height="8.57"/><rect class="g" x="105.38" y="295.6" width="1.04" height="8.57"/><rect class="g" x="95.51" y="295.6" width="1.05" height="8.57"/><rect class="g" x="86.7" y="295.6" width="1.05" height="8.57"/><rect class="g" x="140.42" y="295.6" width="1.04" height="8.57"/><rect class="g" x="142.64" y="295.6" width="1.04" height="8.57"/><rect class="g" x="144.79" y="295.6" width="1.04" height="8.57"/><path class="g" d="M147.45,295.62v8.52a2.61,2.61,0,0,1-.4,0h-.65V295.6h.65Z"/><path class="g" d="M148.9,296.42v6.92a2.19,2.19,0,0,1-1,.7v-8.32A2.26,2.26,0,0,1,148.9,296.42Z"/><path class="e" d="M78.5,376.39a43.65,43.65,0,1,0-61.76,0A43.61,43.61,0,0,0,78.5,376.39Z"/><path class="f" d="M74.69,376.39a43.65,43.65,0,1,0-61.76,0A43.61,43.61,0,0,0,74.69,376.39Z"/><path class="g" d="M43.81,308.68a37.38,37.38,0,1,0,37.42,37.38A37.44,37.44,0,0,0,43.81,308.68Zm0,77.13A39.76,39.76,0,1,1,71.94,318a39.75,39.75,0,0,1-28.13,67.86Z"/><path class="g" d="M49.29,357.6a6.45,6.45,0,0,0-.1-2.31,4.66,4.66,0,0,0-1-1.92,8.89,8.89,0,0,0-2-1.72,21.47,21.47,0,0,0-3-1.69q-3.09-1.53-5.59-3.07a19.54,19.54,0,0,1-4.17-3.41A11.56,11.56,0,0,1,31,339.34a12.06,12.06,0,0,1-.43-5.29,11.91,11.91,0,0,1,1.49-4.64A10.85,10.85,0,0,1,35.14,326a13.6,13.6,0,0,1,4.42-2.1,18.57,18.57,0,0,1,5.51-.64l.78-6.55,5.28.63L50.34,324a16.6,16.6,0,0,1,5,2.11,12.57,12.57,0,0,1,5.56,8,16.85,16.85,0,0,1,.21,5.63l-9.53-1.13c.29-2.45,0-4.34-1-5.69a5.61,5.61,0,0,0-4.15-2.33,7.13,7.13,0,0,0-2.61.11,4.75,4.75,0,0,0-1.9.92,4.34,4.34,0,0,0-1.22,1.58,6.46,6.46,0,0,0-.58,2.07,6,6,0,0,0,.08,2.09,4.45,4.45,0,0,0,.94,1.83,8.84,8.84,0,0,0,2,1.73,30.06,30.06,0,0,0,3.15,1.82c2,1.05,3.88,2.09,5.53,3.14a19.75,19.75,0,0,1,4.16,3.42,12.46,12.46,0,0,1,1.38,14.15,10.83,10.83,0,0,1-3.1,3.39,13.28,13.28,0,0,1-4.44,2,20,20,0,0,1-5.54.59l-.72,6.09-5.24-.62.72-6.07A22,22,0,0,1,33.84,367a14,14,0,0,1-4.22-3.18A12.49,12.49,0,0,1,27,359.05a15.28,15.28,0,0,1-.44-6.45l9.53,1.13a9.54,9.54,0,0,0,.18,3.7A6,6,0,0,0,37.6,360a5.76,5.76,0,0,0,2.18,1.5,10.23,10.23,0,0,0,2.61.67,8.4,8.4,0,0,0,2.77-.07,5.9,5.9,0,0,0,2.09-.87,4.52,4.52,0,0,0,1.39-1.53A5.54,5.54,0,0,0,49.29,357.6Z"/><path class="h" d="M124.11,285.63c-4.47,7.78-10.09,10.78-10.09,10.78H90.62S127.52,279.7,124.11,285.63Z"/><path class="l" d="M106.14,345.79a2.2,2.2,0,0,0-.39,2.32h0c.56,1.54,2.4,3.26,4.54,5,.28.22.52.42.73.61l.16.14.13.12c2,1.84,1.25,2.26,4.83,6,4.1,4.25,6.91,4.33,7.72,3.94s-.71-2.58-2.23-5.12l-.22-.37-.61-1c-1.79-3.06-1.33-4.49-.9-9,.34-3.69,5.74-20.62,5.74-20.62l-7.84-1.35s-2.36,13.48-5,15.56c-1.39,1.1-2.95,1.11-4.28,1.94l-.28.17A10.83,10.83,0,0,0,106.14,345.79Z"/><path class="d" d="M106.14,345.79a2.2,2.2,0,0,0-.39,2.32h0c.69,1.54,2.48,3.25,4.55,5,.27.23.51.43.73.63l.16.14.12.12c2,1.83,1.25,2.26,4.84,6,4.09,4.25,6.9,4.33,7.71,3.94s-.71-2.59-2.23-5.12a17.44,17.44,0,0,1-7.29-5.37c-2.46-3.14-4.11-7.17-5.78-9.51l-.28.17A10.83,10.83,0,0,0,106.14,345.79Z"/><path class="l" d="M169.36,340.9c.48,2.42,3.93,2,7.79,1.08s2.93.18,8.42-.43,7.15-2.65,7.31-3.46-2.56-1-5.46-1.32l-1.11-.13c-3.28-.41-5.68-2.52-8.66-4.26s-7-8.35-7-8.35l-7.53.59s3.95,6,5.48,8.59a9.07,9.07,0,0,1,.74,5.12A9.62,9.62,0,0,0,169.36,340.9Z"/><path class="d" d="M177.15,342c3.85-1,2.93.17,8.42-.43s7.15-2.65,7.31-3.46-2.56-1-5.46-1.32l0,.06a15.49,15.49,0,0,1-7.86,2.44c-3.72.09-7.66-1-10.23-.94a9.62,9.62,0,0,0,.06,2.57C169.84,343.32,173.29,342.92,177.15,342Z"/><path class="h" d="M140.53,292.85l-7,18.9-9.18,24.69a14.84,14.84,0,0,1-4.88-.45,21.06,21.06,0,0,1-4.71-2.29s2.55-26.51,7.3-41.72c1.22-3.91,2.59-7.06,4.09-8.84C133.5,274.43,140.53,292.85,140.53,292.85Z"/><path class="h" d="M133.38,262.83c-4.6-1.49-17.74.42-30.94,3l-2.77-4.56-28.5-2.22s-9.41,20.84-4.26,34.12c.76,2,2.63,2.77,5.2,2.82,0,0,17,.42,22.52.42,14.18,0,30-9.74,32.05-10.15,3.35-.67,4.69,6,8,13.05s31.5,31.14,31.5,31.14,4.33.05,6.12-.62a6,6,0,0,0,2.62-1.66S143.77,266.18,133.38,262.83Z"/><path class="d" d="M96.65,177.63a10.16,10.16,0,0,0-5.49-1.41,16.58,16.58,0,0,1-2.72-.18c-10.8-1.45-17.31,14.23-17.69,19-.7,8.77-5.34,10.1-11.87,15.58-13.09,11-9.25,23.79-2.09,28.54,4.29,2.85,11.86,0,11.86,0s20.71-11.51,30.86-17.09C114.73,219.89,102.76,181.27,96.65,177.63Z"/><path class="l" d="M91,217.29s-5,1.75-8.37.26c-3.17-1.4-5.57-6.61-5.52-6.61,1.44-.07,3-1.33,4.24-9.6l.62.22,10.32,3.72s-.74,3.31-1.23,6.46C90.65,214.38,90.43,216.92,91,217.29Z"/><path class="m" d="M92.29,205.28s-.74,3.31-1.23,6.46c-5.93-1.07-8.26-7-9.09-10.18Z"/><path class="l" d="M93.83,208.56S79.71,206.67,81,197.9s.38-14.93,9.46-14.09,10.32,4.45,10.59,7.48S97.54,208.83,93.83,208.56Z"/><path class="d" d="M100.55,186.49s-9,7.78-15.19,8.41-8.48-1.34-8.48-1.34a24,24,0,0,0,5.81-7.87,4.3,4.3,0,0,1,3.56-2.54C90.65,182.77,99,182.6,100.55,186.49Z"/><path class="d" d="M94.9,185.79s3,2.92,4,5.09,1.19,7.09.46,9.08c0,0,4.72-9.15,2-13.6C98.56,181.64,94.9,185.79,94.9,185.79Z"/><path class="j" d="M102.9,238.09c-.43,28.57-.12,22.6-3.25,25.31-.75.65-2.87,1-5.66,1.22-8.77.58-24.18-.86-24.77-2.48-2-5.6-.59-7.34-2.28-15.92-.18-.91-.4-1.9-.65-3-1.41-5.89-2.77-7.9,2.22-17.36,4.52-8.57,9.23-15.53,9.65-15.28,11.94,7.09,12.91,1.14,12.91,1.14S103.1,224.15,102.9,238.09Z"/><path class="h" d="M133.5,311.75l-9.18,24.69a14.84,14.84,0,0,1-4.88-.45,21.06,21.06,0,0,1-4.71-2.29s2.55-26.51,7.3-41.72Z"/><path class="j" d="M91.06,211.74s12.29,2.08,13.73,7.37,9.94,36.36,9.94,36.36-6.25,1.12-9.14-1.76-10-26.75-10-26.75Z"/><path class="k" d="M94,264.62c-8.77.58-24.18-.86-24.77-2.48-2-5.6-.6-7.34-2.28-15.92l4.23-11.9s-.71,13.25,3.2,16.74,16,6.72,17.92,9.64A10.73,10.73,0,0,1,94,264.62Z"/><path class="l" d="M83.94,259.05s8.65-1.93,10-1.16,4.81,3.56,5.23,4.53-3.11-.73-4.25-1c-.75-.2-2.71.48-3.68.8-4.08,1.36-6.58.66-6.58.66Z"/><path class="j" d="M78.15,210.6s-11.61.72-15.64,6.32c-5.65,7.89-16.89,41.5-10.45,46,7.25,5,33,1.32,33,1.32s.86-4-.33-5.93-20.56-5.06-21.45-6,11.17-17.41,11.17-20.09S78.15,210.6,78.15,210.6Z"/><path class="l" d="M94.41,260.3a16.54,16.54,0,0,0,2.41,2.61,1.74,1.74,0,0,0,1,.21l-1.22-2.2Z"/><path class="l" d="M94,257.89l5.27,2.56a1,1,0,0,1-.87.34,12.61,12.61,0,0,1-2.29-.63Z"/><polygon class="n" points="96.81 266.49 138.5 266.49 151.04 235.34 109.42 235.34 96.81 266.49"/><polygon class="o" points="138.99 265.28 83.94 265.28 83.94 266.49 138.5 266.49 138.99 265.28"/><path class="a" d="M128,250.91a1.44,1.44,0,0,0-1.41-2,2.83,2.83,0,0,0-2.55,2,1.44,1.44,0,0,0,1.41,2A2.83,2.83,0,0,0,128,250.91Z"/><path class="k" d="M345.15,349.53c0-.06.31-6.33-2.73-7.78l.22-.2a6.14,6.14,0,0,1,3.54,4.1c.46,1.57.11,1.92.11,2Z"/><path class="k" d="M325.05,333.28s1,8.07,6,10.43,11.87-1.88,11.87-1.88-1-8.07-6-10.43S325.05,333.28,325.05,333.28Z"/><path class="k" d="M344.63,361.29a36.65,36.65,0,0,1,1.65-15.93,29.94,29.94,0,0,0,1.19-14.68h2a64.41,64.41,0,0,1-1.92,15.88c-1.89,8.12,1.65,14.73.89,14.73Z"/><path class="k" d="M348.79,339.49s.95-5.45,3.49-6.07a4.74,4.74,0,0,0-3.38,2.47c-.6,1.13-.39,1.45-.41,1.49Z"/><path class="k" d="M356.93,340.05c-3.8-.77-5.91-6.13-5.91-6.13s4-4.13,7.83-3.36,5.91,6.13,5.91,6.13S360.73,340.81,356.93,340.05Z"/><path class="f" d="M327.44,322.56A19.9,19.9,0,1,1,355,328.23,19.88,19.88,0,0,1,327.44,322.56Z"/><path class="g" d="M334.81,297.6a17,17,0,1,0,23.63,4.86A17.06,17.06,0,0,0,334.81,297.6ZM354.17,327A18.13,18.13,0,1,1,362,315.48,18.07,18.07,0,0,1,354.17,327Z"/><path class="g" d="M349.17,314.84a3,3,0,0,0-.61-.85,2.28,2.28,0,0,0-.86-.49,4,4,0,0,0-1.17-.16,10.58,10.58,0,0,0-1.58.11,26,26,0,0,1-2.89.23,9,9,0,0,1-2.45-.25,5.27,5.27,0,0,1-2-.95,5.55,5.55,0,0,1-1.49-1.91,5.62,5.62,0,0,1-.6-2.14,5.12,5.12,0,0,1,.32-2.08,6.2,6.2,0,0,1,1.15-1.9,8.48,8.48,0,0,1,1.94-1.62l-1.35-2.69,2.17-1.09,1.36,2.73a7.61,7.61,0,0,1,2.42-.44,5.65,5.65,0,0,1,2.22.4,5.77,5.77,0,0,1,1.9,1.24,7.57,7.57,0,0,1,1.5,2.09l-3.91,2a3.67,3.67,0,0,0-1.81-1.92,2.51,2.51,0,0,0-2.16.15,3.22,3.22,0,0,0-1,.69,2.17,2.17,0,0,0-.49.83,2.13,2.13,0,0,0-.07.91,2.81,2.81,0,0,0,.3.93,2.89,2.89,0,0,0,.56.78,2,2,0,0,0,.81.46,4.4,4.4,0,0,0,1.18.17,15.52,15.52,0,0,0,1.66-.1c1-.12,2-.18,2.89-.2a9.49,9.49,0,0,1,2.45.27,5.37,5.37,0,0,1,2,1,6,6,0,0,1,2.09,4.08,5.15,5.15,0,0,1-.32,2.06,6.14,6.14,0,0,1-1.19,1.88,9.1,9.1,0,0,1-2,1.62l1.25,2.5-2.15,1.08-1.24-2.49a10.31,10.31,0,0,1-2.42.59,6.48,6.48,0,0,1-2.41-.15,6.06,6.06,0,0,1-2.19-1.14,7,7,0,0,1-1.79-2.35l3.92-1.95a4.39,4.39,0,0,0,1,1.36,2.89,2.89,0,0,0,1.15.62,2.56,2.56,0,0,0,1.2,0,4.38,4.38,0,0,0,1.17-.4,3.75,3.75,0,0,0,1-.72,2.47,2.47,0,0,0,.58-.86,1.94,1.94,0,0,0,.14-.92A2.44,2.44,0,0,0,349.17,314.84Z"/><polygon class="p" points="364.52 359.36 364.51 359.38 364.12 365.47 362.65 388.08 335.1 388.08 333.48 365.78 333.04 359.63 333.02 359.36 364.52 359.36"/><path class="q" d="M364.51,359.38l-.39,6.09A48.35,48.35,0,0,0,348.77,363c-9.49,0-15.29,2.77-15.29,2.77l-.45-6.15Z"/><polygon class="p" points="365.47 362.58 332.02 362.58 331.63 358.7 365.9 358.7 365.47 362.58"/><polygon class="p" points="363.07 389.29 334.51 389.29 334.19 387.94 363.44 387.94 363.07 389.29"/><path class="k" d="M253.51,269.48c0-.17.92-19.06-8.21-23.41l.64-.62c4.18,1.46,8.82,6,10.68,12.35,1.38,4.73.33,5.77.33,5.95Z"/><path class="k" d="M229.66,232.06s-1,9.72,4.05,13.85,14.4,1.12,14.4,1.12,1-9.72-4.05-13.85S229.66,232.06,229.66,232.06Z"/><path class="k" d="M252,304.91a110.24,110.24,0,0,1,5-48,89.77,89.77,0,0,0,3.58-44.22h5.95c.16.87.57,20.69-5.77,47.86-5.71,24.44,4.95,44.35,2.68,44.35Z"/><path class="k" d="M264.47,239.23c0-.12,2.87-16.42,10.52-18.27a14.2,14.2,0,0,0-10.2,7.44c-1.8,3.39-1.17,4.35-1.2,4.48Z"/><path class="k" d="M233.84,196s-8.25-11.64-17.62-15.06c0,0,3.51,27.31-1.62,27.65s-1.71-30.71-1.71-30.71-24.42-13.55-34.33-13.17c0,0,14,27.28,9,26.35s-21-28.65-21-28.65-25.48-6.27-30.5,8.74,1.2,23,5,24.2,28.26,2.29,27.44,5.43-17.66,7.26-26.71,3.86c0,0,8.7,25.7,22.13,25.21s18.05-8.51,26.36-8.67,14.22,2.43,10,4.41S182,225.26,175,230.54s-12.62,8.47-.37,11.73,30.75-.42,39.53-6.27c0,0,7.18-.58,12.82,32.54,2.18,12.77.51,31.71.51,31.71l4.55-.69c2.52-37.13-10.89-68-10.89-68S243.91,214.77,233.84,196Z"/><path class="j" d="M308.26,245s-27.42-11.51-17.6-32.45c0,0,8.26-13.11,18.22-17.36,0,0-2.2,29.81,3.39,29.87s0-33.39,0-33.39,25.68-16.12,36.45-16.3c0,0-13.62,30.41-8.19,29.1s21.06-32.3,21.06-32.3,27.26-8.29,33.59,7.69.06,25-4,26.53-30.52,4.15-29.44,7.5,19.57,6.83,29.19,2.61c0,0-7.93,28.38-22.52,28.64s-20.07-8.17-29.09-7.84-15.27,3.46-10.53,5.36,19.68-1.42,27.59,3.89,14.19,8.43,1.09,12.7-37.35,5.26-43.32-4.49Z"/><path class="k" d="M383.09,186.44S313.55,218,308.26,245c0,0,1.67,11.63-4,25.85l.58,5.15s5.58-18.37,9.44-21.24C314.24,254.76,295.51,233.92,383.09,186.44Z"/><path class="k" d="M304.22,270.85s-9.22,18.14-.54,38l2.78-1.1s-5.35-22.33-.81-34.38S304.22,270.85,304.22,270.85Z"/><path class="k" d="M203.73,120.34C215,132.28,209.12,156,209.12,156s-24.06,4.35-35.29-7.59-5.4-35.67-5.4-35.67S192.5,108.39,203.73,120.34Z"/><path class="j" d="M203.73,120.34C215,132.28,209.12,156,209.12,156l-40.69-43.26S192.5,108.39,203.73,120.34Z"/><path class="k" d="M348.64,165.83c-5.86,6.79-19.11,5-19.11,5s-3.75-12.83,2.12-19.61,19.11-5,19.11-5S354.5,159.05,348.64,165.83Z"/><path class="k" d="M279.34,225.53c-3.93,1.09-8.48-2.94-8.48-2.94s1.82-5.79,5.76-6.88,8.47,2.94,8.47,2.94S283.27,224.44,279.34,225.53Z"/><path class="k" d="M209.93,98.18c2.69,6.38-3.11,14.92-3.11,14.92s-10.17-1.8-12.87-8.19S197.06,90,197.06,90,207.23,91.8,209.93,98.18Z"/><path class="e" d="M306.43,194.5a59.93,59.93,0,1,0-84.79,0A59.88,59.88,0,0,0,306.43,194.5Z"/><path class="f" d="M301.24,195.16a59.93,59.93,0,1,0-84.79,0A59.88,59.88,0,0,0,301.24,195.16Z"/><path class="g" d="M252.52,102.57a51.33,51.33,0,1,0,57.38,44.51A51.39,51.39,0,0,0,252.52,102.57Zm13.24,105.08A54.58,54.58,0,1,1,302.09,187,54.35,54.35,0,0,1,265.76,207.65Z"/><path class="g" d="M268.38,168.27a9.12,9.12,0,0,0-.53-3.13,6.52,6.52,0,0,0-1.66-2.44,12.56,12.56,0,0,0-2.95-2,33.28,33.28,0,0,0-4.42-1.79,86.41,86.41,0,0,1-8.14-3.22,27,27,0,0,1-6.28-3.92,16,16,0,0,1-4.07-5.21,16.51,16.51,0,0,1-1.49-7.15,16.3,16.3,0,0,1,1.23-6.57,15.22,15.22,0,0,1,3.61-5.19,18.93,18.93,0,0,1,5.65-3.61,25,25,0,0,1,7.4-1.81l-.06-9.06,7.3-.06.06,9.19a23,23,0,0,1,7.14,2,17.2,17.2,0,0,1,8.94,9.91,22.81,22.81,0,0,1,1.26,7.63l-13.18.1c0-3.39-.79-5.92-2.31-7.58a7.71,7.71,0,0,0-6.06-2.48,9.85,9.85,0,0,0-3.54.6,6.61,6.61,0,0,0-2.43,1.58,6.31,6.31,0,0,0-1.39,2.36,9,9,0,0,0-.44,2.92,8.41,8.41,0,0,0,.48,2.84,6.26,6.26,0,0,0,1.59,2.34,12.65,12.65,0,0,0,3,2,40.31,40.31,0,0,0,4.6,1.93c2.95,1.09,5.65,2.19,8.07,3.33a27.7,27.7,0,0,1,6.26,4,16.11,16.11,0,0,1,4.07,5.24,16.37,16.37,0,0,1,1.49,7.1,16.68,16.68,0,0,1-1.25,6.7,15.23,15.23,0,0,1-3.64,5.15,18.48,18.48,0,0,1-5.7,3.51,27,27,0,0,1-7.44,1.74l.06,8.43-7.26.05-.06-8.38a31.33,31.33,0,0,1-7.33-1.59,19.52,19.52,0,0,1-6.3-3.62,17.29,17.29,0,0,1-4.41-6,21,21,0,0,1-1.71-8.7l13.18-.1a13.2,13.2,0,0,0,.88,5,8.44,8.44,0,0,0,2.28,3.2,8.18,8.18,0,0,0,3.23,1.67,14.2,14.2,0,0,0,3.67.46,11.78,11.78,0,0,0,3.76-.58,7.57,7.57,0,0,0,2.7-1.55,6.13,6.13,0,0,0,1.63-2.31A7.77,7.77,0,0,0,268.38,168.27Z"/><polygon class="r" points="311.87 299.13 311.86 299.17 310.67 317.53 306.23 385.65 223.25 385.65 218.36 318.46 217.02 299.94 216.96 299.13 311.87 299.13"/><path class="s" d="M311.86,299.17l-1.19,18.35a145.44,145.44,0,0,0-46.26-7.4c-28.58,0-46.05,8.34-46.05,8.34L217,299.94Z"/><polygon class="r" points="314.75 308.83 213.95 308.83 212.79 297.12 316.04 297.12 314.75 308.83"/><polygon class="s" points="307.51 389.29 221.47 389.29 220.49 385.21 308.6 385.21 307.51 389.29"/><path class="k" d="M191,265.46c-1.85,2.5-.21,6.85-.21,6.85s4.64.28,6.49-2.22.22-6.86.22-6.86S192.81,263,191,265.46Z"/><path class="l" d="M339.42,231.76s-4.26-.83-5.24,0-5.59,5.53-4.6,7.07,5.73-1.28,6.72-1.55,3.75-1.34,3.75-1.34Z"/><path class="h" d="M384.72,382.33l4.57,1.71s19.85-27.51,22.29-51.71a36.73,36.73,0,0,0-.65-12.37s.19-1.11.53-3.06c.16-.91.35-2,.57-3.27.64-3.7,1.54-8.75,2.55-14.51,2.34-13.24,5.36-30.17,7.71-42.61l-1.23-.4-13.32-4.29L405,243.08l-9.92-2.61s-2.22,4.33-4.2,24.79c-.36,2.69-.7,5.65-.95,8.86a174.6,174.6,0,0,0,.95,35.83q.67,5.34,1.74,11a49.19,49.19,0,0,1,.38,10.86C392,351.59,384.72,382.33,384.72,382.33Z"/><path class="h" d="M389.92,274.11l21.54,42.79.57-3.27c.64-3.69,1.53-8.75,2.55-14.5,2.33-13.25,5.36-30.18,7.71-42.62l-1.23-.39-13.32-4.3L405,243.09l-9.91-2.62s-2.22,4.34-4.2,24.8C390.5,268,390.17,270.91,389.92,274.11Z"/><path class="h" d="M399.4,246l.49-4.27c8.36,2.22,30.68-6.19,30.68-6.19s8.09,7.11,7,24.15c-.52,8.31-1.46,43.65-2.45,54.11-.36,3.79-.67,6.48-.8,7.56h0a1.48,1.48,0,0,0,.24.93,49.33,49.33,0,0,1,3.65,7.67c9.71,25.86-1.49,57.7-1.49,57.7l-2.91-1.17s-6.38-35.44-11.56-51.09a30.85,30.85,0,0,0-2.5-6c-2.25-3.64-4.34-9.57-6.24-16.63-3.59-13.35-6.48-30.72-8.39-44.12C404.88,268.63,399.4,246,399.4,246Z"/><path class="l" d="M339.42,231.76l.63,4.18s.27,0,.76,0c1.52-.1,5.22-.31,9.4-.76,6.3-.63,13.77-1.73,16.74-3.56,4.53-2.76,12-11.23,16.81-19.69a4.86,4.86,0,0,0,.34-.63c2.52-4.49,4.29-9,4.43-12.51a17.91,17.91,0,0,0-.59-5.66,14.29,14.29,0,0,0-2.56-5.11,2.7,2.7,0,0,0-.48-.59,11.93,11.93,0,0,0-3.29-2.8c-.83-.35-1.73.07-2.66,1.07v0a16,16,0,0,0-2.39,3.53s-.07.07-.07.1c-.17.31-.34.66-.55,1a1,1,0,0,0-.14.24q-.57,1.19-1.14,2.49c-4.25,9.26-8.79,23.28-12.56,27.46-1.62,1.8-9.06,5.33-15,7.95C342.88,230.38,339.42,231.76,339.42,231.76Z"/><path class="l" d="M383.43,194.14a26.24,26.24,0,0,0,9.63,2.26c14.36.78,17.62-11.8,18.21-20.15a12,12,0,0,0-4.93-.62c-1,.05-2.08.16-2.95.27-1.76-.92-4.92-5.37-6.74-12.82l-.62.28-10.36,4.87s1.1,3.37,1.91,6.59c.63,2.52,1.09,5,.7,5.65-.81.32-1.3.54-1.3.54h0A71.35,71.35,0,0,0,383.43,194.14Z"/><path class="n" d="M379.84,203.56c.12.28.23.57.36.85,3.64,7.83,10.37,40.25,10.37,40.25-1,5.83,43.85-1.14,44-6.45,1.58-5.63-5.6-14.67-9.65-19.21a12.9,12.9,0,0,1-3.19-7.18c-.79-7.52-.49-14.57-.56-18.86-.79-.59-1.56-1.13-2.27-1.64a20.19,20.19,0,0,1-2.76-2.29,4.14,4.14,0,0,1-1.32-2.6,14.6,14.6,0,0,1,0-2.19c0-.34.08-.69.13-1a29.38,29.38,0,0,1,2.09-6.94c-3.86-1.56-10.71-.63-10.71-.63s0,.38,0,1c0,2.5,0,8.92-.8,10.14-1,1.51-19.36,8.14-20.33,6.09S386.88,181.38,387,181h0c-6.15,2.41-8.35,4.44-8.35,4.44C382.34,187.84,377,196,379.84,203.56Z"/><path class="d" d="M392.21,135.92c0-.62.5-7.32,10.73-7.67,0,0-5,.6-5.9,2.8,0,0,3.42-2.73,6.21-1.85s4.42,5.76,4.44,7.36-1.53,6.78-3.3,7.22a5.37,5.37,0,0,1-2.15,0,22.28,22.28,0,0,1,1.38,2.45c4.08,8.37-.13,16.54-3.58,15.63-2.22-.57-2.84,3.2-2.84,3.2l-21.52-17.4S383.59,131.33,392.21,135.92Z"/><path class="t" d="M385.67,168.23s1.1,3.37,1.91,6.6c6.06-1.69,7.9-8.05,8.45-11.47Z"/><path class="l" d="M384.39,171.8s14.5-3.35,12.27-12.34S394.8,144,385.45,145.75s-10.28,5.63-10.27,8.81S380.57,172.44,384.39,171.8Z"/><path class="d" d="M374.36,149.46c1.56-3.26,3.39-3.09,4.54-2.51a10.41,10.41,0,0,1,13.49-1.15,17.7,17.7,0,0,0,8.15,8.75s-2.23,2.27-8.68,2.22a10.64,10.64,0,0,1-5.76-2.17,34.63,34.63,0,0,0,7.55,5.64c-8.07-1.55-13.49-10.89-14-11.88a11.65,11.65,0,0,0-2.1,5c-.15,2.47.7,7.26-.71,7.44C376.79,160.77,372,154.35,374.36,149.46Z"/><path class="n" d="M378.64,185.44s-3.49,6.08-4,7.65c0,0,4.52-.18,6.35,3.3C381,196.39,381.42,186.26,378.64,185.44Z"/><path class="o" d="M402.64,233.77c8.84-.1,16.32-9.26,20.89-16.6a12.78,12.78,0,0,1-1.83-5.35c-.79-7.52-.49-14.57-.56-18.86l-2.27-1.64a19.49,19.49,0,0,1-2.76-2.29C408.87,201.26,390.66,233.9,402.64,233.77Z"/><path class="l" d="M369.23,238.57l1.21,4.42,3.94-.72c.73-.14,1.14-.24,1.14-.24,1.94-.39,4.26-.9,6.78-1.46h0c4.32-1,9.16-2.27,13.24-3.66a36.62,36.62,0,0,0,7.06-3.14,3.64,3.64,0,0,0,.48-.35c4.05-2.94,8.85-11.58,12.59-20.83.52-1.28,1-2.56,1.49-3.8a94.27,94.27,0,0,0,3.94-13.13,37,37,0,0,0,.93-6.25,15.27,15.27,0,0,0,0-1.77c-.07-10-5.05-11.4-5.05-11.4l-.34-.1c-.87-.14-1.77.45-2.7,1.59a31.27,31.27,0,0,0-3.7,6.53c-2,4.45-4.05,10.23-6,16-1.08,3.15-2.11,6.29-3.15,9.19-.59,1.76-1.18,3.42-1.73,5a47.6,47.6,0,0,1-2.9,6.73,16.86,16.86,0,0,1-4.26,3.84,154.91,154.91,0,0,1-13.69,8.5c-1.94,1.1-3.78,2.11-5.3,2.93C370.86,237.71,369.23,238.57,369.23,238.57Z"/><path class="n" d="M410.33,184.27c6.66-1.83,11.79,3.36,11.79,3.36-.08-10-5.07-11.37-5.07-11.37C415.05,175.43,412.72,178.9,410.33,184.27Z"/><path class="d" d="M419.83,390h23a12.67,12.67,0,0,0-.65-6.17c-1.15-2.54-3-3.7-2.52-6.79a8.32,8.32,0,0,1-7.18,2.74c-.41.66-2.63,4.19-4,5.17S420.3,385.65,419.83,390Z"/><path class="d" d="M370.42,390h23s.86-3.67-.65-6.17c-1.34-2.2-.82-3.46.17-5.29a8.82,8.82,0,0,1-3.88.73,8.13,8.13,0,0,1-3.42-1.2c-1,1.12-5.23,5.93-6.55,6.88C377.59,386,370.88,385.65,370.42,390Z"/><path class="u" d="M338.25,248.26,332,250.8a3.65,3.65,0,0,0-2.14,4.26l-.67.27c-2.53-8.78.55-17.64,7.5-20.48a11.8,11.8,0,0,1,3-.79,14.51,14.51,0,0,1,9.53,2.3,21,21,0,0,1,7.21,7.82l-.92.38A3.64,3.64,0,0,0,351,243l-6.22,2.55a3.1,3.1,0,0,0-2.86-1.91,3.14,3.14,0,0,0-1.15.23l-.86.35A3.09,3.09,0,0,0,338.25,248.26Zm29.61,10.8-5.46-13.33a3.71,3.71,0,0,0-4.4-2.15,22.71,22.71,0,0,0-7.14-8.11,17,17,0,0,0-9.63-3.17,13.73,13.73,0,0,0-5.14,1c-7.77,3.18-11.26,13-8.4,22.64l-.43.17s-1.33-.09-3.56-.09c-7,0-23.05.93-34.29,8.73a3.12,3.12,0,0,0-.73,1.9,3.22,3.22,0,0,0,.23,1.26s18-11.67,34.71.32c1,.73,2,1.41,3,2l1.5,3.65a11.92,11.92,0,0,0,15.51,6.49l15.27-6.26,3.18-1.3A10.6,10.6,0,0,0,367.86,259.06Z"/><path class="h" d="M326.61,270.29c-1-.63-2-1.31-3-2-16.67-12-34.7-.33-34.7-.33a3,3,0,0,1-.24-1.25c2.53-1.67,12-7.19,23.71-5.3C326.13,263.58,328.61,265.49,326.61,270.29Z"/><path class="h" d="M362.08,272.87l-3.19,1.3c4.77-2.6-1.13-13.6-4.59-20.86s-8.68-3.94-8.68-3.94a4.17,4.17,0,0,0-3.77-2.3,2.89,2.89,0,0,0-1.92-2.82l.86-.35a3.14,3.14,0,0,1,1.15-.23,3.1,3.1,0,0,1,2.86,1.91L351,243a3.64,3.64,0,0,1,4.51,1.53l.92-.38a21,21,0,0,0-7.21-7.82,14.51,14.51,0,0,0-9.53-2.3,6.67,6.67,0,0,0,1.52-1.76,17,17,0,0,1,9.63,3.17,22.71,22.71,0,0,1,7.14,8.11,3.71,3.71,0,0,1,4.4,2.15l5.46,13.34A10.6,10.6,0,0,1,362.08,272.87Z"/><path class="l" d="M354.92,242.86c2.21.93,5.32,4.18,10.3,2.21a76.08,76.08,0,0,1,9.16-2.8c.73-.14,1.14-.24,1.14-.24l-2-5.74-.24.07c-1.27.27-7.78,1.66-10.82,1-3.42-.79-9.17,3.32-9.17,3.32S352.7,242,354.92,242.86Z"/><path class="v" d="M292.44,277.55c0-2.08-3.76-8.48-3.76-8.48s-3.76,6.4-3.76,8.48a3.76,3.76,0,0,0,7.52,0Z"/><path class="w" d="M383.46,26.45a14.53,14.53,0,0,1,2.5-4.26,9,9,0,0,1,.87-.88A12.8,12.8,0,0,1,392,18.56c12.47-2.64,20.73,10.79,13,20.66l-.39.48a12.45,12.45,0,0,1-5.78,3.48,15,15,0,0,1-2.91.36A12.68,12.68,0,0,1,383.46,26.45ZM394.56,0,389,1.23l-.13,0a1.35,1.35,0,0,0-1.05,1.45l.5,4.69a1.77,1.77,0,0,1,0,.23,1.35,1.35,0,0,1-.88,1.16,23.43,23.43,0,0,0-8,4.78,1.54,1.54,0,0,1-.31.21,1.36,1.36,0,0,1-1.35-.09l-3.26-2.2a1.39,1.39,0,0,0-1.43-.05,2,2,0,0,0-.36.3l-3.71,4.41a1.37,1.37,0,0,0,.08,1.86l3.71,3.7a1.32,1.32,0,0,1,.3,1.39c-.24.7-.46,1.41-.64,2.15a23.43,23.43,0,0,0-.64,4.1h0a1.36,1.36,0,0,1-1,1.22l-5.07,1.57-.26.08a1.32,1.32,0,0,0-.91,1.55l1.22,5.64a1.41,1.41,0,0,0,1.5,1.08l5.22-.56a1.34,1.34,0,0,1,1.37.79,23.6,23.6,0,0,0,4.05,6,1.35,1.35,0,0,1,.12,1.66l-2.6,3.87a1.36,1.36,0,0,0,.26,1.82l4.42,3.73a1.31,1.31,0,0,0,1.78-.08l4.36-4.34a1.36,1.36,0,0,1,1.41-.33c.61.2,1.23.39,1.86.54a24.06,24.06,0,0,0,3.59.61,1.28,1.28,0,0,1,1.15.92l1.88,6.11a1.37,1.37,0,0,0,1.58.92L403.53,61a1.35,1.35,0,0,0,1.06-1.25.69.69,0,0,0,0-.2L404,53.72a1.32,1.32,0,0,1,.67-1.31l.13-.07a2.18,2.18,0,0,0,.38-.18,23.23,23.23,0,0,0,4.32-2.57,1.3,1.3,0,0,1,1.54,0l4.09,2.74a1.37,1.37,0,0,0,1.81-.26l.83-1,2.88-3.42a1.34,1.34,0,0,0-.07-1.83l-3.65-3.64a1.3,1.3,0,0,1-.26-1.48,24.43,24.43,0,0,0,1.45-4.17,26.17,26.17,0,0,0,.57-3.26l1.06-.32,4.38-1.36A1.31,1.31,0,0,0,425,30l-1.23-5.68a1.36,1.36,0,0,0-1.46-1.05l-3.56.39a1.35,1.35,0,0,1-1.4-.87,23.63,23.63,0,0,0-3.65-6.5,1.31,1.31,0,0,1-.07-1.57l3.28-4.89a1.29,1.29,0,0,0-.24-1.71l-4.48-3.77a1.3,1.3,0,0,0-1.78.07L405.88,9a1.36,1.36,0,0,1-1.48.29A23.11,23.11,0,0,0,401,8.13c-.64-.15-1.29-.28-1.93-.39A1.36,1.36,0,0,1,398,6.82L396.15,1A1.36,1.36,0,0,0,394.56,0Z"/><path class="x" d="M456.77,57.5a22.16,22.16,0,0,1,4.65-6,13.63,13.63,0,0,1,1.49-1.19,19.7,19.7,0,0,1,8.44-3.22C491,45.39,501,67.54,487.27,81.19l-.7.66a19.1,19.1,0,0,1-9.51,4.22,23.63,23.63,0,0,1-4.53,0A19.57,19.57,0,0,1,456.77,57.5Zm22.07-38.35-8.69.78-.21,0a2.07,2.07,0,0,0-1.88,2l-.14,7.28a2,2,0,0,1,0,.35,2,2,0,0,1-1.57,1.61A36.21,36.21,0,0,0,453.18,37a2.37,2.37,0,0,1-.53.26,2.09,2.09,0,0,1-2-.4l-4.59-4a2.08,2.08,0,0,0-2.16-.34,2.15,2.15,0,0,0-.62.39l-6.54,6a2.12,2.12,0,0,0-.23,2.86l5,6.38a2,2,0,0,1,.21,2.19c-.51,1-1,2.07-1.4,3.17a36.79,36.79,0,0,0-1.76,6.17h0a2.1,2.1,0,0,1-1.7,1.67l-8.09,1.44-.41.07a2,2,0,0,0-1.68,2.21l.8,8.87A2.14,2.14,0,0,0,429.5,76l8.11.15a2.05,2.05,0,0,1,1.94,1.45,36.54,36.54,0,0,0,5,10,2.09,2.09,0,0,1-.13,2.57l-4.73,5.43a2.14,2.14,0,0,0,0,2.84l6.07,6.56a2,2,0,0,0,2.74.22l7.5-5.82a2.13,2.13,0,0,1,2.22-.24q1.35.64,2.76,1.2a37.5,37.5,0,0,0,5.38,1.61A2,2,0,0,1,468,103.6l1.72,9.71A2.09,2.09,0,0,0,472,115l8.92-.8a2.08,2.08,0,0,0,1.85-1.73,1,1,0,0,0,0-.3l.18-9a2.07,2.07,0,0,1,1.28-1.9l.21-.07.62-.2a36.46,36.46,0,0,0,7.1-3.12,2,2,0,0,1,2.36.25l5.75,5a2.11,2.11,0,0,0,2.83-.05l1.46-1.34,5.07-4.69a2.1,2.1,0,0,0,.23-2.82L505,88a2,2,0,0,1-.11-2.31,37,37,0,0,0,3-6.11,36.46,36.46,0,0,0,1.49-4.88l1.7-.3L518,73.13a2,2,0,0,0,1.66-1.66,1.62,1.62,0,0,0,0-.54L518.93,62a2.09,2.09,0,0,0-2-1.88l-5.53-.1a2.08,2.08,0,0,1-2-1.59A36.69,36.69,0,0,0,505,47.76a2,2,0,0,1,.19-2.4l6-6.87a2,2,0,0,0,0-2.67L505,29.19a2,2,0,0,0-2.75-.23L494.45,35a2.05,2.05,0,0,1-2.32.16,36,36,0,0,0-5-2.4c-1-.36-1.91-.68-2.88-1a2.08,2.08,0,0,1-1.46-1.62l-1.65-9.31A2.11,2.11,0,0,0,478.84,19.15Z"/></svg>