<svg xmlns="http://www.w3.org/2000/svg" viewBox="0 0 608 390"><defs><style>.a{fill:#fff;}.b,.l{fill:#afcdfb;}.c{fill:#4c85d8;}.d{fill:#699ff0;}.e{fill:#c0d8fb;}.f{fill:#ffb973;}.g{fill:#dceaff;}.h{fill:#e2810e;}.i{fill:#ffb93e;}.j{fill:#ffa412;}.k{fill:#2c3a64;}.l{opacity:0.5;}.m{fill:#144ef4;}.n{fill:#ffb27d;}.o{fill:#ed985f;}.p{fill:#699dee;}.q{fill:#4a75cb;}.r{fill:#233862;}.s{fill:#4b80f7;}</style></defs><rect class="a" y="0.56" width="608" height="388.88"/><path class="b" d="M604.39,388.31,496.15,390c-3.88-3.28,17.48-13.5,45.28-12.93a60.55,60.55,0,0,1,11.07,1.3c1-13.2,6.69-72.55,28.17-70.16,24.16,2.67,0,26.13-6.82,40-5.06,10.29-10.4,25-12.83,32,2,.42,4,.84,6.06,1.22,3.2-9.79,15.11-42.72,30.26-40.8,17.78,2.24,10.64,15.45-2,23.28-9.25,5.77-20.6,14-26,17.91A77,77,0,0,0,583.56,383C596,382.7,602,386.35,604.39,388.31Z" transform="translate(0)"/><path class="b" d="M18,388.38c-1.82-2.85-7.3-10.24-14.6-9.26-7.94,1.06,8.78,6.28,13.9,9.28a8.82,8.82,0,0,1-2.83-.33c-3.42-1.22-9.29,1.11-11.16,1.93H35.94a5.16,5.16,0,0,0-2.33-3,5.88,5.88,0,0,0-3-.26c1.94-2.28,3.28-9.55-2.11-7.68-3.94,1.37-3.93,5.81-3.54,8.44l-2.53.38c-1.63-8.24-7.36-32.37-19-33s10,25,17.26,33.25C19.76,388.25,18.86,388.34,18,388.38Z" transform="translate(0)"/><path class="c" d="M314.66,359.41S312,378.11,315,390H270.6s21.26-77.51,64.8-121.88c12.49-12.74,24-30.87,35.09-50.81C398,167.8,423.1,107.2,454.86,90.67c0,0-62.73,91.79-74.88,144.73S324.53,286.82,314.66,359.41Z" transform="translate(0)"/><path class="d" d="M365,235.4a154.36,154.36,0,0,1,5.47-18.09c-11.1,19.94-22.6,38.07-35.09,50.81a180.17,180.17,0,0,0-17.8,21.41,148.09,148.09,0,0,0-8.85-34.23c-6.85-17-18.57-34.28-38.15-35.78,0,0,47.4,36.17,23.35,110.32C278.31,361.89,266.67,390,266.67,390h34.19c-3-11.89-.38-30.59-.38-30.59C310.35,286.82,352.87,288.33,365,235.4Z" transform="translate(0)"/><path class="c" d="M317.6,289.54l-.18.3c-1.24,2.07-8.39,13.74-7.75,6.56.7-7.85-8.16-37.43-8.16-37.43l7.24-3.67A147.74,147.74,0,0,1,317.6,289.54Z" transform="translate(0)"/><path class="e" d="M532.47,154.93h0l-1.32,2a114.31,114.31,0,0,0-24.92-9.11A92.39,92.39,0,0,0,449.76,152a81.91,81.91,0,0,0-12.67,6.39c-12.92,8.09-26.51,18-36.89,33l-1.77-1-49.1-37.56-10.41-8a180.52,180.52,0,0,1,19-19.47c13.79-12.35,34.22-27.38,58.37-35a98.13,98.13,0,0,1,44.93-3.84,96.69,96.69,0,0,1,31.9,11.13l39.37,57.2Z" transform="translate(0)"/><path class="b" d="M449.76,152a81.91,81.91,0,0,0-12.67,6.39c-12.92,8.09-26.51,18-36.89,33l-1.77-1-49.1-37.56a233.23,233.23,0,0,1,8.58-27.43c13.79-12.35,34.22-27.38,58.37-35a98.13,98.13,0,0,1,44.93-3.84l.82.54S437.33,117,449.76,152Z" transform="translate(0)"/><path class="e" d="M386.2,137.53,311.65,146l-2-.09a95.43,95.43,0,0,0-3.29-19.19,148.23,148.23,0,0,0-11.29-28,84.57,84.57,0,0,0-11.84-17.24,91.53,91.53,0,0,0-42-27.32,114.58,114.58,0,0,0-26.07-5l-.1-2.39h0L278.43,18a97.13,97.13,0,0,1,31.94,6.37c15.4,6,27.77,15.6,37.69,26.8,14.48,16.34,23.72,36,29.47,52.44A189.23,189.23,0,0,1,386.2,137.53Z" transform="translate(0)"/><path class="b" d="M377.53,103.61c-1.07,13.79-8.12,25-22.68,29.15-15.92,4.48-33.49.92-48.5-6a148.23,148.23,0,0,0-11.29-28,84.57,84.57,0,0,0-11.84-17.24c33-7.68,27.15-57.15,27.15-57.15,15.4,6,27.77,15.6,37.69,26.8C362.54,67.51,371.78,87.17,377.53,103.61Z" transform="translate(0)"/><path class="e" d="M289.83,95.08S288.48,81,262.08,86.7A28.1,28.1,0,0,0,289.83,95.08Z" transform="translate(0)"/><path class="b" d="M493.48,231.06h0l-39.37-57.19c-27.3-15.07-53.76-14.57-76.83-7.29C332.11,180.82,299.94,221,299.94,221l59.51,45.53h0l1.77.95c10.38-14.9,24-24.87,36.89-33,13.84-8.66,39.81-17.81,69.15-10.6a115.06,115.06,0,0,1,24.92,9.11l1.32-2Z" transform="translate(0)"/><path class="b" d="M203.17,166.82h0l39.36-57.2c27.31-15.07,53.77-14.57,76.84-7.29,45.18,14.24,77.36,54.46,77.36,54.46L337.2,202.32h0l-1.77,1c-10.38-14.9-24-24.87-36.9-33a92.19,92.19,0,0,0-69.15-10.59,115.41,115.41,0,0,0-24.92,9.1l-1.31-2Z" transform="translate(0)"/><path class="f" d="M81.67,379.54s0,0,.09,0S81.67,379.51,81.67,379.54Z" transform="translate(0)"/><path class="b" d="M331.51,136.87l-1.78-.93c6.61-16.9,7.33-33.7,6.84-48.89-.51-16.27-7.39-42.84-29.79-63a114.83,114.83,0,0,0-21.5-15.5l.93-2.2C343.67,32.12,347.9,75,342.45,104.52A117.32,117.32,0,0,1,331.51,136.87Z" transform="translate(0)"/><path class="g" d="M402.66,160.6l-71.15-23.74c4.1-10.73,5.93-22.84,6.74-32.26a150,150,0,0,0,.6-16.16C337.17,34.76,286.21,6.3,286.21,6.3l69.62.58c27.8,14.14,42.16,36.28,49,59.4C418.19,111.57,402.66,160.6,402.66,160.6Z" transform="translate(0)"/><path class="b" d="M336.78,134.67c.11-.17,8.76-15.8,10-39.3a83.1,83.1,0,0,0-7.83-39.85c-7.41-15.88-20-30.66-37.5-43.94l-2.69-2.05,56,1,.18.08c.53.2,13,5.18,25.71,19.3A96.49,96.49,0,0,1,398.47,58.8c5.43,13.57,8.32,29,8.56,45.86,0,1.31-.2,34.57-7.43,50h0Zm2.19-1.32,59.55,18.1c2.89-6.16,4.89-16.19,5.8-29,.68-9.72.5-17.67.49-17.75-.24-16.57-3.06-31.71-8.37-45a94.36,94.36,0,0,0-17.36-28.2,81.64,81.64,0,0,0-20.53-16.62,17.29,17.29,0,0,0-8.13-2.19L311.6,12a2.14,2.14,0,0,0-1.44,3.78c14,12,24.34,25,30.81,38.89a85.34,85.34,0,0,1,8,40.93,93.9,93.9,0,0,1-6.68,29.75C340.23,130.47,340,131.65,339,133.35Z" transform="translate(0)"/><path class="b" d="M377.39,54.55c-10.14-4.23-18.29-.54-22.54,9.55s3.68,20.57,13.81,24.8,18.64.62,22.89-9.47S387.52,58.78,377.39,54.55Z" transform="translate(0)"/><path class="b" d="M294.5,212.38l-1.91.62c-7.53-16.52-19.09-28.76-30.35-39-12.05-11-36-24.64-66.11-22.79A115.43,115.43,0,0,0,170,155.67l-.94-2.19c58.69-22.93,92.45,4,109.87,28.51A117.26,117.26,0,0,1,294.5,212.38Z" transform="translate(0)"/><path class="g" d="M361.26,178.24,294.5,212.38C289.65,202,282.23,192.19,276,185a155,155,0,0,0-11.2-11.72C225.09,137,169,153.48,169,153.48l49-49.23c29.58-9.94,55.52-4.71,76.9,6.58C336.86,132.93,361.26,178.24,361.26,178.24Z" transform="translate(0)"/><path class="b" d="M296.6,207.09c0-.2-5.23-17.29-21.27-34.57a83.72,83.72,0,0,0-34.1-22.25c-16.59-5.8-36-7.13-57.77-4l-3.35.49L220,107.59l.18-.08c.52-.23,12.78-5.63,31.83-4.84a97.17,97.17,0,0,1,33.19,7.46c13.55,5.6,26.65,14.33,38.94,25.93,1,.88,24.69,24.29,30.74,40.21h0Zm.59-2.49,54.6-29.8c-2.42-6.36-8.22-14.79-16.79-24.38-6.51-7.28-12.35-12.7-12.41-12.75-12.07-11.4-24.92-20-38.19-25.47A95,95,0,0,0,252,104.88a82.06,82.06,0,0,0-26.29,3,17.23,17.23,0,0,0-7.25,4.26l-27.62,27.18a2.14,2.14,0,0,0,1.71,3.66c18.36-1.63,35,.11,49.47,5.2a85.83,85.83,0,0,1,35,22.89,94.24,94.24,0,0,1,16.72,25.53C296,201.7,296.67,202.7,297.19,204.6Z" transform="translate(0)"/><path class="b" d="M295.16,129.47c-4.29-10.08-17.65-11.55-27.77-7.28s-13.16,12.65-8.87,22.73,17.35,11.75,27.46,7.48S299.44,139.54,295.16,129.47Z" transform="translate(0)"/><path class="b" d="M405.23,160.58l2,.12c3.07-17.88,11.14-32.64,19.42-45.41,8.85-13.69,28.49-32.93,58.14-38.76a115.71,115.71,0,0,1,26.45-2.26l.34-2.36c-62.6-7.35-88.4,27.23-99,55.33A117.06,117.06,0,0,0,405.23,160.58Z" transform="translate(0)"/><path class="g" d="M332,144.43l73.26,16.15c2-11.3,6.73-22.62,10.91-31.11A152.17,152.17,0,0,1,424,115.31c29.2-45.15,87.61-43.4,87.61-43.4l-60-35.22c-31.14-2.14-54.9,9.47-72.71,25.79C344,94.43,332,144.43,332,144.43Z" transform="translate(0)"/><path class="b" d="M337.66,140.9h0c1.79-16.93,18.79-45.56,19.49-46.66,8.93-14.33,19.38-26.07,31.06-34.92a96.75,96.75,0,0,1,30.21-15.6c18.22-5.57,31.46-3.45,32-3.36l.19,0,48.55,27.86-3.37.38C474,71,455.51,77.24,441,87.05a83.51,83.51,0,0,0-27.33,30.14C402.51,138,401.84,155.8,401.85,156Zm64.28,4.26a94.19,94.19,0,0,1,9.67-28.92,85.56,85.56,0,0,1,28-31c12.73-8.59,28.34-14.47,46.52-17.53a2.15,2.15,0,0,0,.72-4L453.25,44.44a17.45,17.45,0,0,0-8.1-2.29A82.15,82.15,0,0,0,419,45.87a94.67,94.67,0,0,0-29.46,15.26C378.05,69.81,367.81,81.34,359,95.41c0,.07-4.31,6.79-8.75,15.48-5.85,11.44-9.31,21.06-10,27.82l60.4,15C400.67,151.77,401.06,150.63,401.94,145.16Z" transform="translate(0)"/><path class="b" d="M408.48,66.49c-10.87-1.57-23.42,3.23-25,14.06s3.84,18.29,14.71,19.86,23.09-3.34,24.67-14.17S419.35,68.06,408.48,66.49Z" transform="translate(0)"/><path class="h" d="M336,138.46a50.53,50.53,0,1,1,37.18,60.79A50.56,50.56,0,0,1,336,138.46Z" transform="translate(0)"/><ellipse class="i" cx="380.87" cy="149.3" rx="50.54" ry="50.33"/><path class="j" d="M380.81,195.76a46.45,46.45,0,0,1-10.95-1.32,45.89,45.89,0,1,1,10.95,1.32Zm-.16-89a43.32,43.32,0,0,0-42,33,43.12,43.12,0,0,0,31.86,52.08A43.13,43.13,0,1,0,391,108,43.63,43.63,0,0,0,380.65,106.74Z" transform="translate(0)"/><path class="j" d="M383.73,164.31a7.78,7.78,0,0,0,.53-2.62,5.44,5.44,0,0,0-.58-2.41,10.42,10.42,0,0,0-1.72-2.46,29.16,29.16,0,0,0-2.94-2.73,70.31,70.31,0,0,1-5.45-5,22.76,22.76,0,0,1-3.77-4.94,13.47,13.47,0,0,1-1.65-5.32A15.15,15.15,0,0,1,372.06,128a12.92,12.92,0,0,1,4.41-3,15.9,15.9,0,0,1,5.54-1.16,21.66,21.66,0,0,1,6.37.79l2.66-7.13,5.77,2.13-2.7,7.24a18.9,18.9,0,0,1,5,3.72,14.71,14.71,0,0,1,3.1,4.78,14.88,14.88,0,0,1,1,5.66,19,19,0,0,1-1.3,6.37l-10.41-3.86c1-2.66,1.15-4.88.45-6.64a6.48,6.48,0,0,0-4-3.76,8.32,8.32,0,0,0-3-.58,5.56,5.56,0,0,0-2.39.52,5.2,5.2,0,0,0-1.81,1.43,8,8,0,0,0-1.22,2.17,7.18,7.18,0,0,0-.47,2.37,5.14,5.14,0,0,0,.55,2.31,10.83,10.83,0,0,0,1.74,2.47,35.66,35.66,0,0,0,3.05,2.89q3,2.59,5.36,5a23.17,23.17,0,0,1,3.74,5,13.66,13.66,0,0,1,1.64,5.33,15.18,15.18,0,0,1-4,10.91,12.53,12.53,0,0,1-4.41,2.95,15.39,15.39,0,0,1-5.54,1.06,23.34,23.34,0,0,1-6.39-.85l-2.48,6.63-5.73-2.12,2.47-6.6a26,26,0,0,1-5.3-3.45,16.19,16.19,0,0,1-3.87-4.72,14.55,14.55,0,0,1-1.69-6,17.82,17.82,0,0,1,1.27-7.35l10.42,3.87a10.84,10.84,0,0,0-.81,4.19,7.18,7.18,0,0,0,.83,3.2,6.93,6.93,0,0,0,2,2.27,12.16,12.16,0,0,0,2.76,1.46,10,10,0,0,0,3.14.67,6.5,6.5,0,0,0,2.59-.41,5.14,5.14,0,0,0,2-1.33A6.22,6.22,0,0,0,383.73,164.31Z" transform="translate(0)"/><polygon class="g" points="335.65 162.87 358.11 242.1 168.43 295.43 145.97 216.21 335.65 162.87"/><path class="e" d="M335.65,162.87l22.46,79.23-148.3,41.7c6.86-4.29,69.7-24.89,82.63-53.44,15.7-34.66,3.39-53.64,3.72-56.38Z" transform="translate(0)"/><path class="b" d="M158.77,220.33l17.91,63.17,167.54-47.11-17.91-63.17ZM338.39,225a10.08,10.08,0,0,1-7,12.47L187.13,278a9.1,9.1,0,0,1-11.21-6.25l-11.37-40.11a10,10,0,0,1,6.91-12.3l143.72-40.41a9.79,9.79,0,0,1,12.07,6.74Z" transform="translate(0)"/><path class="b" d="M271.54,222.72a20.51,20.51,0,1,0-14.17,25.22A20.53,20.53,0,0,0,271.54,222.72Z" transform="translate(0)"/><rect class="g" x="359.28" y="185.52" width="197.1" height="82.32" transform="matrix(1, 0, 0, 1, -0.99, 2.01)"/><path class="e" d="M556.2,185.09l.36,82.32-154.09.67c7.76-2.3,73.83-5.41,94-29.48,24.43-29.21,17.67-50.78,18.73-53.33Z" transform="translate(0)"/><path class="b" d="M370.33,193.33l.29,65.64,174.09-.76-.29-65.64Zm171.84,52.31a10.14,10.14,0,0,1-10.11,10.15l-149.88.65a9.07,9.07,0,0,1-9.13-9l-.18-41.67a10,10,0,0,1,10-10l149.33-.65a9.78,9.78,0,0,1,9.83,9.71Z" transform="translate(0)"/><path class="b" d="M457.74,205.33a20.44,20.44,0,1,0,20.61,20.35A20.48,20.48,0,0,0,457.74,205.33Z" transform="translate(0)"/><path class="h" d="M436.23,244.67a50.49,50.49,0,1,0-19.86,68.38A50.64,50.64,0,0,0,436.23,244.67Z" transform="translate(0)"/><path class="i" d="M432.37,246.79a50.49,50.49,0,1,0-19.86,68.38A50.64,50.64,0,0,0,432.37,246.79Z" transform="translate(0)"/><path class="j" d="M388.47,317.49a46.47,46.47,0,0,1-12.86-1.83,45.9,45.9,0,1,1,12.86,1.83Zm-.13-89a43.51,43.51,0,1,0,12.09,1.72A43.6,43.6,0,0,0,388.34,228.47Z" transform="translate(0)"/><path class="j" d="M400.4,280.22a7.65,7.65,0,0,0-1.38-2.28,5.56,5.56,0,0,0-2.06-1.39,10.8,10.8,0,0,0-2.95-.66,27.78,27.78,0,0,0-4,0,72.7,72.7,0,0,1-7.38,0,22.82,22.82,0,0,1-6.14-1.11,13.54,13.54,0,0,1-4.82-2.81,15.19,15.19,0,0,1-4.48-10.63,12.72,12.72,0,0,1,1.21-5.17,16,16,0,0,1,3.3-4.58,21.37,21.37,0,0,1,5.23-3.71l-2.87-7.05,5.7-2.3,2.91,7.15a19,19,0,0,1,6.22-.64,15.18,15.18,0,0,1,5.53,1.45A14.93,14.93,0,0,1,399,250a19.06,19.06,0,0,1,3.37,5.57l-10.29,4.16c-1.08-2.63-2.47-4.37-4.18-5.2a6.52,6.52,0,0,0-5.52-.05,8.19,8.19,0,0,0-2.58,1.56,5.61,5.61,0,0,0-1.41,2,5.28,5.28,0,0,0-.35,2.27,7.41,7.41,0,0,0,.57,2.42,7.13,7.13,0,0,0,1.25,2.07,5.35,5.35,0,0,0,2,1.33,10.5,10.5,0,0,0,3,.64,34.34,34.34,0,0,0,4.2.09c2.65-.08,5.11,0,7.36.09a23.34,23.34,0,0,1,6.14,1.15,13,13,0,0,1,8.2,7.91,13.82,13.82,0,0,1,1.11,5.62,12.7,12.7,0,0,1-1.24,5.15,15.42,15.42,0,0,1-3.37,4.51,23.14,23.14,0,0,1-5.29,3.67l2.67,6.56-5.66,2.29-2.66-6.53a26.09,26.09,0,0,1-6.24,1,16.62,16.62,0,0,1-6.06-.87,14.7,14.7,0,0,1-5.33-3.31,17.72,17.72,0,0,1-4.05-6.27l10.29-4.17a11,11,0,0,0,2.25,3.64,6.86,6.86,0,0,0,5.83,2.1,12.28,12.28,0,0,0,3-.78,10.1,10.1,0,0,0,2.76-1.62,6.71,6.71,0,0,0,1.64-2,5.38,5.38,0,0,0,.55-2.32A6.41,6.41,0,0,0,400.4,280.22Z" transform="translate(0)"/><path class="h" d="M340,198.43a38,38,0,1,0-34.55,40.93A37.93,37.93,0,0,0,340,198.43Z" transform="translate(0)"/><path class="i" d="M336.66,198.71a38,38,0,1,0-34.56,40.94A37.93,37.93,0,0,0,336.66,198.71Z" transform="translate(0)"/><path class="j" d="M298.84,236.87a34.58,34.58,0,0,1-34.44-31.48h0A34.62,34.62,0,0,1,321.13,176a34.19,34.19,0,0,1,12.21,23.41,34.53,34.53,0,0,1-31.49,37.29C300.84,236.83,299.84,236.87,298.84,236.87Zm-32.38-31.66a32.53,32.53,0,0,0,64.82-5.59,32.49,32.49,0,0,0-35.21-29.48,32.47,32.47,0,0,0-29.61,35.07Z" transform="translate(0)"/><path class="j" d="M304.48,212a5.87,5.87,0,0,0-.25-2,4.37,4.37,0,0,0-1-1.58,8,8,0,0,0-1.83-1.34,20.11,20.11,0,0,0-2.74-1.24,55,55,0,0,1-5.08-2.23,17.13,17.13,0,0,1-3.87-2.62,10,10,0,0,1-2.45-3.39,11.32,11.32,0,0,1,.17-8.66,9.68,9.68,0,0,1,2.42-3.19,12,12,0,0,1,3.66-2.14,15.76,15.76,0,0,1,4.73-1l.18-5.72,4.62.15-.18,5.79a14.53,14.53,0,0,1,4.46,1.46,10.82,10.82,0,0,1,5.41,6.46,14.37,14.37,0,0,1,.62,4.85l-8.35-.26a7,7,0,0,0-1.27-4.84,4.9,4.9,0,0,0-3.78-1.71,6,6,0,0,0-2.25.29,4.33,4.33,0,0,0-1.58.93,4.08,4.08,0,0,0-.94,1.46,6,6,0,0,0-.35,1.83,5.17,5.17,0,0,0,.24,1.8,3.83,3.83,0,0,0,.95,1.52,8,8,0,0,0,1.83,1.34,27.52,27.52,0,0,0,2.86,1.33c1.85.75,3.52,1.52,5,2.3a17.13,17.13,0,0,1,3.86,2.65,10.75,10.75,0,0,1,2.26,12.12,9.49,9.49,0,0,1-2.43,3.15,11.62,11.62,0,0,1-3.69,2.08,17.41,17.41,0,0,1-4.76.92l-.17,5.31-4.59-.14.17-5.29a19.58,19.58,0,0,1-4.6-1.19,12.45,12.45,0,0,1-3.9-2.43,11.18,11.18,0,0,1-2.65-3.9,13.3,13.3,0,0,1-.86-5.53l8.35.26a8,8,0,0,0,.43,3.18,5.06,5.06,0,0,0,3.36,3.21,8.73,8.73,0,0,0,2.32.38,7.38,7.38,0,0,0,2.39-.27,4.84,4.84,0,0,0,1.75-.91,3.87,3.87,0,0,0,1.09-1.42A4.94,4.94,0,0,0,304.48,212Z" transform="translate(0)"/><path class="h" d="M328.87,96.75a19.82,19.82,0,1,0-6.8,27.11A19.88,19.88,0,0,0,328.87,96.75Z" transform="translate(0)"/><path class="i" d="M327.39,97.63a19.83,19.83,0,1,0-6.81,27.12A19.9,19.9,0,0,0,327.39,97.63Z" transform="translate(0)"/><path class="j" d="M310.52,126A18.09,18.09,0,0,1,295,117.27h0A18.11,18.11,0,1,1,310.52,126Zm-14.61-9.3a17.06,17.06,0,0,0,23.33,5.81,16.88,16.88,0,0,0,5.83-23.23,17,17,0,0,0-29.16,17.42Z" transform="translate(0)"/><path class="j" d="M315.33,111.21a3.28,3.28,0,0,0-.58-.88,2.24,2.24,0,0,0-.83-.51,4.27,4.27,0,0,0-1.16-.22,11,11,0,0,0-1.58.05c-1,.09-2,.12-2.9.11a9,9,0,0,1-2.42-.35,5.21,5.21,0,0,1-1.93-1,5.59,5.59,0,0,1-1.41-2,5.47,5.47,0,0,1-.5-2.15,5,5,0,0,1,.4-2,6.12,6.12,0,0,1,1.23-1.84,8.38,8.38,0,0,1,2-1.53l-1.23-2.73,2.2-1,1.25,2.76a7.41,7.41,0,0,1,2.43-.33,5.69,5.69,0,0,1,4,1.8,7.36,7.36,0,0,1,1.4,2.13l-4,1.78a3.69,3.69,0,0,0-1.71-2,2.58,2.58,0,0,0-2.17.06,3.4,3.4,0,0,0-1,.65,2.16,2.16,0,0,0-.52.8,2,2,0,0,0-.11.9,3,3,0,0,0,.26.94,2.52,2.52,0,0,0,.52.79,2.06,2.06,0,0,0,.79.5,4.71,4.71,0,0,0,1.18.21,16,16,0,0,0,1.65,0c1-.07,2-.09,2.89-.07a8.71,8.71,0,0,1,2.42.37,5.12,5.12,0,0,1,3.33,3,5.47,5.47,0,0,1,.52,2.19,4.93,4.93,0,0,1-.41,2,6.15,6.15,0,0,1-1.26,1.82,9.1,9.1,0,0,1-2,1.51l1.14,2.54-2.19,1L313.93,118a10.08,10.08,0,0,1-2.43.49,6.38,6.38,0,0,1-2.39-.26A5.71,5.71,0,0,1,307,117a6.93,6.93,0,0,1-1.68-2.4l4-1.78a4.21,4.21,0,0,0,.93,1.39,2.93,2.93,0,0,0,1.12.67,2.71,2.71,0,0,0,1.2.07,4.45,4.45,0,0,0,1.18-.35,4,4,0,0,0,1.06-.67,2.61,2.61,0,0,0,.61-.83,2.06,2.06,0,0,0,.18-.91A2.48,2.48,0,0,0,315.33,111.21Z" transform="translate(0)"/><path class="h" d="M400.4,27.07a19.77,19.77,0,1,0,14.24,24.09A19.86,19.86,0,0,0,400.4,27.07Z" transform="translate(0)"/><path class="i" d="M398.73,26.64A19.77,19.77,0,1,0,413,50.73,19.85,19.85,0,0,0,398.73,26.64Z" transform="translate(0)"/><path class="j" d="M393.69,64a18.1,18.1,0,0,1-4.53-.58,18,18,0,0,1-13-21.94h0a18.08,18.08,0,0,1,35,9A18.11,18.11,0,0,1,393.69,64Zm0-34.95a17,17,0,0,0-16.43,12.69h0a17,17,0,0,0,16.46,21.19,16.94,16.94,0,0,0,0-33.88Z" transform="translate(0)"/><path class="j" d="M394.79,51.68a3.07,3.07,0,0,0,.22-1,2.3,2.3,0,0,0-.21-.95,4,4,0,0,0-.67-1A10.18,10.18,0,0,0,393,47.64a27.41,27.41,0,0,1-2.11-2,9.08,9.08,0,0,1-1.45-2,5.29,5.29,0,0,1-.61-2.1,5.95,5.95,0,0,1,1.6-4.23,4.89,4.89,0,0,1,1.75-1.15,5.92,5.92,0,0,1,2.18-.42,8.34,8.34,0,0,1,2.5.34l1.09-2.78,2.25.87-1.11,2.82A7.62,7.62,0,0,1,401,38.54a5.85,5.85,0,0,1,1.18,1.9,5.68,5.68,0,0,1,.35,2.23,7.26,7.26,0,0,1-.54,2.49L398,43.59a3.66,3.66,0,0,0,.22-2.61,2.53,2.53,0,0,0-1.56-1.5,3.3,3.3,0,0,0-1.16-.24,2.19,2.19,0,0,0-.94.18,2.07,2.07,0,0,0-.72.56,2.9,2.9,0,0,0-.49.84,2.68,2.68,0,0,0-.2.93,2.06,2.06,0,0,0,.2.91,4.08,4.08,0,0,0,.67,1,13.16,13.16,0,0,0,1.18,1.15c.77.69,1.47,1.36,2.07,2a8.75,8.75,0,0,1,1.44,2,5.09,5.09,0,0,1,.2,4.46,5.42,5.42,0,0,1-1.2,1.9,4.91,4.91,0,0,1-1.75,1.14,6.14,6.14,0,0,1-2.19.38,9.07,9.07,0,0,1-2.5-.37l-1,2.59L388,58l1-2.58A10,10,0,0,1,386.92,54a6.26,6.26,0,0,1-1.49-1.88,5.59,5.59,0,0,1-.63-2.37,7,7,0,0,1,.54-2.88l4.07,1.58a4.11,4.11,0,0,0-.34,1.64,2.79,2.79,0,0,0,.3,1.26,2.74,2.74,0,0,0,.79.9,4.35,4.35,0,0,0,1.08.59,3.73,3.73,0,0,0,1.22.28,2.55,2.55,0,0,0,1-.14,2,2,0,0,0,.79-.51A2.6,2.6,0,0,0,394.79,51.68Z" transform="translate(0)"/><path class="h" d="M439.08,193.59a15.61,15.61,0,1,1,21.44,5.34A15.52,15.52,0,0,1,439.08,193.59Z" transform="translate(0)"/><path class="i" d="M437.91,194.29a15.61,15.61,0,1,1,21.44,5.34A15.52,15.52,0,0,1,437.91,194.29Z" transform="translate(0)"/><path class="j" d="M451.43,200.62a14.24,14.24,0,0,1-12.23-6.88h0a14.27,14.27,0,1,1,12.23,6.88Zm-11.5-7.32A13.37,13.37,0,1,0,444.52,175a13.44,13.44,0,0,0-4.59,18.29Z" transform="translate(0)"/><path class="j" d="M455.22,189a2.37,2.37,0,0,0-.46-.69,1.72,1.72,0,0,0-.65-.41,3.43,3.43,0,0,0-.92-.17,9.15,9.15,0,0,0-1.24,0q-1.23.1-2.28.09a7.44,7.44,0,0,1-1.91-.28,4.21,4.21,0,0,1-1.52-.81,4.37,4.37,0,0,1-1.11-1.54,4.43,4.43,0,0,1-.4-1.69,4.11,4.11,0,0,1,.32-1.62,4.91,4.91,0,0,1,1-1.45,6.51,6.51,0,0,1,1.57-1.2l-1-2.15,1.74-.78,1,2.18a5.92,5.92,0,0,1,1.91-.27,4.71,4.71,0,0,1,1.73.39,4.64,4.64,0,0,1,1.45,1,6.1,6.1,0,0,1,1.1,1.69l-3.13,1.4a2.88,2.88,0,0,0-1.35-1.56,2,2,0,0,0-1.71,0,2.71,2.71,0,0,0-.77.51,1.69,1.69,0,0,0-.42.64,1.5,1.5,0,0,0-.08.7,2.44,2.44,0,0,0,.61,1.37,1.61,1.61,0,0,0,.63.39,3.31,3.31,0,0,0,.92.16,9.7,9.7,0,0,0,1.3,0c.82-.05,1.58-.07,2.28-.05a7.51,7.51,0,0,1,1.91.28,4.39,4.39,0,0,1,1.52.82,4.32,4.32,0,0,1,1.1,1.54,4.24,4.24,0,0,1,.41,1.72,4,4,0,0,1-.33,1.6,4.76,4.76,0,0,1-1,1.44,7.33,7.33,0,0,1-1.59,1.19l.9,2-1.72.77-.9-2a8,8,0,0,1-1.92.39,5.14,5.14,0,0,1-1.88-.2,4.64,4.64,0,0,1-1.69-1,5.43,5.43,0,0,1-1.32-1.9l3.14-1.4a3.39,3.39,0,0,0,.73,1.1,2.12,2.12,0,0,0,1.83.58,3.61,3.61,0,0,0,.92-.27,3.37,3.37,0,0,0,.84-.53,2,2,0,0,0,.48-.65,1.71,1.71,0,0,0,.15-.73A2,2,0,0,0,455.22,189Z" transform="translate(0)"/><path class="b" d="M260.68,178.48s-10.89-7.64-19.06-6.14-17,12-17,12,16.3,1.8,22.35-.48S260.68,178.48,260.68,178.48Z" transform="translate(0)"/><path class="e" d="M440.32,162.72S458.91,152.66,466,156s10.85,11.26,10.85,11.26a125.93,125.93,0,0,1-15.25.53C454.94,167.46,450.42,161.52,440.32,162.72Z" transform="translate(0)"/><path class="j" d="M470,85.52s12.42-6.12,18-4.7a51.92,51.92,0,0,1,11.21,4.7s-6.93,4.15-13.66,3.86S470,85.52,470,85.52Z" transform="translate(0)"/><path class="j" d="M389,22.47s-6.42-7.92-4.18-13.7A53,53,0,0,1,389,0s5.87,6.63,5.62,11.24S389,22.47,389,22.47Z" transform="translate(0)"/><path class="e" d="M415.28,36.43s-1.5-10,3.14-12.82,12.09-2.85,12.09-2.85-1.15,8.42-4.3,10.27S416.66,33.9,415.28,36.43Z" transform="translate(0)"/><path class="b" d="M343.72,302s6.28,8.84,6.57,12-8.86,11.13-8.86,11.13-3-7.71-1.67-11.56S343.72,302,343.72,302Z" transform="translate(0)"/><path class="b" d="M332.05,251.43s-9.33,3.14-10.62,8.28a27,27,0,0,0-.86,8.81S334.08,262,332.05,251.43Z" transform="translate(0)"/><path class="b" d="M334.89,251.43s2.88,3.29,2.95,5.57a7.63,7.63,0,0,1-1.47,4.27S333,258.55,334.89,251.43Z" transform="translate(0)"/><path class="i" d="M440.87,381.41v6.2a2.41,2.41,0,0,1-1.53,2.23,2.2,2.2,0,0,1-.44.12,2,2,0,0,1-.43,0l-99.19,0a2.16,2.16,0,0,1-1.1-.27,2.38,2.38,0,0,1-1.29-1.89.34.34,0,0,0,0-.1v-6.33a.49.49,0,0,1,0-.12,2.39,2.39,0,0,1,2.39-2.27l99.19,0a2,2,0,0,1,.43,0,1.69,1.69,0,0,1,.44.12,2.39,2.39,0,0,1,1.53,2.23Z" transform="translate(0)"/><path class="j" d="M392.16,390H339a1.85,1.85,0,0,1-1-.27,2.41,2.41,0,0,1-1.15-1.89.34.34,0,0,0,0-.1v-6.33a.49.49,0,0,1,0-.12A2.26,2.26,0,0,1,339,379h46.61a19.73,19.73,0,0,0,6.2,10.71Z" transform="translate(0)"/><rect class="j" x="427.68" y="379.02" width="1.13" height="10.98"/><rect class="j" x="423.86" y="379.02" width="1.13" height="10.98"/><rect class="j" x="419.28" y="379.01" width="1.13" height="10.98"/><rect class="j" x="412.27" y="379.01" width="1.13" height="10.98"/><rect class="j" x="404.85" y="379.01" width="1.13" height="10.98"/><rect class="j" x="393.48" y="379.01" width="1.13" height="10.98"/><rect class="j" x="382.83" y="379.01" width="1.13" height="10.98"/><rect class="j" x="373.33" y="379.01" width="1.13" height="10.98"/><rect class="j" x="431.31" y="379.02" width="1.13" height="10.98"/><rect class="j" x="433.71" y="379.02" width="1.13" height="10.98"/><rect class="j" x="436.03" y="379.02" width="1.13" height="10.98"/><path class="j" d="M438.9,379.06V390a2,2,0,0,1-.43,0h-.7V379h.71A2,2,0,0,1,438.9,379.06Z" transform="translate(0)"/><path class="j" d="M440.46,380.07v8.87a2.36,2.36,0,0,1-1.12.9V379.18A2.4,2.4,0,0,1,440.46,380.07Z" transform="translate(0)"/><path class="i" d="M430,370.43v6.2a2.35,2.35,0,0,1-.41,1.33,2.45,2.45,0,0,1-1.13.9,3.17,3.17,0,0,1-.44.12,2.85,2.85,0,0,1-.42,0l-99.19,0a2.41,2.41,0,0,1-2.4-2.26v-6.45a2.4,2.4,0,0,1,2.12-2.25l.28,0,99.19,0a2.77,2.77,0,0,1,.42,0,2,2,0,0,1,.44.13,2.38,2.38,0,0,1,1.54,2.23Z" transform="translate(0)"/><path class="j" d="M381.31,379H328.17a2.27,2.27,0,0,1-2.14-2.26v-6.45a2.31,2.31,0,0,1,1.89-2.25l.25,0h46.62A19.64,19.64,0,0,0,381.31,379Z" transform="translate(0)"/><rect class="j" x="416.82" y="368.03" width="1.13" height="10.98"/><rect class="j" x="413.01" y="368.03" width="1.13" height="10.98"/><rect class="j" x="408.43" y="368.03" width="1.13" height="10.98"/><rect class="j" x="401.42" y="368.03" width="1.13" height="10.98"/><rect class="j" x="394" y="368.03" width="1.13" height="10.98"/><rect class="j" x="382.63" y="368.03" width="1.13" height="10.98"/><rect class="j" x="371.98" y="368.03" width="1.13" height="10.98"/><rect class="j" x="362.47" y="368.03" width="1.13" height="10.98"/><rect class="j" x="420.46" y="368.03" width="1.13" height="10.98"/><rect class="j" x="422.86" y="368.03" width="1.13" height="10.98"/><rect class="j" x="425.17" y="368.04" width="1.13" height="10.98"/><path class="j" d="M428,368.07V379a2.85,2.85,0,0,1-.42,0h-.7V368h.7Z" transform="translate(0)"/><path class="j" d="M429.61,369.09V378a2.45,2.45,0,0,1-1.13.9V368.2A2.37,2.37,0,0,1,429.61,369.09Z" transform="translate(0)"/><path class="i" d="M440.37,359.46v6.2A2.38,2.38,0,0,1,440,367a2.43,2.43,0,0,1-1.13.89,1.69,1.69,0,0,1-.44.12l-.14,0H338.78a2.41,2.41,0,0,1-2.4-2.27v-6.45s0-.07,0-.1a2.4,2.4,0,0,1,1.8-2.09l.07,0a2.24,2.24,0,0,1,.52-.06l99.19,0h.31l.12,0a2.11,2.11,0,0,1,.43.12,2.39,2.39,0,0,1,1.13.9A2.35,2.35,0,0,1,440.37,359.46Z" transform="translate(0)"/><path class="j" d="M391.66,368H338.52a2.27,2.27,0,0,1-2.14-2.27v-6.45s0-.07,0-.1a2.35,2.35,0,0,1,1.66-2.11l.09,0a2.45,2.45,0,0,1,.38,0h46.62a.24.24,0,0,0,0,.08A19.61,19.61,0,0,0,391.64,368Z" transform="translate(0)"/><rect class="j" x="427.17" y="357.07" width="1.13" height="10.98"/><rect class="j" x="423.36" y="357.07" width="1.13" height="10.98"/><rect class="j" x="418.78" y="357.07" width="1.13" height="10.98"/><rect class="j" x="411.77" y="357.07" width="1.13" height="10.98"/><rect class="j" x="404.35" y="357.06" width="1.13" height="10.98"/><rect class="j" x="392.98" y="357.06" width="1.13" height="10.98"/><rect class="j" x="382.33" y="357.06" width="1.13" height="10.98"/><rect class="j" x="372.82" y="357.06" width="1.13" height="10.98"/><rect class="j" x="430.81" y="357.07" width="1.13" height="10.98"/><rect class="j" x="433.21" y="357.07" width="1.13" height="10.98"/><rect class="j" x="435.52" y="357.07" width="1.13" height="10.98"/><path class="j" d="M438.4,357.11V368a1.93,1.93,0,0,1-.42,0h-.7v-11h.7A2,2,0,0,1,438.4,357.11Z" transform="translate(0)"/><path class="j" d="M440,358.12V367a2.43,2.43,0,0,1-1.13.89V357.23A2.43,2.43,0,0,1,440,358.12Z" transform="translate(0)"/><rect class="j" x="338.54" y="367.74" width="36.24" height="16.18"/><polygon class="j" points="380.27 378.09 382.64 380.26 382.31 383.41 368.42 383.01 367.09 377.15 380.27 378.09"/><path class="i" d="M175.77,381.41v6.2a2.4,2.4,0,0,1-1.54,2.23,1.69,1.69,0,0,1-.34.1h0l-.09,0a2,2,0,0,1-.43,0H74.18a1.63,1.63,0,0,1-.31,0h-.12a2.42,2.42,0,0,1-2-2.23v-6.33a.49.49,0,0,1,0-.12A2.39,2.39,0,0,1,74.18,379l99.19,0h.27l.09,0h.07a1.69,1.69,0,0,1,.44.12l.06,0,.06,0,.12.06.13.07.11.07.13.1.09.07h0l.07.05.17.18,0,.05,0,.06.09.12A2.38,2.38,0,0,1,175.77,381.41Z" transform="translate(0)"/><path class="j" d="M127.06,390H73.66a2.32,2.32,0,0,1-1.88-2.25v-6.33a.49.49,0,0,1,0-.12A2.26,2.26,0,0,1,73.92,379h46.62l.06.27A19.64,19.64,0,0,0,127,389.91Z" transform="translate(0)"/><rect class="j" x="162.58" y="379.02" width="1.13" height="10.98"/><rect class="j" x="158.76" y="379.02" width="1.13" height="10.98"/><rect class="j" x="154.18" y="379.02" width="1.13" height="10.98"/><rect class="j" x="147.17" y="379.01" width="1.13" height="10.98"/><rect class="j" x="139.75" y="379.01" width="1.13" height="10.98"/><rect class="j" x="128.38" y="379.01" width="1.13" height="10.98"/><rect class="j" x="117.73" y="379.01" width="1.13" height="10.98"/><rect class="j" x="108.23" y="379.01" width="1.13" height="10.98"/><rect class="j" x="166.21" y="379.02" width="1.13" height="10.98"/><rect class="j" x="168.61" y="379.02" width="1.13" height="10.98"/><rect class="j" x="170.93" y="379.02" width="1.13" height="10.98"/><path class="j" d="M173.8,379.06V390a2,2,0,0,1-.43,0h-.7V379h.7A2,2,0,0,1,173.8,379.06Z" transform="translate(0)"/><path class="j" d="M175.36,380.07v8.87a2.36,2.36,0,0,1-1.12.9V379.18A2.4,2.4,0,0,1,175.36,380.07Z" transform="translate(0)"/><path class="i" d="M180.9,370.7v6.2a2.35,2.35,0,0,1-.41,1.33,2.44,2.44,0,0,1-1.13.9,3.17,3.17,0,0,1-.44.12,2,2,0,0,1-.42,0l-99.19,0A2.31,2.31,0,0,1,78.2,379a2.4,2.4,0,0,1-1.28-1.89.34.34,0,0,1,0-.1v-6.45a2.41,2.41,0,0,1,2.4-2.27l99.19,0a1.87,1.87,0,0,1,.42,0,1.59,1.59,0,0,1,.44.12,2.43,2.43,0,0,1,1.13.89A2.36,2.36,0,0,1,180.9,370.7Z" transform="translate(0)"/><path class="j" d="M132.19,379.28H79.05a1.89,1.89,0,0,1-1-.27,2.42,2.42,0,0,1-1.14-1.89.34.34,0,0,1,0-.1v-6.45a2.27,2.27,0,0,1,2.14-2.27h46.62A19.77,19.77,0,0,0,131.86,379Z" transform="translate(0)"/><rect class="j" x="167.7" y="368.31" width="1.13" height="10.98"/><rect class="j" x="163.89" y="368.31" width="1.13" height="10.98"/><rect class="j" x="159.31" y="368.3" width="1.13" height="10.98"/><rect class="j" x="152.3" y="368.3" width="1.13" height="10.98"/><rect class="j" x="144.88" y="368.3" width="1.13" height="10.98"/><rect class="j" x="133.51" y="368.3" width="1.13" height="10.98"/><rect class="j" x="122.86" y="368.3" width="1.13" height="10.98"/><rect class="j" x="113.35" y="368.3" width="1.13" height="10.98"/><rect class="j" x="171.34" y="368.31" width="1.13" height="10.98"/><rect class="j" x="173.74" y="368.31" width="1.13" height="10.98"/><rect class="j" x="176.05" y="368.31" width="1.13" height="10.98"/><path class="j" d="M178.92,368.35v10.9a2,2,0,0,1-.42,0h-.71v-11h.7A1.87,1.87,0,0,1,178.92,368.35Z" transform="translate(0)"/><path class="j" d="M180.49,369.36v8.87a2.44,2.44,0,0,1-1.13.9V368.47A2.43,2.43,0,0,1,180.49,369.36Z" transform="translate(0)"/><rect class="j" x="78.13" y="378.45" width="42.49" height="3.59"/><path class="i" d="M293.52,381.38v6.2a2.35,2.35,0,0,1-.41,1.33,2.42,2.42,0,0,1-1.12.9,3.6,3.6,0,0,1-.44.12,3,3,0,0,1-.43,0l-99.19,0a2.41,2.41,0,0,1-2.4-2.27v-6.44a2.4,2.4,0,0,1,2.12-2.25l.28,0h99.19a3,3,0,0,1,.43,0,2.23,2.23,0,0,1,.44.13,2.39,2.39,0,0,1,1.53,2.23Z" transform="translate(0)"/><path class="j" d="M244.81,390H191.67a2.27,2.27,0,0,1-2.14-2.27v-6.44a2.31,2.31,0,0,1,1.89-2.25l.25,0h46.62A19.64,19.64,0,0,0,244.81,390Z" transform="translate(0)"/><rect class="j" x="280.33" y="378.98" width="1.13" height="10.98"/><rect class="j" x="276.51" y="378.98" width="1.13" height="10.98"/><rect class="j" x="271.93" y="378.98" width="1.13" height="10.98"/><rect class="j" x="264.92" y="378.98" width="1.13" height="10.98"/><rect class="j" x="257.5" y="378.98" width="1.13" height="10.98"/><rect class="j" x="246.13" y="378.98" width="1.13" height="10.98"/><rect class="j" x="235.48" y="378.98" width="1.13" height="10.98"/><rect class="j" x="225.98" y="378.98" width="1.13" height="10.98"/><rect class="j" x="283.96" y="378.98" width="1.13" height="10.98"/><rect class="j" x="286.36" y="378.98" width="1.13" height="10.98"/><rect class="j" x="288.68" y="378.98" width="1.13" height="10.98"/><path class="j" d="M291.55,379v10.91a3,3,0,0,1-.43,0h-.7V379h.7A3,3,0,0,1,291.55,379Z" transform="translate(0)"/><path class="j" d="M293.11,380v8.87a2.42,2.42,0,0,1-1.12.9V379.15A2.34,2.34,0,0,1,293.11,380Z" transform="translate(0)"/><path class="i" d="M276.09,370.41v6.2a2.35,2.35,0,0,1-.41,1.33,2.39,2.39,0,0,1-1.13.9,2,2,0,0,1-.44.12l-.13,0H174.5a2.42,2.42,0,0,1-2.4-2.27v-6.45a2.41,2.41,0,0,1,2.4-2.27l99.19,0h.13l.3,0a1.62,1.62,0,0,1,.43.12l.21.09.13.07h0l.12.07h0l.11.08c.08.07.16.13.24.21l.06.07h0l0,.05h0l.07.08.09.13A2.38,2.38,0,0,1,276.09,370.41Z" transform="translate(0)"/><path class="j" d="M227.38,379H174.24a2.26,2.26,0,0,1-2.14-2.26v-6.45a2.27,2.27,0,0,1,2.14-2.27h46.62l.06.25A19.61,19.61,0,0,0,227.36,379Z" transform="translate(0)"/><rect class="j" x="262.89" y="368.02" width="1.13" height="10.98"/><rect class="j" x="259.08" y="368.02" width="1.13" height="10.98"/><rect class="j" x="254.5" y="368.02" width="1.13" height="10.98"/><rect class="j" x="247.49" y="368.01" width="1.13" height="10.98"/><rect class="j" x="240.07" y="368.01" width="1.13" height="10.98"/><rect class="j" x="228.7" y="368.01" width="1.13" height="10.98"/><rect class="j" x="218.05" y="368.01" width="1.13" height="10.98"/><rect class="j" x="208.55" y="368.01" width="1.13" height="10.98"/><rect class="j" x="266.53" y="368.02" width="1.13" height="10.98"/><rect class="j" x="268.93" y="368.02" width="1.13" height="10.98"/><rect class="j" x="271.24" y="368.02" width="1.13" height="10.98"/><path class="j" d="M274.12,368.06V379a1.87,1.87,0,0,1-.42,0H273V368h.7A2,2,0,0,1,274.12,368.06Z" transform="translate(0)"/><path class="j" d="M275.68,369.07v8.87a2.39,2.39,0,0,1-1.13.9V368.18A2.4,2.4,0,0,1,275.68,369.07Z" transform="translate(0)"/><path class="i" d="M289.55,359.68v6.2a2.29,2.29,0,0,1-.42,1.34,2.4,2.4,0,0,1-1.12.89,1.69,1.69,0,0,1-.44.12,2,2,0,0,1-.42,0H188a2.29,2.29,0,0,1-1.07-.26,2.4,2.4,0,0,1-1.32-1.91V366s0-.08,0-.12v-6.33a2.4,2.4,0,0,1,2.11-2.25h99.48a2,2,0,0,1,.42,0,2.2,2.2,0,0,1,.44.12,2.44,2.44,0,0,1,1.13.9A2.35,2.35,0,0,1,289.55,359.68Z" transform="translate(0)"/><path class="j" d="M240.84,368.27H187.7a1.87,1.87,0,0,1-1-.26,2.39,2.39,0,0,1-1.18-1.91V366s0-.08,0-.12v-6.33a2.31,2.31,0,0,1,1.89-2.25h46.86v0A19.69,19.69,0,0,0,240.53,368Z" transform="translate(0)"/><rect class="j" x="276.35" y="357.29" width="1.13" height="10.98"/><rect class="j" x="272.53" y="357.29" width="1.13" height="10.98"/><rect class="j" x="267.96" y="357.29" width="1.13" height="10.98"/><rect class="j" x="260.94" y="357.29" width="1.13" height="10.98"/><rect class="j" x="253.53" y="357.29" width="1.13" height="10.98"/><rect class="j" x="242.15" y="357.28" width="1.13" height="10.98"/><rect class="j" x="231.51" y="357.28" width="1.13" height="10.98"/><rect class="j" x="222" y="357.28" width="1.13" height="10.98"/><rect class="j" x="279.98" y="357.29" width="1.13" height="10.98"/><rect class="j" x="282.38" y="357.29" width="1.13" height="10.98"/><rect class="j" x="284.7" y="357.29" width="1.13" height="10.98"/><path class="j" d="M287.57,357.33v10.9a2,2,0,0,1-.42,0h-.71v-11h.71A2,2,0,0,1,287.57,357.33Z" transform="translate(0)"/><path class="j" d="M289.14,358.35v8.87a2.4,2.4,0,0,1-1.12.89V357.45A2.44,2.44,0,0,1,289.14,358.35Z" transform="translate(0)"/><path class="i" d="M282.26,348.71v6.21a2.42,2.42,0,0,1-1.54,2.22,2.23,2.23,0,0,1-.44.13l-.14,0h-.29l-99.19,0a2.39,2.39,0,0,1-2.39-2.27s0-.08,0-.12v-6.2s0-.08,0-.12a2.4,2.4,0,0,1,2.4-2.27h99.19a3,3,0,0,1,.42,0,2.23,2.23,0,0,1,.44.13,2.42,2.42,0,0,1,1.13.89A2.35,2.35,0,0,1,282.26,348.71Z" transform="translate(0)"/><path class="j" d="M233.55,357.3H180.41a2.26,2.26,0,0,1-2.14-2.27s0-.08,0-.12v-6.2s0-.08,0-.12a2.27,2.27,0,0,1,2.14-2.27H227a19.64,19.64,0,0,0,6.51,11Z" transform="translate(0)"/><rect class="j" x="269.06" y="346.32" width="1.13" height="10.98"/><rect class="j" x="265.24" y="346.32" width="1.13" height="10.98"/><rect class="j" x="260.67" y="346.32" width="1.13" height="10.98"/><rect class="j" x="253.65" y="346.32" width="1.13" height="10.98"/><rect class="j" x="246.23" y="346.32" width="1.13" height="10.98"/><rect class="j" x="234.86" y="346.32" width="1.13" height="10.98"/><rect class="j" x="224.22" y="346.32" width="1.13" height="10.98"/><rect class="j" x="214.71" y="346.31" width="1.13" height="10.98"/><rect class="j" x="272.69" y="346.32" width="1.13" height="10.98"/><rect class="j" x="275.09" y="346.32" width="1.13" height="10.98"/><rect class="j" x="277.41" y="346.32" width="1.13" height="10.98"/><path class="j" d="M280.28,346.36v10.91a3,3,0,0,1-.43,0h-.7v-11h.71A3,3,0,0,1,280.28,346.36Z" transform="translate(0)"/><path class="j" d="M281.85,347.38v8.87a2.34,2.34,0,0,1-1.12.89V346.49A2.42,2.42,0,0,1,281.85,347.38Z" transform="translate(0)"/><path class="j" d="M221.2,367l7.89-2.36-1.33-7.34s-5.92-4.79-6.9-11L181.73,356v22.24h9.93v8.84h37.6V379S223.91,377.94,221.2,367Z" transform="translate(0)"/><path class="k" d="M139.43,95.21c0-.72-.58-8.5-12.48-8.91,0,0,4.38.65,6.5,3,0,0-3.62-2.9-6.87-1.88s-5.14,6.68-5.16,8.54,1.78,7.86,3.84,8.37a6.32,6.32,0,0,0,2.49,0,28.48,28.48,0,0,0-1.6,2.84c-4.74,9.7.15,19.19,4.17,18.14,2.58-.67,3.31,3.71,3.31,3.71l25-20.19S149.47,89.87,139.43,95.21Z" transform="translate(0)"/><path class="l" d="M259.08,244.7l.58,3.66c19.49,50.4,5.95,140.11,6.39,141.54l81.14.1C322,272,259.08,244.7,259.08,244.7Z" transform="translate(0)"/><path class="m" d="M148.15,381.11l-5.32,2s-23.1-31.91-25.94-60a42.38,42.38,0,0,1,.76-14.35s-.23-1.28-.62-3.55c-.19-1.06-.41-2.34-.67-3.8-.75-4.29-1.78-10.15-3-16.83-2.72-15.36-6.24-35-9-49.44l1.43-.46,15.51-5,3.21-10.13,11.54-3s2.58,5,4.89,28.76c.42,3.12.81,6.55,1.1,10.27a202.63,202.63,0,0,1-1.1,41.59q-.8,6.18-2,12.76a56.35,56.35,0,0,0-.44,12.6C139.69,345.44,148.15,381.11,148.15,381.11Z" transform="translate(0)"/><path class="m" d="M131.07,222.88l-.58-5c-9.73,2.58-35.71-7.18-35.71-7.18s-9.42,8.24-8.18,28c.6,9.65,1.71,50.65,2.86,62.78.42,4.4.78,7.53.93,8.78h0a1.76,1.76,0,0,1-.28,1.08,56.19,56.19,0,0,0-4.25,8.9c-11.31,30,1.74,66.95,1.74,66.95L91,385.89s7.43-41.12,13.46-59.28a36.16,36.16,0,0,1,2.9-6.95c2.63-4.22,5.06-11.11,7.27-19.3,4.18-15.49,7.54-35.64,9.77-51.19C124.69,249.19,131.07,222.88,131.07,222.88Z" transform="translate(0)"/><path class="n" d="M144.4,161.55a16.79,16.79,0,0,1,3-5.93,2.79,2.79,0,0,1,.57-.68,13.81,13.81,0,0,1,3.82-3.25c1-.4,2,.08,3.1,1.24v0a18.78,18.78,0,0,1,2.78,4.09s.08.08.08.12c.2.36.4.76.64,1.2a1,1,0,0,1,.16.28c.44.93.89,1.89,1.33,2.89,4.95,10.74,10.22,27,14.61,31.87,1.89,2.08,10.55,6.17,17.43,9.22,4.95,2.16,9,3.77,9,3.77s5-1,6.1,0,6.52,6.41,5.36,8.19-6.67-1.48-7.82-1.79-4.36-1.55-4.36-1.55-.32,0-.89,0c-1.77-.12-6.07-.36-10.94-.89-7.33-.72-16-2-19.48-4.12-5.28-3.21-13.93-13-19.57-22.85a6.47,6.47,0,0,1-.4-.72c-2.94-5.22-5-10.39-5.15-14.51A20.78,20.78,0,0,1,144.4,161.55Z" transform="translate(0)"/><path class="n" d="M149.65,162.76a30.37,30.37,0,0,1-11.2,2.61c-16.72.91-20.52-13.68-21.21-23.37a14,14,0,0,1,5.74-.72c1.19.06,2.42.18,3.44.31,2-1.07,5.72-6.23,7.85-14.88l.72.33,12.06,5.65s-1.28,3.91-2.23,7.65c-.74,2.93-1.27,5.76-.82,6.55.95.38,1.52.63,1.52.63h0A82,82,0,0,1,149.65,162.76Z" transform="translate(0)"/><path class="o" d="M147.05,132.69s-1.28,3.91-2.23,7.65c-7-2-9.19-9.34-9.83-13.29Z" transform="translate(0)"/><path class="n" d="M148.53,136.83s-16.86-3.89-14.27-14.31,2.16-18,13-15.91,12,6.53,12,10.22S153,137.57,148.53,136.83Z" transform="translate(0)"/><path class="k" d="M160.21,110.91c-1.81-3.77-4-3.57-5.28-2.9-7.93-7.31-21.21-5.48-21.21-5.48a64.7,64.7,0,0,0-4,14.28s2.59,2.64,10.1,2.59a12.4,12.4,0,0,0,6.7-2.52,40.2,40.2,0,0,1-8.8,6.54c9.41-1.79,15.71-12.64,16.36-13.79.79,1.17,2.32,3.67,2.45,5.77.17,2.87-.82,8.42.83,8.63C157.39,124,162.93,116.58,160.21,110.91Z" transform="translate(0)"/><path class="p" d="M159.9,161.53a86.53,86.53,0,0,0-4.11-7.89,5.49,5.49,0,0,0-1.67-1.82,43.71,43.71,0,0,0-8.6-4.3h0c.11.41,3.16,11.39,2,13.74s-22.5-5.31-23.67-7.07c-.93-1.41-1-8.86-.93-11.76,0-.72,0-1.16,0-1.16s-8-1.08-12.46.73a34.25,34.25,0,0,1,2.42,8.05c.06.41.11.81.15,1.21a15.34,15.34,0,0,1,.07,2.53,4.91,4.91,0,0,1-1.54,3,24,24,0,0,1-3.22,2.65c-.83.6-1.72,1.23-2.64,1.91h0c-.08,5,.28,13.15-.65,21.88a14.65,14.65,0,0,1-2.13,6.21,14.13,14.13,0,0,1-1.59,2.12c-4.71,5.26-13.06,15.76-11.22,22.29.13,6.15,52.29,14.25,51.17,7.48,0,0,7.84-37.62,12.07-46.7q.22-.49.42-1c1.35-3.58,1.13-7.27.67-10.57A9.82,9.82,0,0,1,159.9,161.53Z" transform="translate(0)"/><path class="q" d="M127.3,208.73C117,208.62,108.3,198,103,189.48a14.65,14.65,0,0,0,2.13-6.21c.93-8.73.58-16.91.65-21.88h0c.92-.68,1.81-1.31,2.64-1.91a24,24,0,0,0,3.22-2.65C120,171,141.24,208.88,127.3,208.73Z" transform="translate(0)"/><path class="r" d="M107.28,390H80.49a14.59,14.59,0,0,1,.76-7.15c1.34-3,3.44-4.31,2.94-7.89a9.64,9.64,0,0,0,8.35,3.18c.47.77,3.06,4.87,4.64,6C98.93,385.4,106.74,385,107.28,390Z" transform="translate(0)"/><path class="r" d="M164.8,390H138s-1-4.26.76-7.15c1.55-2.56,1-4-.2-6.14a10.55,10.55,0,0,0,4.52.84,9.46,9.46,0,0,0,4-1.39c1.15,1.31,6.09,6.88,7.63,8C156.45,385.4,164.26,385,164.8,390Z" transform="translate(0)"/><path class="s" d="M167.77,238.08l6.37-15.47a4.31,4.31,0,0,1,5.11-2.5,26.49,26.49,0,0,1,8.31-9.41A19.77,19.77,0,0,1,198.77,207a15.93,15.93,0,0,1,6,1.18c9.05,3.69,13.11,15.08,9.79,26.27l.49.2s1.55-.11,4.15-.11c8.19,0,26.83,1.09,39.9,10.13a3.62,3.62,0,0,1,.86,2.2,3.52,3.52,0,0,1-.28,1.46s-21-13.53-40.4.37c-1.19.86-2.35,1.64-3.47,2.38l-1.74,4.23A13.91,13.91,0,0,1,196,262.87l-17.78-7.26-3.7-1.51A12.3,12.3,0,0,1,167.77,238.08Zm34.47-12.54,7.24,3a4.22,4.22,0,0,1,2.5,4.93l.77.32c2.95-10.19-.65-20.47-8.73-23.77a13.86,13.86,0,0,0-3.48-.91,17,17,0,0,0-11.09,2.67,24.42,24.42,0,0,0-8.39,9.07l1.07.44a4.23,4.23,0,0,1,5.25-1.77l7.24,3a3.6,3.6,0,0,1,3.32-2.21,3.49,3.49,0,0,1,1.34.27l1,.41A3.56,3.56,0,0,1,202.24,225.54Z" transform="translate(0)"/><path class="m" d="M215.79,251.11c1.12-.74,2.28-1.52,3.47-2.38,19.41-13.9,40.4-.37,40.4-.37a3.52,3.52,0,0,0,.28-1.46c-2.94-1.92-13.95-8.33-27.6-6.14C216.36,243.32,213.46,245.54,215.79,251.11Z" transform="translate(0)"/><path class="m" d="M174.51,254.1l3.7,1.51c-5.55-3,1.32-15.78,5.35-24.2s10.11-4.58,10.11-4.58a4.84,4.84,0,0,1,4.38-2.67,3.35,3.35,0,0,1,2.24-3.26l-1-.41a3.49,3.49,0,0,0-1.34-.27,3.6,3.6,0,0,0-3.32,2.21l-7.24-3a4.23,4.23,0,0,0-5.25,1.77l-1.07-.44a24.42,24.42,0,0,1,8.39-9.07,17,17,0,0,1,11.09-2.67,7.84,7.84,0,0,1-1.77-2,19.77,19.77,0,0,0-11.21,3.67,26.49,26.49,0,0,0-8.31,9.41,4.31,4.31,0,0,0-5.11,2.5l-6.37,15.47A12.3,12.3,0,0,0,174.51,254.1Z" transform="translate(0)"/><path class="n" d="M104.64,155.22c.08-11.63,5.87-13.23,5.87-13.23l.41-.12c1-.16,2,.52,3.14,1.84a37,37,0,0,1,4.3,7.58c2.3,5.17,4.71,11.86,7,18.52,1.24,3.65,2.45,7.29,3.66,10.66.68,2.05,1.37,4,2,5.73a55.84,55.84,0,0,0,3.38,7.82c.65,1.12,2.5,2.69,5,4.45a181.61,181.61,0,0,0,15.94,9.86c2.26,1.28,4.39,2.45,6.16,3.41,1.49.32,9.06,1.92,12.6,1.12,4-.92,10.66,3.85,10.66,3.85s.73,1.52-1.85,2.56-6.2,4.86-12,2.57a91.24,91.24,0,0,0-10.67-3.25c-.84-.16-1.33-.28-1.33-.28-2.25-.44-4.95-1-7.89-1.68h0c-5-1.2-10.66-2.65-15.41-4.25a41.81,41.81,0,0,1-8.21-3.65,6,6,0,0,1-.57-.4c-4.71-3.41-10.3-13.43-14.65-24.17-.6-1.48-1.16-3-1.73-4.41a110.13,110.13,0,0,1-4.59-15.23,43.17,43.17,0,0,1-1.08-7.26A17.7,17.7,0,0,1,104.64,155.22Z" transform="translate(0)"/><path class="p" d="M119.66,151.85c-7.75-2.13-15,3.35-15,3.35.1-11.6,5.9-13.19,5.9-13.19C113.42,140.34,116.87,145.61,119.66,151.85Z" transform="translate(0)"/><path class="a" d="M271.81,255.61S310,286,323.35,330.2C323.35,330.2,314.22,296.36,271.81,255.61Z" transform="translate(0)"/><path class="a" d="M286.92,290.94s19,50.31,19.4,86.13C306.32,377.07,311.8,352.6,286.92,290.94Z" transform="translate(0)"/><path class="a" d="M274.37,288.12s9,35.79,9.76,49.91C284.13,338,284.64,318.8,274.37,288.12Z" transform="translate(0)"/><path class="a" d="M146.62,128.68s3.7.2,5.58,1.33C152.2,130,149.46,132.08,146.62,128.68Z" transform="translate(0)"/></svg>