<svg xmlns="http://www.w3.org/2000/svg" viewBox="0 0 608 390"><defs><style>.a{fill:#fff;}.b{fill:#ffeddc;}.c{fill:#db6a1d;}.d{fill:#e5c1a1;}.e{fill:#f9ddbf;}.f{fill:#c0d8fb;}.g{fill:#dceaff;}.h{fill:#ffa412;}.i{fill:#ffb93e;}.j{fill:#e2810e;}.k{fill:#1d2942;}.l{fill:#ed7d2b;}.m{fill:#ffb27d;}.n{fill:#f99746;}.o{fill:#ed975d;}.p{fill:#144ef4;}.q{fill:#ebf3fa;}</style></defs><rect class="a" width="608" height="390"/><path class="b" d="M379.56,343.93s-4.54,6.38-8.69,6.47-10.49-3-10.49-3-3.82-8.51-1.23-11.84a5.56,5.56,0,0,1,5.31.87,8,8,0,0,1,1.41,1.35,4.49,4.49,0,0,0,2.19,1.48c3,.91,6.49-1.22,7.8.83a14,14,0,0,0,2.29,2.72A10.55,10.55,0,0,0,379.56,343.93Z" transform="translate(0 0)"/><path class="b" d="M320.42,390s16-38.86,44.89-39.6c0,0,26.64,3,28.12,39.6Z" transform="translate(0 0)"/><path class="c" d="M357.41,351.59s11.56,2.57,15.13,1.06c0,0,.54-4.84-4.33-4.17-3.34.47-5.5-1.13-6.78-1.78C359.62,345.78,356.92,349.56,357.41,351.59Z" transform="translate(0 0)"/><path class="d" d="M367.47,344.3c-.74.55-3-7.83-3-7.83a8.7,8.7,0,0,1,1.41,1.34,4.38,4.38,0,0,0,2.18,1.49C368.06,339.54,368.19,343.75,367.47,344.3Z" transform="translate(0 0)"/><path class="d" d="M378.15,342.84c-.16.09-5.51,3.3-6.24,3.3s3.95-6,3.95-6A13.36,13.36,0,0,0,378.15,342.84Z" transform="translate(0 0)"/><path class="e" d="M336.08,379.14c-.3-.25,11.34-17.15,14.55-17.27s10.41,3.7,15.63,4.19,10.27-1,11.26,2.1,3.7,14,2,15.77S342.48,384.61,336.08,379.14Z" transform="translate(0 0)"/><polygon class="f" points="608 152.73 534.65 177 549.37 189.28 485.9 255.73 430.27 207.96 208.18 389.97 210.14 390 265.46 390 429.72 255.38 488.38 305.75 577.34 212.59 593.24 225.84 608 152.73"/><polygon class="g" points="192.99 295.62 178.8 390 53 371.07 53 371.06 0 363.09 14.19 268.71 113.16 283.6 192.99 295.62"/><path class="f" d="M169.28,368.58l8.31-55.26a6.87,6.87,0,0,0-5.76-7.82L29.29,284.05a7,7,0,0,0-8,5.88l-8.28,55a6.93,6.93,0,0,0,5.83,7.89l142.63,21.47A6.83,6.83,0,0,0,169.28,368.58Zm11.91-63.95-11,73.27L9.45,353.71l11-73.27Z" transform="translate(0 0)"/><path class="f" d="M92.35,348.89A19.94,19.94,0,1,1,115,332.14,19.94,19.94,0,0,1,92.35,348.89Z" transform="translate(0 0)"/><polygon class="g" points="204.57 296.06 129.74 355.27 50.81 255.47 17.56 213.43 92.4 154.22 154.49 232.73 204.57 296.06"/><path class="f" d="M137.42,333.13l43.82-34.67a6.87,6.87,0,0,0,1.12-9.64L92.93,175.73a7,7,0,0,0-9.82-1.14L39.47,209.12a6.93,6.93,0,0,0-1.13,9.74L127.82,332A6.84,6.84,0,0,0,137.42,333.13Zm52.37-38.56-58.1,46L30.87,213.05l58.1-46Z" transform="translate(0 0)"/><path class="f" d="M119.93,271.29a19.93,19.93,0,1,0-27.07-7.87A19.94,19.94,0,0,0,119.93,271.29Z" transform="translate(0 0)"/><path class="h" d="M412.43,190.91a2.66,2.66,0,0,1,.29-.45,2.37,2.37,0,0,1,.27-.28l.42-.42.11.08c2.12-1,6.52.07,11,3,5.38,3.52,8.83,8.35,7.83,10.91l.15.12-.6.59-.09.09v0h0a2.34,2.34,0,0,1-.51.36h0c-2.1,1.1-6.54,0-11-2.93C414.73,198.39,411.25,193.44,412.43,190.91Z" transform="translate(0 0)"/><path class="i" d="M425.13,192.17c-5.48-3.57-10.87-4.42-12.06-1.89s2.3,7.47,7.77,11.05,10.87,4.42,12.05,1.89S430.6,195.74,425.13,192.17Z" transform="translate(0 0)"/><path class="h" d="M415.81,190.28a1.72,1.72,0,0,0-1.15.91c-.42.92,0,2.41,1.25,4.1a21.42,21.42,0,0,0,5.45,5c2.81,1.83,5.72,2.92,7.71,2.92a3.62,3.62,0,0,0,1.08-.14,1.71,1.71,0,0,0,1.15-.9c.43-.93,0-2.42-1.24-4.1a21.29,21.29,0,0,0-5.46-5c-2.8-1.84-5.72-2.92-7.7-2.92A3.71,3.71,0,0,0,415.81,190.28Zm5.33,10.33a21.38,21.38,0,0,1-5.55-5.1c-1.33-1.82-1.78-3.41-1.29-4.49a2,2,0,0,1,1.41-1.12c2-.59,5.59.53,9.11,2.83a21.43,21.43,0,0,1,5.56,5.1c1.32,1.82,1.78,3.42,1.29,4.49a2.07,2.07,0,0,1-1.41,1.12,4.12,4.12,0,0,1-1.21.16C427,203.6,424,202.51,421.14,200.61Z" transform="translate(0 0)"/><path class="h" d="M445.49,62.49a1.73,1.73,0,0,1,.2-.32l.2-.2.29-.29.08,0c1.51-.74,4.63.05,7.78,2.11,3.82,2.49,6.27,5.92,5.56,7.74l.11.08-.43.42-.06.07h0a1.54,1.54,0,0,1-.36.25h0c-1.49.78-4.65,0-7.84-2.08C447.12,67.8,444.65,64.28,445.49,62.49Z" transform="translate(0 0)"/><path class="i" d="M454.5,63.38c-3.89-2.53-7.72-3.14-8.56-1.34s1.63,5.3,5.52,7.84S459.17,73,460,71.22,458.38,65.91,454.5,63.38Z" transform="translate(0 0)"/><path class="h" d="M447.89,62a1.17,1.17,0,0,0-.81.64c-.31.66,0,1.72.88,2.91a14.86,14.86,0,0,0,3.87,3.54,11.22,11.22,0,0,0,5.47,2.08,3.06,3.06,0,0,0,.77-.1,1.15,1.15,0,0,0,.81-.64c.31-.66,0-1.72-.88-2.91A15.06,15.06,0,0,0,454.13,64a11.29,11.29,0,0,0-5.47-2.07A2.61,2.61,0,0,0,447.89,62Zm3.78,7.33a15.42,15.42,0,0,1-3.94-3.61c-.94-1.3-1.26-2.43-.92-3.2a1.5,1.5,0,0,1,1-.8c1.44-.41,4,.38,6.48,2a15.25,15.25,0,0,1,3.94,3.61c.94,1.3,1.26,2.43.92,3.2a1.49,1.49,0,0,1-1,.8,3.2,3.2,0,0,1-.85.1A11.42,11.42,0,0,1,451.67,69.37Z" transform="translate(0 0)"/><path class="h" d="M459.44,164.29a1.85,1.85,0,0,0-.21-.33,1.89,1.89,0,0,0-.2-.2l-.31-.31-.07.06c-1.56-.76-4.77.05-8,2.17-3.92,2.56-6.44,6.09-5.72,8l-.11.08.44.44.06.06h0a1.53,1.53,0,0,0,.38.27c1.54.8,4.78,0,8.06-2.14C457.76,169.75,460.3,166.14,459.44,164.29Z" transform="translate(0 0)"/><path class="i" d="M450.16,165.21c4-2.61,7.94-3.23,8.81-1.38s-1.67,5.46-5.67,8.07-7.95,3.23-8.81,1.38S446.16,167.82,450.16,165.21Z" transform="translate(0 0)"/><path class="h" d="M456.18,163.73a11.61,11.61,0,0,0-5.63,2.13,15.64,15.64,0,0,0-4,3.65c-.89,1.23-1.22,2.31-.91,3a1.2,1.2,0,0,0,.84.66,2.8,2.8,0,0,0,.79.1,11.61,11.61,0,0,0,5.63-2.13,15.64,15.64,0,0,0,4-3.65c.89-1.22,1.22-2.32.9-3a1.21,1.21,0,0,0-.84-.66A3.1,3.1,0,0,0,456.18,163.73Zm-8.89,9.82a3,3,0,0,1-.88-.11,1.51,1.51,0,0,1-1-.82c-.36-.79,0-2,.94-3.29a16,16,0,0,1,4.06-3.72c2.57-1.68,5.19-2.49,6.66-2.07a1.55,1.55,0,0,1,1,.82c.35.79,0,1.95-.95,3.29a16,16,0,0,1-4.06,3.72A11.67,11.67,0,0,1,447.29,173.55Z" transform="translate(0 0)"/><path class="h" d="M414.13,92.58a1.37,1.37,0,0,1,.13-.2l.12-.13.18-.18.05,0c.95-.47,2.91,0,4.88,1.31,2.39,1.56,3.92,3.71,3.48,4.85l.06,0-.26.27s0,0,0,0h0a.76.76,0,0,1-.23.15c-.93.49-2.91,0-4.91-1.29C415.15,95.9,413.6,93.7,414.13,92.58Z" transform="translate(0 0)"/><path class="i" d="M419.77,93.14c-2.43-1.59-4.83-2-5.36-.85s1,3.33,3.46,4.92,4.83,2,5.36.84S422.2,94.73,419.77,93.14Z" transform="translate(0 0)"/><path class="h" d="M415.63,92.29a.77.77,0,0,0-.51.41c-.19.41,0,1.07.56,1.82a9.54,9.54,0,0,0,2.42,2.22,7.13,7.13,0,0,0,3.43,1.3A1.8,1.8,0,0,0,422,98a.8.8,0,0,0,.51-.41c.19-.41,0-1.07-.55-1.82a9.58,9.58,0,0,0-2.43-2.22,7.13,7.13,0,0,0-3.42-1.3A3.46,3.46,0,0,0,415.63,92.29Zm2.38,4.6a9.65,9.65,0,0,1-2.48-2.27c-.59-.81-.79-1.52-.57-2a.93.93,0,0,1,.63-.5c.89-.26,2.48.24,4.05,1.26a9.76,9.76,0,0,1,2.47,2.27c.59.81.79,1.52.57,2a1,1,0,0,1-.63.5,1.8,1.8,0,0,1-.53.06A7.12,7.12,0,0,1,418,96.89Z" transform="translate(0 0)"/><path class="h" d="M232.26,169.28a1.57,1.57,0,0,0-.24-.37,2.61,2.61,0,0,0-.23-.24l-.35-.35-.09.06c-1.79-.87-5.48.06-9.22,2.49-4.51,2.95-7.41,7-6.58,9.17l-.12.09.5.5a.46.46,0,0,0,.07.07l0,0h0a1.9,1.9,0,0,0,.44.3h0c1.77.92,5.5,0,9.27-2.46C230.33,175.57,233.25,171.41,232.26,169.28Z" transform="translate(0 0)"/><path class="i" d="M221.59,170.34c4.6-3,9.13-3.72,10.13-1.59s-1.93,6.28-6.53,9.29-9.13,3.71-10.12,1.59S217,173.35,221.59,170.34Z" transform="translate(0 0)"/><path class="h" d="M228.51,168.64A13.31,13.31,0,0,0,222,171.1a17.51,17.51,0,0,0-4.58,4.19c-1,1.41-1.4,2.66-1,3.44a1.45,1.45,0,0,0,1,.76,3.24,3.24,0,0,0,.91.11,13.22,13.22,0,0,0,6.47-2.45,17.91,17.91,0,0,0,4.59-4.19c1-1.42,1.4-2.67,1-3.45a1.4,1.4,0,0,0-1-.76A3.46,3.46,0,0,0,228.51,168.64Zm-10.22,11.3a3.94,3.94,0,0,1-1-.12,1.75,1.75,0,0,1-1.18-.95c-.42-.9,0-2.25,1.08-3.78a18.05,18.05,0,0,1,4.67-4.28c3-1.93,6-2.87,7.66-2.38a1.74,1.74,0,0,1,1.18.94c.41.91,0,2.25-1.08,3.78a17.89,17.89,0,0,1-4.67,4.28A13.43,13.43,0,0,1,218.29,179.94Z" transform="translate(0 0)"/><path class="h" d="M183.52,111.63a1,1,0,0,0-.14-.22,1.59,1.59,0,0,0-.13-.13l-.21-.21,0,0c-1-.51-3.19,0-5.37,1.45-2.63,1.71-4.31,4.08-3.83,5.34l-.07,0,.29.29,0,0h0a2.2,2.2,0,0,0,.25.17h0c1,.54,3.2,0,5.4-1.43C182.4,115.29,184.1,112.87,183.52,111.63Z" transform="translate(0 0)"/><path class="i" d="M177.31,112.24c2.67-1.75,5.32-2.16,5.89-.92s-1.12,3.65-3.8,5.4-5.32,2.17-5.89.93S174.63,114,177.31,112.24Z" transform="translate(0 0)"/><path class="h" d="M181.33,111.25a7.79,7.79,0,0,0-3.77,1.43,10.61,10.61,0,0,0-2.67,2.44c-.59.83-.81,1.55-.61,2a.85.85,0,0,0,.57.44,1.74,1.74,0,0,0,.53.07,7.79,7.79,0,0,0,3.77-1.43,10.44,10.44,0,0,0,2.67-2.44c.59-.82.81-1.55.61-2a.85.85,0,0,0-.57-.44A2.06,2.06,0,0,0,181.33,111.25Zm-5.94,6.59a2.1,2.1,0,0,1-.59-.08,1,1,0,0,1-.69-.55c-.25-.53,0-1.31.63-2.2a10.17,10.17,0,0,1,2.72-2.49c1.72-1.13,3.47-1.68,4.46-1.39a1.05,1.05,0,0,1,.69.55c.24.53,0,1.31-.63,2.2a10.55,10.55,0,0,1-2.73,2.49A7.84,7.84,0,0,1,175.39,117.84Z" transform="translate(0 0)"/><path class="h" d="M227.51,128.35a1.34,1.34,0,0,1,.18-.28l.17-.17.26-.27.07.05c1.33-.65,4.08,0,6.86,1.86,3.35,2.19,5.51,5.21,4.89,6.81l.09.07-.37.37,0,.06h0a1.54,1.54,0,0,1-.32.23c-1.32.69-4.09,0-6.9-1.83C228.94,133,226.77,129.93,227.51,128.35Z" transform="translate(0 0)"/><path class="i" d="M235.44,129.14c-3.42-2.24-6.79-2.77-7.53-1.19s1.44,4.67,4.86,6.91,6.79,2.76,7.53,1.18S238.86,131.37,235.44,129.14Z" transform="translate(0 0)"/><path class="h" d="M229.63,128a1,1,0,0,0-.72.57c-.27.58,0,1.51.78,2.56a13.1,13.1,0,0,0,3.4,3.12,9.92,9.92,0,0,0,4.82,1.82,2.28,2.28,0,0,0,.67-.08,1,1,0,0,0,.72-.56c.27-.58,0-1.51-.77-2.57a13.86,13.86,0,0,0-3.41-3.12,9.92,9.92,0,0,0-4.82-1.82A2.67,2.67,0,0,0,229.63,128Zm3.32,6.46a13.63,13.63,0,0,1-3.47-3.18c-.83-1.14-1.11-2.14-.8-2.82a1.3,1.3,0,0,1,.88-.7c1.26-.36,3.49.34,5.69,1.78a13.52,13.52,0,0,1,3.48,3.18c.83,1.14,1.11,2.14.8,2.81a1.29,1.29,0,0,1-.88.71,2.91,2.91,0,0,1-.75.09A10.06,10.06,0,0,1,233,134.41Z" transform="translate(0 0)"/><path class="i" d="M358.74,383.73v4.14a1.38,1.38,0,0,1-.33.89,1.83,1.83,0,0,1-.89.6,2,2,0,0,1-.35.08l-.33,0H278.32a1.78,1.78,0,0,1-1.89-1.52s0-.05,0-.08v-4.14a.25.25,0,0,1,0-.08,1.78,1.78,0,0,1,1.89-1.51h78.52a1.84,1.84,0,0,1,.33,0,1.37,1.37,0,0,1,.35.08,1.75,1.75,0,0,1,.89.59A1.4,1.4,0,0,1,358.74,383.73Z" transform="translate(0 0)"/><path class="h" d="M320.18,389.47H278.12a1.67,1.67,0,0,1-1.7-1.52v-4.3a1.66,1.66,0,0,1,1.7-1.51H315A12.86,12.86,0,0,0,320.18,389.47Z" transform="translate(0 0)"/><rect class="h" x="348.29" y="382.13" width="0.89" height="7.34"/><rect class="h" x="345.27" y="382.13" width="0.89" height="7.34"/><rect class="h" x="341.64" y="382.13" width="0.9" height="7.34"/><rect class="h" x="336.1" y="382.13" width="0.89" height="7.34"/><rect class="h" x="330.22" y="382.13" width="0.9" height="7.34"/><rect class="h" x="321.22" y="382.13" width="0.89" height="7.34"/><rect class="h" x="312.79" y="382.13" width="0.89" height="7.34"/><rect class="h" x="305.27" y="382.13" width="0.89" height="7.34"/><rect class="h" x="351.17" y="382.13" width="0.89" height="7.34"/><rect class="h" x="353.07" y="382.13" width="0.89" height="7.34"/><rect class="h" x="354.9" y="382.13" width="0.9" height="7.34"/><path class="h" d="M357.17,382.16v7.28l-.33,0h-.56v-7.34h.56A1.84,1.84,0,0,1,357.17,382.16Z" transform="translate(0 0)"/><path class="h" d="M358.41,382.84v5.92a1.83,1.83,0,0,1-.89.6v-7.11A1.75,1.75,0,0,1,358.41,382.84Z" transform="translate(0 0)"/><path class="i" d="M350.34,376.39v4.15a1.39,1.39,0,0,1-.32.89,2,2,0,0,1-.9.6l-.34.08-.34,0H269.93a1.79,1.79,0,0,1-1.9-1.51v-4.3a1.79,1.79,0,0,1,1.9-1.52h78.85a2,2,0,0,1,.35.08h.05l.05,0,.09,0,.06,0,0,0,.09.05.1.06.08.05h0l.05,0,.14.12,0,0,0,0,.07.08A1.41,1.41,0,0,1,350.34,376.39Z" transform="translate(0 0)"/><path class="h" d="M311.79,382.13H269.73a1.66,1.66,0,0,1-1.7-1.51v-4.3a1.67,1.67,0,0,1,1.7-1.52h36.89c0,.07,0,.12.05.18A12.85,12.85,0,0,0,311.79,382.13Z" transform="translate(0 0)"/><rect class="h" x="339.9" y="374.8" width="0.89" height="7.33"/><rect class="h" x="336.88" y="374.8" width="0.89" height="7.33"/><rect class="h" x="333.26" y="374.8" width="0.89" height="7.33"/><rect class="h" x="327.7" y="374.8" width="0.89" height="7.33"/><rect class="h" x="321.83" y="374.8" width="0.89" height="7.33"/><rect class="h" x="312.83" y="374.8" width="0.89" height="7.33"/><rect class="h" x="304.4" y="374.8" width="0.9" height="7.33"/><rect class="h" x="296.88" y="374.8" width="0.89" height="7.33"/><rect class="h" x="342.77" y="374.8" width="0.89" height="7.33"/><rect class="h" x="344.67" y="374.8" width="0.89" height="7.33"/><rect class="h" x="346.5" y="374.8" width="0.89" height="7.33"/><path class="h" d="M348.78,374.83v7.28a1.88,1.88,0,0,1-.34,0h-.55V374.8h.55A1.87,1.87,0,0,1,348.78,374.83Z" transform="translate(0 0)"/><path class="h" d="M350,375.5v5.93a1.91,1.91,0,0,1-.9.6v-7.12A1.9,1.9,0,0,1,350,375.5Z" transform="translate(0 0)"/><path class="i" d="M354.4,369.25v4.14a1.37,1.37,0,0,1-.32.89,2,2,0,0,1-.89.59,2.25,2.25,0,0,1-.35.09l-.34,0H274a2.1,2.1,0,0,1-.88-.18,1.62,1.62,0,0,1-1-1.26s0,0,0-.07v-4.3a1.79,1.79,0,0,1,1.9-1.52H352.5a1.87,1.87,0,0,1,.34,0,2.21,2.21,0,0,1,.35.08,1.93,1.93,0,0,1,.89.6A1.37,1.37,0,0,1,354.4,369.25Z" transform="translate(0 0)"/><path class="h" d="M315.85,375H273.78a1.69,1.69,0,0,1-.78-.18,1.6,1.6,0,0,1-.91-1.26v-.07s0-.06,0-.08v-4.14a.19.19,0,0,1,0-.08,1.66,1.66,0,0,1,1.69-1.52h36.9a12.88,12.88,0,0,0,4.9,7.15Z" transform="translate(0 0)"/><rect class="h" x="343.95" y="367.65" width="0.9" height="7.34"/><rect class="h" x="340.93" y="367.65" width="0.89" height="7.34"/><rect class="h" x="337.31" y="367.65" width="0.89" height="7.34"/><rect class="h" x="331.76" y="367.65" width="0.89" height="7.34"/><rect class="h" x="325.89" y="367.65" width="0.89" height="7.34"/><rect class="h" x="316.89" y="367.65" width="0.89" height="7.34"/><rect class="h" x="308.46" y="367.65" width="0.89" height="7.34"/><rect class="h" x="300.93" y="367.66" width="0.9" height="7.33"/><rect class="h" x="346.83" y="367.65" width="0.89" height="7.34"/><rect class="h" x="348.73" y="367.65" width="0.89" height="7.34"/><rect class="h" x="350.56" y="367.65" width="0.89" height="7.34"/><path class="h" d="M352.84,367.68V375l-.34,0H352v-7.33h.55A1.87,1.87,0,0,1,352.84,367.68Z" transform="translate(0 0)"/><path class="h" d="M354.07,368.36v5.92a1.83,1.83,0,0,1-.89.6v-7.12A1.83,1.83,0,0,1,354.07,368.36Z" transform="translate(0 0)"/><path class="i" d="M356.28,361.92v4.14a1.4,1.4,0,0,1-.33.89,1.83,1.83,0,0,1-.89.6l-.34.08a2,2,0,0,1-.34,0H275.87a1.79,1.79,0,0,1-1.9-1.52s0-.05,0-.08v-4.14a.22.22,0,0,1,0-.08,1.74,1.74,0,0,1,1.67-1.5h78.74a1.94,1.94,0,0,1,.34,0l.34.08a1.83,1.83,0,0,1,.89.6A1.38,1.38,0,0,1,356.28,361.92Z" transform="translate(0 0)"/><path class="h" d="M317.73,367.66H275.66a1.68,1.68,0,0,1-1.7-1.52v-4.3a1.65,1.65,0,0,1,1.5-1.5h37.1A12.89,12.89,0,0,0,317.73,367.66Z" transform="translate(0 0)"/><rect class="h" x="345.83" y="360.32" width="0.89" height="7.33"/><rect class="h" x="342.81" y="360.32" width="0.89" height="7.33"/><rect class="h" x="339.19" y="360.32" width="0.89" height="7.33"/><rect class="h" x="333.64" y="360.32" width="0.89" height="7.33"/><rect class="h" x="327.77" y="360.32" width="0.9" height="7.33"/><rect class="h" x="318.77" y="360.32" width="0.89" height="7.33"/><rect class="h" x="310.34" y="360.32" width="0.89" height="7.33"/><rect class="h" x="302.81" y="360.32" width="0.89" height="7.33"/><rect class="h" x="348.7" y="360.32" width="0.9" height="7.33"/><rect class="h" x="350.61" y="360.32" width="0.89" height="7.33"/><rect class="h" x="352.44" y="360.32" width="0.9" height="7.33"/><path class="h" d="M354.72,360.34v7.28a2,2,0,0,1-.34,0h-.55v-7.33h.55Z" transform="translate(0 0)"/><path class="h" d="M356,361V367a1.75,1.75,0,0,1-.89.59v-7.11A1.89,1.89,0,0,1,356,361Z" transform="translate(0 0)"/><path class="i" d="M350.51,354.59v4.14a1.4,1.4,0,0,1-.32.89,1.93,1.93,0,0,1-.9.61,1.81,1.81,0,0,1-.35.07l-.1,0H270.09a1.78,1.78,0,0,1-1.89-1.51s0-.06,0-.09v-4.14a.25.25,0,0,1,0-.08v-.06a1.73,1.73,0,0,1,1.43-1.4h.05a1.84,1.84,0,0,1,.41,0h78.77l.09,0a1.3,1.3,0,0,1,.34.08,1.84,1.84,0,0,1,.9.6A1.42,1.42,0,0,1,350.51,354.59Z" transform="translate(0 0)"/><path class="h" d="M312,360.33H269.89a1.65,1.65,0,0,1-1.69-1.51s0-.06,0-.09v-4.14a.25.25,0,0,1,0-.08v-.06a1.63,1.63,0,0,1,1.32-1.41h.07l.3,0h36.9v.05a12.86,12.86,0,0,0,5.14,7.27Z" transform="translate(0 0)"/><rect class="h" x="340.06" y="353" width="0.89" height="7.33"/><rect class="h" x="337.04" y="353" width="0.9" height="7.33"/><rect class="h" x="333.42" y="353" width="0.89" height="7.33"/><rect class="h" x="327.86" y="353" width="0.9" height="7.33"/><rect class="h" x="322" y="353" width="0.89" height="7.33"/><rect class="h" x="313" y="353" width="0.89" height="7.33"/><rect class="h" x="304.57" y="353" width="0.89" height="7.33"/><rect class="h" x="297.04" y="353" width="0.9" height="7.33"/><rect class="h" x="342.94" y="353" width="0.89" height="7.33"/><rect class="h" x="344.84" y="353" width="0.89" height="7.33"/><rect class="h" x="346.68" y="353" width="0.89" height="7.33"/><path class="h" d="M348.94,353v7.27a1.76,1.76,0,0,1-.33,0h-.56V353h.56A1.76,1.76,0,0,1,348.94,353Z" transform="translate(0 0)"/><path class="h" d="M350.19,353.71v5.91a1.93,1.93,0,0,1-.9.61v-7.12A1.84,1.84,0,0,1,350.19,353.71Z" transform="translate(0 0)"/><path class="i" d="M350.34,347.32v4.14a1.39,1.39,0,0,1-.32.89,2,2,0,0,1-.9.6,1.07,1.07,0,0,1-.27.06l-.07,0-.34,0H269.59a1.73,1.73,0,0,1-1.56-1.49v-4.3a1.79,1.79,0,0,1,1.9-1.51h78.85a2,2,0,0,1,.35.09h.05l.05,0,.09,0,.1,0,.09,0,.1.06.08.05h0l.05,0,.14.12,0,0s0,0,0,0l.07.08A1.37,1.37,0,0,1,350.34,347.32Z" transform="translate(0 0)"/><path class="h" d="M311.79,353.05H269.52a1.64,1.64,0,0,1-1.49-1.5v-4.3a1.66,1.66,0,0,1,1.7-1.51h36.89c0,.06,0,.11.05.18a12.83,12.83,0,0,0,5,7.09Z" transform="translate(0 0)"/><rect class="h" x="339.9" y="345.72" width="0.89" height="7.33"/><rect class="h" x="336.88" y="345.72" width="0.89" height="7.33"/><rect class="h" x="333.26" y="345.72" width="0.89" height="7.33"/><rect class="h" x="327.7" y="345.72" width="0.89" height="7.33"/><rect class="h" x="321.83" y="345.72" width="0.89" height="7.33"/><rect class="h" x="312.83" y="345.72" width="0.89" height="7.33"/><rect class="h" x="304.4" y="345.72" width="0.9" height="7.33"/><rect class="h" x="296.88" y="345.72" width="0.89" height="7.34"/><rect class="h" x="342.77" y="345.72" width="0.89" height="7.33"/><rect class="h" x="344.67" y="345.72" width="0.89" height="7.33"/><rect class="h" x="346.51" y="345.72" width="0.89" height="7.33"/><path class="h" d="M348.78,345.75V353a1.87,1.87,0,0,1-.34,0h-.55v-7.33h.55A1.87,1.87,0,0,1,348.78,345.75Z" transform="translate(0 0)"/><path class="h" d="M350,346.42v5.93a2.07,2.07,0,0,1-.9.6v-7.12A1.83,1.83,0,0,1,350,346.42Z" transform="translate(0 0)"/><path class="i" d="M354.4,340.16v4.14a1.37,1.37,0,0,1-.32.89,1.93,1.93,0,0,1-.89.6,2.21,2.21,0,0,1-.35.08,1.87,1.87,0,0,1-.34,0H274a2.1,2.1,0,0,1-.88-.18,1.65,1.65,0,0,1-1-1.26s0,0,0-.08v-4.3a1.79,1.79,0,0,1,1.9-1.51H352.5l.34,0,.35.08a1.93,1.93,0,0,1,.89.6A1.37,1.37,0,0,1,354.4,340.16Z" transform="translate(0 0)"/><path class="h" d="M315.85,345.9H273.78a1.69,1.69,0,0,1-.78-.18,1.63,1.63,0,0,1-.91-1.26v-.08s0-.05,0-.08v-4.14a.25.25,0,0,1,0-.08,1.65,1.65,0,0,1,1.69-1.51h36.9a12.88,12.88,0,0,0,4.9,7.15Z" transform="translate(0 0)"/><rect class="h" x="343.95" y="338.57" width="0.9" height="7.33"/><rect class="h" x="340.93" y="338.57" width="0.89" height="7.33"/><rect class="h" x="337.31" y="338.57" width="0.89" height="7.33"/><rect class="h" x="331.76" y="338.57" width="0.89" height="7.33"/><rect class="h" x="325.89" y="338.57" width="0.89" height="7.33"/><rect class="h" x="316.89" y="338.57" width="0.89" height="7.33"/><rect class="h" x="308.46" y="338.57" width="0.89" height="7.33"/><rect class="h" x="300.93" y="338.57" width="0.9" height="7.33"/><rect class="h" x="346.83" y="338.57" width="0.89" height="7.33"/><rect class="h" x="348.73" y="338.57" width="0.89" height="7.33"/><rect class="h" x="350.56" y="338.57" width="0.89" height="7.33"/><path class="h" d="M352.84,338.59v7.28a1.87,1.87,0,0,1-.34,0H352v-7.33h.55Z" transform="translate(0 0)"/><path class="h" d="M354.08,339.27v5.93a2,2,0,0,1-.89.59v-7.12A1.93,1.93,0,0,1,354.08,339.27Z" transform="translate(0 0)"/><path class="i" d="M360.81,332.83V337a1.37,1.37,0,0,1-.32.89,1.91,1.91,0,0,1-.9.6,1.21,1.21,0,0,1-.34.08l-.33,0H280.4a1.8,1.8,0,0,1-1.9-1.51v-4.31a1.76,1.76,0,0,1,1.67-1.5h78.75l.33,0,.34.08a2,2,0,0,1,.9.6A1.39,1.39,0,0,1,360.81,332.83Z" transform="translate(0 0)"/><path class="h" d="M322.26,338.57H280.2a1.67,1.67,0,0,1-1.7-1.51v-4.31a1.64,1.64,0,0,1,1.49-1.5H317.1A12.84,12.84,0,0,0,322.26,338.57Z" transform="translate(0 0)"/><rect class="h" x="350.37" y="331.24" width="0.89" height="7.33"/><rect class="h" x="347.35" y="331.24" width="0.9" height="7.33"/><rect class="h" x="343.73" y="331.24" width="0.89" height="7.33"/><rect class="h" x="338.18" y="331.24" width="0.89" height="7.33"/><rect class="h" x="332.3" y="331.24" width="0.89" height="7.33"/><rect class="h" x="323.3" y="331.24" width="0.9" height="7.33"/><rect class="h" x="314.87" y="331.24" width="0.89" height="7.33"/><rect class="h" x="307.35" y="331.23" width="0.89" height="7.34"/><rect class="h" x="353.25" y="331.24" width="0.89" height="7.33"/><rect class="h" x="355.14" y="331.24" width="0.89" height="7.33"/><rect class="h" x="356.98" y="331.24" width="0.89" height="7.33"/><path class="h" d="M359.25,331.26v7.28l-.33,0h-.56v-7.34h.56Z" transform="translate(0 0)"/><path class="h" d="M360.49,331.94v5.92a1.93,1.93,0,0,1-.89.6v-7.12A1.93,1.93,0,0,1,360.49,331.94Z" transform="translate(0 0)"/><path class="i" d="M350.51,325.51v4.14a1.4,1.4,0,0,1-.32.89,1.84,1.84,0,0,1-.9.6,1.28,1.28,0,0,1-.35.08l-.1,0H270.09a1.78,1.78,0,0,1-1.89-1.51s0-.06,0-.09v-4.14a.25.25,0,0,1,0-.08,1.78,1.78,0,0,1,1.89-1.51h78.62l.23,0a1.28,1.28,0,0,1,.35.08l.17.06.1.05h0l.1.05h0l.08.05a1.33,1.33,0,0,1,.19.14l.06.05h0l0,0h0l.05.05.08.09A1.42,1.42,0,0,1,350.51,325.51Z" transform="translate(0 0)"/><path class="h" d="M312,331.25H269.89a1.65,1.65,0,0,1-1.69-1.51s0-.06,0-.09v-4.14a.25.25,0,0,1,0-.08,1.65,1.65,0,0,1,1.69-1.51h36.9a1.09,1.09,0,0,0,0,.17,12.8,12.8,0,0,0,5.1,7.15Z" transform="translate(0 0)"/><rect class="h" x="340.06" y="323.92" width="0.89" height="7.33"/><rect class="h" x="337.04" y="323.92" width="0.9" height="7.33"/><rect class="h" x="333.42" y="323.92" width="0.89" height="7.33"/><rect class="h" x="327.87" y="323.92" width="0.89" height="7.33"/><rect class="h" x="322" y="323.92" width="0.89" height="7.33"/><rect class="h" x="313" y="323.92" width="0.89" height="7.33"/><rect class="h" x="304.57" y="323.92" width="0.89" height="7.33"/><rect class="h" x="297.04" y="323.92" width="0.9" height="7.33"/><rect class="h" x="342.94" y="323.92" width="0.89" height="7.33"/><rect class="h" x="344.84" y="323.92" width="0.89" height="7.33"/><rect class="h" x="346.68" y="323.92" width="0.89" height="7.33"/><path class="h" d="M348.94,324v7.27a1.76,1.76,0,0,1-.33,0h-.56v-7.33h.56A1.76,1.76,0,0,1,348.94,324Z" transform="translate(0 0)"/><path class="h" d="M350.19,324.62v5.92a1.84,1.84,0,0,1-.9.6V324A1.9,1.9,0,0,1,350.19,324.62Z" transform="translate(0 0)"/><path class="i" d="M356.28,318.35v4.14a1.37,1.37,0,0,1-.32.89,1.93,1.93,0,0,1-.89.6,2,2,0,0,1-.35.08,1.87,1.87,0,0,1-.34,0H275.87a2.15,2.15,0,0,1-.85-.17,1.64,1.64,0,0,1-1-1.28v-4.37a1.76,1.76,0,0,1,1.67-1.5h78.74a1.87,1.87,0,0,1,.34,0,1.37,1.37,0,0,1,.35.08,1.84,1.84,0,0,1,.89.59A1.39,1.39,0,0,1,356.28,318.35Z" transform="translate(0 0)"/><path class="h" d="M317.73,324.09H275.66a1.76,1.76,0,0,1-.76-.17,1.64,1.64,0,0,1-.93-1.28v-4.37a1.64,1.64,0,0,1,1.49-1.5h37.11a12.82,12.82,0,0,0,4.92,7.15C317.56,324,317.65,324,317.73,324.09Z" transform="translate(0 0)"/><rect class="h" x="345.84" y="316.75" width="0.89" height="7.33"/><rect class="h" x="342.81" y="316.75" width="0.89" height="7.33"/><rect class="h" x="339.19" y="316.75" width="0.9" height="7.33"/><rect class="h" x="333.64" y="316.75" width="0.89" height="7.33"/><rect class="h" x="327.77" y="316.75" width="0.89" height="7.33"/><rect class="h" x="318.77" y="316.75" width="0.89" height="7.33"/><rect class="h" x="310.34" y="316.75" width="0.9" height="7.33"/><rect class="h" x="302.81" y="316.75" width="0.9" height="7.33"/><rect class="h" x="348.71" y="316.75" width="0.89" height="7.33"/><rect class="h" x="350.61" y="316.75" width="0.9" height="7.33"/><rect class="h" x="352.44" y="316.75" width="0.89" height="7.33"/><path class="h" d="M354.72,316.78v7.28a1.87,1.87,0,0,1-.34,0h-.55v-7.34h.55A1.87,1.87,0,0,1,354.72,316.78Z" transform="translate(0 0)"/><path class="h" d="M356,317.46v5.92a1.93,1.93,0,0,1-.89.6v-7.12A1.93,1.93,0,0,1,356,317.46Z" transform="translate(0 0)"/><path class="i" d="M358.74,311v4.14a1.38,1.38,0,0,1-.33.89,1.83,1.83,0,0,1-.89.6,2,2,0,0,1-.35.08H278.32a1.78,1.78,0,0,1-1.89-1.51.25.25,0,0,1,0-.08V311a.19.19,0,0,1,0-.08,1.78,1.78,0,0,1,1.89-1.52h78.52l.33,0a1.37,1.37,0,0,1,.35.08,1.83,1.83,0,0,1,.89.6A1.38,1.38,0,0,1,358.74,311Z" transform="translate(0 0)"/><path class="h" d="M320.18,316.76H278.12a1.67,1.67,0,0,1-1.7-1.51V311a1.67,1.67,0,0,1,1.7-1.52H315a12.74,12.74,0,0,0,5.15,7.32Z" transform="translate(0 0)"/><rect class="h" x="348.29" y="309.43" width="0.89" height="7.33"/><rect class="h" x="345.27" y="309.43" width="0.89" height="7.33"/><rect class="h" x="341.64" y="309.43" width="0.9" height="7.33"/><rect class="h" x="336.1" y="309.43" width="0.89" height="7.33"/><rect class="h" x="330.22" y="309.43" width="0.9" height="7.33"/><rect class="h" x="321.22" y="309.43" width="0.89" height="7.33"/><rect class="h" x="312.79" y="309.43" width="0.89" height="7.33"/><rect class="h" x="305.27" y="309.43" width="0.89" height="7.33"/><rect class="h" x="351.17" y="309.43" width="0.89" height="7.33"/><rect class="h" x="353.07" y="309.43" width="0.9" height="7.33"/><rect class="h" x="354.9" y="309.43" width="0.9" height="7.33"/><path class="h" d="M357.17,309.46v7.28l-.33,0h-.56v-7.33h.56Z" transform="translate(0 0)"/><path class="h" d="M358.41,310.14v5.92a1.83,1.83,0,0,1-.89.6v-7.12A1.83,1.83,0,0,1,358.41,310.14Z" transform="translate(0 0)"/><path class="i" d="M354.65,303.57v4.14a1.37,1.37,0,0,1-.32.89,1.93,1.93,0,0,1-.89.6l-.35.08a1.84,1.84,0,0,1-.33,0H274.24a1.8,1.8,0,0,1-1.9-1.52v-4.3a1.8,1.8,0,0,1,1.9-1.52h78.52l.33,0a2,2,0,0,1,.35.08,1.93,1.93,0,0,1,.89.6A1.37,1.37,0,0,1,354.65,303.57Z" transform="translate(0 0)"/><path class="h" d="M316.1,309.31H274a1.68,1.68,0,0,1-1.7-1.52v-4.3A1.68,1.68,0,0,1,274,302h36.9A12.87,12.87,0,0,0,316.1,309.31Z" transform="translate(0 0)"/><rect class="h" x="344.21" y="301.97" width="0.89" height="7.34"/><rect class="h" x="341.19" y="301.97" width="0.89" height="7.34"/><rect class="h" x="337.57" y="301.97" width="0.89" height="7.34"/><rect class="h" x="332.01" y="301.97" width="0.89" height="7.34"/><rect class="h" x="326.14" y="301.97" width="0.89" height="7.34"/><rect class="h" x="317.14" y="301.97" width="0.89" height="7.34"/><rect class="h" x="308.71" y="301.97" width="0.89" height="7.34"/><rect class="h" x="301.18" y="301.97" width="0.9" height="7.34"/><rect class="h" x="347.09" y="301.97" width="0.89" height="7.34"/><rect class="h" x="348.98" y="301.97" width="0.89" height="7.34"/><rect class="h" x="350.82" y="301.97" width="0.9" height="7.34"/><path class="h" d="M353.09,302v7.28l-.33,0h-.56V302h.56Z" transform="translate(0 0)"/><path class="h" d="M354.33,302.68v5.92a1.93,1.93,0,0,1-.89.6v-7.12A1.93,1.93,0,0,1,354.33,302.68Z" transform="translate(0 0)"/><path class="i" d="M346.26,296.24v4.14a1.39,1.39,0,0,1-.32.89,1.83,1.83,0,0,1-.9.59,1.3,1.3,0,0,1-.34.08,2,2,0,0,1-.34,0H265.85a1.79,1.79,0,0,1-1.9-1.51v-4.3a1.79,1.79,0,0,1,1.9-1.51H344.7a1.87,1.87,0,0,1,.34.08l.06,0h0l.1.05.05,0,0,0,.09.05.1.06.07,0h0a.1.1,0,0,1,0,0,.81.81,0,0,1,.14.12.08.08,0,0,1,0,0l0,0a.27.27,0,0,0,.07.08A1.42,1.42,0,0,1,346.26,296.24Z" transform="translate(0 0)"/><path class="h" d="M307.7,302H265.64a1.65,1.65,0,0,1-1.69-1.52s0,0,0-.08v-4.14a.22.22,0,0,1,0-.08,1.64,1.64,0,0,1,1.69-1.51h36.9c0,.06,0,.12,0,.18A12.86,12.86,0,0,0,307.7,302Z" transform="translate(0 0)"/><rect class="h" x="335.82" y="294.64" width="0.89" height="7.34"/><rect class="h" x="332.79" y="294.64" width="0.89" height="7.34"/><rect class="h" x="329.17" y="294.64" width="0.9" height="7.34"/><rect class="h" x="323.62" y="294.64" width="0.89" height="7.34"/><rect class="h" x="317.74" y="294.64" width="0.9" height="7.34"/><rect class="h" x="308.74" y="294.64" width="0.89" height="7.34"/><rect class="h" x="300.32" y="294.64" width="0.89" height="7.34"/><rect class="h" x="292.8" y="294.65" width="0.89" height="7.33"/><rect class="h" x="338.69" y="294.64" width="0.89" height="7.34"/><rect class="h" x="340.59" y="294.64" width="0.9" height="7.34"/><rect class="h" x="342.42" y="294.64" width="0.9" height="7.34"/><path class="h" d="M344.7,294.67V302a2,2,0,0,1-.34,0h-.56v-7.34h.56A2,2,0,0,1,344.7,294.67Z" transform="translate(0 0)"/><path class="h" d="M345.94,295.35v5.92a1.91,1.91,0,0,1-.9.6v-7.12A1.91,1.91,0,0,1,345.94,295.35Z" transform="translate(0 0)"/><path class="i" d="M350.32,289.09v4.14a1.38,1.38,0,0,1-.33.89,1.83,1.83,0,0,1-.89.6,1.8,1.8,0,0,1-.35.08l-.33,0H269.9a2.22,2.22,0,0,1-.87-.18,1.66,1.66,0,0,1-1-1.27v-.07s0-.05,0-.08v-4.14a.22.22,0,0,1,0-.08,1.79,1.79,0,0,1,1.89-1.52h78.52l.33,0,.35.08a1.83,1.83,0,0,1,.89.6A1.38,1.38,0,0,1,350.32,289.09Z" transform="translate(0 0)"/><path class="h" d="M311.76,294.83H269.7a1.87,1.87,0,0,1-.79-.18,1.62,1.62,0,0,1-.9-1.27.17.17,0,0,0,0-.07V289a1.67,1.67,0,0,1,1.69-1.51h36.9a13,13,0,0,0,4.91,7.16C311.59,294.7,311.67,294.77,311.76,294.83Z" transform="translate(0 0)"/><rect class="h" x="339.87" y="287.49" width="0.9" height="7.34"/><rect class="h" x="336.85" y="287.49" width="0.89" height="7.34"/><rect class="h" x="333.23" y="287.49" width="0.89" height="7.34"/><rect class="h" x="327.68" y="287.49" width="0.89" height="7.34"/><rect class="h" x="321.8" y="287.49" width="0.89" height="7.34"/><rect class="h" x="312.8" y="287.49" width="0.89" height="7.34"/><rect class="h" x="304.38" y="287.49" width="0.89" height="7.34"/><rect class="h" x="296.85" y="287.49" width="0.89" height="7.34"/><rect class="h" x="342.75" y="287.49" width="0.89" height="7.34"/><rect class="h" x="344.65" y="287.49" width="0.89" height="7.34"/><rect class="h" x="346.48" y="287.49" width="0.89" height="7.34"/><path class="h" d="M348.75,287.52v7.28l-.33,0h-.56v-7.34h.56Z" transform="translate(0 0)"/><path class="h" d="M350,288.2v5.92a1.83,1.83,0,0,1-.89.6V287.6A1.83,1.83,0,0,1,350,288.2Z" transform="translate(0 0)"/><path class="i" d="M352.2,281.76v4.14a1.38,1.38,0,0,1-.33.89,1.75,1.75,0,0,1-.89.59,2.25,2.25,0,0,1-.35.09l-.33,0H271.78a1.8,1.8,0,0,1-1.9-1.51v-4.31a1.76,1.76,0,0,1,1.68-1.5H350.3a1.76,1.76,0,0,1,.33,0,1.37,1.37,0,0,1,.35.08,1.91,1.91,0,0,1,.89.59A1.43,1.43,0,0,1,352.2,281.76Z" transform="translate(0 0)"/><path class="h" d="M313.65,287.49H271.58a1.67,1.67,0,0,1-1.7-1.51v-4.31a1.66,1.66,0,0,1,1.5-1.5h37.1A12.83,12.83,0,0,0,313.65,287.49Z" transform="translate(0 0)"/><rect class="h" x="341.75" y="280.16" width="0.89" height="7.34"/><rect class="h" x="338.73" y="280.16" width="0.89" height="7.34"/><rect class="h" x="335.11" y="280.16" width="0.89" height="7.34"/><rect class="h" x="329.55" y="280.16" width="0.9" height="7.34"/><rect class="h" x="323.68" y="280.16" width="0.89" height="7.34"/><rect class="h" x="314.68" y="280.16" width="0.89" height="7.34"/><rect class="h" x="306.26" y="280.16" width="0.89" height="7.34"/><rect class="h" x="298.73" y="280.16" width="0.9" height="7.34"/><rect class="h" x="344.63" y="280.16" width="0.89" height="7.34"/><rect class="h" x="346.53" y="280.16" width="0.89" height="7.34"/><rect class="h" x="348.36" y="280.16" width="0.89" height="7.34"/><path class="h" d="M350.63,280.19v7.27a1.84,1.84,0,0,1-.33,0h-.56v-7.33h.56Z" transform="translate(0 0)"/><path class="h" d="M351.87,280.86v5.92a1.77,1.77,0,0,1-.89.6v-7.11A1.82,1.82,0,0,1,351.87,280.86Z" transform="translate(0 0)"/><path class="i" d="M346.43,274.43v4.15a1.42,1.42,0,0,1-.33.89,1.94,1.94,0,0,1-.89.59,2,2,0,0,1-.35.09H266a1.8,1.8,0,0,1-1.9-1.52v-4.3s0,0,0-.07a1.71,1.71,0,0,1,1.42-1.39l.06,0a2.73,2.73,0,0,1,.41,0h78.85l.35.08a1.88,1.88,0,0,1,.89.6A1.4,1.4,0,0,1,346.43,274.43Z" transform="translate(0 0)"/><path class="h" d="M307.87,280.17H265.8a1.66,1.66,0,0,1-1.69-1.51v-4.3a.15.15,0,0,1,0-.07,1.63,1.63,0,0,1,1.31-1.41l.07,0,.3,0h36.9l0,.05a12.84,12.84,0,0,0,5.13,7.27Z" transform="translate(0 0)"/><rect class="h" x="335.97" y="272.84" width="0.9" height="7.33"/><rect class="h" x="332.95" y="272.84" width="0.9" height="7.33"/><rect class="h" x="329.34" y="272.84" width="0.89" height="7.33"/><rect class="h" x="323.78" y="272.84" width="0.9" height="7.33"/><rect class="h" x="317.91" y="272.84" width="0.89" height="7.33"/><rect class="h" x="308.91" y="272.84" width="0.9" height="7.33"/><rect class="h" x="300.48" y="272.84" width="0.89" height="7.33"/><rect class="h" x="292.96" y="272.85" width="0.89" height="7.33"/><rect class="h" x="338.85" y="272.84" width="0.9" height="7.33"/><rect class="h" x="340.75" y="272.84" width="0.89" height="7.33"/><rect class="h" x="342.59" y="272.84" width="0.89" height="7.33"/><path class="h" d="M344.86,272.87v7.28l-.34,0H344v-7.33h.55A1.87,1.87,0,0,1,344.86,272.87Z" transform="translate(0 0)"/><path class="h" d="M346.1,273.55v5.92a1.91,1.91,0,0,1-.9.6V273A1.91,1.91,0,0,1,346.1,273.55Z" transform="translate(0 0)"/><path class="i" d="M346.26,267.16v4.14a1.39,1.39,0,0,1-.32.89,2,2,0,0,1-.9.6,1.81,1.81,0,0,1-.27.06l-.07,0a2,2,0,0,1-.34,0H265.85l-.25,0h-.09a1.72,1.72,0,0,1-1.56-1.48v-4.31a1.79,1.79,0,0,1,1.9-1.51H344.7l.34.08.06,0,0,0,.1,0,.1.05.09,0,.1.06.07.05h0a.1.1,0,0,1,0,0l.14.11,0,0s0,0,0,0l.07.08A1.37,1.37,0,0,1,346.26,267.16Z" transform="translate(0 0)"/><path class="h" d="M307.7,272.89H265.43a1.64,1.64,0,0,1-1.48-1.5s0-.06,0-.08v-4.14a.19.19,0,0,1,0-.08,1.65,1.65,0,0,1,1.69-1.52h36.9c0,.06,0,.13,0,.18a12.86,12.86,0,0,0,5,7.11A.1.1,0,0,1,307.7,272.89Z" transform="translate(0 0)"/><rect class="h" x="335.82" y="265.56" width="0.89" height="7.33"/><rect class="h" x="332.79" y="265.56" width="0.89" height="7.33"/><rect class="h" x="329.17" y="265.56" width="0.9" height="7.33"/><rect class="h" x="323.62" y="265.56" width="0.89" height="7.33"/><rect class="h" x="317.74" y="265.56" width="0.9" height="7.33"/><rect class="h" x="308.75" y="265.56" width="0.89" height="7.33"/><rect class="h" x="300.32" y="265.56" width="0.89" height="7.33"/><rect class="h" x="292.8" y="265.56" width="0.89" height="7.34"/><rect class="h" x="338.69" y="265.56" width="0.89" height="7.33"/><rect class="h" x="340.59" y="265.56" width="0.9" height="7.33"/><rect class="h" x="342.42" y="265.56" width="0.9" height="7.33"/><path class="h" d="M344.7,265.59v7.28l-.34,0h-.56v-7.33h.56A2,2,0,0,1,344.7,265.59Z" transform="translate(0 0)"/><path class="h" d="M345.94,266.27v5.92a2,2,0,0,1-.9.6v-7.12A1.91,1.91,0,0,1,345.94,266.27Z" transform="translate(0 0)"/><path class="i" d="M350.32,260v4.14a1.41,1.41,0,0,1-.33.89,1.83,1.83,0,0,1-.89.6,2.21,2.21,0,0,1-.35.08,1.84,1.84,0,0,1-.33,0H269.9a2.3,2.3,0,0,1-.88-.18,1.65,1.65,0,0,1-1-1.26v-.07s0-.06,0-.09V260a.25.25,0,0,1,0-.08,1.78,1.78,0,0,1,1.89-1.51h78.52a1.83,1.83,0,0,1,.33,0l.35.08a1.88,1.88,0,0,1,.89.6A1.46,1.46,0,0,1,350.32,260Z" transform="translate(0 0)"/><path class="h" d="M311.76,265.74H269.7a1.73,1.73,0,0,1-.79-.18,1.59,1.59,0,0,1-.9-1.26.15.15,0,0,0,0-.07v-4.31a1.66,1.66,0,0,1,1.69-1.51h36.9a12.9,12.9,0,0,0,4.91,7.15Z" transform="translate(0 0)"/><rect class="h" x="339.87" y="258.41" width="0.9" height="7.33"/><rect class="h" x="336.85" y="258.41" width="0.89" height="7.33"/><rect class="h" x="333.23" y="258.41" width="0.89" height="7.33"/><rect class="h" x="327.68" y="258.41" width="0.89" height="7.33"/><rect class="h" x="321.8" y="258.41" width="0.89" height="7.33"/><rect class="h" x="312.8" y="258.41" width="0.89" height="7.33"/><rect class="h" x="304.38" y="258.41" width="0.89" height="7.33"/><rect class="h" x="296.85" y="258.41" width="0.89" height="7.33"/><rect class="h" x="342.75" y="258.41" width="0.89" height="7.33"/><rect class="h" x="344.65" y="258.41" width="0.89" height="7.33"/><rect class="h" x="346.48" y="258.41" width="0.89" height="7.33"/><path class="h" d="M348.75,258.44v7.27a1.84,1.84,0,0,1-.33,0h-.56v-7.33h.56Z" transform="translate(0 0)"/><path class="h" d="M350,259.12V265a1.92,1.92,0,0,1-.89.61v-7.12A1.71,1.71,0,0,1,350,259.12Z" transform="translate(0 0)"/><path class="i" d="M356.73,252.67v4.14a1.37,1.37,0,0,1-.32.89,1.91,1.91,0,0,1-.9.6,1.69,1.69,0,0,1-.34.08,1.87,1.87,0,0,1-.34,0H276.32a1.79,1.79,0,0,1-1.9-1.52v-4.3a1.76,1.76,0,0,1,1.67-1.5h78.74a1.87,1.87,0,0,1,.34,0,1.21,1.21,0,0,1,.34.08,1.83,1.83,0,0,1,.9.59A1.39,1.39,0,0,1,356.73,252.67Z" transform="translate(0 0)"/><path class="h" d="M318.18,258.41H276.11a1.65,1.65,0,0,1-1.69-1.52v-4.3a1.64,1.64,0,0,1,1.49-1.5H313A12.82,12.82,0,0,0,318.18,258.41Z" transform="translate(0 0)"/><rect class="h" x="346.29" y="251.08" width="0.89" height="7.34"/><rect class="h" x="343.27" y="251.08" width="0.89" height="7.34"/><rect class="h" x="339.65" y="251.08" width="0.89" height="7.34"/><rect class="h" x="334.09" y="251.08" width="0.89" height="7.34"/><rect class="h" x="328.22" y="251.08" width="0.89" height="7.34"/><rect class="h" x="319.22" y="251.08" width="0.89" height="7.34"/><rect class="h" x="310.79" y="251.08" width="0.9" height="7.34"/><rect class="h" x="303.27" y="251.08" width="0.89" height="7.34"/><rect class="h" x="349.16" y="251.08" width="0.89" height="7.34"/><rect class="h" x="351.06" y="251.08" width="0.89" height="7.34"/><rect class="h" x="352.9" y="251.08" width="0.89" height="7.34"/><path class="h" d="M355.17,251.11v7.27a1.87,1.87,0,0,1-.34,0h-.55v-7.33h.55A1.87,1.87,0,0,1,355.17,251.11Z" transform="translate(0 0)"/><path class="h" d="M356.41,251.78v5.93a2.07,2.07,0,0,1-.9.6v-7.12A1.83,1.83,0,0,1,356.41,251.78Z" transform="translate(0 0)"/><path class="i" d="M561,383.51v4.14a1.43,1.43,0,0,1-.32.89,1.93,1.93,0,0,1-.89.6,2.33,2.33,0,0,1-.36.08,1.69,1.69,0,0,1-.33,0H480.53a1.84,1.84,0,0,1-1.88-1.36.86.86,0,0,1,0-.16v-4.3a.86.86,0,0,1,0-.16,1.84,1.84,0,0,1,1.88-1.35h78.52a1.77,1.77,0,0,1,.33,0l.36.08a1.93,1.93,0,0,1,.89.6A1.45,1.45,0,0,1,561,383.51Z" transform="translate(0 0)"/><path class="h" d="M522.39,389.25H480.33a1.68,1.68,0,0,1-1.63-1.19.84.84,0,0,1-.05-.17.86.86,0,0,1,0-.16v-4.3a.86.86,0,0,1,0-.16.84.84,0,0,1,.05-.17,1.67,1.67,0,0,1,1.63-1.18h36.9A12.89,12.89,0,0,0,522.39,389.25Z" transform="translate(0 0)"/><rect class="h" x="550.5" y="381.91" width="0.89" height="7.34"/><rect class="h" x="547.48" y="381.91" width="0.9" height="7.34"/><rect class="h" x="543.86" y="381.91" width="0.89" height="7.34"/><rect class="h" x="538.31" y="381.91" width="0.89" height="7.34"/><rect class="h" x="532.44" y="381.91" width="0.89" height="7.34"/><rect class="h" x="523.43" y="381.91" width="0.89" height="7.34"/><rect class="h" x="515.01" y="381.91" width="0.89" height="7.34"/><rect class="h" x="507.48" y="381.91" width="0.89" height="7.33"/><rect class="h" x="553.38" y="381.91" width="0.9" height="7.34"/><rect class="h" x="555.28" y="381.91" width="0.89" height="7.34"/><rect class="h" x="557.11" y="381.91" width="0.89" height="7.34"/><path class="h" d="M559.38,381.94v7.28a1.83,1.83,0,0,1-.33,0h-.56v-7.33h.56A1.76,1.76,0,0,1,559.38,381.94Z" transform="translate(0 0)"/><path class="h" d="M560.62,382.62v5.92a1.83,1.83,0,0,1-.89.6V382A1.83,1.83,0,0,1,560.62,382.62Z" transform="translate(0 0)"/><path class="i" d="M552.55,376.17v4.15a1.34,1.34,0,0,1-.32.88,1.93,1.93,0,0,1-.89.6,2,2,0,0,1-.35.09l-.16,0H472.14a1.83,1.83,0,0,1-1.88-1.36.77.77,0,0,1,0-.15s0-.06,0-.08v-4.15s0-.05,0-.07a.78.78,0,0,1,0-.16,1.84,1.84,0,0,1,1.88-1.36H551a2.49,2.49,0,0,1,.35.08h0l0,0,0,0,.06,0,.05,0h0l0,0,.09.05c.08,0,.15.1.22.14l.1.08c.06.07.13.13.18.2A1.36,1.36,0,0,1,552.55,376.17Z" transform="translate(0 0)"/><path class="h" d="M514,381.91H471.94a1.69,1.69,0,0,1-1.64-1.18,1.16,1.16,0,0,1,0-.18.77.77,0,0,1,0-.15s0-.06,0-.08v-4.15s0-.05,0-.07a.78.78,0,0,1,0-.16.85.85,0,0,1,0-.17,1.7,1.7,0,0,1,1.63-1.19h36.9a1.21,1.21,0,0,1,.05.18,13.59,13.59,0,0,0,1.71,3.72A12.73,12.73,0,0,0,514,381.91Z" transform="translate(0 0)"/><rect class="h" x="542.11" y="374.58" width="0.89" height="7.34"/><rect class="h" x="539.09" y="374.58" width="0.89" height="7.34"/><rect class="h" x="535.47" y="374.58" width="0.89" height="7.34"/><rect class="h" x="529.91" y="374.58" width="0.9" height="7.34"/><rect class="h" x="524.04" y="374.58" width="0.89" height="7.34"/><rect class="h" x="515.04" y="374.58" width="0.89" height="7.34"/><rect class="h" x="506.61" y="374.58" width="0.89" height="7.34"/><rect class="h" x="499.09" y="374.58" width="0.89" height="7.34"/><rect class="h" x="544.98" y="374.58" width="0.89" height="7.34"/><rect class="h" x="546.88" y="374.58" width="0.89" height="7.34"/><rect class="h" x="548.72" y="374.58" width="0.89" height="7.34"/><path class="h" d="M551,374.61v7.27a1.87,1.87,0,0,1-.34,0h-.55v-7.33h.55A1.87,1.87,0,0,1,551,374.61Z" transform="translate(0 0)"/><path class="h" d="M552.23,375.28v5.93a2.1,2.1,0,0,1-.89.6v-7.12A1.84,1.84,0,0,1,552.23,375.28Z" transform="translate(0 0)"/><path class="i" d="M556.61,369v4.14a1.39,1.39,0,0,1-.32.89,1.93,1.93,0,0,1-.89.6,2.21,2.21,0,0,1-.35.08,1.88,1.88,0,0,1-.34,0H476.2a2.1,2.1,0,0,1-.88-.18,1.62,1.62,0,0,1-1-1.26.15.15,0,0,1,0-.07V369a.77.77,0,0,1,0-.15,1.83,1.83,0,0,1,1.88-1.36h78.51l.34,0,.35.08a1.93,1.93,0,0,1,.89.6A1.37,1.37,0,0,1,556.61,369Z" transform="translate(0 0)"/><path class="h" d="M518.06,374.76H476a1.72,1.72,0,0,1-.78-.18,1.59,1.59,0,0,1-.9-1.26.15.15,0,0,1,0-.07V369a.88.88,0,0,1,0-.16c0-.05,0-.11,0-.17a1.7,1.7,0,0,1,1.63-1.19h36.9A13.87,13.87,0,0,0,514,370.3a12.7,12.7,0,0,0,3.77,4.28Z" transform="translate(0 0)"/><rect class="h" x="546.16" y="367.43" width="0.9" height="7.33"/><rect class="h" x="543.14" y="367.43" width="0.9" height="7.33"/><rect class="h" x="539.53" y="367.43" width="0.89" height="7.33"/><rect class="h" x="533.97" y="367.43" width="0.89" height="7.33"/><rect class="h" x="528.1" y="367.43" width="0.89" height="7.33"/><rect class="h" x="519.1" y="367.43" width="0.89" height="7.33"/><rect class="h" x="510.67" y="367.43" width="0.89" height="7.33"/><rect class="h" x="503.15" y="367.43" width="0.89" height="7.34"/><rect class="h" x="549.04" y="367.43" width="0.89" height="7.33"/><rect class="h" x="550.94" y="367.43" width="0.89" height="7.33"/><rect class="h" x="552.78" y="367.43" width="0.89" height="7.33"/><path class="h" d="M555.05,367.46v7.28l-.34,0h-.55v-7.33h.55A1.87,1.87,0,0,1,555.05,367.46Z" transform="translate(0 0)"/><path class="h" d="M556.29,368.13v5.93a1.91,1.91,0,0,1-.9.6v-7.12A2,2,0,0,1,556.29,368.13Z" transform="translate(0 0)"/><path class="i" d="M558.49,361.69v4.14a1.37,1.37,0,0,1-.32.89.81.81,0,0,1-.18.19,2,2,0,0,1-.71.41,1.37,1.37,0,0,1-.35.08l-.16,0H478.08a1.83,1.83,0,0,1-1.88-1.36c0-.05,0-.1,0-.15v-4.3a.77.77,0,0,1,0-.15,1.78,1.78,0,0,1,1.65-1.36h78.74a1.87,1.87,0,0,1,.34,0,2,2,0,0,1,.35.08,1.93,1.93,0,0,1,.89.6A1.34,1.34,0,0,1,558.49,361.69Z" transform="translate(0 0)"/><path class="h" d="M519.94,367.43H477.87a1.68,1.68,0,0,1-1.62-1.18,1.21,1.21,0,0,1-.05-.18c0-.05,0-.1,0-.15v-4.3a.77.77,0,0,1,0-.15,1.66,1.66,0,0,1,1.47-1.36h37.11a12.83,12.83,0,0,0,.93,2.45A12.62,12.62,0,0,0,519.94,367.43Z" transform="translate(0 0)"/><rect class="h" x="548.05" y="360.1" width="0.89" height="7.34"/><rect class="h" x="545.03" y="360.1" width="0.89" height="7.34"/><rect class="h" x="541.41" y="360.1" width="0.89" height="7.34"/><rect class="h" x="535.85" y="360.1" width="0.89" height="7.34"/><rect class="h" x="529.98" y="360.1" width="0.89" height="7.34"/><rect class="h" x="520.98" y="360.1" width="0.89" height="7.34"/><rect class="h" x="512.55" y="360.1" width="0.89" height="7.34"/><rect class="h" x="505.03" y="360.1" width="0.89" height="7.34"/><rect class="h" x="550.92" y="360.1" width="0.89" height="7.34"/><rect class="h" x="552.82" y="360.1" width="0.89" height="7.34"/><rect class="h" x="554.66" y="360.1" width="0.89" height="7.34"/><path class="h" d="M556.93,360.12v7.28a1.87,1.87,0,0,1-.34,0H556V360.1h.55Z" transform="translate(0 0)"/><path class="h" d="M558.17,360.8v5.93a1.9,1.9,0,0,1-.9.59v-7.11A2,2,0,0,1,558.17,360.8Z" transform="translate(0 0)"/><path class="i" d="M552.72,354.38v4.13a1.48,1.48,0,0,1-.32.9,1.9,1.9,0,0,1-.9.59,1.21,1.21,0,0,1-.34.08l-.11,0H472.3a1.84,1.84,0,0,1-1.88-1.36.76.76,0,0,1,0-.15v-4.38a1.73,1.73,0,0,1,1.43-1.4h.05a2.73,2.73,0,0,1,.41,0h78.86l.34.08a1.91,1.91,0,0,1,.9.6A1.45,1.45,0,0,1,552.72,354.38Z" transform="translate(0 0)"/><path class="h" d="M514.16,360.11H472.1a1.67,1.67,0,0,1-1.63-1.18c0-.06,0-.12-.05-.18a.76.76,0,0,1,0-.15v-4.38a1.63,1.63,0,0,1,1.32-1.4l.07,0,.3,0H509a.07.07,0,0,1,0,.05,12.86,12.86,0,0,0,5.14,7.27Z" transform="translate(0 0)"/><rect class="h" x="542.28" y="352.78" width="0.9" height="7.33"/><rect class="h" x="539.26" y="352.78" width="0.89" height="7.33"/><rect class="h" x="535.63" y="352.78" width="0.89" height="7.33"/><rect class="h" x="530.08" y="352.78" width="0.89" height="7.33"/><rect class="h" x="524.21" y="352.78" width="0.89" height="7.33"/><rect class="h" x="515.21" y="352.78" width="0.89" height="7.33"/><rect class="h" x="506.78" y="352.78" width="0.89" height="7.33"/><rect class="h" x="499.26" y="352.78" width="0.89" height="7.33"/><rect class="h" x="545.15" y="352.78" width="0.89" height="7.33"/><rect class="h" x="547.05" y="352.78" width="0.89" height="7.33"/><rect class="h" x="548.89" y="352.78" width="0.89" height="7.33"/><path class="h" d="M551.16,352.8v7.28a1.87,1.87,0,0,1-.34,0h-.56v-7.33h.56Z" transform="translate(0 0)"/><path class="h" d="M552.4,353.48v5.93a2,2,0,0,1-.9.6v-7.12A1.9,1.9,0,0,1,552.4,353.48Z" transform="translate(0 0)"/><path class="i" d="M552.55,347.09v4.14a1.4,1.4,0,0,1-.32.9,2,2,0,0,1-.89.59l-.28.07-.07,0-.34,0H472.14l-.25,0h-.09a1.77,1.77,0,0,1-1.54-1.36.59.59,0,0,1,0-.13V347a.77.77,0,0,1,0-.15,1.84,1.84,0,0,1,1.88-1.36H551a2,2,0,0,1,.35.09h0l0,0,0,0,.06,0h0l0,0a2,2,0,0,1,.37.22l.09.08a.2.2,0,0,1,.08.08l0,0,.07.07A1.39,1.39,0,0,1,552.55,347.09Z" transform="translate(0 0)"/><path class="h" d="M514,352.83H471.73a1.66,1.66,0,0,1-1.47-1.37.59.59,0,0,1,0-.13V347a.77.77,0,0,1,0-.15,1.21,1.21,0,0,1,.05-.18,1.68,1.68,0,0,1,1.63-1.18h36.9c0,.06,0,.12,0,.18a12.91,12.91,0,0,0,5,7.1Z" transform="translate(0 0)"/><rect class="h" x="542.11" y="345.5" width="0.89" height="7.34"/><rect class="h" x="539.09" y="345.5" width="0.89" height="7.34"/><rect class="h" x="535.47" y="345.5" width="0.89" height="7.34"/><rect class="h" x="529.91" y="345.5" width="0.9" height="7.34"/><rect class="h" x="524.04" y="345.5" width="0.89" height="7.34"/><rect class="h" x="515.04" y="345.5" width="0.89" height="7.34"/><rect class="h" x="506.61" y="345.5" width="0.89" height="7.34"/><rect class="h" x="499.09" y="345.5" width="0.89" height="7.34"/><rect class="h" x="544.98" y="345.5" width="0.89" height="7.34"/><rect class="h" x="546.88" y="345.5" width="0.89" height="7.34"/><rect class="h" x="548.72" y="345.5" width="0.89" height="7.34"/><path class="h" d="M551,345.52v7.29l-.34,0h-.55V345.5h.55Z" transform="translate(0 0)"/><path class="h" d="M552.23,346.2v5.93a1.93,1.93,0,0,1-.89.6v-7.12A2,2,0,0,1,552.23,346.2Z" transform="translate(0 0)"/><path class="i" d="M556.61,340v4.14a1.39,1.39,0,0,1-.32.89,1.84,1.84,0,0,1-.89.59,2.25,2.25,0,0,1-.35.09H476.2a2.27,2.27,0,0,1-.88-.18,1.63,1.63,0,0,1-1-1.26.17.17,0,0,1,0-.07v-4.3a.88.88,0,0,1,0-.16,1.84,1.84,0,0,1,1.88-1.35h78.51a1.88,1.88,0,0,1,.34,0,2,2,0,0,1,.35.08,1.93,1.93,0,0,1,.89.6A1.33,1.33,0,0,1,556.61,340Z" transform="translate(0 0)"/><path class="h" d="M518.06,345.68H476a1.86,1.86,0,0,1-.78-.18,1.6,1.6,0,0,1-.9-1.26.17.17,0,0,1,0-.07v-4.3a.88.88,0,0,1,0-.16s0-.11,0-.17a1.69,1.69,0,0,1,1.63-1.18h36.9a12.93,12.93,0,0,0,4.91,7.15Z" transform="translate(0 0)"/><rect class="h" x="546.17" y="338.35" width="0.89" height="7.33"/><rect class="h" x="543.14" y="338.35" width="0.9" height="7.33"/><rect class="h" x="539.53" y="338.35" width="0.89" height="7.33"/><rect class="h" x="533.97" y="338.35" width="0.89" height="7.33"/><rect class="h" x="528.1" y="338.35" width="0.89" height="7.33"/><rect class="h" x="519.1" y="338.35" width="0.89" height="7.33"/><rect class="h" x="510.67" y="338.35" width="0.89" height="7.33"/><rect class="h" x="503.15" y="338.35" width="0.89" height="7.33"/><rect class="h" x="549.04" y="338.35" width="0.89" height="7.33"/><rect class="h" x="550.94" y="338.35" width="0.89" height="7.33"/><rect class="h" x="552.78" y="338.35" width="0.89" height="7.33"/><path class="h" d="M555.05,338.37v7.29l-.34,0h-.55v-7.33h.55Z" transform="translate(0 0)"/><path class="h" d="M556.29,339.06V345a1.91,1.91,0,0,1-.9.6v-7.12A1.91,1.91,0,0,1,556.29,339.06Z" transform="translate(0 0)"/><path class="i" d="M563,332.61v4.14a1.45,1.45,0,0,1-.32.89l-.09.1a1.92,1.92,0,0,1-.81.5,1.4,1.4,0,0,1-.34.08,1.87,1.87,0,0,1-.34,0H482.61a1.83,1.83,0,0,1-1.88-1.36c0-.05,0-.1,0-.15v-4.31a1.76,1.76,0,0,1,1.67-1.5h78.75a2,2,0,0,1,.34,0,2.09,2.09,0,0,1,.34.08,1.92,1.92,0,0,1,.81.5l.09.09A1.43,1.43,0,0,1,563,332.61Z" transform="translate(0 0)"/><path class="h" d="M524.47,338.35H482.41a1.68,1.68,0,0,1-1.63-1.18,1.21,1.21,0,0,1,0-.18c0-.05,0-.1,0-.15v-4.31a1.55,1.55,0,0,1,0-.21A1.66,1.66,0,0,1,482.2,331h37.11A12.87,12.87,0,0,0,524.47,338.35Z" transform="translate(0 0)"/><rect class="h" x="552.58" y="331.02" width="0.89" height="7.33"/><rect class="h" x="549.56" y="331.02" width="0.89" height="7.33"/><rect class="h" x="545.94" y="331.02" width="0.89" height="7.33"/><rect class="h" x="540.39" y="331.02" width="0.89" height="7.33"/><rect class="h" x="534.51" y="331.02" width="0.9" height="7.33"/><rect class="h" x="525.51" y="331.02" width="0.89" height="7.33"/><rect class="h" x="517.08" y="331.02" width="0.89" height="7.33"/><rect class="h" x="509.56" y="331.01" width="0.89" height="7.34"/><rect class="h" x="555.46" y="331.02" width="0.89" height="7.33"/><rect class="h" x="557.35" y="331.02" width="0.9" height="7.33"/><rect class="h" x="559.19" y="331.02" width="0.89" height="7.33"/><path class="h" d="M561.46,331v7.28l-.33,0h-.56V331h.56Z" transform="translate(0 0)"/><path class="h" d="M562.7,331.72v5.93a2,2,0,0,1-.89.59v-7.12A1.93,1.93,0,0,1,562.7,331.72Z" transform="translate(0 0)"/><path class="i" d="M552.72,325.29v4.14a1.43,1.43,0,0,1-.32.89,1.91,1.91,0,0,1-.9.6,1.21,1.21,0,0,1-.34.08l-.11,0H472.3a1.85,1.85,0,0,1-1.88-1.36.86.86,0,0,1,0-.16v-4.3a.92.92,0,0,1,0-.16,1.85,1.85,0,0,1,1.88-1.36H551l.14,0a1.69,1.69,0,0,1,.34.08l.14.05h0a1.91,1.91,0,0,1,.73.54A1.45,1.45,0,0,1,552.72,325.29Z" transform="translate(0 0)"/><path class="h" d="M514.16,331H472.1a1.68,1.68,0,0,1-1.63-1.19l-.05-.17a.86.86,0,0,1,0-.16v-4.3a.92.92,0,0,1,0-.16.84.84,0,0,1,.05-.17,1.68,1.68,0,0,1,1.63-1.19H509a1.09,1.09,0,0,0,.05.17,12.85,12.85,0,0,0,5.1,7.16Z" transform="translate(0 0)"/><rect class="h" x="542.28" y="323.7" width="0.9" height="7.33"/><rect class="h" x="539.26" y="323.7" width="0.89" height="7.33"/><rect class="h" x="535.63" y="323.7" width="0.89" height="7.33"/><rect class="h" x="530.08" y="323.7" width="0.89" height="7.33"/><rect class="h" x="524.21" y="323.7" width="0.89" height="7.33"/><rect class="h" x="515.21" y="323.7" width="0.89" height="7.33"/><rect class="h" x="506.78" y="323.7" width="0.89" height="7.33"/><rect class="h" x="499.26" y="323.7" width="0.89" height="7.33"/><rect class="h" x="545.15" y="323.7" width="0.89" height="7.33"/><rect class="h" x="547.05" y="323.7" width="0.89" height="7.33"/><rect class="h" x="548.89" y="323.7" width="0.89" height="7.33"/><path class="h" d="M551.16,323.73V331a1.87,1.87,0,0,1-.34,0h-.56V323.7h.56A2,2,0,0,1,551.16,323.73Z" transform="translate(0 0)"/><path class="h" d="M552.4,324.4v5.92a1.91,1.91,0,0,1-.9.6v-7.11A1.9,1.9,0,0,1,552.4,324.4Z" transform="translate(0 0)"/><path class="i" d="M558.49,318.13v4.14a1.39,1.39,0,0,1-.32.89,1.93,1.93,0,0,1-.89.6l-.35.08-.34,0H478.08a2.11,2.11,0,0,1-.85-.17,1.67,1.67,0,0,1-1-1.17.37.37,0,0,1,0-.11s0,0,0-.06v-4.3a.77.77,0,0,1,0-.15,1.78,1.78,0,0,1,1.65-1.36h79l.12,0a2,2,0,0,1,1.24.67A1.42,1.42,0,0,1,558.49,318.13Z" transform="translate(0 0)"/><path class="h" d="M519.94,323.86H477.87a1.69,1.69,0,0,1-.75-.17,1.61,1.61,0,0,1-.92-1.17s0-.07,0-.11,0,0,0-.06v-4.3c0-.05,0-.1,0-.15a1.66,1.66,0,0,1,1.47-1.36h37.11a12.86,12.86,0,0,0,4.92,7.16Z" transform="translate(0 0)"/><rect class="h" x="548.05" y="316.53" width="0.89" height="7.34"/><rect class="h" x="545.03" y="316.53" width="0.89" height="7.34"/><rect class="h" x="541.41" y="316.53" width="0.89" height="7.34"/><rect class="h" x="535.85" y="316.53" width="0.89" height="7.34"/><rect class="h" x="529.98" y="316.53" width="0.89" height="7.34"/><rect class="h" x="520.98" y="316.53" width="0.89" height="7.34"/><rect class="h" x="512.55" y="316.53" width="0.89" height="7.34"/><rect class="h" x="505.03" y="316.53" width="0.89" height="7.33"/><rect class="h" x="550.92" y="316.53" width="0.89" height="7.34"/><rect class="h" x="552.82" y="316.53" width="0.89" height="7.34"/><rect class="h" x="554.66" y="316.53" width="0.89" height="7.34"/><path class="h" d="M556.93,316.56v7.28a1.88,1.88,0,0,1-.34,0H556v-7.33h.55A1.87,1.87,0,0,1,556.93,316.56Z" transform="translate(0 0)"/><path class="h" d="M558.17,317.23v5.93a2,2,0,0,1-.9.6v-7.12A2,2,0,0,1,558.17,317.23Z" transform="translate(0 0)"/><path class="i" d="M561,310.81V315a1.45,1.45,0,0,1-.32.89l-.18.19a2,2,0,0,1-.71.41l-.35.08H480.32a1.8,1.8,0,0,1-1.67-1.35.76.76,0,0,1,0-.15v-4.31a.76.76,0,0,1,0-.15,1.84,1.84,0,0,1,1.88-1.36h78.52a1.76,1.76,0,0,1,.33,0,2.09,2.09,0,0,1,.36.08,1.91,1.91,0,0,1,.89.59A1.48,1.48,0,0,1,561,310.81Z" transform="translate(0 0)"/><path class="h" d="M522.39,316.54H480.15a1.65,1.65,0,0,1-1.5-1.35.71.71,0,0,1,0-.15v-4.3a.86.86,0,0,1,0-.16,1.54,1.54,0,0,1,.05-.17,1.68,1.68,0,0,1,1.63-1.19h36.9a12.83,12.83,0,0,0,5.15,7.32Z" transform="translate(0 0)"/><rect class="h" x="550.5" y="309.21" width="0.89" height="7.33"/><rect class="h" x="547.48" y="309.21" width="0.89" height="7.33"/><rect class="h" x="543.86" y="309.21" width="0.89" height="7.33"/><rect class="h" x="538.31" y="309.21" width="0.89" height="7.33"/><rect class="h" x="532.44" y="309.21" width="0.89" height="7.33"/><rect class="h" x="523.43" y="309.21" width="0.89" height="7.33"/><rect class="h" x="515.01" y="309.21" width="0.89" height="7.33"/><rect class="h" x="507.48" y="309.21" width="0.89" height="7.33"/><rect class="h" x="553.38" y="309.21" width="0.89" height="7.33"/><rect class="h" x="555.28" y="309.21" width="0.89" height="7.33"/><rect class="h" x="557.11" y="309.21" width="0.89" height="7.33"/><path class="h" d="M559.38,309.23v7.29l-.33,0h-.56v-7.33h.56Z" transform="translate(0 0)"/><path class="h" d="M560.62,309.91v5.93a2,2,0,0,1-.89.6v-7.12A1.82,1.82,0,0,1,560.62,309.91Z" transform="translate(0 0)"/><path class="j" d="M470.18,389.48A39.17,39.17,0,1,0,431,350.31,39.17,39.17,0,0,0,470.18,389.48Z" transform="translate(0 0)"/><path class="i" d="M466.76,389.48a39.17,39.17,0,1,0-39.16-39.17A39.17,39.17,0,0,0,466.76,389.48Z" transform="translate(0 0)"/><path class="h" d="M466.76,317.2a33.57,33.57,0,1,0,33.55,33.57A33.6,33.6,0,0,0,466.76,317.2Zm0,69.26A35.7,35.7,0,1,1,492,376,35.45,35.45,0,0,1,466.76,386.46Z" transform="translate(0 0)"/><path class="h" d="M471.67,361.13a6.16,6.16,0,0,0-.08-2.08,4.24,4.24,0,0,0-.88-1.71,8.21,8.21,0,0,0-1.75-1.55,22.08,22.08,0,0,0-2.71-1.52q-2.79-1.36-5-2.75a17.68,17.68,0,0,1-3.75-3.06,10.25,10.25,0,0,1-2.21-3.72,11.81,11.81,0,0,1,1-8.91,10.08,10.08,0,0,1,2.77-3.08,12.3,12.3,0,0,1,4-1.88,16.24,16.24,0,0,1,4.94-.57l.7-5.89,4.74.57-.71,6a15,15,0,0,1,4.45,1.9,11.15,11.15,0,0,1,5,7.16,15,15,0,0,1,.2,5.05l-8.56-1a7.26,7.26,0,0,0-.87-5.11,5.08,5.08,0,0,0-3.73-2.1,6.59,6.59,0,0,0-2.34.1,4.36,4.36,0,0,0-1.7.83,4.28,4.28,0,0,0-1.1,1.42,6.08,6.08,0,0,0-.52,1.86,5.56,5.56,0,0,0,.07,1.88,4.1,4.1,0,0,0,.85,1.64,7.62,7.62,0,0,0,1.76,1.55,27.13,27.13,0,0,0,2.82,1.63c1.83.95,3.49,1.88,5,2.82a17.86,17.86,0,0,1,3.73,3.08,10.07,10.07,0,0,1,2.59,8.46,10.6,10.6,0,0,1-1.36,4.24,9.76,9.76,0,0,1-2.77,3.05,11.76,11.76,0,0,1-4,1.81,17.82,17.82,0,0,1-5,.53l-.65,5.47-4.7-.56.64-5.44a19.54,19.54,0,0,1-4.62-1.64,12.59,12.59,0,0,1-3.78-2.86,11.26,11.26,0,0,1-2.38-4.25,13.88,13.88,0,0,1-.39-5.79l8.55,1A8.48,8.48,0,0,0,460,361a5.24,5.24,0,0,0,3.17,3.61,9.44,9.44,0,0,0,2.35.6,7.76,7.76,0,0,0,2.48-.07,5.4,5.4,0,0,0,1.88-.78A4.17,4.17,0,0,0,471.1,363,5.33,5.33,0,0,0,471.67,361.13Z" transform="translate(0 0)"/><path class="i" d="M244.3,384.26v4.15a1.42,1.42,0,0,1-.32.88,1.91,1.91,0,0,1-.9.6,2.09,2.09,0,0,1-.34.08,1.87,1.87,0,0,1-.34,0H163.89a1.8,1.8,0,0,1-1.9-1.52s0-.05,0-.08v-4.14a.22.22,0,0,1,0-.08,1.8,1.8,0,0,1,1.9-1.52H242.4a1.87,1.87,0,0,1,.34,0l.34.08a2,2,0,0,1,.9.6A1.45,1.45,0,0,1,244.3,384.26Z" transform="translate(0 0)"/><path class="h" d="M205.75,390H163.68a1.68,1.68,0,0,1-1.7-1.52v-4.3a1.67,1.67,0,0,1,1.7-1.51h36.9A12.86,12.86,0,0,0,205.75,390Z" transform="translate(0 0)"/><rect class="h" x="233.86" y="382.66" width="0.89" height="7.34"/><rect class="h" x="230.84" y="382.66" width="0.89" height="7.34"/><rect class="h" x="227.21" y="382.66" width="0.89" height="7.34"/><rect class="h" x="221.66" y="382.66" width="0.89" height="7.34"/><rect class="h" x="215.79" y="382.66" width="0.9" height="7.34"/><rect class="h" x="206.79" y="382.66" width="0.89" height="7.34"/><rect class="h" x="198.36" y="382.66" width="0.89" height="7.34"/><rect class="h" x="190.83" y="382.66" width="0.89" height="7.34"/><rect class="h" x="236.73" y="382.66" width="0.89" height="7.34"/><rect class="h" x="238.63" y="382.66" width="0.9" height="7.34"/><rect class="h" x="240.46" y="382.66" width="0.89" height="7.34"/><path class="h" d="M242.74,382.69V390a1.87,1.87,0,0,1-.34,0h-.56v-7.34h.56A1.87,1.87,0,0,1,242.74,382.69Z" transform="translate(0 0)"/><path class="h" d="M244,383.37v5.92a1.84,1.84,0,0,1-.9.6v-7.12A2,2,0,0,1,244,383.37Z" transform="translate(0 0)"/><path class="i" d="M235.91,376.93v4.14a1.4,1.4,0,0,1-.33.89,1.83,1.83,0,0,1-.89.6,2,2,0,0,1-.35.08,1.83,1.83,0,0,1-.33,0H155.49a1.78,1.78,0,0,1-1.89-1.51s0,0,0-.08v-4.14a.19.19,0,0,1,0-.08,1.79,1.79,0,0,1,1.89-1.52h78.85a1.37,1.37,0,0,1,.35.08l.05,0h0l.09,0,.06,0,0,0a.19.19,0,0,1,.09.05l.1.06.08.05h0a.1.1,0,0,1,.05,0l.14.11s0,0,0,0l0,0a.31.31,0,0,1,.07.09A1.38,1.38,0,0,1,235.91,376.93Z" transform="translate(0 0)"/><path class="h" d="M197.35,382.66H155.29a1.64,1.64,0,0,1-1.69-1.51s0,0,0-.08v-4.14a.19.19,0,0,1,0-.08,1.65,1.65,0,0,1,1.69-1.52h36.9a1.21,1.21,0,0,0,.05.18A12.76,12.76,0,0,0,197.35,382.66Z" transform="translate(0 0)"/><rect class="h" x="225.46" y="375.33" width="0.89" height="7.34"/><rect class="h" x="222.44" y="375.33" width="0.89" height="7.34"/><rect class="h" x="218.82" y="375.33" width="0.89" height="7.34"/><rect class="h" x="213.27" y="375.33" width="0.89" height="7.34"/><rect class="h" x="207.39" y="375.33" width="0.89" height="7.34"/><rect class="h" x="198.39" y="375.33" width="0.89" height="7.34"/><rect class="h" x="189.97" y="375.33" width="0.89" height="7.34"/><rect class="h" x="182.44" y="375.33" width="0.9" height="7.33"/><rect class="h" x="228.34" y="375.33" width="0.89" height="7.34"/><rect class="h" x="230.24" y="375.33" width="0.89" height="7.34"/><rect class="h" x="232.07" y="375.33" width="0.89" height="7.34"/><path class="h" d="M234.34,375.36v7.28l-.33,0h-.56v-7.33H234A1.76,1.76,0,0,1,234.34,375.36Z" transform="translate(0 0)"/><path class="h" d="M235.58,376V382a1.83,1.83,0,0,1-.89.6v-7.12A1.77,1.77,0,0,1,235.58,376Z" transform="translate(0 0)"/><path class="i" d="M240,369.77v4.15a1.46,1.46,0,0,1-.33.89,2,2,0,0,1-.89.6l-.35.08a1.83,1.83,0,0,1-.33,0H159.55a2.13,2.13,0,0,1-.88-.18,1.62,1.62,0,0,1-1-1.26.2.2,0,0,1,0-.07v-4.31a1.79,1.79,0,0,1,1.9-1.51h78.51a1.87,1.87,0,0,1,.34,0,2.21,2.21,0,0,1,.35.08,1.93,1.93,0,0,1,.89.6A1.43,1.43,0,0,1,240,369.77Z" transform="translate(0 0)"/><path class="h" d="M201.41,375.51H159.34a1.72,1.72,0,0,1-.78-.18,1.6,1.6,0,0,1-.91-1.26v-4.38a1.66,1.66,0,0,1,1.69-1.51h36.9a12.9,12.9,0,0,0,4.91,7.15C201.24,375.39,201.32,375.46,201.41,375.51Z" transform="translate(0 0)"/><rect class="h" x="229.52" y="368.18" width="0.9" height="7.33"/><rect class="h" x="226.5" y="368.18" width="0.89" height="7.33"/><rect class="h" x="222.87" y="368.18" width="0.89" height="7.33"/><rect class="h" x="217.32" y="368.18" width="0.9" height="7.33"/><rect class="h" x="211.45" y="368.18" width="0.89" height="7.33"/><rect class="h" x="202.45" y="368.18" width="0.9" height="7.33"/><rect class="h" x="194.02" y="368.18" width="0.89" height="7.33"/><rect class="h" x="186.5" y="368.18" width="0.9" height="7.34"/><rect class="h" x="232.4" y="368.18" width="0.89" height="7.33"/><rect class="h" x="234.3" y="368.18" width="0.89" height="7.33"/><rect class="h" x="236.13" y="368.18" width="0.89" height="7.33"/><path class="h" d="M238.4,368.21v7.28a1.83,1.83,0,0,1-.33,0h-.56v-7.33h.56Z" transform="translate(0 0)"/><path class="h" d="M239.64,368.89v5.92a1.88,1.88,0,0,1-.89.6v-7.12A1.88,1.88,0,0,1,239.64,368.89Z" transform="translate(0 0)"/><path class="i" d="M241.85,362.45v4.14a1.38,1.38,0,0,1-.33.89,1.88,1.88,0,0,1-.89.6,2.21,2.21,0,0,1-.35.08l-.33,0H161.43a1.79,1.79,0,0,1-1.9-1.51v-4.3a1.77,1.77,0,0,1,1.68-1.51H240l.33,0a1.47,1.47,0,0,1,.35.08,1.93,1.93,0,0,1,.89.6A1.38,1.38,0,0,1,241.85,362.45Z" transform="translate(0 0)"/><path class="h" d="M203.29,368.18H161.22a1.66,1.66,0,0,1-1.69-1.51v-4.3a1.65,1.65,0,0,1,1.49-1.51h37.1A12.88,12.88,0,0,0,203.29,368.18Z" transform="translate(0 0)"/><rect class="h" x="231.4" y="360.85" width="0.89" height="7.33"/><rect class="h" x="228.38" y="360.85" width="0.89" height="7.33"/><rect class="h" x="224.75" y="360.85" width="0.9" height="7.33"/><rect class="h" x="219.2" y="360.85" width="0.89" height="7.33"/><rect class="h" x="213.33" y="360.85" width="0.9" height="7.33"/><rect class="h" x="204.33" y="360.85" width="0.89" height="7.33"/><rect class="h" x="195.9" y="360.85" width="0.89" height="7.33"/><rect class="h" x="188.38" y="360.85" width="0.89" height="7.33"/><rect class="h" x="234.27" y="360.85" width="0.9" height="7.33"/><rect class="h" x="236.18" y="360.85" width="0.89" height="7.33"/><rect class="h" x="238.01" y="360.85" width="0.89" height="7.33"/><path class="h" d="M240.28,360.88v7.28l-.33,0h-.56v-7.33H240Z" transform="translate(0 0)"/><path class="h" d="M241.52,361.55v5.93a1.88,1.88,0,0,1-.89.6V361A1.94,1.94,0,0,1,241.52,361.55Z" transform="translate(0 0)"/><path class="i" d="M236.07,355.12v4.15a1.47,1.47,0,0,1-.32.89,2,2,0,0,1-.9.59,1.3,1.3,0,0,1-.34.08l-.11,0H155.66a1.8,1.8,0,0,1-1.9-1.51V355a.2.2,0,0,1,0-.07,1.7,1.7,0,0,1,1.42-1.39h.06a1.84,1.84,0,0,1,.41,0h78.85l.34.08a1.91,1.91,0,0,1,.9.6A1.45,1.45,0,0,1,236.07,355.12Z" transform="translate(0 0)"/><path class="h" d="M197.52,360.86H155.45a1.66,1.66,0,0,1-1.69-1.51V355a.13.13,0,0,1,0-.06,1.62,1.62,0,0,1,1.31-1.41h.07l.3,0h36.9l0,.05a12.76,12.76,0,0,0,5.13,7.27Z" transform="translate(0 0)"/><rect class="h" x="225.63" y="353.53" width="0.89" height="7.34"/><rect class="h" x="222.61" y="353.53" width="0.89" height="7.34"/><rect class="h" x="218.99" y="353.53" width="0.89" height="7.34"/><rect class="h" x="213.43" y="353.53" width="0.89" height="7.34"/><rect class="h" x="207.56" y="353.53" width="0.89" height="7.34"/><rect class="h" x="198.56" y="353.53" width="0.89" height="7.34"/><rect class="h" x="190.13" y="353.53" width="0.89" height="7.34"/><rect class="h" x="182.61" y="353.53" width="0.89" height="7.33"/><rect class="h" x="228.5" y="353.53" width="0.89" height="7.34"/><rect class="h" x="230.4" y="353.53" width="0.89" height="7.34"/><rect class="h" x="232.24" y="353.53" width="0.89" height="7.34"/><path class="h" d="M234.51,353.55v7.28a1.87,1.87,0,0,1-.34,0h-.55v-7.33h.55Z" transform="translate(0 0)"/><path class="h" d="M235.75,354.23v5.93a2,2,0,0,1-.9.59v-7.11A1.83,1.83,0,0,1,235.75,354.23Z" transform="translate(0 0)"/><path class="i" d="M235.91,347.85V352a1.36,1.36,0,0,1-.33.89,1.77,1.77,0,0,1-.89.6,1.34,1.34,0,0,1-.27.07l-.08,0-.33,0H155.15a1.72,1.72,0,0,1-1.55-1.49s0-.05,0-.08v-4.14a.28.28,0,0,1,0-.09,1.79,1.79,0,0,1,1.89-1.51h78.85a1.37,1.37,0,0,1,.35.08h.05l0,0,.09,0,.1.05a.19.19,0,0,1,.09,0l.1.06.08.05h0a.1.1,0,0,1,.05,0l.14.11,0,0,0,0,.07.08A1.43,1.43,0,0,1,235.91,347.85Z" transform="translate(0 0)"/><path class="h" d="M197.35,353.58H155.08a1.63,1.63,0,0,1-1.48-1.5s0-.05,0-.08v-4.14a.28.28,0,0,1,0-.09,1.65,1.65,0,0,1,1.69-1.51h36.9a1.21,1.21,0,0,0,.05.18,12.76,12.76,0,0,0,5,7.1Z" transform="translate(0 0)"/><rect class="h" x="225.46" y="346.25" width="0.89" height="7.34"/><rect class="h" x="222.44" y="346.25" width="0.89" height="7.34"/><rect class="h" x="218.82" y="346.25" width="0.89" height="7.34"/><rect class="h" x="213.27" y="346.25" width="0.89" height="7.34"/><rect class="h" x="207.39" y="346.25" width="0.89" height="7.34"/><rect class="h" x="198.39" y="346.25" width="0.89" height="7.34"/><rect class="h" x="189.97" y="346.25" width="0.89" height="7.34"/><rect class="h" x="202.84" y="346.25" width="0.9" height="7.34"/><rect class="h" x="228.34" y="346.25" width="0.89" height="7.34"/><rect class="h" x="230.24" y="346.25" width="0.89" height="7.34"/><rect class="h" x="232.07" y="346.25" width="0.89" height="7.34"/><path class="h" d="M234.34,346.28v7.28l-.33,0h-.56v-7.33H234A1.76,1.76,0,0,1,234.34,346.28Z" transform="translate(0 0)"/><path class="h" d="M235.58,347v5.93a1.9,1.9,0,0,1-.89.6v-7.12A1.82,1.82,0,0,1,235.58,347Z" transform="translate(0 0)"/><path class="i" d="M240,340.69v4.14a1.44,1.44,0,0,1-.33.89,1.88,1.88,0,0,1-.89.6,2.21,2.21,0,0,1-.35.08,1.84,1.84,0,0,1-.33,0H159.55a2.13,2.13,0,0,1-.88-.18,1.65,1.65,0,0,1-1-1.26.22.22,0,0,1,0-.08v-4.3a1.79,1.79,0,0,1,1.9-1.51h78.51a1.87,1.87,0,0,1,.34,0,1.47,1.47,0,0,1,.35.08,1.91,1.91,0,0,1,.89.59A1.46,1.46,0,0,1,240,340.69Z" transform="translate(0 0)"/><path class="h" d="M201.41,346.43H159.34a1.72,1.72,0,0,1-.78-.18,1.63,1.63,0,0,1-.91-1.26v-4.38a1.66,1.66,0,0,1,1.69-1.51h36.9a12.9,12.9,0,0,0,4.91,7.15Z" transform="translate(0 0)"/><rect class="h" x="229.52" y="339.09" width="0.9" height="7.34"/><rect class="h" x="226.5" y="339.09" width="0.89" height="7.34"/><rect class="h" x="222.87" y="339.09" width="0.89" height="7.34"/><rect class="h" x="217.32" y="339.09" width="0.9" height="7.34"/><rect class="h" x="211.45" y="339.09" width="0.89" height="7.34"/><rect class="h" x="202.45" y="339.09" width="0.9" height="7.34"/><rect class="h" x="194.02" y="339.09" width="0.89" height="7.34"/><rect class="h" x="186.5" y="339.09" width="0.9" height="7.34"/><rect class="h" x="232.4" y="339.09" width="0.89" height="7.34"/><rect class="h" x="234.3" y="339.09" width="0.89" height="7.34"/><rect class="h" x="236.13" y="339.09" width="0.89" height="7.34"/><path class="h" d="M238.4,339.12v7.28a1.84,1.84,0,0,1-.33,0h-.56v-7.34h.56Z" transform="translate(0 0)"/><path class="h" d="M239.64,339.8v5.93a2,2,0,0,1-.89.6v-7.12A1.8,1.8,0,0,1,239.64,339.8Z" transform="translate(0 0)"/><path class="i" d="M246.38,333.36v4.14a1.38,1.38,0,0,1-.33.89,1.83,1.83,0,0,1-.89.6,1.4,1.4,0,0,1-.34.08,1.87,1.87,0,0,1-.34,0H166a1.79,1.79,0,0,1-1.89-1.52s0-.05,0-.08v-4.14a.25.25,0,0,1,0-.08,1.74,1.74,0,0,1,1.67-1.5h78.74l.33,0a2,2,0,0,1,.35.09,1.84,1.84,0,0,1,.89.59A1.42,1.42,0,0,1,246.38,333.36Z" transform="translate(0 0)"/><path class="h" d="M207.82,339.1H165.76a1.65,1.65,0,0,1-1.69-1.52s0-.05,0-.08v-4.14a.25.25,0,0,1,0-.08,1.64,1.64,0,0,1,1.49-1.5h37.1A12.89,12.89,0,0,0,207.82,339.1Z" transform="translate(0 0)"/><rect class="h" x="235.94" y="331.77" width="0.89" height="7.33"/><rect class="h" x="232.91" y="331.77" width="0.89" height="7.33"/><rect class="h" x="229.29" y="331.77" width="0.89" height="7.33"/><rect class="h" x="223.74" y="331.77" width="0.89" height="7.33"/><rect class="h" x="217.87" y="331.77" width="0.89" height="7.33"/><rect class="h" x="208.87" y="331.77" width="0.89" height="7.33"/><rect class="h" x="200.44" y="331.77" width="0.89" height="7.33"/><rect class="h" x="192.91" y="331.76" width="0.89" height="7.34"/><rect class="h" x="238.81" y="331.77" width="0.89" height="7.33"/><rect class="h" x="240.71" y="331.77" width="0.89" height="7.33"/><rect class="h" x="242.54" y="331.77" width="0.89" height="7.33"/><path class="h" d="M244.82,331.79v7.28a2,2,0,0,1-.34,0h-.56v-7.34h.56Z" transform="translate(0 0)"/><path class="h" d="M246.05,332.47v5.92a1.83,1.83,0,0,1-.89.6v-7.11A1.75,1.75,0,0,1,246.05,332.47Z" transform="translate(0 0)"/><path class="i" d="M236.07,326v4.14a1.43,1.43,0,0,1-.32.89,1.91,1.91,0,0,1-.9.6,1.3,1.3,0,0,1-.34.08l-.11,0H155.66a1.79,1.79,0,0,1-1.9-1.51V326a1.79,1.79,0,0,1,1.9-1.51h78.61a2,2,0,0,1,.24,0,1.21,1.21,0,0,1,.34.08.85.85,0,0,1,.17.06l.1,0h0l.09.05h0l.09,0a1.24,1.24,0,0,1,.18.14s0,0,.06.05h0l0,0h0l0,.05.08.09A1.4,1.4,0,0,1,236.07,326Z" transform="translate(0 0)"/><path class="h" d="M197.52,331.78H155.45a1.67,1.67,0,0,1-1.69-1.52V326a1.66,1.66,0,0,1,1.69-1.51h36.9a1,1,0,0,1,.05.16,12.74,12.74,0,0,0,5.1,7.15Z" transform="translate(0 0)"/><rect class="h" x="225.63" y="324.45" width="0.9" height="7.33"/><rect class="h" x="222.61" y="324.45" width="0.9" height="7.33"/><rect class="h" x="218.99" y="324.45" width="0.89" height="7.33"/><rect class="h" x="213.43" y="324.45" width="0.9" height="7.33"/><rect class="h" x="207.57" y="324.45" width="0.89" height="7.33"/><rect class="h" x="198.56" y="324.45" width="0.9" height="7.33"/><rect class="h" x="190.14" y="324.45" width="0.89" height="7.33"/><rect class="h" x="182.61" y="324.45" width="0.89" height="7.33"/><rect class="h" x="228.5" y="324.45" width="0.9" height="7.33"/><rect class="h" x="230.41" y="324.45" width="0.89" height="7.33"/><rect class="h" x="232.24" y="324.45" width="0.9" height="7.33"/><path class="h" d="M234.51,324.47v7.28a1.87,1.87,0,0,1-.34,0h-.55v-7.33h.55Z" transform="translate(0 0)"/><path class="h" d="M235.75,325.15v5.92a1.88,1.88,0,0,1-.89.6v-7.12A1.88,1.88,0,0,1,235.75,325.15Z" transform="translate(0 0)"/><path class="i" d="M241.85,318.88V323a1.43,1.43,0,0,1-.33.9,1.89,1.89,0,0,1-.89.59,1.51,1.51,0,0,1-.34.08l-.34,0H161.43a2.19,2.19,0,0,1-.85-.17,1.63,1.63,0,0,1-1-1.28s0,0,0-.06V318.8a1.76,1.76,0,0,1,1.68-1.5H240l.34,0a2.14,2.14,0,0,1,.34.09,1.86,1.86,0,0,1,.89.6A1.33,1.33,0,0,1,241.85,318.88Z" transform="translate(0 0)"/><path class="h" d="M203.29,324.62H161.23a1.73,1.73,0,0,1-.76-.17,1.59,1.59,0,0,1-.93-1.28s0,0,0-.06V318.8a1.66,1.66,0,0,1,1.5-1.5h37.1a12.82,12.82,0,0,0,4.92,7.15Z" transform="translate(0 0)"/><rect class="h" x="231.4" y="317.29" width="0.9" height="7.33"/><rect class="h" x="228.38" y="317.29" width="0.89" height="7.33"/><rect class="h" x="224.75" y="317.29" width="0.89" height="7.33"/><rect class="h" x="219.2" y="317.29" width="0.9" height="7.33"/><rect class="h" x="213.33" y="317.29" width="0.89" height="7.33"/><rect class="h" x="204.33" y="317.29" width="0.89" height="7.33"/><rect class="h" x="195.9" y="317.29" width="0.89" height="7.33"/><rect class="h" x="188.38" y="317.29" width="0.9" height="7.33"/><rect class="h" x="234.27" y="317.29" width="0.9" height="7.33"/><rect class="h" x="236.18" y="317.29" width="0.89" height="7.33"/><rect class="h" x="238.01" y="317.29" width="0.89" height="7.33"/><path class="h" d="M240.28,317.31v7.28a1.84,1.84,0,0,1-.33,0h-.56v-7.33H240A1.83,1.83,0,0,1,240.28,317.31Z" transform="translate(0 0)"/><path class="h" d="M241.52,318v5.92a1.83,1.83,0,0,1-.89.6v-7.12A1.83,1.83,0,0,1,241.52,318Z" transform="translate(0 0)"/><path class="i" d="M244.3,311.56v4.14a1.43,1.43,0,0,1-.32.89,1.91,1.91,0,0,1-.9.6,2.09,2.09,0,0,1-.34.08l-.11,0H163.89a1.79,1.79,0,0,1-1.9-1.51s0,0,0-.08v-4.14a.28.28,0,0,1,0-.09,1.8,1.8,0,0,1,1.9-1.51H242.4a1.87,1.87,0,0,1,.34,0,1.3,1.3,0,0,1,.34.08,1.9,1.9,0,0,1,.9.59A1.48,1.48,0,0,1,244.3,311.56Z" transform="translate(0 0)"/><path class="h" d="M205.75,317.3H163.69a1.66,1.66,0,0,1-1.7-1.52s0,0,0-.08v-4.14a.22.22,0,0,1,0-.08,1.66,1.66,0,0,1,1.7-1.52h36.89a12.88,12.88,0,0,0,5.15,7.33Z" transform="translate(0 0)"/><rect class="h" x="233.86" y="309.96" width="0.89" height="7.34"/><rect class="h" x="230.84" y="309.96" width="0.89" height="7.34"/><rect class="h" x="227.21" y="309.96" width="0.89" height="7.34"/><rect class="h" x="221.66" y="309.96" width="0.89" height="7.34"/><rect class="h" x="215.79" y="309.96" width="0.9" height="7.34"/><rect class="h" x="206.79" y="309.96" width="0.89" height="7.34"/><rect class="h" x="198.36" y="309.96" width="0.89" height="7.34"/><rect class="h" x="190.83" y="309.96" width="0.89" height="7.34"/><rect class="h" x="236.73" y="309.96" width="0.89" height="7.34"/><rect class="h" x="238.63" y="309.96" width="0.9" height="7.34"/><rect class="h" x="240.46" y="309.96" width="0.89" height="7.34"/><path class="h" d="M242.74,310v7.28l-.34,0h-.56V310h.56A1.87,1.87,0,0,1,242.74,310Z" transform="translate(0 0)"/><path class="h" d="M244,310.66v5.92a1.84,1.84,0,0,1-.9.6v-7.11A1.9,1.9,0,0,1,244,310.66Z" transform="translate(0 0)"/><path class="j" d="M236.62,297A44.27,44.27,0,1,0,174,297,44.28,44.28,0,0,0,236.62,297Z" transform="translate(0 0)"/><path class="i" d="M232.76,297a44.27,44.27,0,1,0-62.59,0A44.28,44.28,0,0,0,232.76,297Z" transform="translate(0 0)"/><path class="h" d="M201.47,228.28a37.93,37.93,0,1,0,37.92,37.93A38,38,0,0,0,201.47,228.28Zm0,78.27A40.32,40.32,0,1,1,230,294.74,40.11,40.11,0,0,1,201.47,306.55Z" transform="translate(0 0)"/><path class="h" d="M207,277.92a6.88,6.88,0,0,0-.09-2.34,5,5,0,0,0-1-1.95,9.94,9.94,0,0,0-2-1.75,25.05,25.05,0,0,0-3.07-1.71,63.39,63.39,0,0,1-5.67-3.12,20,20,0,0,1-4.23-3.44,11.71,11.71,0,0,1-2.51-4.21,13.31,13.31,0,0,1,1.08-10.08,11.27,11.27,0,0,1,3.12-3.47,14,14,0,0,1,4.48-2.13,18.74,18.74,0,0,1,5.59-.65l.78-6.65,5.35.63-.79,6.75a16.64,16.64,0,0,1,5,2.14,12.77,12.77,0,0,1,5.64,8.09,16.78,16.78,0,0,1,.22,5.71l-9.67-1.15c.3-2.48,0-4.41-1-5.77a5.74,5.74,0,0,0-4.21-2.38,7.29,7.29,0,0,0-2.64.12,5,5,0,0,0-1.93.94,4.48,4.48,0,0,0-1.24,1.6,6.72,6.72,0,0,0-.59,2.1,6.18,6.18,0,0,0,.09,2.12,4.46,4.46,0,0,0,.95,1.86,8.85,8.85,0,0,0,2,1.75,28.9,28.9,0,0,0,3.18,1.84c2.07,1.07,3.94,2.14,5.61,3.19a20.09,20.09,0,0,1,4.22,3.48,12.67,12.67,0,0,1,1.4,14.36,11.13,11.13,0,0,1-3.14,3.44,13.65,13.65,0,0,1-4.5,2.05,19.77,19.77,0,0,1-5.62.59l-.73,6.19-5.32-.64.73-6.15a22.05,22.05,0,0,1-5.22-1.85,14.3,14.3,0,0,1-4.28-3.23,13,13,0,0,1-2.69-4.81,15.88,15.88,0,0,1-.44-6.54l9.66,1.14a9.85,9.85,0,0,0,.18,3.76,6.37,6.37,0,0,0,1.38,2.56,6.07,6.07,0,0,0,2.22,1.52,10.47,10.47,0,0,0,2.64.68,8.91,8.91,0,0,0,2.81-.08,5.89,5.89,0,0,0,2.12-.88,4.61,4.61,0,0,0,1.4-1.55A5.47,5.47,0,0,0,207,277.92Z" transform="translate(0 0)"/><path class="b" d="M540.7,267s-4.17,5.86-8,5.94-9.62-2.71-9.62-2.71-3.5-7.81-1.12-10.87a5.1,5.1,0,0,1,4.87.81,7.32,7.32,0,0,1,1.29,1.23,4.06,4.06,0,0,0,2,1.36c2.72.83,6-1.12,7.16.76a12.77,12.77,0,0,0,2.1,2.49A8.94,8.94,0,0,0,540.7,267Z" transform="translate(0 0)"/><path class="b" d="M486.46,309.22s14.7-35.64,41.17-36.32c0,0,24.43,2.72,25.79,36.32Z" transform="translate(0 0)"/><path class="c" d="M520.38,274s10.61,2.36,13.88,1c0,0,.5-4.43-4-3.81-3.06.43-5-1-6.22-1.64C522.41,268.67,519.94,272.14,520.38,274Z" transform="translate(0 0)"/><path class="d" d="M529.61,267.3c-.68.51-2.76-7.17-2.76-7.17a7.7,7.7,0,0,1,1.29,1.23,4.06,4.06,0,0,0,2,1.36C530.15,262.94,530.27,266.8,529.61,267.3Z" transform="translate(0 0)"/><path class="d" d="M539.4,266c-.14.09-5,3-5.72,3s3.62-5.52,3.62-5.52A12.82,12.82,0,0,0,539.4,266Z" transform="translate(0 0)"/><path class="e" d="M500.82,299.27c-.27-.24,10.41-15.73,13.35-15.84s9.55,3.39,14.33,3.84,9.42-.9,10.33,1.93,3.39,12.85,1.87,14.46S506.69,304.29,500.82,299.27Z" transform="translate(0 0)"/><path class="b" d="M254.85,307.1s8.09,11.4,15.51,11.56,18.71-5.29,18.71-5.29,6.8-15.18,2.19-21.12a9.91,9.91,0,0,0-9.48,1.55,14.66,14.66,0,0,0-2.51,2.4,8,8,0,0,1-3.9,2.65c-5.29,1.61-11.58-2.18-13.93,1.48a25.11,25.11,0,0,1-4.09,4.85A18.69,18.69,0,0,1,254.85,307.1Z" transform="translate(0 0)"/><path class="b" d="M360.35,390s-28.61-69.32-80.09-70.64c0,0-47.53,5.28-50.17,70.64Z" transform="translate(0 0)"/><path class="c" d="M294.36,320.78s-20.64,4.59-27,1.89c0,0-1-8.64,7.73-7.42,6,.83,9.82-2,12.1-3.19C290.42,310.41,295.22,317.16,294.36,320.78Z" transform="translate(0 0)"/><path class="d" d="M276.4,307.76c1.33,1,5.38-14,5.38-14a14.73,14.73,0,0,0-2.51,2.41,8,8,0,0,1-3.89,2.64C275.36,299.29,275.12,306.8,276.4,307.76Z" transform="translate(0 0)"/><path class="d" d="M257.35,305.18c.29.17,9.84,5.88,11.13,5.88s-7-10.73-7-10.73A24.46,24.46,0,0,1,257.35,305.18Z" transform="translate(0 0)"/><path class="e" d="M332.4,369.94c.53-.46-20.24-30.6-26-30.82s-18.58,6.61-27.88,7.49-18.33-1.76-20.09,3.74-6.6,25-3.62,28.13S321,379.69,332.4,369.94Z" transform="translate(0 0)"/><path class="k" d="M251.52,226.25s-.66-3.21,6.76-13.13c1.6-2.14,6.47-10.19,6.47-10.19,1.93-.46,7.93,2.73,9.52,3.7l.5.31s2.56,11.14-2.89,9.88l-.51-.1c-5.28-.82-10.37,4.42-12.69,7.74C257.17,226.62,252.52,226.34,251.52,226.25Z" transform="translate(0 0)"/><path class="k" d="M290.63,204.61s-.65-3.22,6.76-13.13c1.6-2.14,6.48-10.19,6.48-10.19,1.92-.46,7.93,2.73,9.51,3.7.32.19.5.32.5.32s2.57,11.13-2.89,9.87a4.59,4.59,0,0,0-.51-.1c-5.27-.82-10.37,4.41-12.68,7.74C296.29,205,291.64,204.7,290.63,204.61Z" transform="translate(0 0)"/><path class="l" d="M374.12,149.48c-1.52-6.51-18.37-26.82-27-22.12S343,157.62,352,187.75l.42,1.37a389.47,389.47,0,0,0-39.73-3.88l-2.28,10.49c16.35,4.52,48.11,20.22,61.42,27,5.09,2.31,11.08,2.31,12.29-2.17C388.17,205.54,374.12,149.48,374.12,149.48Z" transform="translate(0 0)"/><path class="m" d="M341.93,243.36s-38.58-17.42-62.11-24.46c-2.92-.87-5.59-1.57-7.94-2.08l2.47-10.09s2.31,0,6,0c14.65,0,51.33.86,57.88,8.05C346.51,223.78,341.93,243.36,341.93,243.36Z" transform="translate(0 0)"/><path class="m" d="M371.09,4.63c1.27,2.92,2.28,6.75,1.42,8.76a7.83,7.83,0,0,0-.7,3.95l-2.08.5-2.48.61s-.13-.21-.32-.58-.47-.87-.73-1.47A2.13,2.13,0,0,0,365,14.81a4.57,4.57,0,0,1-2.37-3c-.2-1.23-1.46-3.53-1.1-3.77.86-.59,2.17,3,2.93,3.15a.77.77,0,0,0,.95-.45v0c1.21-2.92-1-10.3.75-10.71C366.84-.15,370.55,3.38,371.09,4.63Z" transform="translate(0 0)"/><path class="m" d="M237.57,63.53c2.15,2.34,5.24,4.81,7.44,4.84a7.89,7.89,0,0,1,3.89.95l1.3-1.69,1.56-2s-.14-.21-.4-.54-2-1.8-2-3a4.6,4.6,0,0,0-1.8-3.39c-1-.67-2.63-2.76-3-2.53-.89.55,1.86,3.19,1.7,4a.76.76,0,0,1-.79.69h0c-3.16-.07-9-5.09-10.1-3.65C234.92,57.72,236.65,62.54,237.57,63.53Z" transform="translate(0 0)"/><path class="n" d="M330.92,154.35c-9.52,2.47-7.13,13.91-5.7,45.33.16,3.56.49,7,1,10.26-13.95-2.8-35.4-3.22-45.78-3.25a19.59,19.59,0,0,0-1.65,6.9,19.94,19.94,0,0,0,3.49,10.85c23.53,7,59.69,18.91,59.69,18.91v0c2.41.63,4.68-.58,6.49-4,7.19-13.79,19.5-105.5,19.5-105.5C368,127.11,340.44,151.88,330.92,154.35Z" transform="translate(0 0)"/><path class="m" d="M315.38,83.94s3.35-8.48-3.16-20.59l9.25,2.06,6.29,1.4a59.41,59.41,0,0,1,2.4,6.12c.36,1,1.68,5.25,2.07,6.55,2.21.1-1,3.45-5.51,4.1A65.87,65.87,0,0,1,315.38,83.94Z" transform="translate(0 0)"/><path class="o" d="M327.76,66.81a59.41,59.41,0,0,1,2.4,6.12c-5.4,1.61-15-3.63-15-3.63a17.62,17.62,0,0,1,6.34-3.89Z" transform="translate(0 0)"/><path class="m" d="M331.92,63.64s-10.72,11.85-18,5.07-13.56-9.83-7-17.69,10.66-6.72,13.64-5S334.52,60.38,331.92,63.64Z" transform="translate(0 0)"/><path class="k" d="M313.32,68s1.1-1.22-.49-2.8-3.4-3.87-1.64-4.57,2.73.38,2.78-.75-2.15-3.93,1.92-7.47,6.94-3.44,8.22-5.86-1-5.48-1-5.48a4.35,4.35,0,0,1-.29,2.51s-.28-7.08-6.51-7.14-8.5,5-10.59,6.9c-4.61,4.13-7.5,6.9-6.55,11.33S307.79,67.38,313.32,68Z" transform="translate(0 0)"/><path class="a" d="M325.22,61.17l4-3.75s1.62,2.48.48,3.56S325.22,61.17,325.22,61.17Z" transform="translate(0 0)"/><path class="p" d="M378.6,38.74c-1.71-10.52-6.83-22.08-6.83-22.08l-5.57-.26s.62,14.26.48,24.23A21.28,21.28,0,0,1,364,50.51c-1.74,2.32-27.22,26.86-28.08,27.64l0,0h0c-2.71.46-2.41,4.92-5.2,5.67-4.64,1.24-12.36-1-16.49.5,0,0-33.1,0-38.13-2.37s-24.68-16.9-24.68-16.9l-3.64,4.24s13.48,26,24.17,30.63c5.82,2.54,18.6,5.6,29,7.86a11.72,11.72,0,0,1,8.69,8c9.82,31.67,4.88,58.37,4.88,58.37A61.48,61.48,0,0,0,335.61,172,113.9,113.9,0,0,0,362,160.88c4.29-5.21,1.75-24.3,1.75-24.3a18.61,18.61,0,0,1,4,8.56c.71,3.85,1.1,6,1.33,7.33a1.74,1.74,0,0,0,2.75,1.1c2.2-1.63,5.34-4.17,6.32-6,3.43-6.51-4.19-33-14.73-51.52a10.36,10.36,0,0,1,.2-10.6C370,75,380,58.54,380.11,55.23A133.69,133.69,0,0,0,378.6,38.74Z" transform="translate(0 0)"/><path class="n" d="M329.94,86.23s8.88,12.61,2.37,24.79-32.12,10.51-36.85,25.74l2.88,9.47,10.7-5.79s.89-8.24,11.42-11.82c20.56-7,25.51-19,21.19-29.83-3.64-9.12-8.92-13.51-8.92-13.51Z" transform="translate(0 0)"/><path class="n" d="M316.21,79.29l10.3,3.4.51,2-12.85-.3A19.33,19.33,0,0,1,316.21,79.29Z" transform="translate(0 0)"/><path class="n" d="M331.29,76.45l.34,5.34s1.35,1.1,1.33.95,2.9-4.57,2.9-4.57A29.06,29.06,0,0,0,331.29,76.45Z" transform="translate(0 0)"/><path class="l" d="M326.51,82.69l5.26-1.77a.8.8,0,0,1,1.05.66l.44,3.54a.81.81,0,0,1-.54.85l-2.31.79a.82.82,0,0,1-.74-.12l-3.38-2.54A.81.81,0,0,1,326.51,82.69Z" transform="translate(0 0)"/><path class="p" d="M365.94,15.65l-.46,4.43s5.58.08,5.58,0,.17-2.2.17-2.2l.93,2.45,2.07-.67-2.37-4A8.63,8.63,0,0,1,365.94,15.65Z" transform="translate(0 0)"/><polygon class="p" points="251.36 65.07 247.72 69.31 248.79 73.45 250.27 72.43 249.54 69.32 252.09 71.42 255.39 67.06 251.36 65.07"/><path class="q" d="M250.57,69a.34.34,0,1,1,.34.34A.34.34,0,0,1,250.57,69Z" transform="translate(0 0)"/><path class="q" d="M370,18.45a.27.27,0,0,1,.27-.27.28.28,0,0,1,.27.27.28.28,0,0,1-.27.27A.28.28,0,0,1,370,18.45Z" transform="translate(0 0)"/><circle class="q" cx="361.97" cy="121.48" r="0.72"/><path class="q" d="M355.54,109.58a.72.72,0,1,1,.72.71A.71.71,0,0,1,355.54,109.58Z" transform="translate(0 0)"/><path class="q" d="M347.67,100.57a.72.72,0,1,1,.72.72A.72.72,0,0,1,347.67,100.57Z" transform="translate(0 0)"/></svg>